<?xml version="1.0" encoding="UTF-8" standalone="no"?>
<!-- Generator: Adobe Illustrator 18.1.1, SVG Export Plug-In . SVG Version: 6.00 Build 0)  -->

<svg
   xmlns:dc="http://purl.org/dc/elements/1.1/"
   xmlns:cc="http://creativecommons.org/ns#"
   xmlns:rdf="http://www.w3.org/1999/02/22-rdf-syntax-ns#"
   xmlns:svg="http://www.w3.org/2000/svg"
   xmlns="http://www.w3.org/2000/svg"
   xmlns:sodipodi="http://sodipodi.sourceforge.net/DTD/sodipodi-0.dtd"
   xmlns:inkscape="http://www.inkscape.org/namespaces/inkscape"
   version="1.1"
   id="Capa_1"
   x="0px"
   y="0px"
   viewBox="0 0 447.064 447.064"
   style="enable-background:new 0 0 447.064 447.064;"
   xml:space="preserve"
   inkscape:version="0.91 r"
   sodipodi:docname="add_cupcake.svg"><metadata
     id="metadata45"><rdf:RDF><cc:Work
         rdf:about=""><dc:format>image/svg+xml</dc:format><dc:type
           rdf:resource="http://purl.org/dc/dcmitype/StillImage" /><dc:title></dc:title></cc:Work></rdf:RDF></metadata><defs
     id="defs43" /><sodipodi:namedview
     pagecolor="#63ffff"
     bordercolor="#666666"
     borderopacity="1"
     objecttolerance="10"
     gridtolerance="10"
     guidetolerance="10"
     inkscape:pageopacity="0"
     inkscape:pageshadow="2"
     inkscape:window-width="1600"
     inkscape:window-height="851"
     id="namedview41"
     showgrid="false"
     inkscape:zoom="0.74654726"
     inkscape:cx="54.434914"
     inkscape:cy="204.52212"
     inkscape:window-x="0"
     inkscape:window-y="0"
     inkscape:window-maximized="1"
     inkscape:current-layer="g5" /><g
     id="g3"><g
       id="g5"><path
         style="fill:#ffffff"
         d="M 163.10742 272.92969 C 143.47642 290.09769 118.20598 299.73633 91.958984 299.73633 C 82.911984 299.73633 74.166719 298.50148 65.761719 296.39648 L 91.78125 436.90625 L 356.30859 436.90625 L 380.49023 306.3457 C 375.03623 307.2727 369.46891 307.86523 363.75391 307.86523 C 340.05891 307.86523 317.73084 299.67294 299.83984 284.58594 C 282.14384 290.57694 263.6662 293.60742 244.7832 293.60742 C 215.8532 293.60742 187.88342 286.49669 163.10742 272.92969 z M 280 317.06445 L 300 317.06445 L 300 357.06445 L 340 357.06445 L 340 377.06445 L 300 377.06445 L 300 417.06445 L 280 417.06445 L 280 377.06445 L 240 377.06445 L 240 357.06445 L 280 357.06445 L 280 317.06445 z "
         id="path7" /><path
         style="fill:#ffffff"
         d="M53.527,274.986c1.479,0.683,2.975,1.341,4.495,1.951c1.463,0.577,2.943,1.114,4.43,1.626    c9.267,3.146,19.167,4.926,29.499,4.926c27.353,0,51.852-12.014,68.695-30.97c23.752,15.582,52.738,24.841,84.131,24.841    c20.955,0,40.822-4.162,58.81-11.518c15.168,15.851,36.489,25.776,60.16,25.776c6.877,0,13.526-0.927,19.923-2.495    c1.455-0.358,2.918-0.683,4.341-1.114c1.504-0.455,2.959-1.024,4.422-1.561c31.856-11.705,54.632-42.22,54.632-78.14    c0-37.196-24.386-68.67-58.03-79.384c-8.023-66.809-69.516-118.767-144.25-118.767c-63.907,0-118.051,38.034-137.462,90.796    c-5.007-0.845-10.12-1.382-15.371-1.382C41.163,99.571,0,140.742,0,191.521C0,228.571,21.955,260.419,53.527,274.986z"
         id="path9" /></g></g><g
     id="g11" /><g
     id="g13" /><g
     id="g15" /><g
     id="g17" /><g
     id="g19" /><g
     id="g21" /><g
     id="g23" /><g
     id="g25" /><g
     id="g27" /><g
     id="g29" /><g
     id="g31" /><g
     id="g33" /><g
     id="g35" /><g
     id="g37" /><g
     id="g39" /></svg>