<?xml version="1.0" encoding="iso-8859-1"?>
<!-- Generator: Adobe Illustrator 18.1.1, SVG Export Plug-In . SVG Version: 6.00 Build 0)  -->
<svg xmlns="http://www.w3.org/2000/svg" xmlns:xlink="http://www.w3.org/1999/xlink" version="1.1" id="Capa_1" x="0px" y="0px" viewBox="0 0 478.165 478.165" style="enable-background:new 0 0 478.165 478.165;" xml:space="preserve" width="512px" height="512px">
<g>
	<path id="Facebook__x28_alt_x29__3_" d="M478.165,79.794C478.165,37.855,440.35,0,398.411,0H79.674C37.835,0,0,37.855,0,79.794   v318.617c0,41.979,37.835,79.754,79.674,79.754h159.408V297.518h-58.396v-79.654h58.396v-31.081   c0-53.495,40.206-101.749,89.656-101.749h64.433v79.754h-64.433c-7.013,0-15.321,8.507-15.321,21.338v31.758h79.774v79.654h-79.774   v180.627h84.994c41.939,0,79.754-37.775,79.754-79.754V79.794z" fill="#006DF0"/>
</g>
<g>
</g>
<g>
</g>
<g>
</g>
<g>
</g>
<g>
</g>
<g>
</g>
<g>
</g>
<g>
</g>
<g>
</g>
<g>
</g>
<g>
</g>
<g>
</g>
<g>
</g>
<g>
</g>
<g>
</g>
</svg>
