<?xml version="1.0" encoding="UTF-8" standalone="no"?>
<!-- Generator: Adobe Illustrator 18.1.1, SVG Export Plug-In . SVG Version: 6.00 Build 0)  -->

<svg
   xmlns:dc="http://purl.org/dc/elements/1.1/"
   xmlns:cc="http://creativecommons.org/ns#"
   xmlns:rdf="http://www.w3.org/1999/02/22-rdf-syntax-ns#"
   xmlns:svg="http://www.w3.org/2000/svg"
   xmlns="http://www.w3.org/2000/svg"
   xmlns:sodipodi="http://sodipodi.sourceforge.net/DTD/sodipodi-0.dtd"
   xmlns:inkscape="http://www.inkscape.org/namespaces/inkscape"
   version="1.1"
   id="Capa_1"
   x="0px"
   y="0px"
   viewBox="0 0 447.064 447.064"
   style="enable-background:new 0 0 447.064 447.064;"
   xml:space="preserve"
   inkscape:version="0.91 r"
   sodipodi:docname="light-cupcake.svg"><metadata
     id="metadata45"><rdf:RDF><cc:Work
         rdf:about=""><dc:format>image/svg+xml</dc:format><dc:type
           rdf:resource="http://purl.org/dc/dcmitype/StillImage" /></cc:Work></rdf:RDF></metadata><defs
     id="defs43" /><sodipodi:namedview
     pagecolor="#ffffff"
     bordercolor="#666666"
     borderopacity="1"
     objecttolerance="10"
     gridtolerance="10"
     guidetolerance="10"
     inkscape:pageopacity="0"
     inkscape:pageshadow="2"
     inkscape:window-width="812"
     inkscape:window-height="480"
     id="namedview41"
     showgrid="false"
     inkscape:zoom="0.52788863"
     inkscape:cx="227.32068"
     inkscape:cy="223.532"
     inkscape:window-x="735"
     inkscape:window-y="183"
     inkscape:window-maximized="0"
     inkscape:current-layer="Capa_1" /><g
     id="g3"
     style="fill:#d6cab3;fill-opacity:1;stroke-width:1;stroke-miterlimit:4;stroke-dasharray:none"><g
       id="g5"
       style="fill:#d6cab3;fill-opacity:1;stroke-width:1;stroke-miterlimit:4;stroke-dasharray:none"><path
         style="fill:#d6cab3;fill-opacity:1;stroke-width:1;stroke-miterlimit:4;stroke-dasharray:none"
         d="M299.839,284.585c-17.696,5.991-36.172,9.023-55.055,9.023c-28.93,0-56.9-7.112-81.676-20.679    c-19.631,17.168-44.902,26.808-71.149,26.808c-9.047,0-17.793-1.236-26.198-3.341l26.02,140.511h264.528l24.182-130.561    c-5.454,0.927-11.022,1.52-16.737,1.52C340.059,307.866,317.73,299.672,299.839,284.585z M171.871,411.058    c-0.39,0.057-0.788,0.081-1.179,0.081c-3.975,0-7.446-2.918-8.031-6.966l-10.177-70.393c-0.642-4.438,2.439-8.568,6.885-9.21    c4.406-0.585,8.568,2.439,9.21,6.885l10.177,70.393C179.398,406.286,176.309,410.416,171.871,411.058z M238.777,403.376    c0,4.487-3.642,8.129-8.129,8.129c-4.487,0-8.129-3.642-8.129-8.129v-71.125c0-4.487,3.642-8.129,8.129-8.129    c4.487,0,8.129,3.642,8.129,8.129V403.376z M298.636,404.173c-0.585,4.048-4.064,6.966-8.031,6.966    c-0.39,0-0.78-0.024-1.179-0.081c-4.438-0.642-7.527-4.763-6.885-9.21l10.177-70.393c0.65-4.446,4.796-7.478,9.21-6.885    c4.438,0.642,7.527,4.763,6.885,9.21L298.636,404.173z"
         id="path7" /><path
         style="fill:#d6cab3;fill-opacity:1;stroke-width:1;stroke-miterlimit:4;stroke-dasharray:none"
         d="M53.527,274.986c1.479,0.683,2.975,1.341,4.495,1.951c1.463,0.577,2.943,1.114,4.43,1.626    c9.267,3.146,19.167,4.926,29.499,4.926c27.353,0,51.852-12.014,68.695-30.97c23.752,15.582,52.738,24.841,84.131,24.841    c20.955,0,40.822-4.162,58.81-11.518c15.168,15.851,36.489,25.776,60.16,25.776c6.877,0,13.526-0.927,19.923-2.495    c1.455-0.358,2.918-0.683,4.341-1.114c1.504-0.455,2.959-1.024,4.422-1.561c31.856-11.705,54.632-42.22,54.632-78.14    c0-37.196-24.386-68.67-58.03-79.384c-8.023-66.809-69.516-118.767-144.25-118.767c-63.907,0-118.051,38.034-137.462,90.796    c-5.007-0.845-10.12-1.382-15.371-1.382C41.163,99.571,0,140.742,0,191.521C0,228.571,21.955,260.419,53.527,274.986z"
         id="path9" /></g></g><g
     id="g11" /><g
     id="g13" /><g
     id="g15" /><g
     id="g17" /><g
     id="g19" /><g
     id="g21" /><g
     id="g23" /><g
     id="g25" /><g
     id="g27" /><g
     id="g29" /><g
     id="g31" /><g
     id="g33" /><g
     id="g35" /><g
     id="g37" /><g
     id="g39" /></svg>