<?xml version="1.0" encoding="UTF-8" standalone="no"?>
<!-- Created with Inkscape (http://www.inkscape.org/) -->

<svg
   xmlns:dc="http://purl.org/dc/elements/1.1/"
   xmlns:cc="http://creativecommons.org/ns#"
   xmlns:rdf="http://www.w3.org/1999/02/22-rdf-syntax-ns#"
   xmlns:svg="http://www.w3.org/2000/svg"
   xmlns="http://www.w3.org/2000/svg"
   xmlns:sodipodi="http://sodipodi.sourceforge.net/DTD/sodipodi-0.dtd"
   xmlns:inkscape="http://www.inkscape.org/namespaces/inkscape"
   id="svg2"
   version="1.1"
   inkscape:version="0.91 r"
   xml:space="preserve"
   width="600"
   height="600"
   viewBox="0 0 600 600"
   sodipodi:docname="people_eating.svg"><metadata
     id="metadata8"><rdf:RDF><cc:Work
         rdf:about=""><dc:format>image/svg+xml</dc:format><dc:type
           rdf:resource="http://purl.org/dc/dcmitype/StillImage" /><dc:title></dc:title></cc:Work></rdf:RDF></metadata><defs
     id="defs6"><clipPath
       clipPathUnits="userSpaceOnUse"
       id="clipPath96"><path
         d="m 4102.92,2860.17 276.309,0 0,174.18 -276.309,0 0,-174.18 z"
         id="path98"
         inkscape:connector-curvature="0" /></clipPath><clipPath
       clipPathUnits="userSpaceOnUse"
       id="clipPath102"><path
         d="m 4102.92,2860.17 276.31,0 0,174.18 -276.31,0 0,-174.18 z"
         id="path104"
         inkscape:connector-curvature="0" /></clipPath><clipPath
       clipPathUnits="userSpaceOnUse"
       id="clipPath106"><path
         d="m 4102.92,2860.17 276.309,0 0,174.18 -276.309,0 0,-174.18 z"
         id="path108"
         inkscape:connector-curvature="0" /></clipPath><clipPath
       clipPathUnits="userSpaceOnUse"
       id="clipPath126"><path
         d="m 3624.06,3079.4 1234.03,0 0,180.191 -1234.03,0 0,-180.191 z"
         id="path128"
         inkscape:connector-curvature="0" /></clipPath><clipPath
       clipPathUnits="userSpaceOnUse"
       id="clipPath132"><path
         d="m 3624.06,3079.4 1234.03,0 0,180.19 -1234.03,0 0,-180.19 z"
         id="path134"
         inkscape:connector-curvature="0" /></clipPath><clipPath
       clipPathUnits="userSpaceOnUse"
       id="clipPath136"><path
         d="m 3624.06,3079.4 1234.03,0 0,180.191 -1234.03,0 0,-180.191 z"
         id="path138"
         inkscape:connector-curvature="0" /></clipPath></defs><sodipodi:namedview
     pagecolor="#ffffff"
     bordercolor="#666666"
     borderopacity="1"
     objecttolerance="10"
     gridtolerance="10"
     guidetolerance="10"
     inkscape:pageopacity="0"
     inkscape:pageshadow="2"
     inkscape:window-width="1600"
     inkscape:window-height="845"
     id="namedview4"
     showgrid="false"
     inkscape:zoom="0.59334116"
     inkscape:cx="299.78107"
     inkscape:cy="510.16368"
     inkscape:window-x="0"
     inkscape:window-y="0"
     inkscape:window-maximized="1"
     inkscape:current-layer="g12" /><g
     id="g10"
     inkscape:groupmode="layer"
     inkscape:label="ink_ext_XXXXXX"
     transform="matrix(1.25,0,0,-1.25,0,600)"><g
       id="g12"
       transform="scale(0.1,0.1)"><path
         d="m 2889.88,2311.33 c 0,0 -6.84,679.33 20.37,700.42 27.2,21.08 108.34,71.13 126.39,-291.1 18.06,-362.22 -108.57,-326.88 -108.57,-326.88 l -8.1,-229.02 -35.24,1.24"
         style="fill:#dedede;fill-opacity:1;fill-rule:nonzero;stroke:none"
         id="path22"
         inkscape:connector-curvature="0" /><path
         d="m 2916.46,2347.99 c 0,0 1027.11,-198.22 828.91,297.32 72.06,36.04 108.11,81.09 108.11,81.09 0,0 756.82,-1081.18 -1009.1,-684.74"
         style="fill:#32648a;fill-opacity:1;fill-rule:nonzero;stroke:none"
         id="path24"
         inkscape:connector-curvature="0" /><path
         d="m 2829.59,1978.59 0,0 c -71.86,0 -130.64,58.79 -130.64,130.64 l 0,207.23 c 0,71.85 58.78,130.64 130.64,130.64 71.85,0 130.64,-58.79 130.64,-130.64 l 0,-207.23 c 0,-71.85 -58.79,-130.64 -130.64,-130.64"
         style="fill:#ffab6b;fill-opacity:1;fill-rule:nonzero;stroke:none"
         id="path26"
         inkscape:connector-curvature="0" /><path
         d="m 4293.21,2.37 171.191,0 0,1108.21 -171.191,0 0,-1108.21 z"
         style="fill:#a87047;fill-opacity:1;fill-rule:nonzero;stroke:none"
         id="path28"
         inkscape:connector-curvature="0" /><path
         d="m 3383.21,2.37 171.191,0 0,1108.21 -171.191,0 0,-1108.21 z"
         style="fill:#a87047;fill-opacity:1;fill-rule:nonzero;stroke:none"
         id="path30"
         inkscape:connector-curvature="0" /><path
         d="m 3410.24,840.28 982.066,0 0,108.117 -982.066,0 0,-108.117 z"
         style="fill:#a87047;fill-opacity:1;fill-rule:nonzero;stroke:none"
         id="path32"
         inkscape:connector-curvature="0" /><path
         d="m 4392.32,840.28 1117.22,0 0,108.117 -1117.22,0 0,-108.117 z"
         style="fill:#a87047;fill-opacity:1;fill-rule:nonzero;stroke:none"
         id="path34"
         inkscape:connector-curvature="0" /><path
         d="m 4392.32,2201.9 1117.22,0 0,871.703 -1117.22,0 0,-871.703 z"
         style="fill:#575757;fill-opacity:1;fill-rule:nonzero;stroke:none"
         id="path36"
         inkscape:connector-curvature="0" /><path
         d="m 4392.32,3020.66 1117.22,0 0,108.121 -1117.22,0 0,-108.121 z"
         style="fill:#a87047;fill-opacity:1;fill-rule:nonzero;stroke:none"
         id="path38"
         inkscape:connector-curvature="0" /><path
         d="m 4392.32,2146.7 1117.22,0 0,108.121 -1117.22,0 0,-108.121 z"
         style="fill:#a87047;fill-opacity:1;fill-rule:nonzero;stroke:none"
         id="path40"
         inkscape:connector-curvature="0" /><path
         d="m 3968.06,120.13 c 0,66.64 54.02,120.66 120.65,120.66 66.64,0 120.64,-54.02 120.64,-120.66 0,-66.63 -54,-120.65 -120.64,-120.65 -66.63,0 -120.65,54.02 -120.65,120.65"
         style="fill:#575757;fill-opacity:1;fill-rule:nonzero;stroke:none"
         id="path42"
         inkscape:connector-curvature="0" /><path
         d="m 4023.49,120.13 c 0,36.02 29.19,65.21 65.22,65.21 36.02,0 65.22,-29.19 65.22,-65.21 0,-36.02 -29.2,-65.2 -65.22,-65.2 -36.03,0 -65.22,29.18 -65.22,65.2"
         style="fill:#4d4d4d;fill-opacity:1;fill-rule:nonzero;stroke:none"
         id="path44"
         inkscape:connector-curvature="0" /><path
         d="m 3333.84,1067.83 2060.82,0 0,143.477 -2060.82,0 0,-143.477 z"
         style="fill:#4d4d4d;fill-opacity:1;fill-rule:nonzero;stroke:none"
         id="path46"
         inkscape:connector-curvature="0" /><path
         d="m 4231.2,1067.83 1261.31,0 0,143.477 -1261.31,0 0,-143.477 z"
         style="fill:#575757;fill-opacity:1;fill-rule:nonzero;stroke:none"
         id="path48"
         inkscape:connector-curvature="0" /><path
         d="m 3735.34,1335.64 991.29,-123.91 c 0,0 446.31,-55.85 414.63,330.82 -25.16,307.28 -1405.92,-206.91 -1405.92,-206.91"
         style="fill:#4994cb;fill-opacity:1;fill-rule:nonzero;stroke:none"
         id="path50"
         inkscape:connector-curvature="0" /><path
         d="m 3667.44,4372.2 c -222.7,-19.2 72.08,-864.93 72.08,-864.93 0,0 276.3,894.96 -72.08,864.93"
         style="fill:#825737;fill-opacity:1;fill-rule:nonzero;stroke:none"
         id="path52"
         inkscape:connector-curvature="0" /><path
         d="m 5260.11,4221.62 c 0,0 81.95,-730.07 -208.59,-983.37 -290.54,-253.27 29.8,931.21 29.8,931.21"
         style="fill:#a87047;fill-opacity:1;fill-rule:nonzero;stroke:none"
         id="path54"
         inkscape:connector-curvature="0" /><path
         d="m 3791.89,3768.98 c -234.01,140.86 -279.84,-305.91 14.54,-156.02"
         style="fill:#f5a567;fill-opacity:1;fill-rule:nonzero;stroke:none"
         id="path56"
         inkscape:connector-curvature="0" /><path
         d="m 3729.36,2877.17 c 48.3,-201.58 12.78,-491.64 20.5,-734.55 l 1281.16,620.57 c -13.86,-10.82 25.21,204.71 25.21,204.71 30.82,368.84 102.72,1019.54 104.39,1259.17 6.68,282.53 -1421.67,839.49 -1472.17,4.44"
         style="fill:#ffab6b;fill-opacity:1;fill-rule:nonzero;stroke:none"
         id="path58"
         inkscape:connector-curvature="0" /><path
         d="m 5073.06,3830.29 c 325.74,178.87 363.96,-430.97 -28.18,-211.34"
         style="fill:#ffab6b;fill-opacity:1;fill-rule:nonzero;stroke:none"
         id="path60"
         inkscape:connector-curvature="0" /><path
         d="m 5076.41,3754.34 c 170.17,54.62 201.57,-158.73 -11.17,-72.96"
         style="fill:#d48e59;fill-opacity:1;fill-rule:nonzero;stroke:none"
         id="path62"
         inkscape:connector-curvature="0" /><path
         d="m 5139.04,3861.64 c 0,0 288.31,468.52 0,462.5 96.11,108.13 186.21,240.27 -48.05,96.11 -264.29,270.3 -1135.24,444.48 -979.07,264.29 -210.23,42.05 -714.78,84.09 -402.44,-138.15 -786.85,18.02 -498.55,-180.19 6.01,-228.25 350.96,-33.43 900.98,-150.17 1219.33,-258.28 -246.27,-438.48 72.08,-973.07 138.15,-252.27"
         style="fill:#a87047;fill-opacity:1;fill-rule:nonzero;stroke:none"
         id="path64"
         inkscape:connector-curvature="0" /><path
         d="m 4053.85,4053.08 -224.97,-78.7 c -11.47,-4.01 -24.12,2.09 -28.13,13.55 l -22.03,62.98 c -4.01,11.46 2.09,24.11 13.55,28.13 l 224.98,78.68 c 11.45,4.01 24.1,-2.08 28.12,-13.55 l 22.03,-62.97 c 4,-11.45 -2.1,-24.12 -13.55,-28.12"
         style="fill:#a87047;fill-opacity:1;fill-rule:nonzero;stroke:none"
         id="path66"
         inkscape:connector-curvature="0" /><path
         d="m 4571.58,3910.39 -238.07,140.11 c -10.47,6.16 -13.99,19.75 -7.84,30.22 l 41.38,70.32 c 6.16,10.46 19.76,13.99 30.23,7.83 l 238.08,-140.12 c 10.46,-6.15 13.98,-19.75 7.82,-30.21 l -41.37,-70.33 c -6.17,-10.46 -19.76,-13.98 -30.23,-7.82"
         style="fill:#a87047;fill-opacity:1;fill-rule:nonzero;stroke:none"
         id="path68"
         inkscape:connector-curvature="0" /><path
         d="m 3811.6,2789.47 639.7,36.05 -342.38,-531.59"
         style="fill:#ffffff;fill-opacity:1;fill-rule:nonzero;stroke:none"
         id="path70"
         inkscape:connector-curvature="0" /><path
         d="m 3238.71,2.38 -883.92,0 c -16.7,15.31 545.35,265.33 545.35,265.33 l 306.45,-73.77 c 6.18,-19.56 46,-171.79 43.09,-188.6 -0.18,-1.1 -4.04,-2.09 -10.97,-2.96"
         style="fill:#4d4d4d;fill-opacity:1;fill-rule:nonzero;stroke:none"
         id="path72"
         inkscape:connector-curvature="0" /><path
         d="m 4066.65,1437.8 69.11,-228.29 -1120.62,-38.24 195.13,-990.13 -324.15,77.65 -69.73,1086.44"
         style="fill:#4286b8;fill-opacity:1;fill-rule:nonzero;stroke:none"
         id="path74"
         inkscape:connector-curvature="0" /><path
         d="m 3672.36,2922.74 140.06,-8.05 266.47,-458.58 319.94,444.34 698.17,126.28 c 17.55,-277.02 57.34,-1457.17 49.97,-1469.99 l -1057.79,-205.05 -338.21,-4.68"
         style="fill:#3b77a3;fill-opacity:1;fill-rule:nonzero;stroke:none"
         id="path76"
         inkscape:connector-curvature="0" /><path
         d="m 4065.15,2347.99 c 0,0 1027.12,-198.22 828.9,297.32 72.08,36.04 108.12,81.09 108.12,81.09 0,0 756.83,-1081.18 -1009.1,-684.74"
         style="fill:#32648a;fill-opacity:1;fill-rule:nonzero;stroke:none"
         id="path78"
         inkscape:connector-curvature="0" /><path
         d="m 4128.29,2971.2 c 0,18.07 -13.34,32.85 -29.64,32.85 -16.3,0 -29.65,-14.78 -29.65,-32.85 l 0,-237.72 c -13.18,5.91 -28.08,10.22 -44.02,12.75 l 0,224.97 c 0,18.07 -13.34,32.85 -29.65,32.85 -16.3,0 -29.64,-14.78 -29.64,-32.85 l 0,-224.39 c -17.25,-2.41 -33.29,-7 -47.43,-13.32 l 0,237.71 c 0,18.07 -13.33,32.85 -29.63,32.85 -16.31,0 -29.65,-14.78 -29.65,-32.85 l -27.1,-264.67 c 0,-16.69 34.49,-88.19 52.62,-99.01 17.73,-16.28 43.58,-28.38 73.57,-33.84 l 0,-465.05 71.13,0 0,465.05 c 29.99,5.46 55.83,17.55 73.57,33.82 18.11,10.78 52.62,82.33 52.62,99.03"
         style="fill:#dedede;fill-opacity:1;fill-rule:nonzero;stroke:none"
         id="path80"
         inkscape:connector-curvature="0" /><path
         d="m 4280.2,2.38 -931.64,0 c -17.59,15.31 580.39,271.86 580.39,271.86 l 318.34,-80.3 c 6.51,-19.56 48.55,-171.79 45.46,-188.6 -0.21,-1.12 -4.64,-2.11 -12.55,-2.96"
         style="fill:#4d4d4d;fill-opacity:1;fill-rule:nonzero;stroke:none"
         id="path82"
         inkscape:connector-curvature="0" /><path
         d="m 3978.28,1978.59 0,0 c -71.86,0 -130.64,58.79 -130.64,130.64 l 0,207.23 c 0,71.85 58.78,130.64 130.64,130.64 71.86,0 130.64,-58.79 130.64,-130.64 l 0,-207.23 c 0,-71.85 -58.78,-130.64 -130.64,-130.64"
         style="fill:#ffab6b;fill-opacity:1;fill-rule:nonzero;stroke:none"
         id="path84"
         inkscape:connector-curvature="0" /><path
         d="m 4161.97,1346.27 565.93,-135.6 -500.42,0.64 -393.82,-56.74 422.91,-988.48 -352.17,97.26 -287.74,1047.28"
         style="fill:#4994cb;fill-opacity:1;fill-rule:nonzero;stroke:none"
         id="path86"
         inkscape:connector-curvature="0" /><path
         d="m 5437.46,2.37 171.188,0 0,3189.48 -171.188,0 0,-3189.48 z"
         style="fill:#a87047;fill-opacity:1;fill-rule:nonzero;stroke:none"
         id="path88"
         inkscape:connector-curvature="0" /><path
         d="m 2550.93,56.57 276.301,0 0,1633.78 -276.301,0 0,-1633.78 z"
         style="fill:#5e5e5e;fill-opacity:1;fill-rule:nonzero;stroke:none"
         id="path90"
         inkscape:connector-curvature="0" /><g
         id="g92"
         transform="translate(-1552,-1344)"><g
           id="g94"
           clip-path="url(#clipPath96)"><g
             id="g100" /><g
             id="g110"><g
               clip-path="url(#clipPath102)"
               id="g112"
               style="opacity:0.19999701"><g
                 id="g114"><g
                   clip-path="url(#clipPath106)"
                   id="g116"><path
                     d="m 4102.93,2860.17 276.301,0 0,174.188 -276.301,0 0,-174.188 z"
                     style="fill:#000000;fill-opacity:1;fill-rule:nonzero;stroke:none"
                     id="path118"
                     inkscape:connector-curvature="0" /></g></g></g></g></g></g><path
         d="m 3225,1609.26 -1071.85,0 c -44.79,0 -81.09,36.29 -81.09,81.09 l 0,144.16 c 0,44.77 36.3,81.08 81.09,81.08 l 1071.85,0 c 44.79,0 81.09,-36.31 81.09,-81.08 l 0,-144.16 c 0,-44.8 -36.3,-81.09 -81.09,-81.09"
         style="fill:#5e5e5e;fill-opacity:1;fill-rule:nonzero;stroke:none"
         id="path120"
         inkscape:connector-curvature="0" /><g
         id="g122"
         transform="translate(-1552,-1344)"><g
           id="g124"
           clip-path="url(#clipPath126)"><g
             id="g130" /><g
             id="g140"><g
               clip-path="url(#clipPath132)"
               id="g142"
               style="opacity:0.19999701"><g
                 id="g144"><g
                   clip-path="url(#clipPath136)"
                   id="g146"><path
                     d="m 4777,3259.59 -1071.85,0 c -44.79,0 -81.09,-36.31 -81.09,-81.09 l 0,-99.1 1234.03,0 0,99.1 c 0,44.78 -36.3,81.09 -81.09,81.09"
                     style="fill:#000000;fill-opacity:1;fill-rule:nonzero;stroke:none"
                     id="path148"
                     inkscape:connector-curvature="0" /></g></g></g></g></g></g><path
         d="m 3945.86,-0.52 -2513.57,0 c -44.79,0 -81.09,36.31 -81.09,81.09 l 0,54.06 c 0,44.78 1207.71,81.08 1252.49,81.08 l 170.77,0 c 44.79,0 1252.49,-36.3 1252.49,-81.08 l 0,-54.06 c 0,-44.78 -36.31,-81.09 -81.09,-81.09"
         style="fill:#5e5e5e;fill-opacity:1;fill-rule:nonzero;stroke:none"
         id="path150"
         inkscape:connector-curvature="0" /><path
         d="m 5288.41,1834.49 -5198.67,0 c -44.79,0 -81.09,36.3 -81.09,81.09 l 0,63.07 c 0,44.78 36.3,81.09 81.09,81.09 l 5198.67,0 c 44.79,0 81.09,-36.31 81.09,-81.09 l 0,-63.07 c 0,-44.79 -36.3,-81.09 -81.09,-81.09"
         style="fill:#a87047;fill-opacity:1;fill-rule:nonzero;stroke:none"
         id="path152"
         inkscape:connector-curvature="0" /><path
         d="m 3880.66,3804.63 c -3.57,1.26 -3.7,15.45 4.29,37.34 1.1,2.72 2.2,5.58 3.55,8.54 1.59,2.9 3.25,5.93 4.97,9.06 1.88,3.1 4.37,6.19 6.75,9.41 2.88,3.06 5.75,6.31 9.62,9.15 7.14,6.01 18.97,10.35 30.56,9.26 11.68,-1.01 21.54,-6.32 29.46,-12.28 8.03,-6.07 14.19,-12.83 19.47,-19.55 5.38,-6.71 9.73,-13.48 13.6,-20.03 7.61,-13.13 12.98,-25.44 16.78,-36.01 7.54,-21.17 8.81,-35.38 4.98,-36.85 -3.9,-1.52 -12.04,9.56 -23.96,27.34 -5.97,8.85 -12.92,19.37 -20.98,30.38 -8.04,10.78 -17.42,22.74 -28,30.76 -5.24,3.98 -10.29,6.4 -14.27,6.96 -3.93,0.47 -7.57,0.08 -11.84,-2.69 -8.55,-5.04 -16.23,-15.04 -21.89,-23.32 -11.63,-16.97 -18.91,-29 -23.09,-27.47"
         style="fill:#996740;fill-opacity:1;fill-rule:nonzero;stroke:none"
         id="path154"
         inkscape:connector-curvature="0" /><path
         d="m 4336.46,3770.93 c -3.58,1.26 -3.71,15.45 4.27,37.34 1.11,2.72 2.2,5.59 3.57,8.54 1.59,2.91 3.25,5.93 4.95,9.06 1.89,3.1 4.38,6.19 6.75,9.41 2.89,3.06 5.77,6.32 9.63,9.15 7.14,6.01 18.96,10.35 30.55,9.26 11.69,-1.01 21.55,-6.32 29.46,-12.28 8.04,-6.07 14.2,-12.83 19.49,-19.55 5.37,-6.71 9.71,-13.48 13.58,-20.03 7.61,-13.13 12.99,-25.44 16.79,-36.01 7.54,-21.17 8.8,-35.38 4.98,-36.85 -3.89,-1.52 -12.03,9.56 -23.96,27.34 -5.97,8.85 -12.93,19.37 -20.97,30.38 -8.05,10.78 -17.43,22.74 -28.01,30.76 -5.24,3.98 -10.29,6.4 -14.27,6.96 -3.93,0.47 -7.57,0.08 -11.84,-2.69 -8.55,-5.04 -16.23,-15.04 -21.89,-23.32 -11.63,-16.97 -18.91,-29 -23.08,-27.47"
         style="fill:#996740;fill-opacity:1;fill-rule:nonzero;stroke:none"
         id="path156"
         inkscape:connector-curvature="0" /><path
         d="m 4620.59,3575.05 c 1.64,0.09 4.93,-16.64 -0.2,-46.59 -2.86,-14.82 -7.82,-32.8 -16.48,-52.51 -8.61,-19.74 -20.92,-41.06 -37.01,-62.79 -32.25,-43.3 -80.24,-87.95 -142.34,-123.39 -61.92,-35.11 -138.61,-61.56 -221.98,-63.68 -20.73,-0.75 -41.4,0.43 -61.39,2.71 -19.87,2.41 -39.4,5.52 -58.38,9.86 -37.97,8.54 -73.8,21.25 -105.88,37.73 -31.91,16.79 -59.99,37.2 -82.95,59.66 -22.79,22.63 -41.02,46.63 -54.29,70.36 -26.94,47.39 -36.43,91.02 -39.4,120.75 -2.91,30 1.07,46.66 2.94,46.41 2.25,-0.16 2.32,-16.36 8.6,-44.59 6.32,-28 18.53,-68.6 46.04,-111.59 13.54,-21.55 31.44,-43.07 53.23,-63.26 21.97,-20.02 48.38,-38.11 78.33,-53.04 30.12,-14.66 63.77,-26 99.69,-33.68 17.94,-3.93 36.5,-6.73 55.43,-8.91 18.82,-2.04 37.85,-3.11 57.22,-2.39 77.59,1.94 149.99,25.89 209.34,57.85 59.53,32.27 106.48,72.95 139.07,112.29 16.26,19.75 29.12,39.11 38.62,57.04 9.56,17.92 15.79,34.3 20.24,47.94 8.26,27.48 9.07,43.86 11.55,43.82"
         style="fill:#996740;fill-opacity:1;fill-rule:nonzero;stroke:none"
         id="path158"
         inkscape:connector-curvature="0" /><path
         d="m 3034.27,2300.69 c 0,-58.47 -29.24,-105.86 -65.32,-105.86 -36.07,0 -65.32,47.39 -65.32,105.86 0,58.47 29.25,105.87 65.32,105.87 36.08,0 65.32,-47.4 65.32,-105.87"
         style="fill:#ffab6b;fill-opacity:1;fill-rule:nonzero;stroke:none"
         id="path160"
         inkscape:connector-curvature="0" /><g
         id="g4314"
         transform="translate(-5784.1934,-256.1764)"><path
           inkscape:connector-curvature="0"
           id="path20"
           style="fill:#ebebeb;fill-opacity:1;fill-rule:nonzero;stroke:none"
           d="m 5192,6400.05 -152.95,0 c 59.71,50.9 97.77,126.52 97.77,210.63 0,152.28 -124.59,276.89 -276.88,276.89 l -310.44,0 c 76.23,39.59 128.69,119.2 128.69,210.61 0,130.53 -106.8,237.34 -237.33,237.34 l -1852.2,0 c -130.53,0 -237.33,-106.81 -237.33,-237.34 0,-91.41 52.47,-171.02 128.69,-210.61 l -310.43,0 c -152.29,0 -276.89,-124.61 -276.89,-276.89 0,-84.11 38.06,-159.73 97.76,-210.63 l -152.93,0 c -152.3,0 -276.89,-124.6 -276.89,-276.87 0,-152.29 124.59,-276.88 276.89,-276.88 l 152.93,0 c -59.7,-50.89 -97.76,-126.51 -97.76,-210.62 0,-152.29 124.6,-276.88 276.89,-276.88 l 310.43,0 c -76.22,-39.62 -128.69,-119.23 -128.69,-210.64 0,-130.52 106.8,-237.32 237.33,-237.32 l 1852.2,0 c 130.53,0 237.33,106.8 237.33,237.32 0,91.41 -52.46,171.02 -128.69,210.64 l 310.44,0 c 152.29,0 276.88,124.59 276.88,276.88 0,84.11 -38.06,159.73 -97.77,210.62 l 152.95,0 c 152.29,0 276.88,124.59 276.88,276.88 0,152.27 -124.59,276.87 -276.88,276.87" /><path
           inkscape:connector-curvature="0"
           id="path162"
           style="fill:#6bd600;fill-opacity:1;fill-rule:nonzero;stroke:none"
           d="m 4398.45,5693.68 c 48.05,48.05 16.01,192.21 16.01,192.21 L 4182.21,5717.7" /><path
           inkscape:connector-curvature="0"
           id="path164"
           style="fill:#ffffff;fill-opacity:1;fill-rule:nonzero;stroke:none"
           d="m 3803.92,6438.16 151.28,149.8 c 0,0 -65.33,63.52 31.55,88.56 96.86,25.02 51.34,-103.35 51.34,-103.35 236.8,49.23 87.24,-121.94 -19.07,-83.24 -39.95,-37.62 -159.48,-154.77 -159.48,-154.77" /><path
           inkscape:connector-curvature="0"
           id="path166"
           style="fill:#db800c;fill-opacity:1;fill-rule:nonzero;stroke:none"
           d="m 3890.43,6417.66 c 84.21,-124.64 -41.2,-371.99 -185.63,-469.56 -144.41,-97.58 -329.75,-75.63 -413.94,49 -84.23,124.64 -35.43,304.78 108.99,402.36 144.41,97.57 406.36,142.83 490.58,18.2" /><path
           inkscape:connector-curvature="0"
           id="path168"
           style="fill:#6bd600;fill-opacity:1;fill-rule:nonzero;stroke:none"
           d="m 2767.1,5693.68 c -48.04,48.05 -16.01,192.21 -16.01,192.21 l 232.25,-168.19" /><path
           inkscape:connector-curvature="0"
           id="path170"
           style="fill:#f48e0e;fill-opacity:1;fill-rule:nonzero;stroke:none"
           d="m 4138.25,5732.72 c 124.73,136.44 130.64,599.15 -319.85,693.76 -450.49,94.6 -725.29,-500.05 -896.48,-450.49 -171.18,49.55 -85.59,-184.71 31.54,-234.26 117.12,-49.55 1040.63,-166.68 1184.79,-9.01" /><path
           inkscape:connector-curvature="0"
           id="path172"
           style="fill:#ffffff;fill-opacity:1;fill-rule:nonzero;stroke:none"
           d="m 4079.69,6367.91 171.19,144.16 c 0,0 -63.08,72.08 40.54,90.1 103.61,18.01 45.04,-112.63 45.04,-112.63 252.29,31.54 81.09,-135.15 -27.02,-85.59 -45.05,-36.04 -180.21,-148.66 -180.21,-148.66" /><path
           inkscape:connector-curvature="0"
           id="path174"
           style="fill:#bf6f0b;fill-opacity:1;fill-rule:nonzero;stroke:none"
           d="m 3846.63,6419.84 c -78.31,-11.64 -156.17,-37.17 -217.52,-71.77 -169.58,-95.66 -240.13,-291.85 -157.57,-438.19 82.55,-146.37 286.94,-187.48 456.53,-91.82 108.42,61.15 213.6,191.17 253.86,315.26 -45.41,124.25 -147.98,238.72 -335.3,286.52" /><path
           inkscape:connector-curvature="0"
           id="path176"
           style="fill:#f48e0e;fill-opacity:1;fill-rule:nonzero;stroke:none"
           d="m 4168.59,6339.11 c 77.67,-137.72 -74.67,-386.25 -234.24,-476.25 -159.57,-90.01 -351.89,-51.34 -429.59,86.37 -77.67,137.73 -11.29,322.32 148.28,412.34 159.57,90.01 437.86,115.26 515.55,-22.46" /><path
           inkscape:connector-curvature="0"
           id="path178"
           style="fill:#6bd600;fill-opacity:1;fill-rule:nonzero;stroke:none"
           d="m 4214.69,5669.65 c 47.25,45.05 15.75,180.2 15.75,180.2 l -228.42,-157.68" /><path
           inkscape:connector-curvature="0"
           id="path180"
           style="fill:#6bd600;fill-opacity:1;fill-rule:nonzero;stroke:none"
           d="m 4002.96,5669.65 c 47.25,45.05 15.75,180.2 15.75,180.2 l -228.42,-157.68" /><path
           inkscape:connector-curvature="0"
           id="path182"
           style="fill:#6bd600;fill-opacity:1;fill-rule:nonzero;stroke:none"
           d="m 2964.92,5669.65 c -47.26,45.05 -15.76,180.2 -15.76,180.2 l 228.43,-157.68" /><path
           inkscape:connector-curvature="0"
           id="path184"
           style="fill:#6bd600;fill-opacity:1;fill-rule:nonzero;stroke:none"
           d="m 3248.73,5669.65 c -47.26,45.05 -15.76,180.2 -15.76,180.2 l 228.43,-157.68" /><path
           inkscape:connector-curvature="0"
           id="path186"
           style="fill:#cfcfcf;fill-opacity:1;fill-rule:nonzero;stroke:none"
           d="m 4566.24,5597.69 -2063.26,0 c -32.19,0 -58.56,26.35 -58.56,58.56 0,32.21 26.37,58.57 58.56,58.57 l 2063.26,0 c 32.21,0 58.56,-26.36 58.56,-58.57 0,-32.21 -26.35,-58.56 -58.56,-58.56" /></g></g></g></svg>