<?xml version="1.0" encoding="UTF-8" standalone="no"?>
<!-- Created with Inkscape (http://www.inkscape.org/) -->

<svg
   xmlns:dc="http://purl.org/dc/elements/1.1/"
   xmlns:cc="http://creativecommons.org/ns#"
   xmlns:rdf="http://www.w3.org/1999/02/22-rdf-syntax-ns#"
   xmlns:svg="http://www.w3.org/2000/svg"
   xmlns="http://www.w3.org/2000/svg"
   xmlns:sodipodi="http://sodipodi.sourceforge.net/DTD/sodipodi-0.dtd"
   xmlns:inkscape="http://www.inkscape.org/namespaces/inkscape"
   id="svg2"
   version="1.1"
   inkscape:version="0.91 r"
   width="85"
   height="85"
   viewBox="0 0 85 85"
   sodipodi:docname="stock-vector-spy-agent-searching-on-laptop-hacker-430358008.jpg">
  <metadata
     id="metadata8">
    <rdf:RDF>
      <cc:Work
         rdf:about="">
        <dc:format>image/svg+xml</dc:format>
        <dc:type
           rdf:resource="http://purl.org/dc/dcmitype/StillImage" />
        <dc:title></dc:title>
      </cc:Work>
    </rdf:RDF>
  </metadata>
  <defs
     id="defs6" />
  <sodipodi:namedview
     pagecolor="#ffffff"
     bordercolor="#666666"
     borderopacity="1"
     objecttolerance="10"
     gridtolerance="10"
     guidetolerance="10"
     inkscape:pageopacity="0"
     inkscape:pageshadow="2"
     inkscape:window-width="1600"
     inkscape:window-height="845"
     id="namedview4"
     showgrid="false"
     inkscape:zoom="3.85"
     inkscape:cx="68.694915"
     inkscape:cy="38.296703"
     inkscape:window-x="0"
     inkscape:window-y="0"
     inkscape:window-maximized="1"
     inkscape:current-layer="svg2" />
  <path
     style="fill:#a84410;fill-opacity:1"
     d="m 15.290308,67.808227 c -5.28,-6.95316 -5.159742,-6.446133 -3.433839,-14.477352 0.69144,-3.2175 1.432353,-6.831294 1.646475,-8.030655 0.474744,-2.659173 1.384332,-4.608069 2.936766,-6.292359 1.537938,-1.668564 2.640927,-2.323278 5.656152,-3.357384 1.371945,-0.470523 2.70651,-0.942585 2.965698,-1.049022 0.322827,-0.13257 1.244775,0.518751 2.927178,2.067948 1.350759,1.243809 2.53041,2.261472 2.621451,2.261472 0.488109,0 -2.62491,-3.973422 -5.223579,-6.66732 -1.520697,-1.576425 -2.101263,-2.365974 -1.815852,-2.469495 0.230751,-0.08369 1.687317,-0.353667 3.236811,-0.59994 1.549494,-0.24627 2.858283,-0.48879 2.908422,-0.538929 0.05014,-0.05014 -0.03316,-0.627372 -0.185103,-1.282737 -0.151947,-0.655368 -0.282159,-2.136579 -0.289365,-3.291579 l -0.01311,-2.1 -2.113938,-0.993201 c -2.376834,-1.116723 -4.920375,-3.376182 -5.23905,-4.653921 -0.528447,-2.11881 1.715373,-3.705432 6.389871,-4.518327 0.902214,-0.156894 0.975342,-0.108522 0.979593,0.647949 0.0024,0.449625 0.116724,0.994305 0.25377,1.210401 0.369825,0.583146 0.995892,-0.530292 1.992114,-3.542901 1.403178,-4.2432599 2.864232,-7.4680217 3.671127,-8.1027247 1.012941,-0.796781 2.25726,-0.742834 4.428396,0.191991 2.67822,1.153161 3.074433,1.163264 5.25,0.133871 2.438352,-1.153733 4.264455,-1.23855 5.154414,-0.239408 0.66915,0.751244 2.126526,4.2002558 3.411306,8.0731777 0.982365,2.961294 1.608318,4.065627 1.975917,3.485994 0.137046,-0.216096 0.251244,-0.760776 0.25377,-1.210401 0.0043,-0.756471 0.07738,-0.804843 0.979593,-0.647949 4.674498,0.812895 6.918318,2.399517 6.389871,4.518327 -0.318675,1.277739 -2.862216,3.537198 -5.23905,4.653921 l -2.113938,0.993201 -0.01311,2.25 c -0.0072,1.2375 -0.129027,2.749005 -0.270717,3.358899 -0.292593,1.259439 -0.59979,1.108098 3.571932,1.759698 1.2375,0.19329 2.356137,0.414165 2.48586,0.490836 0.129723,0.07667 -0.882777,1.318293 -2.25,2.75916 -1.367223,1.440864 -3.089721,3.485511 -3.827772,4.543656 -1.278345,1.832763 -1.2984,1.892916 -0.423354,1.269828 0.505203,-0.359739 1.095294,-0.86703 1.311312,-1.127313 0.216015,-0.260283 1.027086,-1.004331 1.802373,-1.653441 l 1.409616,-1.180197 2.970984,1.056303 c 5.771622,2.052042 7.647162,4.040529 8.839179,9.371475 0.756963,3.385302 2.32944,10.822284 2.758563,13.046541 0.549507,2.848233 0.11631,3.851049 -4.06476,9.409605 -2.008545,2.670276 -3.678471,4.828482 -3.710943,4.79601 -0.03247,-0.03247 0.14544,-4.200009 0.395358,-9.261195 0.505941,-10.245972 0.499812,-10.297818 -1.36578,-11.553666 l -1.019343,-0.686199 -21.780633,0.0012 c -21.073191,0.0012 -21.81183,0.02013 -22.741071,0.586734 -1.934208,1.179354 -1.952124,1.3221 -1.458498,11.621196 0.242994,5.06994 0.414162,9.239661 0.38037,9.266046 -0.03379,0.0264 -1.546437,-1.907598 -3.361437,-4.297746 z M 45.318796,38.050708 c 3.310737,-2.205588 5.277426,-4.427376 6.680922,-7.547499 0.855651,-1.902201 1.54059,-4.95075 1.54059,-6.856896 0,-0.879822 -0.07233,-0.964473 -0.675,-0.789981 -3.103338,0.898527 -5.540088,1.174089 -10.425,1.178919 -4.990428,0.0049 -6.295398,-0.142833 -10.309584,-1.167387 l -0.859587,-0.219396 0.22014,2.216205 c 0.299838,3.018531 1.117005,5.516787 2.498298,7.637841 1.321065,2.028567 3.814287,4.474533 5.926164,5.813847 2.012388,1.276221 3.17436,1.219089 5.403057,-0.265653 z"
     id="path4138"
     inkscape:connector-curvature="0"
     sodipodi:nodetypes="csssssssscsssscssscsssssssscssscssssssssscssssssscssscccsssssscssss" />
  <path
     style="fill:#b3b3b3;fill-opacity:1"
     d="m 20.995485,82.915713 c -0.507264,-0.50726 -0.450669,-1.61043 0.111453,-2.17256 0.423792,-0.42379 2.695833,-0.46535 21.667796,-0.39643 l 21.19437,0.077 0.29568,0.84083 c 0.20084,0.57114 0.19268,1.00414 -0.0255,1.35 -0.29637,0.46989 -1.96286,0.51511 -21.6015,0.58615 -16.302296,0.059 -21.36503,-0.008 -21.642335,-0.285 z m 0.548073,-5.17987 c -0.24519,-0.29543 -0.494919,-3.394073 -0.767649,-9.524999 -0.22233,-4.99791 -0.482871,-10.333314 -0.578979,-11.856453 -0.279459,-4.428945 -2.791182,-3.980658 22.303344,-3.980658 19.81141,0 21.31035,0.03593 21.90372,0.525 l 0.63696,0.525 -0.57748,11.937633 c -0.39309,8.126028 -0.69337,12.077287 -0.94045,12.374997 -0.54689,0.65896 -41.432572,0.65845 -41.979466,-6e-4 z M 43.939174,66.72144 c 1.38244,-1.298742 0.49136,-3.547707 -1.40567,-3.547707 -1.87003,0 -2.74672,2.122929 -1.44771,3.505665 0.81881,0.871578 1.95259,0.888282 2.85338,0.04204 z"
     id="path4138-3"
     inkscape:connector-curvature="0"
     sodipodi:nodetypes="csscssscccsssscscccssss" />
</svg>
