<?xml version="1.0" encoding="UTF-8" standalone="no"?>
<!-- Created with Inkscape (http://www.inkscape.org/) -->

<svg
   xmlns:dc="http://purl.org/dc/elements/1.1/"
   xmlns:cc="http://creativecommons.org/ns#"
   xmlns:rdf="http://www.w3.org/1999/02/22-rdf-syntax-ns#"
   xmlns:svg="http://www.w3.org/2000/svg"
   xmlns="http://www.w3.org/2000/svg"
   xmlns:sodipodi="http://sodipodi.sourceforge.net/DTD/sodipodi-0.dtd"
   xmlns:inkscape="http://www.inkscape.org/namespaces/inkscape"
   id="svg2"
   version="1.1"
   inkscape:version="0.91 r13725"
   xml:space="preserve"
   width="125.0125"
   height="125"
   viewBox="0 0 125.0125 125"
   sodipodi:docname="celery.svg"><metadata
     id="metadata8"><rdf:RDF><cc:Work
         rdf:about=""><dc:format>image/svg+xml</dc:format><dc:type
           rdf:resource="http://purl.org/dc/dcmitype/StillImage" /><dc:title></dc:title></cc:Work></rdf:RDF></metadata><defs
     id="defs6"><clipPath
       clipPathUnits="userSpaceOnUse"
       id="clipPath16"><path
         d="m 9.205,9.2 81.599,0 0,81.6 -81.599,0 0,-81.6 z"
         id="path18"
         inkscape:connector-curvature="0" /></clipPath><clipPath
       clipPathUnits="userSpaceOnUse"
       id="clipPath28"><path
         d="m 0,100 100.01,0 0,-100 L 0,0 0,100 Z"
         id="path30"
         inkscape:connector-curvature="0" /></clipPath></defs><sodipodi:namedview
     pagecolor="#ffffff"
     bordercolor="#666666"
     borderopacity="1"
     objecttolerance="10"
     gridtolerance="10"
     guidetolerance="10"
     inkscape:pageopacity="0"
     inkscape:pageshadow="2"
     inkscape:window-width="839"
     inkscape:window-height="480"
     id="namedview4"
     showgrid="false"
     inkscape:zoom="1.888"
     inkscape:cx="62.506248"
     inkscape:cy="62.5"
     inkscape:window-x="0"
     inkscape:window-y="0"
     inkscape:window-maximized="0"
     inkscape:current-layer="g10" /><g
     id="g10"
     inkscape:groupmode="layer"
     inkscape:label="celery"
     transform="matrix(1.25,0,0,-1.25,0,125)"><g
       id="g12"><g
         id="g14"
         clip-path="url(#clipPath16)"><g
           id="g20"
           transform="translate(90.1675,50)"><path
             d="m 0,0 c 0,-22.181 -17.981,-40.162 -40.162,-40.162 -22.182,0 -40.163,17.981 -40.163,40.162 0,22.181 17.981,40.163 40.163,40.163 C -17.981,40.163 0,22.181 0,0 Z"
             style="fill:none;stroke:#3498db;stroke-width:1.27499998;stroke-linecap:butt;stroke-linejoin:miter;stroke-miterlimit:10;stroke-dasharray:none;stroke-opacity:1"
             id="path22"
             inkscape:connector-curvature="0" /></g></g></g><g
       id="g24"><g
         id="g26"
         clip-path="url(#clipPath28)"><g
           id="g32"
           transform="translate(42.736,62.2099)"><path
             d="m 0,0 c -0.631,0.837 -2.682,3.574 -2.682,3.574 0,0 2.363,-3.523 2.913,-4.449 1.665,-2.802 6.405,-10.294 6.405,-10.294 0,0 -4.644,8.528 -6.636,11.169 m 10.423,-14.55 c -2.959,2.154 -14.321,8.508 -14.321,8.508 m -4.828,7.923 c -0.68,-1.837 0.338,-3.11 4.002,-5.005 -0.212,0.748 -2.811,3.998 -4.002,5.005 m -2.704,-2.255 c -0.043,-1.3 5.05,-5.321 6.797,-5.314 -2.318,1.812 -4.54,3.549 -6.797,5.314 m 5.688,6.972 c 1.036,-0.7 1.522,-1.924 2.654,-2.7 -0.245,1.239 -1.456,2.56 -2.654,2.7 M -6.225,1.85 C -6.349,2.714 -7,3.176 -7.453,3.813 -7.536,3.74 -7.62,3.667 -7.704,3.594 -7.211,3.012 -6.718,2.432 -6.225,1.85 m -11.201,1.925 c -0.428,0.982 -0.419,1.948 0.071,2.914 0.232,0.457 0.133,0.998 -0.143,1.323 -0.829,0.974 -0.825,2.121 -0.944,3.263 -0.023,0.224 -0.018,0.456 0.214,0.409 0.987,-0.204 1.737,0.752 2.806,0.429 0.61,-0.187 0.783,0.599 0.803,1.069 0.026,0.603 -0.004,0.827 0.819,0.72 1.35,-0.177 2.712,-0.082 3.334,-1.631 0.214,-0.533 0.459,-0.117 0.699,0.053 0.307,0.216 0.602,1.136 0.997,0.041 0.086,-0.239 0.31,-0.028 0.485,-0.006 1.091,0.133 2.186,-0.061 3.142,-0.494 0.697,-0.316 1.079,-1.062 0.797,-1.937 -0.273,-0.847 -0.374,-1.688 0.494,-2.627 0.037,0.845 0.095,1.42 -0.109,2.008 -0.084,0.242 -0.138,0.632 -0.004,0.776 0.365,0.388 0.565,1.142 1.106,1.086 0.325,-0.034 0.605,-0.706 0.838,-1.181 0.408,-0.829 0.16,-1.248 -0.351,-1.873 -0.575,-0.706 -0.625,-1.555 0.126,-2.295 2.62,-2.58 5.036,-5.342 7.539,-8.024 1.794,-1.924 4.101,-3.389 6.164,-5.077 5.98,-4.892 11.887,-9.864 17.245,-15.415 1.787,-1.852 3.527,-3.746 4.973,-5.871 1.441,-2.115 1.346,-3.488 -0.352,-5.429 -0.777,-0.889 -1.683,-1.632 -2.712,-2.231 -2.033,-1.183 -3.859,-1.17 -5.644,0.308 -1.907,1.578 -4.025,2.879 -5.887,4.522 -6.177,5.448 -11.983,11.258 -17.456,17.362 -2.905,3.239 -6.591,5.388 -10.035,7.899 -0.286,0.208 -0.58,0.405 -0.867,0.612 -1.919,1.387 -2.491,1.355 -4.289,-0.175 -0.492,-0.42 -0.959,-0.255 -1.609,-0.149 -0.992,0.164 -1.594,1 -2.612,0.929 0.584,0.866 0.584,0.866 5.294,1.797 -0.981,0.651 -1.801,0.759 -3.298,0.434 -1.622,-0.352 -2.447,0.357 -3.212,1.747 -0.58,1.054 -0.546,2.188 -1.038,3.207 -0.339,0.701 0.255,0.6 0.6,0.552 0.744,-0.103 1.325,0.08 1.738,0.705 0.105,-0.08 0.202,-0.235 0.354,-0.097 0.15,0.136 0.009,0.243 -0.076,0.347"
             style="fill:#3498db;fill-opacity:1;fill-rule:nonzero;stroke:none"
             id="path34"
             inkscape:connector-curvature="0" /></g></g></g></g></svg>
