<?xml version="1.0" encoding="UTF-8" standalone="no"?>
<!-- Created with Inkscape (http://www.inkscape.org/) -->

<svg
   xmlns:dc="http://purl.org/dc/elements/1.1/"
   xmlns:cc="http://creativecommons.org/ns#"
   xmlns:rdf="http://www.w3.org/1999/02/22-rdf-syntax-ns#"
   xmlns:svg="http://www.w3.org/2000/svg"
   xmlns="http://www.w3.org/2000/svg"
   xmlns:sodipodi="http://sodipodi.sourceforge.net/DTD/sodipodi-0.dtd"
   xmlns:inkscape="http://www.inkscape.org/namespaces/inkscape"
   id="svg2"
   version="1.1"
   inkscape:version="0.91 r13725"
   xml:space="preserve"
   width="125.0125"
   height="125"
   viewBox="0 0 125.0125 125"
   sodipodi:docname="crustacens.svg"><metadata
     id="metadata8"><rdf:RDF><cc:Work
         rdf:about=""><dc:format>image/svg+xml</dc:format><dc:type
           rdf:resource="http://purl.org/dc/dcmitype/StillImage" /><dc:title></dc:title></cc:Work></rdf:RDF></metadata><defs
     id="defs6"><clipPath
       clipPathUnits="userSpaceOnUse"
       id="clipPath16"><path
         d="m 9.205,9.2 81.599,0 0,81.6 -81.599,0 0,-81.6 z"
         id="path18"
         inkscape:connector-curvature="0" /></clipPath></defs><sodipodi:namedview
     pagecolor="#ffffff"
     bordercolor="#666666"
     borderopacity="1"
     objecttolerance="10"
     gridtolerance="10"
     guidetolerance="10"
     inkscape:pageopacity="0"
     inkscape:pageshadow="2"
     inkscape:window-width="839"
     inkscape:window-height="480"
     id="namedview4"
     showgrid="false"
     inkscape:zoom="1.888"
     inkscape:cx="62.506248"
     inkscape:cy="62.5"
     inkscape:window-x="0"
     inkscape:window-y="0"
     inkscape:window-maximized="0"
     inkscape:current-layer="g10" /><g
     id="g10"
     inkscape:groupmode="layer"
     inkscape:label="crustacens"
     transform="matrix(1.25,0,0,-1.25,0,125)"><g
       id="g12"><g
         id="g14"
         clip-path="url(#clipPath16)"><g
           id="g20"
           transform="translate(72.5181,42.8599)"><path
             d="m 0,0 c 0,-7.605 -9.871,-14.955 -22.048,-14.955 -12.176,0 -22.047,7.35 -22.047,14.955 0,9.847 9.871,10.513 22.047,10.513 C -9.871,10.513 0,9.18 0,0"
             style="fill:#3498db;fill-opacity:1;fill-rule:nonzero;stroke:none"
             id="path22"
             inkscape:connector-curvature="0" /></g><g
           id="g24"
           transform="translate(28.1636,53.0204)"><path
             d="m 0,0 c 0.706,2.846 1.461,5.793 3.343,8.081 0.308,0.374 0.65,0.738 0.821,1.187 0.119,0.314 0.148,0.652 0.172,0.986 0.07,1.013 0.1,2.04 0.395,3.014 0.324,1.066 0.951,2.022 1.645,2.906 0.779,0.991 1.676,1.933 2.813,2.512 1.695,0.864 3.853,0.8 5.49,-0.162 -0.142,-0.835 -1.191,-1.124 -1.927,-1.578 -0.481,-0.296 -0.867,-0.715 -1.246,-1.129 -0.414,-0.453 -0.829,-0.906 -1.244,-1.358 1.149,0.272 2.507,0.746 2.737,1.872 0.549,-0.026 0.977,-0.526 1.082,-1.049 C 14.187,14.758 14.043,14.22 13.88,13.71 13.33,11.985 12.556,10.328 11.58,8.789 11.351,8.428 11.11,8.073 10.822,7.754 9.736,6.55 8.101,5.984 6.542,5.465 6.847,4.729 6.483,3.904 6.102,3.202 4.917,1.02 3.5,-1.044 1.88,-2.946 1.592,-2.585 1.25,-2.34 0.963,-1.979 0.721,-1.917 0.56,-1.702 0.419,-1.501 c -0.184,0.214 -0.367,0.428 -0.551,0.643 -0.054,0.063 -0.112,0.138 -0.097,0.219 0.01,0.051 0.047,0.092 0.083,0.131 C 0.004,-0.346 -0.053,-0.212 0,0"
             style="fill:#3498db;fill-opacity:1;fill-rule:nonzero;stroke:none"
             id="path26"
             inkscape:connector-curvature="0" /></g><g
           id="g28"
           transform="translate(28.5845,53.2944)"><path
             d="m 0,0 c -0.076,-0.003 -0.151,-0.006 -0.227,-0.008 -0.455,-0.822 -0.84,-1.681 -1.151,-2.563 -0.072,-0.205 -0.141,-0.425 -0.088,-0.635 0.085,-0.341 0.447,-0.534 0.773,-0.685 0.426,-0.197 0.852,-0.395 1.278,-0.592 0.106,-0.05 0.213,-0.1 0.303,-0.173 C 0.98,-4.731 1.05,-4.827 1.122,-4.919 1.817,-5.803 2.843,-6.437 3.963,-6.672 3.75,-6.488 3.596,-6.239 3.528,-5.97 3.191,-5.878 3.176,-5.432 3.047,-5.117 2.972,-4.935 4.078,-4.548 3.963,-4.388 3.394,-3.601 1.906,-2.837 2.035,-1.883 1.563,-1.399 1.091,-0.885 0.619,-0.4 0.499,-0.277 0.359,-0.145 0.185,-0.141 0.101,-0.138 0.018,-0.167 -0.066,-0.157 -0.149,-0.148 -0.026,-0.077 0,0"
             style="fill:#3498db;fill-opacity:1;fill-rule:nonzero;stroke:none"
             id="path30"
             inkscape:connector-curvature="0" /></g><g
           id="g32"
           transform="translate(73.0331,52.4719)"><path
             d="m 0,0 c -0.706,2.846 -1.461,5.793 -3.343,8.081 -0.308,0.374 -0.65,0.738 -0.821,1.187 -0.119,0.314 -0.148,0.652 -0.171,0.986 -0.071,1.013 -0.101,2.04 -0.396,3.014 -0.323,1.066 -0.951,2.021 -1.645,2.906 -0.779,0.991 -1.676,1.933 -2.813,2.512 -1.694,0.864 -3.853,0.8 -5.49,-0.162 0.142,-0.835 1.191,-1.124 1.927,-1.578 0.482,-0.296 0.867,-0.715 1.246,-1.129 0.414,-0.453 0.829,-0.906 1.244,-1.358 -1.149,0.272 -2.507,0.746 -2.737,1.872 -0.549,-0.026 -0.977,-0.526 -1.082,-1.049 -0.106,-0.524 0.038,-1.062 0.201,-1.572 0.55,-1.725 1.325,-3.383 2.3,-4.921 0.229,-0.361 0.47,-0.716 0.758,-1.035 1.086,-1.204 2.721,-1.77 4.281,-2.289 -0.306,-0.736 0.058,-1.561 0.439,-2.263 1.185,-2.183 2.602,-4.246 4.222,-6.148 0.288,0.361 0.63,0.606 0.918,0.967 0.241,0.062 0.402,0.277 0.543,0.478 0.184,0.214 0.367,0.428 0.551,0.642 0.054,0.064 0.112,0.139 0.097,0.22 -0.01,0.051 -0.047,0.092 -0.083,0.13 C -0.004,-0.346 0.053,-0.212 0,0"
             style="fill:#3498db;fill-opacity:1;fill-rule:nonzero;stroke:none"
             id="path34"
             inkscape:connector-curvature="0" /></g><g
           id="g36"
           transform="translate(72.6123,52.7459)"><path
             d="M 0,0 C 0.076,-0.003 0.151,-0.006 0.227,-0.009 0.682,-0.83 1.067,-1.688 1.378,-2.571 1.45,-2.776 1.518,-2.996 1.466,-3.206 1.381,-3.547 1.019,-3.74 0.692,-3.891 0.267,-4.088 -0.159,-4.286 -0.585,-4.483 c -0.106,-0.05 -0.213,-0.099 -0.303,-0.173 -0.092,-0.075 -0.162,-0.17 -0.234,-0.263 -0.695,-0.884 -1.721,-1.518 -2.841,-1.753 0.213,0.184 0.367,0.433 0.435,0.702 0.336,0.092 0.352,0.538 0.481,0.853 0.075,0.182 -1.031,0.569 -0.916,0.729 0.569,0.787 2.057,1.551 1.928,2.505 0.472,0.484 0.944,0.998 1.416,1.483 0.12,0.123 0.26,0.255 0.434,0.259 0.084,0.003 0.167,-0.026 0.251,-0.016 C 0.149,-0.148 0.026,-0.077 0,0"
             style="fill:#3498db;fill-opacity:1;fill-rule:nonzero;stroke:none"
             id="path38"
             inkscape:connector-curvature="0" /></g><g
           id="g40"
           transform="translate(31.5153,41.8641)"><path
             d="m 0,0 c -1.722,1.626 -3.859,2.835 -6.166,3.486 -3.309,-1.944 -6.38,-4.267 -9.132,-6.905 0.486,-0.299 1.124,-0.275 1.663,-0.08 0.538,0.195 1.003,0.54 1.469,0.867 1.981,1.393 4.133,2.557 6.396,3.46 0.632,-1.092 1.651,-1.914 2.647,-2.709 0.466,-0.373 0.932,-0.745 1.398,-1.117 0.498,0.428 1.047,0.968 1.544,1.397 0.124,0.107 0.251,0.217 0.331,0.358 0.212,0.372 0.046,0.832 -0.122,1.225 C -0.043,-0.026 -0.051,-0.049 0,0"
             style="fill:#3498db;fill-opacity:1;fill-rule:nonzero;stroke:none"
             id="path42"
             inkscape:connector-curvature="0" /></g><g
           id="g44"
           transform="translate(69.7698,41.8641)"><path
             d="m 0,0 c 1.722,1.626 3.859,2.835 6.166,3.486 3.309,-1.944 6.38,-4.267 9.132,-6.905 -0.486,-0.299 -1.124,-0.275 -1.663,-0.08 -0.538,0.195 -1.003,0.54 -1.469,0.867 C 10.185,-1.239 8.033,-0.075 5.77,0.828 5.138,-0.264 4.119,-1.086 3.123,-1.881 2.657,-2.254 2.191,-2.626 1.724,-2.998 1.227,-2.57 0.678,-2.03 0.181,-1.601 0.057,-1.494 -0.07,-1.384 -0.15,-1.243 -0.362,-0.871 -0.196,-0.411 -0.028,-0.018 0.043,-0.026 0.051,-0.049 0,0"
             style="fill:#3498db;fill-opacity:1;fill-rule:nonzero;stroke:none"
             id="path46"
             inkscape:connector-curvature="0" /></g><g
           id="g48"
           transform="translate(32.9842,37.8644)"><path
             d="m 0,0 c -1.792,1.028 -3.846,1.621 -5.925,1.712 -2.376,-2.293 -4.473,-4.857 -6.233,-7.623 0.471,-0.156 1.003,-0.009 1.416,0.262 0.412,0.271 0.731,0.653 1.054,1.021 1.375,1.566 2.941,2.973 4.657,4.181 0.761,-0.794 1.792,-1.284 2.798,-1.756 l 1.413,-0.663 c 0.328,0.459 0.677,1.023 1.005,1.482 0.082,0.115 0.166,0.232 0.204,0.367 0.099,0.356 -0.137,0.71 -0.362,1.007 C -0.031,-0.03 -0.032,-0.051 0,0"
             style="fill:#3498db;fill-opacity:1;fill-rule:nonzero;stroke:none"
             id="path50"
             inkscape:connector-curvature="0" /></g><g
           id="g52"
           transform="translate(68.1291,38.3539)"><path
             d="m 0,0 c 1.871,0.884 3.968,1.315 6.048,1.243 2.178,-2.472 4.054,-5.192 5.579,-8.087 -0.483,-0.118 -1.001,0.07 -1.389,0.373 -0.389,0.302 -0.675,0.708 -0.967,1.1 C 8.032,-3.703 6.587,-2.178 4.978,-0.84 4.153,-1.571 3.085,-1.978 2.042,-2.37 1.555,-2.554 1.067,-2.738 0.579,-2.921 0.29,-2.438 -0.01,-1.848 -0.3,-1.365 c -0.072,0.121 -0.145,0.245 -0.172,0.382 -0.07,0.362 0.195,0.697 0.444,0.976 C 0.028,-0.033 0.028,-0.054 0,0"
             style="fill:#3498db;fill-opacity:1;fill-rule:nonzero;stroke:none"
             id="path54"
             inkscape:connector-curvature="0" /></g><g
           id="g56"
           transform="translate(36.0142,34.4043)"><path
             d="m 0,0 c -1.809,0.467 -3.737,0.496 -5.561,0.084 -1.482,-2.547 -2.655,-5.263 -3.486,-8.074 0.448,-0.024 0.871,0.229 1.161,0.561 0.289,0.333 0.469,0.739 0.657,1.134 0.797,1.68 1.802,3.268 2.984,4.72 0.859,-0.508 1.874,-0.689 2.864,-0.86 0.463,-0.08 0.926,-0.161 1.389,-0.241 0.17,0.475 0.33,1.046 0.499,1.521 0.043,0.119 0.085,0.24 0.085,0.366 C 0.589,-0.457 0.295,-0.206 0.026,-0.002 -0.019,-0.033 -0.015,-0.052 0,0"
             style="fill:#3498db;fill-opacity:1;fill-rule:nonzero;stroke:none"
             id="path58"
             inkscape:connector-curvature="0" /></g><g
           id="g60"
           transform="translate(65.292,35.2837)"><path
             d="M 0,0 C 1.809,0.467 3.737,0.496 5.561,0.084 7.043,-2.463 8.216,-5.179 9.047,-7.99 8.599,-8.014 8.175,-7.761 7.886,-7.429 7.597,-7.096 7.417,-6.69 7.229,-6.295 6.432,-4.615 5.427,-3.027 4.245,-1.575 3.386,-2.083 2.371,-2.264 1.381,-2.435 0.918,-2.515 0.455,-2.596 -0.008,-2.676 c -0.17,0.475 -0.33,1.046 -0.499,1.521 -0.043,0.119 -0.086,0.24 -0.084,0.366 0.002,0.332 0.296,0.583 0.565,0.787 C 0.019,-0.033 0.015,-0.052 0,0"
             style="fill:#3498db;fill-opacity:1;fill-rule:nonzero;stroke:none"
             id="path62"
             inkscape:connector-curvature="0" /></g><g
           id="g64"
           transform="translate(90.1675,50)"><path
             d="m 0,0 c 0,-22.181 -17.981,-40.162 -40.162,-40.162 -22.182,0 -40.163,17.981 -40.163,40.162 0,22.181 17.981,40.163 40.163,40.163 C -17.981,40.163 0,22.181 0,0 Z"
             style="fill:none;stroke:#3498db;stroke-width:1.27499998;stroke-linecap:butt;stroke-linejoin:miter;stroke-miterlimit:10;stroke-dasharray:none;stroke-opacity:1"
             id="path66"
             inkscape:connector-curvature="0" /></g></g></g></g></svg>
