<?xml version="1.0" encoding="UTF-8" standalone="no"?>
<!-- Created with Inkscape (http://www.inkscape.org/) -->

<svg
   xmlns:dc="http://purl.org/dc/elements/1.1/"
   xmlns:cc="http://creativecommons.org/ns#"
   xmlns:rdf="http://www.w3.org/1999/02/22-rdf-syntax-ns#"
   xmlns:svg="http://www.w3.org/2000/svg"
   xmlns="http://www.w3.org/2000/svg"
   xmlns:sodipodi="http://sodipodi.sourceforge.net/DTD/sodipodi-0.dtd"
   xmlns:inkscape="http://www.inkscape.org/namespaces/inkscape"
   id="svg2"
   version="1.1"
   inkscape:version="0.91 r13725"
   xml:space="preserve"
   width="125.0125"
   height="125"
   viewBox="0 0 125.0125 125"
   sodipodi:docname="eggs.svg"><metadata
     id="metadata8"><rdf:RDF><cc:Work
         rdf:about=""><dc:format>image/svg+xml</dc:format><dc:type
           rdf:resource="http://purl.org/dc/dcmitype/StillImage" /><dc:title></dc:title></cc:Work></rdf:RDF></metadata><defs
     id="defs6"><clipPath
       clipPathUnits="userSpaceOnUse"
       id="clipPath16"><path
         d="m 9.205,9.2 81.599,0 0,81.6 -81.599,0 0,-81.6 z"
         id="path18"
         inkscape:connector-curvature="0" /></clipPath></defs><sodipodi:namedview
     pagecolor="#ffffff"
     bordercolor="#666666"
     borderopacity="1"
     objecttolerance="10"
     gridtolerance="10"
     guidetolerance="10"
     inkscape:pageopacity="0"
     inkscape:pageshadow="2"
     inkscape:window-width="839"
     inkscape:window-height="480"
     id="namedview4"
     showgrid="false"
     inkscape:zoom="1.888"
     inkscape:cx="62.506248"
     inkscape:cy="62.5"
     inkscape:window-x="0"
     inkscape:window-y="0"
     inkscape:window-maximized="0"
     inkscape:current-layer="g10" /><g
     id="g10"
     inkscape:groupmode="layer"
     inkscape:label="eggs"
     transform="matrix(1.25,0,0,-1.25,0,125)"><g
       id="g12"><g
         id="g14"
         clip-path="url(#clipPath16)"><g
           id="g20"
           transform="translate(68.4924,46.1936)"><path
             d="m 0,0 c 0,-12.333 -8.277,-22.331 -18.487,-22.331 -10.211,0 -18.488,9.998 -18.488,22.331 0,12.333 8.277,29.944 18.488,29.944 3.828,0 7.385,-2.477 10.336,-6.223 0.064,-0.081 -1.332,-1.724 -1.332,-1.724 l 0.304,-1.268 -1.251,0.234 -0.222,-0.491 -1.097,0.09 0.34,-1.256 -0.433,-0.397 0.279,-0.959 -0.854,0.15 -1.09,-1.748 c 0,0 0.476,0.172 1.064,0.627 0.188,0.146 0.615,0.492 0.615,0.492 l 1.153,-0.406 -0.378,1.036 0.369,0.296 0.085,1.097 0.955,-0.269 0.296,0.235 1.251,-0.267 -0.101,1.235 c 0,0 1.534,1.224 1.598,1.126 C -2.565,15.366 0,6.865 0,0"
             style="fill:#3498db;fill-opacity:1;fill-rule:nonzero;stroke:none"
             id="path22"
             inkscape:connector-curvature="0" /></g><g
           id="g24"
           transform="translate(90.1675,50)"><path
             d="m 0,0 c 0,-22.181 -17.981,-40.162 -40.163,-40.162 -22.181,0 -40.162,17.981 -40.162,40.162 0,22.181 17.981,40.163 40.162,40.163 C -17.981,40.163 0,22.181 0,0 Z"
             style="fill:none;stroke:#3498db;stroke-width:1.27499998;stroke-linecap:butt;stroke-linejoin:miter;stroke-miterlimit:10;stroke-dasharray:none;stroke-opacity:1"
             id="path26"
             inkscape:connector-curvature="0" /></g></g></g></g></svg>