<?xml version="1.0" encoding="UTF-8" standalone="no"?>
<!-- Created with Inkscape (http://www.inkscape.org/) -->

<svg
   xmlns:dc="http://purl.org/dc/elements/1.1/"
   xmlns:cc="http://creativecommons.org/ns#"
   xmlns:rdf="http://www.w3.org/1999/02/22-rdf-syntax-ns#"
   xmlns:svg="http://www.w3.org/2000/svg"
   xmlns="http://www.w3.org/2000/svg"
   xmlns:sodipodi="http://sodipodi.sourceforge.net/DTD/sodipodi-0.dtd"
   xmlns:inkscape="http://www.inkscape.org/namespaces/inkscape"
   id="svg2"
   version="1.1"
   inkscape:version="0.91 r13725"
   xml:space="preserve"
   width="125.0125"
   height="125"
   viewBox="0 0 125.0125 125"
   sodipodi:docname="fish.svg"><metadata
     id="metadata8"><rdf:RDF><cc:Work
         rdf:about=""><dc:format>image/svg+xml</dc:format><dc:type
           rdf:resource="http://purl.org/dc/dcmitype/StillImage" /><dc:title></dc:title></cc:Work></rdf:RDF></metadata><defs
     id="defs6"><clipPath
       clipPathUnits="userSpaceOnUse"
       id="clipPath16"><path
         d="m 9.205,9.2 81.599,0 0,81.6 -81.599,0 0,-81.6 z"
         id="path18"
         inkscape:connector-curvature="0" /></clipPath></defs><sodipodi:namedview
     pagecolor="#ffffff"
     bordercolor="#666666"
     borderopacity="1"
     objecttolerance="10"
     gridtolerance="10"
     guidetolerance="10"
     inkscape:pageopacity="0"
     inkscape:pageshadow="2"
     inkscape:window-width="839"
     inkscape:window-height="480"
     id="namedview4"
     showgrid="false"
     inkscape:zoom="1.888"
     inkscape:cx="62.506248"
     inkscape:cy="62.5"
     inkscape:window-x="0"
     inkscape:window-y="0"
     inkscape:window-maximized="0"
     inkscape:current-layer="g10" /><g
     id="g10"
     inkscape:groupmode="layer"
     inkscape:label="fish"
     transform="matrix(1.25,0,0,-1.25,0,125)"><g
       id="g12"><g
         id="g14"
         clip-path="url(#clipPath16)"><g
           id="g20"
           transform="translate(35.1735,65.3519)"><path
             d="m 0,0 c -10.677,-4.488 -17.681,-14.029 -17.681,-14.029 0.057,-0.061 4.724,-5.515 9.652,-4.266 0.262,0.066 0.259,-0.646 0.119,-0.866 -0.302,-0.472 -1.03,-0.484 -1.597,-0.484 -3.003,0 -6.186,2.42 -7.807,3.856 2.294,-2.725 8.494,-9.426 16.554,-13.065 C 5.256,-19.113 0.94,-3.154 0,0 m -6.521,-14.949 c -1.479,0 -2.684,1.142 -2.684,2.549 0,1.407 1.205,2.547 2.684,2.547 1.481,0 2.684,-1.14 2.684,-2.547 0,-1.407 -1.203,-2.549 -2.684,-2.549"
             style="fill:#f6af2f;fill-opacity:1;fill-rule:nonzero;stroke:none"
             id="path22"
             inkscape:connector-curvature="0" /></g><g
           id="g24"
           transform="translate(69.8099,54.4641)"><path
             d="m 0,0 c -2.088,2.186 -5.096,4.994 -8.74,7.44 -0.743,0.499 -1.094,1.884 -4.276,4.258 -5.003,3.733 -5.271,3.383 -9.905,3.6 -0.339,0.016 -1.586,-2.301 -1.927,-2.301 -3.013,0 -5.916,-0.636 -8.638,-1.654 0.922,-2.973 5.562,-19.384 -0.773,-29.792 2.418,-0.98 4.986,-1.668 7.657,-1.882 0.58,-0.046 1.164,-0.071 1.754,-0.071 0.896,0 1.783,0.056 2.658,0.161 1.454,0.175 2.875,0.486 4.255,0.903 8.381,2.536 15.257,9.001 18.729,12.774 0,0 6.2,-8.774 8.446,-7.744 2.437,1.117 -0.72,6.421 -0.996,11.791 C 7.979,2.617 10.683,7.827 9.059,8.843 6.91,10.188 0,0 0,0"
             style="fill:#f6af2f;fill-opacity:1;fill-rule:nonzero;stroke:none"
             id="path26"
             inkscape:connector-curvature="0" /></g><g
           id="g28"
           transform="translate(90.1674,50)"><path
             d="m 0,0 c 0,-22.181 -17.981,-40.163 -40.162,-40.163 -22.182,0 -40.163,17.982 -40.163,40.163 0,22.181 17.981,40.162 40.163,40.162 C -17.981,40.162 0,22.181 0,0 Z"
             style="fill:none;stroke:#f6af2f;stroke-width:1.27499998;stroke-linecap:butt;stroke-linejoin:miter;stroke-miterlimit:10;stroke-dasharray:none;stroke-opacity:1"
             id="path30"
             inkscape:connector-curvature="0" /></g></g></g></g></svg>