<?xml version="1.0" encoding="UTF-8" standalone="no"?>
<!-- Created with Inkscape (http://www.inkscape.org/) -->

<svg
   xmlns:dc="http://purl.org/dc/elements/1.1/"
   xmlns:cc="http://creativecommons.org/ns#"
   xmlns:rdf="http://www.w3.org/1999/02/22-rdf-syntax-ns#"
   xmlns:svg="http://www.w3.org/2000/svg"
   xmlns="http://www.w3.org/2000/svg"
   xmlns:sodipodi="http://sodipodi.sourceforge.net/DTD/sodipodi-0.dtd"
   xmlns:inkscape="http://www.inkscape.org/namespaces/inkscape"
   id="svg2"
   version="1.1"
   inkscape:version="0.91 r13725"
   xml:space="preserve"
   width="125.0125"
   height="125"
   viewBox="0 0 125.0125 125"
   sodipodi:docname="lupin.svg"><metadata
     id="metadata8"><rdf:RDF><cc:Work
         rdf:about=""><dc:format>image/svg+xml</dc:format><dc:type
           rdf:resource="http://purl.org/dc/dcmitype/StillImage" /><dc:title></dc:title></cc:Work></rdf:RDF></metadata><defs
     id="defs6"><clipPath
       clipPathUnits="userSpaceOnUse"
       id="clipPath16"><path
         d="m 9.205,9.2 81.599,0 0,81.6 -81.599,0 0,-81.6 z"
         id="path18"
         inkscape:connector-curvature="0" /></clipPath></defs><sodipodi:namedview
     pagecolor="#ffffff"
     bordercolor="#666666"
     borderopacity="1"
     objecttolerance="10"
     gridtolerance="10"
     guidetolerance="10"
     inkscape:pageopacity="0"
     inkscape:pageshadow="2"
     inkscape:window-width="839"
     inkscape:window-height="480"
     id="namedview4"
     showgrid="false"
     inkscape:zoom="1.888"
     inkscape:cx="62.506248"
     inkscape:cy="62.5"
     inkscape:window-x="0"
     inkscape:window-y="0"
     inkscape:window-maximized="0"
     inkscape:current-layer="g10" /><g
     id="g10"
     inkscape:groupmode="layer"
     inkscape:label="lupin"
     transform="matrix(1.25,0,0,-1.25,0,125)"><g
       id="g12"><g
         id="g14"
         clip-path="url(#clipPath16)"><g
           id="g20"
           transform="translate(50.5833,45.1805)"><path
             d="m 0,0 c 0.455,0.443 0,2.505 0,2.505 l 0,7.032 c 0,0 0.31,1.406 0,1.708 -0.395,0.385 -2.235,0 -2.235,0 l -17.981,0 c 0,0 -1.714,0.358 -2.081,0 -0.765,-0.743 0,-4.206 0,-4.206 l 0,-4.719 c 0,0 -0.422,-1.91 0,-2.32 0.452,-0.44 2.557,0 2.557,0 l 17.029,0 c 0,0 2.232,-0.466 2.711,0 m 4.895,-14.058 c -0.49,-0.477 -3.491,0.642 -3.491,0.642 0,0 -3.318,-0.76 -4.495,-0.76 -5.547,0 -22.405,0.76 -22.405,0.76 0,0 -2.085,-0.683 -2.413,-0.364 -0.35,0.34 0.558,2.29 0.558,2.29 0,0 -0.676,7.23 -0.638,9.646 0.066,4.209 1.28,13.111 1.28,16.791 0,1.525 -0.642,5.694 -0.642,5.694 0,0 -0.772,2.025 -0.499,2.29 0.328,0.319 2.354,-0.791 2.354,-0.791 0,0 7.992,0.849 10.775,0.849 4.12,0 16.839,-0.849 16.839,-0.849 0,0 2.347,0.729 2.711,0.375 0.323,-0.315 -0.651,-2.152 -0.651,-2.152 0,0 0.296,-4.429 0.366,-6.176 0.138,-3.443 0.459,-11.1 0.459,-14.574 0,-2.585 -0.825,-10.479 -0.825,-10.479 0,0 1.18,-2.741 0.717,-3.192"
             style="fill:#3498db;fill-opacity:1;fill-rule:nonzero;stroke:none"
             id="path22"
             inkscape:connector-curvature="0" /></g><g
           id="g24"
           transform="translate(71.1558,40.9529)"><path
             d="M 0,0 C 0.332,0.447 0.432,1.031 1.012,1.211 1.238,1.281 1.234,1.428 1.095,1.618 0.108,2.959 -0.979,4.178 -2.523,4.969 -3.182,5.306 -3.729,5.327 -4.336,4.951 -4.496,4.852 -4.641,4.688 -4.907,4.722 -4.941,5.036 -4.76,5.265 -4.557,5.448 -4.1,5.859 -4.381,5.972 -4.778,6.141 -5.75,6.554 -6.724,6.275 -7.698,6.207 -7.894,6.193 -8.087,6.083 -8.291,6.193 c -0.064,0.303 0.359,0.314 0.364,0.653 -0.636,0.077 -1.284,0.155 -1.932,0.233 1.171,0.478 2.385,0.153 3.586,0.253 -1.092,0.549 -2.287,0.81 -3.355,1.414 1.054,0.303 2.084,0.005 3.158,-0.154 -0.143,0.384 -0.485,0.619 -0.575,1.073 0.969,-0.254 1.634,-0.891 2.5,-1.375 -0.168,0.718 0.342,1.066 0.674,1.505 0.251,0.332 0.559,0.324 0.892,0.161 0.301,-0.148 0.413,-0.306 0.058,-0.552 -0.097,-0.067 0.079,-0.222 0.156,-0.323 0.226,-0.299 0.51,-0.569 0.672,-0.898 0.424,-0.857 1.147,-1.146 2.111,-1.141 -0.299,0.452 -0.802,0.652 -1.122,1.032 -0.109,0.13 -0.32,0.244 -0.221,0.435 0.099,0.193 0.315,0.104 0.485,0.074 0.154,-0.027 0.305,-0.071 0.456,-0.114 1.073,-0.303 1.685,0.19 1.602,1.288 -0.022,0.293 -0.214,0.578 0.292,0.782 0.281,0.113 -0.821,3.022 -0.597,3.628 0.187,0.506 -0.165,0.973 -0.428,1.393 -0.235,0.375 -0.408,0.727 -0.241,1.162 0.049,0.129 0.065,0.244 -0.011,0.373 -0.425,0.712 -1.879,0.838 -2.37,0.183 -0.396,-0.527 -0.995,-0.493 -1.525,-0.498 -1.017,-0.01 -1.969,1.33 -1.698,2.27 0.095,0.333 0.305,0.34 0.565,0.238 0.262,-0.102 0.516,-0.227 0.83,-0.366 0.053,0.409 -0.175,0.647 -0.292,0.912 -0.229,0.518 -0.167,0.956 0.384,1.211 0.238,0.111 0.34,0.217 0.194,0.433 -0.212,0.313 -0.393,0.609 -0.363,1.021 0.018,0.25 -0.199,0.198 -0.384,0.093 -1.381,-0.777 -2.796,-0.172 -3.206,1.355 -0.043,0.161 -0.165,0.304 -0.261,0.45 -0.177,0.267 -0.184,0.469 0.156,0.629 0.433,0.205 0.488,0.441 -0.001,0.663 -0.124,0.056 -0.276,0.15 -0.233,0.286 0.219,0.708 -0.312,0.666 -0.747,0.747 -0.262,0.049 -0.566,0.079 -0.76,0.228 -0.309,0.237 -0.668,0.539 -0.645,0.949 0.027,0.489 0.634,0.295 0.911,0.569 -0.471,0.254 -0.969,0.456 -1.384,0.765 -0.382,0.284 -1.136,0.516 -0.479,1.223 0.069,0.074 0.042,0.178 -0.033,0.233 -0.463,0.338 -0.488,0.856 -0.596,1.342 -0.035,0.159 -0.125,0.322 -0.278,0.343 -0.654,0.089 -0.985,0.708 -1.596,0.881 -0.392,0.111 -0.694,0.39 -0.836,0.796 -0.125,0.362 -0.38,0.628 -0.667,0.886 -0.988,0.888 -1.989,1.774 -3.237,2.292 -0.579,0.24 -1.07,0.597 -1.618,0.861 -0.455,0.218 -0.681,0.56 -0.834,0.968 -0.251,0.672 -0.015,1.045 0.716,1.139 1.353,0.174 2.672,0.13 3.923,-0.519 0.36,-0.187 0.843,-0.129 1.237,-0.133 1.292,-0.014 2.482,-0.515 3.773,-0.59 1.207,-0.07 2.449,-0.43 3.549,-1.025 0.371,-0.201 0.626,-0.559 0.727,-0.987 0.038,-0.161 0.026,-0.354 0.235,-0.422 0.048,0.034 0.09,0.052 0.115,0.083 0.172,0.217 -0.276,0.644 0.179,0.71 0.447,0.066 0.963,0.098 1.305,-0.328 0.268,-0.333 0.43,-0.65 1.036,-0.634 0.538,0.013 0.789,-0.638 0.981,-1.133 0.131,-0.339 0.16,-0.712 0.679,-0.277 0.387,0.326 0.915,-0.087 1.086,-0.807 0.289,0.077 0.407,0.618 0.752,0.389 0.417,-0.277 0.88,-0.69 0.763,-1.22 -0.161,-0.729 0.107,-1.285 0.443,-1.869 0.113,-0.197 0.158,-0.361 0.427,-0.159 0.202,0.152 0.374,0.631 0.665,0.323 0.288,-0.304 0.716,-0.629 0.592,-1.173 -0.062,-0.27 -0.164,-0.54 -0.111,-0.82 0.168,-0.073 0.263,0.055 0.383,0.093 0.335,0.107 0.703,0.519 1.01,0.073 C 3.969,29.373 4.121,28.856 3.735,28.43 3.34,27.995 3.32,27.86 3.906,27.478 4.775,26.913 5.289,26.032 5.032,24.882 4.878,24.191 5.66,23.174 5.666,23.146 5.81,22.497 6.463,22.327 6.835,21.91 7.064,21.654 6.824,21.192 6.582,20.89 6.367,20.621 6.255,20.341 6.226,19.997 6.18,19.435 5.941,18.963 5.469,18.591 5.053,18.263 4.836,17.874 5.476,17.522 5.82,17.332 5.661,16.795 6.125,16.667 6.464,16.574 6.782,16.407 7.162,16.252 6.929,15.899 6.63,15.953 6.388,16.167 5.926,16.577 5.487,16.592 5.048,16.176 4.453,15.612 3.791,15.768 3.123,15.98 2.307,16.238 2.541,15.462 2.31,15.171 2.072,14.871 2.448,13.191 2.67,13.019 3.295,12.534 2.834,10.417 3.341,9.997 3.884,9.548 3.995,8.813 4.098,8.148 4.247,7.181 4.619,6.318 5.17,5.515 5.442,5.569 5.383,5.783 5.4,5.937 c 0.183,1.646 0.72,3.188 1.423,4.685 0.073,0.155 0.172,0.345 0.138,0.492 -0.116,0.493 -0.014,0.73 0.569,0.743 0.342,0.008 0.41,0.362 0.436,0.652 0.03,0.33 0.142,0.538 0.544,0.484 0.386,-0.051 0.592,0.178 0.652,0.515 0.122,0.692 0.578,0.987 1.246,1.086 0.284,0.042 0.556,0.154 0.892,0.252 -0.023,-0.251 0.031,-0.479 0.254,-0.651 0.15,-0.115 -0.759,-0.554 -0.888,-0.79 C 10.435,12.98 10.363,12.509 10.197,12.067 10.101,11.813 9.574,11.095 9.428,10.754 9.252,10.341 8.899,10.064 8.57,9.763 7.872,9.124 7.319,8.407 7.444,7.386 7.48,7.093 7.343,6.829 7.166,6.597 6.991,6.37 6.799,6.156 6.619,5.934 6.456,5.733 6.154,5.505 6.328,5.267 6.498,5.034 6.777,5.307 6.987,5.386 8.411,5.921 9.83,6.458 11.37,6.6 c 0.377,0.035 0.736,0.182 1.081,0.349 1.506,0.731 3.148,0.802 4.78,0.91 C 17.4,7.87 17.595,7.885 17.737,7.69 15.657,6.627 13.6,5.588 11.177,5.424 9.756,5.328 8.305,5.256 6.938,4.768 6.738,4.697 6.49,4.697 6.34,4.406 7.725,4.432 9.1,4.626 10.492,4.021 10.234,3.842 10.069,3.923 9.912,3.953 8.917,4.146 7.948,3.99 6.986,3.746 6.853,3.712 6.7,3.662 6.736,3.5 6.774,3.328 6.946,3.35 7.07,3.391 c 1.591,0.522 3.158,0.089 4.722,-0.135 0.591,-0.084 1.091,0.026 1.621,0.236 0.84,0.335 1.705,0.442 2.592,-0.015 C 15.342,3.336 14.683,3.169 14.014,3.062 13.52,2.983 13.888,2.786 13.932,2.618 13.396,2.55 12.843,2.64 12.346,2.359 12.465,2.053 12.902,2.193 13.024,1.859 11.775,1.748 10.54,1.637 9.175,1.516 9.77,1.187 10.254,0.885 10.669,0.229 9.649,0.676 8.776,0.986 7.858,1.151 7.637,1.19 7.42,1.254 7.198,1.275 6.085,1.379 6.01,1.313 5.825,0.231 5.766,-0.112 5.71,-0.465 5.577,-0.784 4.725,-2.831 4.735,-5.053 4.178,-7.156 c -0.432,-1.633 -0.947,-3.246 -1.449,-4.86 -0.33,-1.064 -0.696,-2.118 -1.06,-3.171 -0.158,-0.458 -1.242,-0.798 -1.652,-0.538 -0.226,0.143 -0.066,0.32 -0.022,0.466 0.312,1.025 0.595,2.061 0.969,3.065 0.765,2.055 0.652,4.151 0.446,6.268 C 1.229,-4.059 1.057,-2.188 1.316,-0.313 1.365,0.048 1.281,0.246 0.85,0.146 0.57,0.082 0.284,0.048 0,0 m 2.296,-7.769 c 0.363,0.251 0.352,0.507 0.419,0.729 0.724,2.406 0.599,4.826 0.121,7.25 C 2.804,0.37 2.873,0.604 2.64,0.648 2.431,0.688 2.257,0.547 2.115,0.403 1.948,0.235 1.953,0.009 1.912,-0.206 1.625,-1.729 1.83,-3.249 1.95,-4.767 2.026,-5.736 2.17,-6.699 2.296,-7.769 M 5.06,-0.51 C 5.318,-0.117 5.388,0.286 5.402,0.698 5.409,0.89 5.616,1.261 5.151,1.169 4.805,1.1 4.196,1.374 4.229,0.644 4.254,0.095 4.728,-0.133 5.06,-0.51"
             style="fill:#3498db;fill-opacity:1;fill-rule:nonzero;stroke:none"
             id="path26"
             inkscape:connector-curvature="0" /></g><g
           id="g28"
           transform="translate(90.1676,50)"><path
             d="m 0,0 c 0,-22.181 -17.981,-40.163 -40.163,-40.163 -22.181,0 -40.162,17.982 -40.162,40.163 0,22.181 17.981,40.162 40.162,40.162 C -17.981,40.162 0,22.181 0,0 Z"
             style="fill:none;stroke:#3498db;stroke-width:1.27499998;stroke-linecap:butt;stroke-linejoin:miter;stroke-miterlimit:10;stroke-dasharray:none;stroke-opacity:1"
             id="path30"
             inkscape:connector-curvature="0" /></g></g></g></g></svg>