<?xml version="1.0" encoding="UTF-8" standalone="no"?>
<!-- Created with Inkscape (http://www.inkscape.org/) -->

<svg
   xmlns:dc="http://purl.org/dc/elements/1.1/"
   xmlns:cc="http://creativecommons.org/ns#"
   xmlns:rdf="http://www.w3.org/1999/02/22-rdf-syntax-ns#"
   xmlns:svg="http://www.w3.org/2000/svg"
   xmlns="http://www.w3.org/2000/svg"
   xmlns:sodipodi="http://sodipodi.sourceforge.net/DTD/sodipodi-0.dtd"
   xmlns:inkscape="http://www.inkscape.org/namespaces/inkscape"
   id="svg2"
   version="1.1"
   inkscape:version="0.91 r13725"
   xml:space="preserve"
   width="125.0125"
   height="125"
   viewBox="0 0 125.0125 125"
   sodipodi:docname="milk.svg"><metadata
     id="metadata8"><rdf:RDF><cc:Work
         rdf:about=""><dc:format>image/svg+xml</dc:format><dc:type
           rdf:resource="http://purl.org/dc/dcmitype/StillImage" /><dc:title></dc:title></cc:Work></rdf:RDF></metadata><defs
     id="defs6"><clipPath
       clipPathUnits="userSpaceOnUse"
       id="clipPath16"><path
         d="m 9.205,9.2 81.599,0 0,81.6 -81.599,0 0,-81.6 z"
         id="path18"
         inkscape:connector-curvature="0" /></clipPath></defs><sodipodi:namedview
     pagecolor="#ffffff"
     bordercolor="#666666"
     borderopacity="1"
     objecttolerance="10"
     gridtolerance="10"
     guidetolerance="10"
     inkscape:pageopacity="0"
     inkscape:pageshadow="2"
     inkscape:window-width="839"
     inkscape:window-height="480"
     id="namedview4"
     showgrid="false"
     inkscape:zoom="1.888"
     inkscape:cx="62.506248"
     inkscape:cy="62.5"
     inkscape:window-x="0"
     inkscape:window-y="0"
     inkscape:window-maximized="0"
     inkscape:current-layer="g10" /><g
     id="g10"
     inkscape:groupmode="layer"
     inkscape:label="milk"
     transform="matrix(1.25,0,0,-1.25,0,125)"><g
       id="g12"><g
         id="g14"
         clip-path="url(#clipPath16)"><g
           id="g20"
           transform="translate(53.2164,71.6578)"><path
             d="m 0,0 c 0.619,0.377 1.045,1.185 1.045,2.126 0,1.299 -0.816,2.354 -1.822,2.354 l -12.972,0 c -1.006,0 -1.819,-1.055 -1.819,-2.354 0,-0.941 0.424,-1.749 1.043,-2.126 -2.781,-3.667 -5.59,-9.637 -5.729,-9.932 l -0.17,-0.366 0,-0.398 0,-33.368 c 0,-3.46 2.91,-6.281 6.483,-6.281 l 13.356,0 c 3.577,0 6.489,2.821 6.489,6.281 l 0,33.368 0,0.401 -0.174,0.363 C 5.59,-9.637 2.779,-3.667 0,0 m -7.454,-10.696 c -4.579,-3.325 -11.062,0 -11.062,0 0,0 3.369,7.196 6.224,10.465 l 10.06,0 c 2.851,-3.269 6.224,-10.465 6.224,-10.465 0,0 -6.872,3.323 -11.446,0"
             style="fill:#f6af2f;fill-opacity:1;fill-rule:nonzero;stroke:none"
             id="path22"
             inkscape:connector-curvature="0" /></g><g
           id="g24"
           transform="translate(59.9004,42.4298)"><path
             d="m 0,0 1.611,-20.564 13.022,0 L 16.242,0 0,0 Z M 8.246,-5.81 C 6.339,-7.06 1.601,-5.78 1.601,-5.78 l -0.369,4.67 13.774,0 -0.366,-4.725 c 0,0 -4.485,1.282 -6.394,0.025"
             style="fill:#f6af2f;fill-opacity:1;fill-rule:nonzero;stroke:none"
             id="path26"
             inkscape:connector-curvature="0" /></g><g
           id="g28"
           transform="translate(90.1675,50)"><path
             d="m 0,0 c 0,-22.181 -17.981,-40.162 -40.163,-40.162 -22.181,0 -40.162,17.981 -40.162,40.162 0,22.181 17.981,40.163 40.162,40.163 C -17.981,40.163 0,22.181 0,0 Z"
             style="fill:none;stroke:#f6af2f;stroke-width:1.27499998;stroke-linecap:butt;stroke-linejoin:miter;stroke-miterlimit:10;stroke-dasharray:none;stroke-opacity:1"
             id="path30"
             inkscape:connector-curvature="0" /></g></g></g></g></svg>