<?xml version="1.0" encoding="UTF-8" standalone="no"?>
<!-- Created with Inkscape (http://www.inkscape.org/) -->

<svg
   xmlns:dc="http://purl.org/dc/elements/1.1/"
   xmlns:cc="http://creativecommons.org/ns#"
   xmlns:rdf="http://www.w3.org/1999/02/22-rdf-syntax-ns#"
   xmlns:svg="http://www.w3.org/2000/svg"
   xmlns="http://www.w3.org/2000/svg"
   xmlns:sodipodi="http://sodipodi.sourceforge.net/DTD/sodipodi-0.dtd"
   xmlns:inkscape="http://www.inkscape.org/namespaces/inkscape"
   id="svg2"
   version="1.1"
   inkscape:version="0.91 r13725"
   xml:space="preserve"
   width="125.0125"
   height="125"
   viewBox="0 0 125.0125 125"
   sodipodi:docname="molluscs.svg"><metadata
     id="metadata8"><rdf:RDF><cc:Work
         rdf:about=""><dc:format>image/svg+xml</dc:format><dc:type
           rdf:resource="http://purl.org/dc/dcmitype/StillImage" /><dc:title></dc:title></cc:Work></rdf:RDF></metadata><defs
     id="defs6"><clipPath
       clipPathUnits="userSpaceOnUse"
       id="clipPath16"><path
         d="m 0,100 100.01,0 0,-100 L 0,0 0,100 Z"
         id="path18"
         inkscape:connector-curvature="0" /></clipPath></defs><sodipodi:namedview
     pagecolor="#ffffff"
     bordercolor="#666666"
     borderopacity="1"
     objecttolerance="10"
     gridtolerance="10"
     guidetolerance="10"
     inkscape:pageopacity="0"
     inkscape:pageshadow="2"
     inkscape:window-width="839"
     inkscape:window-height="480"
     id="namedview4"
     showgrid="false"
     inkscape:zoom="1.888"
     inkscape:cx="62.506248"
     inkscape:cy="62.5"
     inkscape:window-x="0"
     inkscape:window-y="0"
     inkscape:window-maximized="0"
     inkscape:current-layer="g10" /><g
     id="g10"
     inkscape:groupmode="layer"
     inkscape:label="molluscs"
     transform="matrix(1.25,0,0,-1.25,0,125)"><g
       id="g12"><g
         id="g14"
         clip-path="url(#clipPath16)"><g
           id="g20"
           transform="translate(75.6428,53.2946)"><path
             d="m 0,0 c 1.63,-8.999 -2.154,-20.524 -14.907,-23.255 -1.112,-0.238 -2.198,-0.651 -3.32,-0.771 -2.15,-0.23 -3.388,-1.22 -4.17,-3.262 -1.392,-3.632 -3.318,-3.95 -6.254,-1.274 -1.023,0.931 -2.035,1.887 -2.938,2.926 -1.158,1.333 -2.513,2.028 -4.343,1.919 -1.348,-0.08 -2.717,0.156 -3.512,1.346 -1.563,2.34 -3.902,3.586 -6.4,4.698 -1.108,0.493 -2.183,1.108 -3.163,1.812 -3.105,2.232 -3.24,3.279 -0.564,6.009 1.268,1.293 1.053,2.557 0.589,4.001 -1.392,4.332 -2.367,8.69 -1.711,13.307 0.523,3.681 2.284,6.598 5.091,8.955 4.921,4.131 10.653,6.123 16.765,5.899 C -14.365,22.27 -2.345,12.945 0,0 m -37.177,-19.232 c 9.739,8.784 18.998,17.943 25.697,29.075 -7.929,-10.212 -17.061,-19.45 -25.697,-29.075 m 16.934,34.444 c -7.717,-9.626 -14.163,-19.899 -18.212,-31.384 5.54,10.735 11.812,21.092 18.212,31.384 M -4.869,-0.792 c -8.499,-8.578 -19.384,-14.051 -29.649,-20.33 11.184,5.084 22.036,10.599 29.649,20.33 m -22.813,20.758 c -6.817,-9.977 -12.915,-20.2 -12.274,-32.716 0.742,12.04 7.015,22.207 12.274,32.716 M -38.79,17.91 c -3.997,-9.989 -5.026,-20.319 -4.015,-30.872 0.741,10.364 1.62,20.701 4.015,30.872 m 8.729,-40.243 c 10.487,1.415 19.645,5.43 27.391,12.207 -8.408,-5.482 -17.588,-9.454 -27.391,-12.207"
             style="fill:#3498db;fill-opacity:1;fill-rule:nonzero;stroke:none"
             id="path22"
             inkscape:connector-curvature="0" /></g><g
           id="g24"
           transform="translate(90.1675,50.0005)"><path
             d="m 0,0 c 0,-22.181 -17.981,-40.163 -40.162,-40.163 -22.182,0 -40.163,17.982 -40.163,40.163 0,22.181 17.981,40.162 40.163,40.162 C -17.981,40.162 0,22.181 0,0 Z"
             style="fill:none;stroke:#3498db;stroke-width:1.27499998;stroke-linecap:butt;stroke-linejoin:miter;stroke-miterlimit:10;stroke-dasharray:none;stroke-opacity:1"
             id="path26"
             inkscape:connector-curvature="0" /></g></g></g></g></svg>