<?xml version="1.0" encoding="UTF-8" standalone="no"?>
<!-- Created with Inkscape (http://www.inkscape.org/) -->

<svg
   xmlns:dc="http://purl.org/dc/elements/1.1/"
   xmlns:cc="http://creativecommons.org/ns#"
   xmlns:rdf="http://www.w3.org/1999/02/22-rdf-syntax-ns#"
   xmlns:svg="http://www.w3.org/2000/svg"
   xmlns="http://www.w3.org/2000/svg"
   xmlns:sodipodi="http://sodipodi.sourceforge.net/DTD/sodipodi-0.dtd"
   xmlns:inkscape="http://www.inkscape.org/namespaces/inkscape"
   id="svg2"
   version="1.1"
   inkscape:version="0.91 r13725"
   xml:space="preserve"
   width="125.0125"
   height="125"
   viewBox="0 0 125.0125 125"
   sodipodi:docname="mustard.svg"><metadata
     id="metadata8"><rdf:RDF><cc:Work
         rdf:about=""><dc:format>image/svg+xml</dc:format><dc:type
           rdf:resource="http://purl.org/dc/dcmitype/StillImage" /><dc:title></dc:title></cc:Work></rdf:RDF></metadata><defs
     id="defs6"><clipPath
       clipPathUnits="userSpaceOnUse"
       id="clipPath16"><path
         d="m 0,100 100.01,0 0,-100 L 0,0 0,100 Z"
         id="path18"
         inkscape:connector-curvature="0" /></clipPath></defs><sodipodi:namedview
     pagecolor="#ffffff"
     bordercolor="#666666"
     borderopacity="1"
     objecttolerance="10"
     gridtolerance="10"
     guidetolerance="10"
     inkscape:pageopacity="0"
     inkscape:pageshadow="2"
     inkscape:window-width="839"
     inkscape:window-height="480"
     id="namedview4"
     showgrid="false"
     inkscape:zoom="1.888"
     inkscape:cx="62.506248"
     inkscape:cy="62.5"
     inkscape:window-x="0"
     inkscape:window-y="0"
     inkscape:window-maximized="0"
     inkscape:current-layer="g10" /><g
     id="g10"
     inkscape:groupmode="layer"
     inkscape:label="mustard"
     transform="matrix(1.25,0,0,-1.25,0,125)"><g
       id="g12"><g
         id="g14"
         clip-path="url(#clipPath16)"><g
           id="g20"
           transform="translate(59.9745,53.8252)"><path
             d="m 0,0 c 0,0 -7.715,-0.79 -10.247,-0.79 -2.28,0 -9.003,0.79 -9.003,0.79 l 0,-19.103 c 0,0 6.747,-0.571 9.003,-0.58 2.566,-0.01 10.247,0.58 10.247,0.58 L 0,0 Z m -11.019,-32.513 c -0.042,0.011 -0.084,0.028 -0.127,0.031 -0.226,0.018 -0.452,0.043 -0.678,0.046 -0.293,0.004 -0.584,0.036 -0.875,0.061 -0.56,0.048 -1.119,0.117 -1.675,0.204 -1.594,0.25 -3.152,0.634 -4.653,1.23 -0.312,0.124 -0.618,0.261 -0.92,0.41 -0.134,0.066 -0.242,0.157 -0.331,0.276 -0.596,0.795 -0.975,1.68 -1.143,2.655 -0.055,0.322 -0.085,0.646 -0.09,0.973 -0.009,0.522 -0.024,1.044 -0.056,1.564 -0.018,0.304 -0.016,0.609 -0.036,0.912 -0.031,0.478 -0.023,0.957 -0.052,1.434 -0.02,0.333 -0.019,0.666 -0.035,0.999 -0.024,0.514 -0.028,1.029 -0.053,1.542 -0.021,0.413 -0.013,0.827 -0.039,1.239 -0.032,0.514 -0.017,1.029 -0.048,1.542 -0.028,0.478 -0.012,0.957 -0.041,1.434 -0.035,0.587 -0.013,1.174 -0.046,1.76 -0.033,0.601 -0.01,1.204 -0.042,1.804 -0.039,0.717 -0.011,1.435 -0.044,2.151 -0.047,1.015 -0.01,2.03 -0.044,3.044 -0.05,1.514 -0.019,3.029 -0.03,4.543 -0.003,0.341 -0.013,0.683 0.007,1.022 0.04,0.659 0.019,1.319 0.043,1.978 0.022,0.615 0.047,1.231 0.086,1.845 0.032,0.492 0.081,0.982 0.134,1.472 0.072,0.678 0.3,1.312 0.58,1.93 0.466,1.028 1.043,1.994 1.641,2.949 0.486,0.776 0.994,1.538 1.513,2.293 0.597,0.868 1.2,1.733 1.798,2.6 0.157,0.228 0.303,0.462 0.458,0.691 0.073,0.108 0.093,0.223 0.08,0.351 -0.035,0.354 -0.026,0.71 -0.021,1.065 0.002,0.115 0.011,0.224 -0.023,0.338 -0.025,0.081 -0.016,0.173 -0.017,0.259 -0.002,0.769 -0.003,1.537 -0.005,2.306 -10e-4,0.652 -0.003,1.304 -0.004,1.957 0,0.108 0,0.217 -0.025,0.324 -0.035,0.155 0.018,0.285 0.125,0.397 0.092,0.096 0.197,0.172 0.314,0.235 0.309,0.17 0.641,0.284 0.98,0.376 0.628,0.17 1.27,0.276 1.916,0.357 0.095,0.012 0.188,0.028 0.282,0.041 0.082,0.013 0.131,0.061 0.15,0.139 0.015,0.056 0.028,0.113 0.039,0.169 0.465,2.303 0.93,4.606 1.395,6.909 0.167,0.824 0.332,1.649 0.499,2.473 0.014,0.071 0.029,0.142 0.044,0.213 0.021,0.097 0.076,0.171 0.161,0.224 0.557,0.346 1.087,0.345 1.648,-0.008 0.1,-0.064 0.145,-0.155 0.167,-0.268 0.07,-0.356 0.144,-0.711 0.216,-1.066 0.573,-2.828 1.146,-5.657 1.719,-8.485 0.007,-0.036 0.019,-0.07 0.023,-0.106 0.015,-0.14 0.103,-0.199 0.234,-0.217 0.253,-0.034 0.507,-0.067 0.759,-0.106 0.492,-0.075 0.979,-0.176 1.456,-0.316 0.26,-0.076 0.513,-0.17 0.755,-0.293 0.104,-0.053 0.204,-0.113 0.294,-0.188 0.074,-0.062 0.136,-0.132 0.179,-0.218 0.044,-0.088 0.064,-0.182 0.021,-0.273 -0.051,-0.11 -0.047,-0.222 -0.044,-0.339 0.006,-0.246 0,-0.492 -10e-4,-0.739 -0.003,-0.37 0.008,-0.74 -0.012,-1.109 -0.045,-0.818 -0.025,-1.637 -0.042,-2.456 -10e-4,-0.058 -0.003,-0.117 -0.014,-0.173 -0.015,-0.08 -0.011,-0.156 0.01,-0.235 0.017,-0.062 0.013,-0.13 0.015,-0.195 0.011,-0.333 -0.009,-0.667 0.023,-0.999 0.009,-0.094 -0.018,-0.172 -0.105,-0.222 -0.026,-0.014 -0.051,-0.029 -0.074,-0.046 -0.057,-0.042 -0.065,-0.075 -0.028,-0.128 0.029,-0.042 0.062,-0.081 0.094,-0.121 0.671,-0.833 1.317,-1.684 1.94,-2.553 C 0.157,10.206 0.965,8.99 1.667,7.707 2.13,6.859 2.554,5.991 2.847,5.067 3.004,4.574 3.109,4.071 3.158,3.557 3.202,3.11 3.244,2.663 3.277,2.215 3.303,1.868 3.313,1.52 3.332,1.173 3.387,0.181 3.381,-0.812 3.385,-1.805 3.386,-1.892 3.397,-1.978 3.418,-2.062 l 0,-7.961 c -0.021,-0.084 -0.032,-0.17 -0.033,-0.257 -0.017,-1.522 0.018,-3.045 -0.043,-4.566 -0.028,-0.695 -0.004,-1.391 -0.04,-2.087 -0.035,-0.68 -0.009,-1.362 -0.046,-2.043 -0.031,-0.564 -0.01,-1.129 -0.042,-1.695 -0.033,-0.585 -0.011,-1.173 -0.046,-1.76 -0.03,-0.499 -0.017,-0.999 -0.041,-1.499 -0.037,-0.745 -0.039,-1.492 -0.061,-2.239 -0.01,-0.332 -0.013,-0.668 -0.056,-0.997 -0.13,-0.99 -0.501,-1.888 -1.085,-2.7 -0.056,-0.077 -0.12,-0.146 -0.2,-0.199 -0.262,-0.173 -0.52,-0.351 -0.794,-0.505 -0.69,-0.387 -1.42,-0.683 -2.175,-0.92 -0.69,-0.218 -1.395,-0.382 -2.108,-0.509 -0.8,-0.141 -1.604,-0.238 -2.413,-0.31 -0.546,-0.049 -1.094,-0.075 -1.641,-0.111 -0.503,-0.032 -1.007,-0.039 -1.511,-0.056 -0.088,-0.003 -0.176,0 -0.259,-0.037 l -1.843,0 z"
             style="fill:#3498db;fill-opacity:1;fill-rule:nonzero;stroke:none"
             id="path22"
             inkscape:connector-curvature="0" /></g><g
           id="g24"
           transform="translate(90.1675,50)"><path
             d="m 0,0 c 0,-22.181 -17.981,-40.163 -40.163,-40.163 -22.181,0 -40.162,17.982 -40.162,40.163 0,22.181 17.981,40.162 40.162,40.162 C -17.981,40.162 0,22.181 0,0 Z"
             style="fill:none;stroke:#3498db;stroke-width:1.27499998;stroke-linecap:butt;stroke-linejoin:miter;stroke-miterlimit:10;stroke-dasharray:none;stroke-opacity:1"
             id="path26"
             inkscape:connector-curvature="0" /></g></g></g></g></svg>