<?xml version="1.0" encoding="UTF-8" standalone="no"?>
<!-- Created with Inkscape (http://www.inkscape.org/) -->

<svg
   xmlns:dc="http://purl.org/dc/elements/1.1/"
   xmlns:cc="http://creativecommons.org/ns#"
   xmlns:rdf="http://www.w3.org/1999/02/22-rdf-syntax-ns#"
   xmlns:svg="http://www.w3.org/2000/svg"
   xmlns="http://www.w3.org/2000/svg"
   xmlns:sodipodi="http://sodipodi.sourceforge.net/DTD/sodipodi-0.dtd"
   xmlns:inkscape="http://www.inkscape.org/namespaces/inkscape"
   id="svg2"
   version="1.1"
   inkscape:version="0.91 r13725"
   xml:space="preserve"
   width="125.0125"
   height="125"
   viewBox="0 0 125.0125 125"
   sodipodi:docname="peanut.svg"><metadata
     id="metadata8"><rdf:RDF><cc:Work
         rdf:about=""><dc:format>image/svg+xml</dc:format><dc:type
           rdf:resource="http://purl.org/dc/dcmitype/StillImage" /><dc:title></dc:title></cc:Work></rdf:RDF></metadata><defs
     id="defs6"><clipPath
       clipPathUnits="userSpaceOnUse"
       id="clipPath16"><path
         d="m 9.205,9.2 81.599,0 0,81.6 -81.599,0 0,-81.6 z"
         id="path18"
         inkscape:connector-curvature="0" /></clipPath></defs><sodipodi:namedview
     pagecolor="#ffffff"
     bordercolor="#666666"
     borderopacity="1"
     objecttolerance="10"
     gridtolerance="10"
     guidetolerance="10"
     inkscape:pageopacity="0"
     inkscape:pageshadow="2"
     inkscape:window-width="839"
     inkscape:window-height="480"
     id="namedview4"
     showgrid="false"
     inkscape:zoom="1.888"
     inkscape:cx="62.506248"
     inkscape:cy="62.5"
     inkscape:window-x="0"
     inkscape:window-y="0"
     inkscape:window-maximized="0"
     inkscape:current-layer="g10" /><g
     id="g10"
     inkscape:groupmode="layer"
     inkscape:label="peanut"
     transform="matrix(1.25,0,0,-1.25,0,125)"><g
       id="g12"><g
         id="g14"
         clip-path="url(#clipPath16)"><g
           id="g20"
           transform="translate(49.5748,48.3277)"><path
             d="m 0,0 c -0.036,1.279 -0.436,2.609 -2.325,2.683 -1.852,0.072 -3.999,-2.681 -4.029,-5.057 -0.019,-1.548 0.415,-2.872 2.3,-2.945 C -2.216,-5.391 -0.059,-2.608 0,0 m -15.222,-19.998 c -0.02,-2.644 2.154,-5.441 4.128,-5.385 1.885,0.053 2.346,1.353 2.349,2.87 0.005,2.335 -2.094,4.979 -3.971,5.04 -1.89,0.061 -2.431,-1.126 -2.506,-2.525 m 17.577,1.158 c 0.088,-1.168 0.565,-2.291 2.273,-2.362 2.064,-0.086 4.238,2.526 4.2,5.063 -0.023,1.515 -0.419,2.832 -2.352,2.813 -1.935,-0.02 -4.16,-2.908 -4.121,-5.514 m -5.951,5.697 c 0.156,-1.352 0.586,-2.651 2.488,-2.598 1.921,0.053 4.167,2.989 4.045,5.312 -0.074,1.406 -0.627,2.531 -2.341,2.552 -2.014,0.025 -4.228,-2.699 -4.192,-5.266 m -2.105,2.713 c -0.003,1.692 -1.044,2.851 -2.519,2.803 -1.972,-0.064 -4.163,-2.932 -4.028,-5.37 0.078,-1.401 0.586,-2.603 2.298,-2.668 1.901,-0.072 4.252,2.876 4.249,5.235 M -7.705,0.252 c -0.106,1.187 -0.47,2.42 -2.182,2.562 -1.909,0.158 -4.322,-2.652 -4.337,-5.098 -0.009,-1.527 0.528,-2.807 2.381,-2.892 1.963,-0.091 4.155,2.729 4.138,5.428 m -12.076,-12.393 c 0.413,-1.689 0.413,-3.997 2.873,-3.852 2.548,0.15 3.03,2.459 3.03,4.469 0,1.762 -0.328,3.996 -2.763,3.874 -2.593,-0.13 -2.748,-2.511 -3.14,-4.491 m 13.182,-12.052 c 0.025,-1.761 1.01,-2.934 2.405,-2.868 1.898,0.091 4.209,3.025 4.132,5.327 -0.052,1.523 -0.573,2.811 -2.436,2.818 -1.982,0.007 -4.136,-2.836 -4.101,-5.277 m 3.187,-5.353 c -11.638,-0.048 -20.271,10.11 -18.147,20.84 0.813,4.109 2.438,7.93 5.06,11.178 4.414,5.469 6.506,11.616 7.356,18.456 1.093,8.799 7.835,13.768 16.777,13.215 7.694,-0.475 14.181,-9.066 12.198,-15.465 -1.038,-3.352 -2.045,-6.709 -3.311,-9.982 -1.857,-4.805 -2.268,-9.697 -1.492,-14.765 1.3,-8.491 -3.097,-17.27 -10.576,-21.458 -2.567,-1.438 -5.303,-2.168 -7.865,-2.019"
             style="fill:#3498db;fill-opacity:1;fill-rule:nonzero;stroke:none"
             id="path22"
             inkscape:connector-curvature="0" /></g><g
           id="g24"
           transform="translate(90.1675,50)"><path
             d="m 0,0 c 0,-22.181 -17.981,-40.163 -40.163,-40.163 -22.181,0 -40.162,17.982 -40.162,40.163 0,22.181 17.981,40.162 40.162,40.162 C -17.981,40.162 0,22.181 0,0 Z"
             style="fill:none;stroke:#3498db;stroke-width:1.27499998;stroke-linecap:butt;stroke-linejoin:miter;stroke-miterlimit:10;stroke-dasharray:none;stroke-opacity:1"
             id="path26"
             inkscape:connector-curvature="0" /></g></g></g></g></svg>