<?xml version="1.0" encoding="UTF-8" standalone="no"?>
<!-- Created with Inkscape (http://www.inkscape.org/) -->

<svg
   xmlns:dc="http://purl.org/dc/elements/1.1/"
   xmlns:cc="http://creativecommons.org/ns#"
   xmlns:rdf="http://www.w3.org/1999/02/22-rdf-syntax-ns#"
   xmlns:svg="http://www.w3.org/2000/svg"
   xmlns="http://www.w3.org/2000/svg"
   xmlns:sodipodi="http://sodipodi.sourceforge.net/DTD/sodipodi-0.dtd"
   xmlns:inkscape="http://www.inkscape.org/namespaces/inkscape"
   id="svg2"
   version="1.1"
   inkscape:version="0.91 r13725"
   xml:space="preserve"
   width="125.0125"
   height="125"
   viewBox="0 0 125.0125 125"
   sodipodi:docname="sesame.svg"><metadata
     id="metadata8"><rdf:RDF><cc:Work
         rdf:about=""><dc:format>image/svg+xml</dc:format><dc:type
           rdf:resource="http://purl.org/dc/dcmitype/StillImage" /><dc:title></dc:title></cc:Work></rdf:RDF></metadata><defs
     id="defs6"><clipPath
       clipPathUnits="userSpaceOnUse"
       id="clipPath16"><path
         d="m 9.205,9.2 81.599,0 0,81.6 -81.599,0 0,-81.6 z"
         id="path18"
         inkscape:connector-curvature="0" /></clipPath></defs><sodipodi:namedview
     pagecolor="#ffffff"
     bordercolor="#666666"
     borderopacity="1"
     objecttolerance="10"
     gridtolerance="10"
     guidetolerance="10"
     inkscape:pageopacity="0"
     inkscape:pageshadow="2"
     inkscape:window-width="839"
     inkscape:window-height="480"
     id="namedview4"
     showgrid="false"
     inkscape:zoom="1.888"
     inkscape:cx="62.506248"
     inkscape:cy="62.5"
     inkscape:window-x="0"
     inkscape:window-y="0"
     inkscape:window-maximized="0"
     inkscape:current-layer="g10" /><g
     id="g10"
     inkscape:groupmode="layer"
     inkscape:label="sesame"
     transform="matrix(1.25,0,0,-1.25,0,125)"><g
       id="g12"><g
         id="g14"
         clip-path="url(#clipPath16)"><g
           id="g20"
           transform="translate(61.4892,39.7177)"><path
             d="m 0,0 c -2.644,1.969 -3.905,6.464 -2.255,8.446 1.55,1.863 3.36,1.329 5.034,0.13 C 5.309,6.764 6.538,2.037 5.063,0.058 3.979,-1.396 1.907,-1.42 0,0"
             style="fill:#3498db;fill-opacity:1;fill-rule:nonzero;stroke:none"
             id="path22"
             inkscape:connector-curvature="0" /></g><g
           id="g24"
           transform="translate(37.6639,36.3884)"><path
             d="M 0,0 C -1.796,2.019 -4.217,4.129 -2.209,6.837 -0.323,9.379 2.342,7.876 4.229,6.428 6.381,4.777 8.454,2.399 6.505,-0.28 4.623,-2.867 2.152,-0.972 0,0"
             style="fill:#3498db;fill-opacity:1;fill-rule:nonzero;stroke:none"
             id="path26"
             inkscape:connector-curvature="0" /></g><g
           id="g28"
           transform="translate(34.3921,58.6767)"><path
             d="M 0,0 C 2.905,-2.199 4.11,-6.713 2.387,-8.607 0.761,-10.396 -1.054,-9.884 -2.682,-8.621 -5.291,-6.598 -6.301,-1.87 -4.551,-0.085 -2.981,1.515 -1.359,0.868 0,0"
             style="fill:#3498db;fill-opacity:1;fill-rule:nonzero;stroke:none"
             id="path30"
             inkscape:connector-curvature="0" /></g><g
           id="g32"
           transform="translate(47.493,51.9177)"><path
             d="m 0,0 c 2.529,-1.933 3.739,-6.712 2.088,-8.56 -1.487,-1.664 -3.195,-1.187 -4.76,-0.114 -2.724,1.865 -3.98,6.417 -2.416,8.448 C -3.919,1.293 -1.814,1.386 0,0"
             style="fill:#3498db;fill-opacity:1;fill-rule:nonzero;stroke:none"
             id="path34"
             inkscape:connector-curvature="0" /></g><g
           id="g36"
           transform="translate(52.1418,51.8022)"><path
             d="M 0,0 C -2.779,2.072 -3.863,6.529 -2.168,8.529 -0.727,10.23 0.937,9.861 2.503,8.782 5.093,6.997 6.378,2.334 4.843,0.363 3.325,-1.588 1.578,-0.953 0,0"
             style="fill:#3498db;fill-opacity:1;fill-rule:nonzero;stroke:none"
             id="path38"
             inkscape:connector-curvature="0" /></g><g
           id="g40"
           transform="translate(63.1721,53.0947)"><path
             d="m 0,0 c -2.823,2.1 -4.074,6.703 -2.492,8.66 1.579,1.955 3.318,1.271 4.96,0.05 C 5.217,6.667 6.213,2.341 4.413,0.342 2.921,-1.314 1.325,-0.871 0,0"
             style="fill:#3498db;fill-opacity:1;fill-rule:nonzero;stroke:none"
             id="path42"
             inkscape:connector-curvature="0" /></g><g
           id="g44"
           transform="translate(49.8551,34.5122)"><path
             d="M 0,0 C -1.435,1.224 -2.26,2.741 -0.629,4.587 0.991,6.42 5.562,6.355 8.058,4.433 9.68,3.185 10.691,1.654 9.187,-0.28 7.612,-2.306 2.815,-2.191 0,0"
             style="fill:#3498db;fill-opacity:1;fill-rule:nonzero;stroke:none"
             id="path46"
             inkscape:connector-curvature="0" /></g><g
           id="g48"
           transform="translate(41.0433,66.1991)"><path
             d="m 0,0 c 2.745,-2.2 3.939,-6.648 2.34,-8.433 -1.64,-1.832 -3.418,-1.179 -5.059,0.11 -2.521,1.98 -3.691,6.394 -2.08,8.193 C -3.156,1.705 -1.399,1.014 0,0"
             style="fill:#3498db;fill-opacity:1;fill-rule:nonzero;stroke:none"
             id="path50"
             inkscape:connector-curvature="0" /></g><g
           id="g52"
           transform="translate(90.1676,50)"><path
             d="m 0,0 c 0,-22.181 -17.981,-40.162 -40.163,-40.162 -22.181,0 -40.162,17.981 -40.162,40.162 0,22.181 17.981,40.163 40.162,40.163 C -17.981,40.163 0,22.181 0,0 Z"
             style="fill:none;stroke:#3498db;stroke-width:1.27499998;stroke-linecap:butt;stroke-linejoin:miter;stroke-miterlimit:10;stroke-dasharray:none;stroke-opacity:1"
             id="path54"
             inkscape:connector-curvature="0" /></g></g></g></g></svg>