<?xml version="1.0" encoding="UTF-8" standalone="no"?>
<!-- Created with Inkscape (http://www.inkscape.org/) -->

<svg
   xmlns:dc="http://purl.org/dc/elements/1.1/"
   xmlns:cc="http://creativecommons.org/ns#"
   xmlns:rdf="http://www.w3.org/1999/02/22-rdf-syntax-ns#"
   xmlns:svg="http://www.w3.org/2000/svg"
   xmlns="http://www.w3.org/2000/svg"
   xmlns:sodipodi="http://sodipodi.sourceforge.net/DTD/sodipodi-0.dtd"
   xmlns:inkscape="http://www.inkscape.org/namespaces/inkscape"
   id="svg2"
   version="1.1"
   inkscape:version="0.91 r13725"
   xml:space="preserve"
   width="125.0125"
   height="125"
   viewBox="0 0 125.0125 125"
   sodipodi:docname="soya.svg"><metadata
     id="metadata8"><rdf:RDF><cc:Work
         rdf:about=""><dc:format>image/svg+xml</dc:format><dc:type
           rdf:resource="http://purl.org/dc/dcmitype/StillImage" /><dc:title></dc:title></cc:Work></rdf:RDF></metadata><defs
     id="defs6"><clipPath
       clipPathUnits="userSpaceOnUse"
       id="clipPath16"><path
         d="m 9.205,9.2 81.599,0 0,81.6 -81.599,0 0,-81.6 z"
         id="path18"
         inkscape:connector-curvature="0" /></clipPath></defs><sodipodi:namedview
     pagecolor="#ffffff"
     bordercolor="#666666"
     borderopacity="1"
     objecttolerance="10"
     gridtolerance="10"
     guidetolerance="10"
     inkscape:pageopacity="0"
     inkscape:pageshadow="2"
     inkscape:window-width="839"
     inkscape:window-height="480"
     id="namedview4"
     showgrid="false"
     inkscape:zoom="1.888"
     inkscape:cx="62.506248"
     inkscape:cy="62.5"
     inkscape:window-x="0"
     inkscape:window-y="0"
     inkscape:window-maximized="0"
     inkscape:current-layer="g10" /><g
     id="g10"
     inkscape:groupmode="layer"
     inkscape:label="soya"
     transform="matrix(1.25,0,0,-1.25,0,125)"><g
       id="g12"><g
         id="g14"
         clip-path="url(#clipPath16)"><g
           id="g20"
           transform="translate(64.4472,26.5599)"><path
             d="m 0,0 c 1.001,0 2.247,-0.078 3.48,0.014 4.609,0.345 5.307,1.592 3.4,5.648 -2.513,5.347 -6.551,8.927 -12.435,10.354 -2.952,0.717 -4.764,2.34 -5.644,5.241 -1.064,3.505 -3.176,6.33 -6.919,7.488 -3.055,0.945 -4.805,2.87 -5.715,5.814 -2.046,6.619 -7.672,9.533 -13.524,12.16 -0.987,0.444 -2.091,0.613 -1.932,-0.932 0.708,-6.873 -0.017,-14.232 6.487,-19.247 1.71,-1.319 2.607,-3.068 3.035,-5.123 1.262,-6.06 5.125,-9.655 11.212,-11.043 2.822,-0.643 5.387,-1.852 6.525,-4.49 C -9.743,0.582 -5.501,-0.617 0,0"
             style="fill:#f6af2f;fill-opacity:1;fill-rule:nonzero;stroke:none"
             id="path22"
             inkscape:connector-curvature="0" /></g><g
           id="g24"
           transform="translate(90.1675,50)"><path
             d="m 0,0 c 0,-22.181 -17.981,-40.163 -40.163,-40.163 -22.181,0 -40.162,17.982 -40.162,40.163 0,22.181 17.981,40.163 40.162,40.163 C -17.981,40.163 0,22.181 0,0 Z"
             style="fill:none;stroke:#f6af2f;stroke-width:1.27499998;stroke-linecap:butt;stroke-linejoin:miter;stroke-miterlimit:10;stroke-dasharray:none;stroke-opacity:1"
             id="path26"
             inkscape:connector-curvature="0" /></g></g></g></g></svg>