<?xml version="1.0" encoding="UTF-8" standalone="no"?>
<!-- Created with Inkscape (http://www.inkscape.org/) -->

<svg
   xmlns:dc="http://purl.org/dc/elements/1.1/"
   xmlns:cc="http://creativecommons.org/ns#"
   xmlns:rdf="http://www.w3.org/1999/02/22-rdf-syntax-ns#"
   xmlns:svg="http://www.w3.org/2000/svg"
   xmlns="http://www.w3.org/2000/svg"
   xmlns:sodipodi="http://sodipodi.sourceforge.net/DTD/sodipodi-0.dtd"
   xmlns:inkscape="http://www.inkscape.org/namespaces/inkscape"
   id="svg2"
   version="1.1"
   inkscape:version="0.91 r13725"
   xml:space="preserve"
   width="125.0125"
   height="125"
   viewBox="0 0 125.0125 125"
   sodipodi:docname="sulphurdioxide.svg"><metadata
     id="metadata8"><rdf:RDF><cc:Work
         rdf:about=""><dc:format>image/svg+xml</dc:format><dc:type
           rdf:resource="http://purl.org/dc/dcmitype/StillImage" /><dc:title></dc:title></cc:Work></rdf:RDF></metadata><defs
     id="defs6"><clipPath
       clipPathUnits="userSpaceOnUse"
       id="clipPath16"><path
         d="m 9.205,9.2 81.599,0 0,81.6 -81.599,0 0,-81.6 z"
         id="path18"
         inkscape:connector-curvature="0" /></clipPath></defs><sodipodi:namedview
     pagecolor="#ffffff"
     bordercolor="#666666"
     borderopacity="1"
     objecttolerance="10"
     gridtolerance="10"
     guidetolerance="10"
     inkscape:pageopacity="0"
     inkscape:pageshadow="2"
     inkscape:window-width="839"
     inkscape:window-height="480"
     id="namedview4"
     showgrid="false"
     inkscape:zoom="1.888"
     inkscape:cx="62.506248"
     inkscape:cy="62.5"
     inkscape:window-x="0"
     inkscape:window-y="0"
     inkscape:window-maximized="0"
     inkscape:current-layer="g10" /><g
     id="g10"
     inkscape:groupmode="layer"
     inkscape:label="sulphurdioxide"
     transform="matrix(1.25,0,0,-1.25,0,125)"><g
       id="g12"><g
         id="g14"
         clip-path="url(#clipPath16)"><g
           id="g20"
           transform="translate(60.2717,28.8269)"><path
             d="M 0,0 C 0.15,0.174 0.426,0.417 0.829,0.73 1.231,1.043 1.519,1.273 1.689,1.42 1.86,1.566 2.028,1.769 2.193,2.027 2.357,2.285 2.439,2.572 2.439,2.889 2.439,3.09 2.4,3.284 2.321,3.471 2.242,3.658 2.132,3.823 1.99,3.966 1.849,4.108 1.685,4.221 1.497,4.302 1.208,4.424 0.859,4.485 0.449,4.485 0.11,4.485 -0.187,4.438 -0.439,4.342 -0.691,4.247 -0.9,4.121 -1.065,3.966 -1.229,3.811 -1.354,3.638 -1.437,3.446 -1.52,3.255 -1.561,3.072 -1.561,2.896 c 0,-0.145 0.044,-0.259 0.133,-0.343 0.088,-0.084 0.199,-0.126 0.333,-0.126 0.153,0 0.268,0.045 0.347,0.136 0.079,0.092 0.149,0.224 0.213,0.394 0.062,0.171 0.107,0.275 0.134,0.314 C -0.2,3.563 0.075,3.71 0.426,3.71 0.592,3.71 0.744,3.674 0.885,3.603 1.025,3.531 1.137,3.432 1.218,3.303 1.3,3.175 1.341,3.028 1.341,2.865 1.341,2.715 1.303,2.562 1.226,2.405 1.149,2.249 1.039,2.096 0.893,1.947 0.747,1.798 0.564,1.649 0.346,1.502 0.223,1.423 0.018,1.258 -0.269,1.007 -0.555,0.756 -0.876,0.455 -1.231,0.104 -1.317,0.017 -1.396,-0.103 -1.469,-0.254 -1.54,-0.405 -1.576,-0.526 -1.576,-0.618 c 0,-0.143 0.055,-0.267 0.168,-0.373 0.112,-0.106 0.268,-0.158 0.47,-0.158 l 2.953,0 c 0.176,0 0.307,0.043 0.395,0.129 0.087,0.087 0.13,0.193 0.13,0.318 0,0.14 -0.055,0.251 -0.164,0.332 -0.11,0.081 -0.27,0.122 -0.478,0.122 l -2.094,0 C -0.13,-0.151 -0.063,-0.068 0,0 M -5.45,3.581 C -5.702,3.075 -6.041,2.702 -6.467,2.46 -6.893,2.219 -7.359,2.098 -7.868,2.098 c -0.397,0 -0.761,0.069 -1.093,0.21 -0.333,0.139 -0.627,0.35 -0.883,0.633 -0.257,0.283 -0.455,0.638 -0.595,1.067 -0.141,0.429 -0.211,0.908 -0.211,1.438 0,0.527 0.07,1.001 0.211,1.423 0.14,0.423 0.332,0.77 0.575,1.041 0.243,0.272 0.533,0.479 0.869,0.621 0.337,0.143 0.703,0.213 1.1,0.213 0.557,0 1.051,-0.128 1.482,-0.385 0.43,-0.256 0.761,-0.635 0.993,-1.136 0.232,-0.501 0.348,-1.093 0.348,-1.777 0,-0.738 -0.126,-1.36 -0.378,-1.865 m -4.451,6.332 c -0.588,-0.223 -1.088,-0.545 -1.497,-0.965 -0.412,-0.42 -0.724,-0.929 -0.941,-1.528 -0.216,-0.599 -0.324,-1.256 -0.324,-1.974 0,-0.7 0.103,-1.351 0.311,-1.954 0.207,-0.603 0.514,-1.119 0.919,-1.548 0.407,-0.428 0.912,-0.76 1.519,-0.996 0.606,-0.235 1.293,-0.353 2.06,-0.353 0.771,0 1.455,0.114 2.052,0.343 0.598,0.23 1.102,0.561 1.512,0.994 0.41,0.433 0.718,0.944 0.923,1.534 0.205,0.591 0.307,1.246 0.307,1.968 0,0.976 -0.187,1.826 -0.561,2.549 -0.375,0.724 -0.927,1.283 -1.655,1.675 -0.73,0.393 -1.602,0.589 -2.619,0.589 -0.749,0 -1.418,-0.111 -2.006,-0.334 m -4.256,-5.164 c -0.176,0.325 -0.421,0.594 -0.736,0.806 -0.314,0.212 -0.695,0.392 -1.143,0.541 -0.448,0.148 -0.949,0.284 -1.502,0.407 -0.441,0.106 -0.758,0.187 -0.949,0.242 -0.192,0.056 -0.381,0.132 -0.569,0.23 -0.187,0.097 -0.335,0.213 -0.441,0.349 -0.107,0.136 -0.16,0.298 -0.16,0.485 0,0.301 0.157,0.559 0.47,0.773 0.315,0.215 0.729,0.321 1.242,0.321 0.552,0 0.954,-0.098 1.203,-0.296 0.25,-0.197 0.464,-0.471 0.642,-0.824 0.138,-0.246 0.266,-0.424 0.384,-0.532 0.118,-0.107 0.291,-0.162 0.519,-0.162 0.25,0 0.458,0.09 0.625,0.27 0.168,0.181 0.251,0.383 0.251,0.609 0,0.246 -0.067,0.499 -0.2,0.758 -0.134,0.258 -0.346,0.505 -0.636,0.741 -0.29,0.236 -0.655,0.425 -1.093,0.567 -0.439,0.142 -0.96,0.213 -1.562,0.213 -0.753,0 -1.409,-0.107 -1.966,-0.321 -0.557,-0.215 -0.983,-0.522 -1.278,-0.92 -0.294,-0.4 -0.441,-0.856 -0.441,-1.369 0,-0.539 0.14,-0.991 0.418,-1.354 0.279,-0.362 0.655,-0.649 1.131,-0.859 0.474,-0.21 1.064,-0.394 1.768,-0.551 0.527,-0.114 0.947,-0.223 1.261,-0.324 0.315,-0.103 0.57,-0.25 0.769,-0.443 0.198,-0.193 0.297,-0.445 0.297,-0.754 0,-0.391 -0.183,-0.716 -0.551,-0.978 -0.368,-0.261 -0.846,-0.392 -1.435,-0.392 -0.428,0 -0.773,0.066 -1.036,0.195 -0.264,0.13 -0.468,0.294 -0.612,0.493 -0.145,0.2 -0.28,0.448 -0.405,0.745 -0.102,0.251 -0.226,0.44 -0.371,0.567 -0.145,0.127 -0.322,0.191 -0.532,0.191 -0.258,0 -0.471,-0.082 -0.639,-0.245 -0.167,-0.163 -0.25,-0.36 -0.25,-0.589 0,-0.395 0.139,-0.801 0.418,-1.22 0.279,-0.418 0.641,-0.752 1.086,-1.002 0.629,-0.348 1.427,-0.522 2.395,-0.522 0.806,0 1.505,0.127 2.093,0.382 0.588,0.254 1.036,0.607 1.34,1.056 0.306,0.45 0.458,0.958 0.458,1.523 0,0.47 -0.087,0.869 -0.263,1.193 m 10.153,52.762 c 0.777,-0.779 0.246,-1.563 -0.069,-2.004 -0.915,-1.28 -0.656,-2.672 -0.85,-4.043 -0.711,-5.029 1.23,-9.411 3.379,-13.801 C 0.345,33.804 2.072,29.873 3.823,25.955 6.916,19.038 9.905,12.078 13.076,5.194 14.472,2.165 13.779,-0.67 12.44,-3.342 11.623,-4.971 9.545,-5.354 7.724,-5.361 -4.573,-5.41 -16.872,-5.411 -29.169,-5.366 c -2.465,0.009 -4.27,2.541 -4.624,5.703 -0.384,3.441 1.108,6.358 2.426,9.363 4.904,11.183 9.81,22.366 14.664,33.569 1.682,3.882 1.738,7.84 0.191,11.799 -0.181,0.465 -0.736,1.082 0.037,1.403 0.632,0.262 0.974,-0.347 1.272,-0.832 0.631,-1.028 0.902,-2.109 0.993,-3.317 0.353,-4.684 -0.812,-8.921 -2.828,-13.244 -3.326,-7.133 -6.239,-14.449 -9.562,-21.594 -0.755,-1.624 -0.272,-2.398 1.566,-2.399 9.675,-0.008 19.349,-0.006 29.024,-0.005 2.068,10e-4 2.632,0.873 1.798,2.69 -2.615,5.695 -5.184,11.408 -7.782,17.11 -1.234,2.709 -2.824,5.319 -3.662,8.133 -1.191,3.999 -0.732,8.168 -0.209,12.255 0.118,0.924 0.855,1.785 1.861,2.243"
             style="fill:#3498db;fill-opacity:1;fill-rule:nonzero;stroke:none"
             id="path22"
             inkscape:connector-curvature="0" /></g><g
           id="g24"
           transform="translate(90.1675,50)"><path
             d="m 0,0 c 0,-22.181 -17.981,-40.163 -40.162,-40.163 -22.182,0 -40.163,17.982 -40.163,40.163 0,22.181 17.981,40.162 40.163,40.162 C -17.981,40.162 0,22.181 0,0 Z"
             style="fill:none;stroke:#3498db;stroke-width:1.27499998;stroke-linecap:butt;stroke-linejoin:miter;stroke-miterlimit:10;stroke-dasharray:none;stroke-opacity:1"
             id="path26"
             inkscape:connector-curvature="0" /></g></g></g></g></svg>