<?xml version="1.0" encoding="UTF-8" standalone="no"?>
<!-- Created with Inkscape (http://www.inkscape.org/) -->

<svg
   xmlns:dc="http://purl.org/dc/elements/1.1/"
   xmlns:cc="http://creativecommons.org/ns#"
   xmlns:rdf="http://www.w3.org/1999/02/22-rdf-syntax-ns#"
   xmlns:svg="http://www.w3.org/2000/svg"
   xmlns="http://www.w3.org/2000/svg"
   xmlns:sodipodi="http://sodipodi.sourceforge.net/DTD/sodipodi-0.dtd"
   xmlns:inkscape="http://www.inkscape.org/namespaces/inkscape"
   id="svg2"
   version="1.1"
   inkscape:version="0.91 r13725"
   xml:space="preserve"
   width="125.0125"
   height="125"
   viewBox="0 0 125.0125 125"
   sodipodi:docname="treenut.svg"><metadata
     id="metadata8"><rdf:RDF><cc:Work
         rdf:about=""><dc:format>image/svg+xml</dc:format><dc:type
           rdf:resource="http://purl.org/dc/dcmitype/StillImage" /><dc:title></dc:title></cc:Work></rdf:RDF></metadata><defs
     id="defs6"><clipPath
       clipPathUnits="userSpaceOnUse"
       id="clipPath16"><path
         d="m 0,100 100.01,0 0,-100 L 0,0 0,100 Z"
         id="path18"
         inkscape:connector-curvature="0" /></clipPath></defs><sodipodi:namedview
     pagecolor="#ffffff"
     bordercolor="#666666"
     borderopacity="1"
     objecttolerance="10"
     gridtolerance="10"
     guidetolerance="10"
     inkscape:pageopacity="0"
     inkscape:pageshadow="2"
     inkscape:window-width="839"
     inkscape:window-height="480"
     id="namedview4"
     showgrid="false"
     inkscape:zoom="1.888"
     inkscape:cx="62.506248"
     inkscape:cy="62.5"
     inkscape:window-x="0"
     inkscape:window-y="0"
     inkscape:window-maximized="0"
     inkscape:current-layer="g10" /><g
     id="g10"
     inkscape:groupmode="layer"
     inkscape:label="treenut"
     transform="matrix(1.25,0,0,-1.25,0,125)"><g
       id="g12"><g
         id="g14"
         clip-path="url(#clipPath16)"><g
           id="g20"
           transform="translate(67.8544,51.8811)"><path
             d="m 0,0 c -0.003,0.168 -0.021,0.33 -0.037,0.493 -0.023,0.158 -0.055,0.31 -0.094,0.46 -0.058,0.102 -0.11,0.213 -0.151,0.336 -0.163,0.488 -1.047,1.487 -1.179,1.61 -0.873,0.817 -1.744,1.457 -2.7,2.16 -0.462,0.339 -2.008,1.687 -2.394,2.027 -1.946,1.718 -1.009,4.905 1.695,4.898 0.358,-10e-4 3.73,-1.536 4.69,-2.666 C 0.143,8.951 0.834,7.992 0.898,7.914 1.82,6.768 2.122,5.526 2.601,4.163 2.819,3.545 3.275,2.069 3.301,1.969 3.471,1.329 3.471,0.656 3.468,0 3.458,-2.237 0.037,-2.229 0,0 m 4.091,7.721 c -1.532,2.877 -4.095,4.701 -6.635,6.561 -2.026,1.483 -3.117,3.252 -2.502,5.778 0.249,1.021 0.701,2.104 -0.76,2.722 -1.327,0.562 -2.063,-0.149 -2.744,-1.072 -1.471,-1.993 -3.544,-2.366 -5.867,-2.017 -2.501,0.375 -4.989,0.836 -7.497,1.146 -3.756,0.463 -7.014,-0.589 -9.442,-3.466 -1.525,-1.807 -2.816,-3.723 -3.408,-6.122 -1.064,-4.311 -1.205,-4.284 3.023,-6.171 4.601,-2.053 9.207,-4.096 13.811,-6.142 4.903,-2.181 9.807,-4.362 14.711,-6.543 0.1,-0.044 0.208,-0.077 0.3,-0.134 2.22,-1.374 3.854,-0.577 5.422,1.181 3.675,4.12 4.241,9.295 1.588,14.279"
             style="fill:#3498db;fill-opacity:1;fill-rule:nonzero;stroke:none"
             id="path22"
             inkscape:connector-curvature="0" /></g><g
           id="g24"
           transform="translate(90.1675,50)"><path
             d="m 0,0 c 0,-22.181 -17.981,-40.163 -40.163,-40.163 -22.181,0 -40.162,17.982 -40.162,40.163 0,22.181 17.981,40.162 40.162,40.162 C -17.981,40.162 0,22.181 0,0 Z"
             style="fill:none;stroke:#3498db;stroke-width:1.27499998;stroke-linecap:butt;stroke-linejoin:miter;stroke-miterlimit:10;stroke-dasharray:none;stroke-opacity:1"
             id="path26"
             inkscape:connector-curvature="0" /></g><g
           id="g28"
           transform="translate(59.6931,39.0413)"><path
             d="m 0,0 c -0.088,-1.045 -0.188,-2.22 -0.725,-3.076 -4.046,-6.436 -10.575,-9.4 -17.814,-12.232 0.384,1.972 1.628,2.426 2.494,3.154 4.022,3.381 7.691,7.01 9.796,11.881 0.331,0.768 0.891,1.474 1.466,2.105 0.835,0.918 1.859,1.542 3.208,1.042 C -0.204,2.366 0.102,1.213 0,0 m 3.565,3.12 c -4.85,2.051 -9.634,4.251 -14.445,6.389 -4.911,2.184 -9.848,4.315 -14.719,6.579 -1.895,0.881 -2.876,0.501 -3.928,-1.294 -6.3,-10.737 -4.869,-20.766 2.283,-30.614 1.932,-2.662 3.292,-3.445 7.1,-3.342 13.267,0.359 20.436,7.575 25.328,18.316 0.933,2.05 0.433,3.098 -1.619,3.966"
             style="fill:#3498db;fill-opacity:1;fill-rule:nonzero;stroke:none"
             id="path30"
             inkscape:connector-curvature="0" /></g></g></g></g></svg>