<?xml version="1.0" encoding="UTF-8" standalone="no"?>
<!-- Created with Inkscape (http://www.inkscape.org/) -->

<svg
   xmlns:dc="http://purl.org/dc/elements/1.1/"
   xmlns:cc="http://creativecommons.org/ns#"
   xmlns:rdf="http://www.w3.org/1999/02/22-rdf-syntax-ns#"
   xmlns:svg="http://www.w3.org/2000/svg"
   xmlns="http://www.w3.org/2000/svg"
   xmlns:sodipodi="http://sodipodi.sourceforge.net/DTD/sodipodi-0.dtd"
   xmlns:inkscape="http://www.inkscape.org/namespaces/inkscape"
   id="svg2"
   version="1.1"
   inkscape:version="0.91 r13725"
   xml:space="preserve"
   width="125.0125"
   height="125"
   viewBox="0 0 125.0125 125"
   sodipodi:docname="wheat.svg"><metadata
     id="metadata8"><rdf:RDF><cc:Work
         rdf:about=""><dc:format>image/svg+xml</dc:format><dc:type
           rdf:resource="http://purl.org/dc/dcmitype/StillImage" /><dc:title></dc:title></cc:Work></rdf:RDF></metadata><defs
     id="defs6"><clipPath
       clipPathUnits="userSpaceOnUse"
       id="clipPath16"><path
         d="m 0,100 100.01,0 0,-100 L 0,0 0,100 Z"
         id="path18"
         inkscape:connector-curvature="0" /></clipPath></defs><sodipodi:namedview
     pagecolor="#ffffff"
     bordercolor="#666666"
     borderopacity="1"
     objecttolerance="10"
     gridtolerance="10"
     guidetolerance="10"
     inkscape:pageopacity="0"
     inkscape:pageshadow="2"
     inkscape:window-width="839"
     inkscape:window-height="480"
     id="namedview4"
     showgrid="false"
     inkscape:zoom="1.888"
     inkscape:cx="62.506248"
     inkscape:cy="62.5"
     inkscape:window-x="0"
     inkscape:window-y="0"
     inkscape:window-maximized="0"
     inkscape:current-layer="g10" /><g
     id="g10"
     inkscape:groupmode="layer"
     inkscape:label="wheat"
     transform="matrix(1.25,0,0,-1.25,0,125)"><g
       id="g12"><g
         id="g14"
         clip-path="url(#clipPath16)"><g
           id="g20"
           transform="translate(90.1675,49.9995)"><path
             d="m 0,0 c 0,-22.181 -17.981,-40.162 -40.163,-40.162 -22.181,0 -40.162,17.981 -40.162,40.162 0,22.181 17.981,40.163 40.162,40.163 C -17.981,40.163 0,22.181 0,0 Z"
             style="fill:none;stroke:#f6af2f;stroke-width:1.27499998;stroke-linecap:butt;stroke-linejoin:miter;stroke-miterlimit:10;stroke-dasharray:none;stroke-opacity:1"
             id="path22"
             inkscape:connector-curvature="0" /></g><g
           id="g24"
           transform="translate(41.8489,31.0942)"><path
             d="m 0,0 c 0.888,3.217 0.183,6.017 -2.165,8.413 -1.858,1.896 -3.583,3.882 -4.712,6.337 -0.471,1.024 -1.357,1.98 -1.965,0.117 -1.543,-4.728 -2.433,-9.494 0.12,-14.21 2.086,-3.853 4.517,-4.409 8.113,-1.843 0.055,-5.307 1.818,-6.78 7.086,-5.195 7.441,2.24 11.562,7.784 14.391,15.622 C 16.921,7.168 13.684,5.457 10.032,4.809 6.26,4.139 2.686,2.967 0,0 m 4.871,35.177 c 4.736,-1.217 7.347,1.469 5.894,6.265 C 9.507,45.6 6.298,48.866 5.728,53.968 1.962,48.307 1.759,42.919 4.493,35.568 2.21,36.441 1.495,38.993 -0.687,40.63 -1.532,35.631 -1.53,31.135 0.544,26.829 2.751,22.249 6.15,21.977 8.966,26.1 11.3,22.632 13.725,21.944 16.138,24.063 20.542,27.93 20.66,39.771 15.981,44.306 15.513,38.093 10.888,34.073 8.863,28.624 8.459,31.462 5.692,32.71 4.871,35.177 M 22.819,25.702 C 19.934,22.254 15.854,21.127 11.983,19.594 10.109,18.853 8.747,17.43 7.93,15.609 c -1.278,-2.85 0.314,-5.151 3.419,-5.089 1.375,0.027 2.575,0.509 3.735,1.212 5.152,3.124 7.316,7.961 7.735,13.97 m -26.151,3.026 c -1.236,-5.156 -1.637,-9.642 0.167,-14.038 1.243,-3.028 3.98,-4.297 6.364,-3.279 2.264,0.967 2.858,3.891 1.405,6.967 -0.174,0.368 -0.349,0.753 -0.606,1.061 -2.391,2.864 -4.982,5.56 -7.33,9.289"
             style="fill:#f6af2f;fill-opacity:1;fill-rule:nonzero;stroke:none"
             id="path26"
             inkscape:connector-curvature="0" /></g><g
           id="g28"
           transform="translate(46.0253,43.7894)"><path
             d="m 0,0 c -1.637,-4.846 -7.608,-14.583 -10.505,-19.503 -0.701,-1.19 -1.487,-2.831 0.204,-3.831 1.765,-1.045 3.159,0.022 4.132,1.505 C 0.647,-11.432 5.897,-0.363 6.766,12.206 7.353,20.689 5.161,28.689 0.556,35.999 4.221,22.447 3.464,10.253 0,0"
             style="fill:#f6af2f;fill-opacity:1;fill-rule:nonzero;stroke:none"
             id="path30"
             inkscape:connector-curvature="0" /></g></g></g></g></svg>