<?xml version="1.0" encoding="UTF-8" standalone="no"?>
<!-- Created with Inkscape (http://www.inkscape.org/) -->

<svg
   xmlns:dc="http://purl.org/dc/elements/1.1/"
   xmlns:cc="http://creativecommons.org/ns#"
   xmlns:rdf="http://www.w3.org/1999/02/22-rdf-syntax-ns#"
   xmlns:svg="http://www.w3.org/2000/svg"
   xmlns="http://www.w3.org/2000/svg"
   xmlns:sodipodi="http://sodipodi.sourceforge.net/DTD/sodipodi-0.dtd"
   xmlns:inkscape="http://www.inkscape.org/namespaces/inkscape"
   id="svg2"
   version="1.1"
   inkscape:version="0.91 r"
   xml:space="preserve"
   width="800"
   height="550"
   viewBox="0 0 800 550"
   sodipodi:docname="charity.svg"><metadata
     id="metadata8"><rdf:RDF><cc:Work
         rdf:about=""><dc:format>image/svg+xml</dc:format><dc:type
           rdf:resource="http://purl.org/dc/dcmitype/StillImage" /><dc:title></dc:title></cc:Work></rdf:RDF></metadata><defs
     id="defs6"><clipPath
       clipPathUnits="userSpaceOnUse"
       id="clipPath18"><path
         d="M 0,800 800,800 800,0 0,0 0,800 Z"
         id="path20"
         inkscape:connector-curvature="0" /></clipPath><clipPath
       clipPathUnits="userSpaceOnUse"
       id="clipPath26"><path
         d="m 82.3721,155.065 635.2559,0 0,-62.942 -635.2559,0 0,62.942 z"
         id="path28"
         inkscape:connector-curvature="0" /></clipPath><clipPath
       clipPathUnits="userSpaceOnUse"
       id="clipPath42"><path
         d="m 0,160.805 800,0 0,581.189 -800,0 0,-581.189 z"
         id="path44"
         inkscape:connector-curvature="0" /></clipPath><clipPath
       clipPathUnits="userSpaceOnUse"
       id="clipPath74"><path
         d="m 489.982,314.477 203.151,0 0,-56.74 -203.151,0 0,56.74 z"
         id="path76"
         inkscape:connector-curvature="0" /></clipPath><clipPath
       clipPathUnits="userSpaceOnUse"
       id="clipPath90"><path
         d="m 472.261,295.912 104.411,0 0,-16.189 -104.411,0 0,16.189 z"
         id="path92"
         inkscape:connector-curvature="0" /></clipPath><clipPath
       clipPathUnits="userSpaceOnUse"
       id="clipPath106"><path
         d="m 457.945,320.453 117.373,0 0,-12.296 -117.373,0 0,12.296 z"
         id="path108"
         inkscape:connector-curvature="0" /></clipPath><clipPath
       clipPathUnits="userSpaceOnUse"
       id="clipPath122"><path
         d="m 474.988,351.812 100.33,0 0,-15.222 -100.33,0 0,15.222 z"
         id="path124"
         inkscape:connector-curvature="0" /></clipPath><clipPath
       clipPathUnits="userSpaceOnUse"
       id="clipPath138"><path
         d="m 563.62,410.569 56.143,0 0,-51.757 -56.143,0 0,51.757 z"
         id="path140"
         inkscape:connector-curvature="0" /></clipPath><clipPath
       clipPathUnits="userSpaceOnUse"
       id="clipPath158"><path
         d="m 686.345,324.964 230.832,0 0,-73.675 -230.832,0 0,73.675 z"
         id="path160"
         inkscape:connector-curvature="0" /></clipPath><clipPath
       clipPathUnits="userSpaceOnUse"
       id="clipPath198"><path
         d="m 121.081,323.649 220.086,0 0,-60.948 -220.086,0 0,60.948 z"
         id="path200"
         inkscape:connector-curvature="0" /></clipPath><clipPath
       clipPathUnits="userSpaceOnUse"
       id="clipPath214"><path
         d="m 257.25,295.676 96.375,0 0,-10.157 -96.375,0 0,10.157 z"
         id="path216"
         inkscape:connector-curvature="0" /></clipPath><clipPath
       clipPathUnits="userSpaceOnUse"
       id="clipPath230"><path
         d="m 257.132,322.377 111.389,0 0,-12.482 -111.389,0 0,12.482 z"
         id="path232"
         inkscape:connector-curvature="0" /></clipPath><clipPath
       clipPathUnits="userSpaceOnUse"
       id="clipPath246"><path
         d="m 257.476,351.023 100.716,0 0,-12.69 -100.716,0 0,12.69 z"
         id="path248"
         inkscape:connector-curvature="0" /></clipPath><clipPath
       clipPathUnits="userSpaceOnUse"
       id="clipPath262"><path
         d="m 214.055,411.505 45.083,0 0,-34.467 -45.083,0 0,34.467 z"
         id="path264"
         inkscape:connector-curvature="0" /></clipPath><clipPath
       clipPathUnits="userSpaceOnUse"
       id="clipPath286"><path
         d="m -279.302,323.649 409.664,0 0,-70.634 -409.664,0 0,70.634 z"
         id="path288"
         inkscape:connector-curvature="0" /></clipPath><clipPath
       clipPathUnits="userSpaceOnUse"
       id="clipPath302"><path
         d="M 0,0 800,0 800,800 0,800 0,0 Z"
         id="path304"
         inkscape:connector-curvature="0" /></clipPath><clipPath
       clipPathUnits="userSpaceOnUse"
       id="clipPath314"><path
         d="m 186.486,612.505 397.407,0 0,-396.343 -397.407,0 0,396.343 z"
         id="path316"
         inkscape:connector-curvature="0" /></clipPath><clipPath
       clipPathUnits="userSpaceOnUse"
       id="clipPath330"><path
         d="m 389.559,601.103 126.013,0 0,-121.999 -126.013,0 0,121.999 z"
         id="path332"
         inkscape:connector-curvature="0" /></clipPath><clipPath
       clipPathUnits="userSpaceOnUse"
       id="clipPath346"><path
         d="m 202.522,568.607 302.918,0 0,-326.643 -302.918,0 0,326.643 z"
         id="path348"
         inkscape:connector-curvature="0" /></clipPath><clipPath
       clipPathUnits="userSpaceOnUse"
       id="clipPath362"><path
         d="m 423.748,593.809 68.97,0 0,-88.159 -68.97,0 0,88.159 z"
         id="path364"
         inkscape:connector-curvature="0" /></clipPath><clipPath
       clipPathUnits="userSpaceOnUse"
       id="clipPath410"><path
         d="m 466.877,623.503 168.799,0 0,-225.045 -168.799,0 0,225.045 z"
         id="path412"
         inkscape:connector-curvature="0" /></clipPath><clipPath
       clipPathUnits="userSpaceOnUse"
       id="clipPath426"><path
         d="m 298.452,621.245 92.578,0 0,-152.525 -92.578,0 0,152.525 z"
         id="path428"
         inkscape:connector-curvature="0" /></clipPath><clipPath
       clipPathUnits="userSpaceOnUse"
       id="clipPath442"><path
         d="m 0,160.805 800,0 0,581.189 -800,0 0,-581.189 z"
         id="path444"
         inkscape:connector-curvature="0" /></clipPath><clipPath
       clipPathUnits="userSpaceOnUse"
       id="clipPath470"><path
         d="m 489.982,314.477 203.151,0 0,-56.74 -203.151,0 0,56.74 z"
         id="path472"
         inkscape:connector-curvature="0" /></clipPath><clipPath
       clipPathUnits="userSpaceOnUse"
       id="clipPath486"><path
         d="m 472.261,295.912 104.411,0 0,-16.189 -104.411,0 0,16.189 z"
         id="path488"
         inkscape:connector-curvature="0" /></clipPath><clipPath
       clipPathUnits="userSpaceOnUse"
       id="clipPath502"><path
         d="m 457.945,320.453 117.373,0 0,-12.296 -117.373,0 0,12.296 z"
         id="path504"
         inkscape:connector-curvature="0" /></clipPath><clipPath
       clipPathUnits="userSpaceOnUse"
       id="clipPath518"><path
         d="m 474.988,351.812 100.33,0 0,-15.222 -100.33,0 0,15.222 z"
         id="path520"
         inkscape:connector-curvature="0" /></clipPath><clipPath
       clipPathUnits="userSpaceOnUse"
       id="clipPath534"><path
         d="m 593.213,385.755 26.55,0 0,-26.943 -26.55,0 0,26.943 z"
         id="path536"
         inkscape:connector-curvature="0" /></clipPath><clipPath
       clipPathUnits="userSpaceOnUse"
       id="clipPath554"><path
         d="m 686.345,324.964 230.832,0 0,-73.675 -230.832,0 0,73.675 z"
         id="path556"
         inkscape:connector-curvature="0" /></clipPath><clipPath
       clipPathUnits="userSpaceOnUse"
       id="clipPath590"><path
         d="m 121.081,323.649 220.086,0 0,-60.948 -220.086,0 0,60.948 z"
         id="path592"
         inkscape:connector-curvature="0" /></clipPath><clipPath
       clipPathUnits="userSpaceOnUse"
       id="clipPath606"><path
         d="m 257.25,295.676 96.375,0 0,-10.157 -96.375,0 0,10.157 z"
         id="path608"
         inkscape:connector-curvature="0" /></clipPath><clipPath
       clipPathUnits="userSpaceOnUse"
       id="clipPath622"><path
         d="m 257.132,322.377 111.389,0 0,-12.482 -111.389,0 0,12.482 z"
         id="path624"
         inkscape:connector-curvature="0" /></clipPath><clipPath
       clipPathUnits="userSpaceOnUse"
       id="clipPath638"><path
         d="m 257.476,351.023 100.716,0 0,-12.69 -100.716,0 0,12.69 z"
         id="path640"
         inkscape:connector-curvature="0" /></clipPath><clipPath
       clipPathUnits="userSpaceOnUse"
       id="clipPath654"><path
         d="m 214.423,380.782 1.549,0 0,-3.744 -1.549,0 0,3.744 z"
         id="path656"
         inkscape:connector-curvature="0" /></clipPath><clipPath
       clipPathUnits="userSpaceOnUse"
       id="clipPath678"><path
         d="m -279.302,323.649 409.664,0 0,-70.634 -409.664,0 0,70.634 z"
         id="path680"
         inkscape:connector-curvature="0" /></clipPath><clipPath
       clipPathUnits="userSpaceOnUse"
       id="clipPath694"><path
         d="M 0,800 800,800 800,0 0,0 0,800 Z"
         id="path696"
         inkscape:connector-curvature="0" /></clipPath></defs><sodipodi:namedview
     pagecolor="#ffffff"
     bordercolor="#666666"
     borderopacity="1"
     objecttolerance="10"
     gridtolerance="10"
     guidetolerance="10"
     inkscape:pageopacity="0"
     inkscape:pageshadow="2"
     inkscape:window-width="1600"
     inkscape:window-height="848"
     id="namedview4"
     showgrid="false"
     inkscape:zoom="0.472"
     inkscape:cx="88.566426"
     inkscape:cy="490.61262"
     inkscape:window-x="0"
     inkscape:window-y="0"
     inkscape:window-maximized="1"
     inkscape:current-layer="g440" /><g
     id="g10"
     inkscape:groupmode="layer"
     inkscape:label="66483-OC9LLL-269"
     transform="matrix(1.25,0,0,-1.25,0,550)"><g
       id="g298"
       transform="translate(0,-201.6)"><g
         id="g300"
         clip-path="url(#clipPath302)"><g
           id="g306"
           transform="translate(536.4077,623.2964)"><path
             d="m 0,0 c 57.794,-2.355 101.697,-48.702 99.164,-112.92 -3.269,-82.878 -56.615,-129.958 -125.317,-206.158 -39.23,-43.51 -63.204,-64.229 -102.434,-88.057 -28.332,30.043 -41.409,48.691 -88.267,80.806 -42.394,29.056 -91.892,70.396 -113.33,114.992 -40.44,84.124 -25.064,207.193 105.702,209.265 59.226,0.939 91.536,-30.043 102.434,-79.769 C -115.51,-29.007 -76.28,3.108 0,0"
             style="fill:#f74c67;fill-opacity:1;fill-rule:nonzero;stroke:none"
             id="path308"
             inkscape:connector-curvature="0" /></g><g
           id="g310"><g
             id="g312" /><g
             id="g318"><g
               clip-path="url(#clipPath314)"
               id="g320"
               style="opacity:0.30000299"><g
                 transform="translate(447.3528,365.1295)"
                 id="g322"><path
                   d="m 0,0 c -43.77,8.76 -70.97,27.991 -99.597,55.206 -34.745,33.031 -52.024,79.913 -58.781,126.097 -2.21,15.105 3.267,38.807 -5.795,52.167 -5.846,8.62 -13.962,12.409 -22.897,13.905 -82.482,-29.735 -88.378,-129.156 -54.059,-200.545 21.438,-44.597 70.935,-85.936 113.33,-114.992 46.858,-32.115 59.935,-50.763 88.267,-80.806 39.23,23.827 63.204,44.547 102.434,88.057 27.846,30.885 53.15,56.984 73.638,82.624 C 133.819,24.456 121.631,22.44 88.749,6.414 58.818,-8.175 22.354,-4.474 0,0"
                   style="fill:#f74c67;fill-opacity:1;fill-rule:nonzero;stroke:none"
                   id="path324"
                   inkscape:connector-curvature="0" /></g></g></g></g><g
           id="g326"><g
             id="g328" /><g
             id="g334"><g
               clip-path="url(#clipPath330)"
               id="g336"
               style="opacity:0.30000299"><g
                 transform="translate(515.3108,554.5673)"
                 id="g338"><path
                   d="m 0,0 c -2.295,23.457 -22.409,38.192 -43.77,44.896 -12.802,4.017 -24.933,0.623 -37.329,-9.873 -10.942,-12.945 -17.509,-29.2 -19.852,-48.135 -3.035,13.846 -7.735,26.234 -14.209,36.889 -0.743,0.433 -1.493,0.83 -2.244,1.145 -19.611,-14.591 0.078,-60.217 10.75,-74.985 16.946,-23.45 31.217,-30.155 59.429,-22.208 C -16.126,-63.511 2.73,-27.898 0,0"
                   style="fill:#f74c67;fill-opacity:1;fill-rule:nonzero;stroke:none"
                   id="path340"
                   inkscape:connector-curvature="0" /></g></g></g></g><g
           id="g342"><g
             id="g344" /><g
             id="g350"><g
               clip-path="url(#clipPath346)"
               id="g352"
               style="opacity:0.60000598"><g
                 transform="translate(202.6318,494.2458)"
                 id="g354"><path
                   d="m 0,0 c 3.479,-79.382 74.403,-162.544 157.217,-210.642 11.279,-6.55 32.679,-26.786 44.136,-37.964 4.551,-4.441 15.479,-4.727 21.089,-1.566 16.957,9.553 33.877,24.226 49.615,39.406 12.571,12.124 51.535,59.785 16.462,51.449 -20.732,-4.927 -43.489,-13.139 -58.74,-13.139 -17.277,0 -36.281,3.284 -62.196,16.424 -25.96,13.162 -43.004,26.903 -61.957,53.932 C 86.784,-75.232 67.757,-34.522 61.035,-8.958 45.486,50.17 49.617,83.266 29.37,72.267 17.277,65.698 -1.728,39.419 0,0"
                   style="fill:#f74c67;fill-opacity:1;fill-rule:nonzero;stroke:none"
                   id="path356"
                   inkscape:connector-curvature="0" /></g></g></g></g><g
           id="g358"><g
             id="g360" /><g
             id="g366"><g
               clip-path="url(#clipPath362)"
               id="g368"
               style="opacity:0.60000598"><g
                 transform="translate(423.7724,533.6644)"
                 id="g370"><path
                   d="M 0,0 C -0.638,17.836 11.051,67.874 38.009,59.128 51.685,54.691 58.595,47.083 64.733,37.003 71.642,25.659 70.143,12.721 59.558,-4.609 51.404,-17.96 43.159,-30.621 24.566,-27.55 7.987,-24.813 -3.631,-5.089 1.728,9.855"
                   style="fill:#f74c67;fill-opacity:1;fill-rule:nonzero;stroke:none"
                   id="path372"
                   inkscape:connector-curvature="0" /></g></g></g></g><g
           id="g374"
           transform="translate(542.981,604.2895)"><path
             d="M 0,0 C 13.477,10.25 50.227,-10.619 48.18,-28.136 46.834,-39.647 39.722,-39.366 32.483,-41.111 22.313,-43.563 12.365,-45.68 5.868,-33.326 0.685,-23.471 -8.638,-6.57 0,0"
             style="fill:#ffffff;fill-opacity:1;fill-rule:nonzero;stroke:none"
             id="path376"
             inkscape:connector-curvature="0" /></g><g
           id="g378"
           transform="translate(543.0696,604.1379)"><path
             d="m 0,0 c 8.925,6.074 22.423,0.31 30.501,-4.62 9.02,-5.504 20.227,-15.641 15.968,-27.421 -2.301,-6.367 -8.538,-6.872 -14.278,-8.178 -6.412,-1.459 -13.837,-3.501 -19.82,0.432 -5.622,3.695 -8.617,11.738 -11.272,17.702 -2.904,6.524 -7.581,16.225 -1.063,22.112 0.17,0.154 -0.077,0.39 -0.249,0.249 -9.146,-7.521 -0.237,-23.241 3.895,-31.147 2.712,-5.191 5.751,-10.188 11.667,-11.997 5.236,-1.601 10.855,-0.324 16.031,0.875 4.475,1.037 9.987,1.391 13.507,4.691 3.28,3.075 4.457,8.393 3.845,12.727 -1.359,9.607 -10.734,17.11 -18.601,21.599 C 21.688,1.842 8.672,6.779 -0.177,0.303 -0.356,0.172 -0.189,-0.129 0,0"
             style="fill:#f74c67;fill-opacity:1;fill-rule:nonzero;stroke:none"
             id="path380"
             inkscape:connector-curvature="0" /></g><g
           id="g382"
           transform="translate(612.152,521.4076)"><path
             d="m 0,0 c 2.512,-19.231 -3.935,-44.808 -8.703,-62.533 -3.432,-12.757 -13.832,-42.845 -32.441,-42.227 -16.7,0.554 0.063,16.944 3.091,55.701 2.391,30.59 -15.371,66.953 5.163,74.455 C -18.262,30.741 -3.93,30.092 0,0"
             style="fill:#ffffff;fill-opacity:1;fill-rule:nonzero;stroke:none"
             id="path384"
             inkscape:connector-curvature="0" /></g><g
           id="g386"
           transform="translate(612.152,521.4076)"><path
             d="m 0,0 c 2.512,-19.231 -3.935,-44.808 -8.703,-62.533 -3.432,-12.757 -13.832,-42.845 -32.441,-42.227 -16.7,0.554 0.063,16.944 3.091,55.701 2.391,30.59 -15.371,66.953 5.163,74.455 C -18.262,30.741 -3.93,30.092 0,0 Z"
             style="fill:none;stroke:#f74c67;stroke-width:1.12300003;stroke-linecap:butt;stroke-linejoin:miter;stroke-miterlimit:10;stroke-dasharray:none;stroke-opacity:1"
             id="path388"
             inkscape:connector-curvature="0" /></g><g
           id="g390"
           transform="translate(332.8759,604.4449)"><path
             d="M 0,0 C 29.666,4.7 45.56,-39.106 15.095,-40.514 -6.613,-41.518 -22.228,-3.522 0,0"
             style="fill:#ffffff;fill-opacity:1;fill-rule:nonzero;stroke:none"
             id="path392"
             inkscape:connector-curvature="0" /></g><g
           id="g394"
           transform="translate(332.8759,604.2607)"><path
             d="m 0,0 c 11.148,1.054 21.875,-4.113 27.483,-13.927 4.665,-8.163 5.008,-19.925 -5.029,-24.05 -11.518,-4.733 -22.8,2.379 -28.502,12.352 -5.246,9.175 -6.067,22.09 6.097,25.632 0.192,0.055 0.165,0.38 -0.049,0.362 -9.081,-0.773 -12.78,-8.166 -11.404,-16.675 1.551,-9.593 8.305,-19.12 17.269,-23.084 7.564,-3.345 18.618,-2.293 23.729,4.874 4.88,6.84 2.535,16.318 -1.773,22.804 C 21.627,-2.387 10.983,2.397 -0.049,0.362 -0.251,0.325 -0.207,-0.02 0,0"
             style="fill:#f74c67;fill-opacity:1;fill-rule:nonzero;stroke:none"
             id="path396"
             inkscape:connector-curvature="0" /></g><g
           id="g398"
           transform="translate(353.6528,545.16)"><path
             d="M 0,0 C 15.137,-5.096 5.101,-23.135 -8.423,-16.448 -20.839,-10.309 -13.584,4.573 0,0 4.588,-1.544 -6.453,2.172 0,0"
             style="fill:#ffffff;fill-opacity:1;fill-rule:nonzero;stroke:none"
             id="path400"
             inkscape:connector-curvature="0" /></g><g
           id="g402"
           transform="translate(353.5852,544.9147)"><path
             d="m 0,0 c 4.932,-1.989 9.045,-6.683 6.053,-12.075 -2.679,-4.829 -8.565,-5.627 -13.293,-3.567 -4.853,2.115 -8.795,7.632 -4.94,12.534 3.176,4.038 8.824,3.649 13.25,2.425 C 1.767,-0.876 2.064,0.206 1.368,0.399 0.277,0.701 -0.815,1.003 -1.907,1.305 -2.372,1.433 -2.57,0.711 -2.106,0.582 -1.404,0.388 -0.702,0.194 0,0 0.323,-0.089 0.432,0.372 0.135,0.491 -0.545,0.762 -1.226,1.033 -1.907,1.305 -1.973,1.064 -2.039,0.823 -2.106,0.582 -1.047,0.16 0.011,-0.261 1.07,-0.683 c 0.099,0.36 0.199,0.721 0.298,1.082 -4.441,1.77 -9.233,2.52 -13.306,-0.567 -3.571,-2.708 -4.845,-7.563 -2.719,-11.581 4.612,-8.715 20.414,-9.48 22.673,1.451 C 9.151,-4.807 4.931,-1.064 0.135,0.491 -0.183,0.594 -0.296,0.119 0,0"
             style="fill:#f74c67;fill-opacity:1;fill-rule:nonzero;stroke:none"
             id="path404"
             inkscape:connector-curvature="0" /></g><g
           id="g406"><g
             id="g408" /><g
             id="g414"><g
               clip-path="url(#clipPath410)"
               id="g416"
               style="opacity:0.19999701"><g
                 transform="translate(536.4077,623.2964)"
                 id="g418"><path
                   d="m 0,0 c -28.158,1.147 -51.251,-2.518 -69.531,-10.241 l 0.057,-0.452 c 60.608,-0.249 87.357,-69.205 74.999,-118.319 -3.505,-13.931 -9.8,-28.948 -17.38,-41.501 -7.23,-11.971 -20.326,-27.415 -12.273,-42.039 5.622,-10.21 24.418,-11.697 33.916,-12.091 18.998,-0.787 34.507,0.612 52.345,7.704 21.699,31.163 35.424,63.262 37.031,104.019 C 101.698,-48.702 57.795,-2.355 0,0"
                   style="fill:#ffffff;fill-opacity:1;fill-rule:nonzero;stroke:none"
                   id="path420"
                   inkscape:connector-curvature="0" /></g></g></g></g><g
           id="g422"><g
             id="g424" /><g
             id="g430"><g
               clip-path="url(#clipPath426)"
               id="g432"
               style="opacity:0.19999701"><g
                 transform="translate(311.9259,621.2245)"
                 id="g434"><path
                   d="m 0,0 c -4.641,-0.074 -9.121,-0.316 -13.474,-0.687 13.336,-13.447 8.932,-41.356 10.425,-57.267 2.339,-24.927 10.396,-45.221 25.563,-65.64 9.95,-13.394 34.378,-42.403 50.769,-21.661 7.318,9.26 6.336,21.702 4.519,32.278 -3.329,19.384 -9.356,37.278 -10.307,57.26 -0.666,14.016 0.118,22.505 5.286,31.824 C 55.661,-8.14 31.686,0.502 0,0"
                   style="fill:#ffffff;fill-opacity:1;fill-rule:nonzero;stroke:none"
                   id="path436"
                   inkscape:connector-curvature="0" /></g></g></g></g></g></g><g
       id="g438"
       transform="translate(0,-201.6)"><g
         id="g440"
         clip-path="url(#clipPath442)"><g
           id="g446"
           transform="translate(667.9097,371.5812)" /><path
           d="m 686.345,255.351 230.831,0 0,120.506 -230.831,0 0,-120.506 z"
           style="fill:#ffffff;fill-opacity:1;fill-rule:nonzero;stroke:none"
           id="path546"
           inkscape:connector-curvature="0" /><g
           id="g566"
           transform="translate(358.3646,330.8852)"><path
             d="m 0,0 -100.889,7.448 89.378,3.386 c 0,0 13.49,0.512 11.172,11.172 -1.692,7.787 -13.203,7.11 -13.203,7.11 0,0 -121.009,1.766 -125.071,5.829 -2.431,2.43 -4.201,8.347 -3.784,13.58 -8.239,7.29 -16.31,14.568 -23.406,22.641 -2.441,-1.848 -5.031,-3.937 -7.818,-6.296 -17.605,-14.896 -18.709,-19.791 -25.448,-26.952 -9.26,-9.838 -24.442,-14.927 -43.898,-14.751 l 0,-75.496 c 1.164,10e-4 2.035,0.002 2.594,0.002 14.896,0 22.345,4.929 48.075,-7.258 21.855,-10.353 46.485,-8.464 80.575,-8.464 37.555,0 86.67,1.693 86.67,1.693 0,0 8.713,2.013 7.787,8.802 -1.016,7.448 -9.151,7.575 -9.151,7.575 l -74.698,4.613 88.25,2.031 c 0,0 8.125,1.307 8.125,8.125 0,4.545 -3.384,8.39 -6.616,9.501 -1.526,0.525 -3.121,0.801 -4.734,0.861 l -85.143,3.858 99.202,1.354 c 0,0 12.188,0.59 12.188,9.479 C 10.157,0 0,0 0,0"
             style="fill:#fcd8c9;fill-opacity:1;fill-rule:nonzero;stroke:none"
             id="path568"
             inkscape:connector-curvature="0" /></g><g
           id="g570"
           transform="translate(351.9324,344.26)"><path
             d="M 0,0 C 0,0 4.113,2.416 3.931,6.763 3.75,11.111 0.342,13.589 0.342,13.589 l -7.179,-0.171 c 0,0 -2.046,-1.829 -2.137,-6.581 C -9.057,2.49 -7.35,0.342 -7.35,0.342 L 0,0 Z"
             style="fill:#ffefe4;fill-opacity:1;fill-rule:nonzero;stroke:none"
             id="path572"
             inkscape:connector-curvature="0" /></g><g
           id="g574"
           transform="translate(361.7262,314.3125)"><path
             d="m 0,0 c 0,0 3.777,1.15 4.649,6.903 0.704,4.649 -2.677,6.762 -2.677,6.762 l -7.607,0 c 0,0 -3.257,-1.463 -3.663,-6.199 -0.422,-4.93 1.832,-6.621 1.832,-6.621 L 0,0 Z"
             style="fill:#ffefe4;fill-opacity:1;fill-rule:nonzero;stroke:none"
             id="path576"
             inkscape:connector-curvature="0" /></g><g
           id="g578"
           transform="translate(345.3425,289.8871)"><path
             d="m 0,0 c 0,0 4.291,0.758 4.693,6.127 0.391,5.215 -3.52,6.519 -3.52,6.519 l -7.561,-0.391 c 0,0 -2.758,-0.949 -2.868,-5.345 C -9.387,1.695 -7.17,0.521 -7.17,0.521 L 0,0 Z"
             style="fill:#ffefe4;fill-opacity:1;fill-rule:nonzero;stroke:none"
             id="path580"
             inkscape:connector-curvature="0" /></g><g
           id="g582"
           transform="translate(333.1354,267.2599)"><path
             d="M 0,0 C 0,0 3.585,0.633 3.921,5.119 4.248,9.476 0.98,10.566 0.98,10.566 l -6.317,-0.327 c 0,0 -2.305,-0.792 -2.397,-4.466 -0.109,-4.357 1.743,-5.337 1.743,-5.337 L 0,0 Z"
             style="fill:#ffefe4;fill-opacity:1;fill-rule:nonzero;stroke:none"
             id="path584"
             inkscape:connector-curvature="0" /></g><g
           id="g586"><g
             id="g588" /><g
             id="g594"><g
               clip-path="url(#clipPath590)"
               id="g596"
               style="opacity:0.39999402"><g
                 transform="translate(341.0984,273.3311)"
                 id="g598"><path
                   d="m 0,0 c -0.005,0.038 -0.016,0.069 -0.022,0.106 l -132.883,0 c -20.974,0 -54.66,12.712 -61.016,17.161 -6.356,4.449 -9.534,27.33 -9.534,27.33 0,0 0.691,5.72 -7.282,5.72 -4.037,0 -7.17,-22.655 -9.28,-45.021 12.963,0.551 21.096,3.988 44.985,-7.327 21.855,-10.353 46.485,-8.464 80.576,-8.464 37.554,0 86.669,1.693 86.669,1.693 0,0 8.713,2.013 7.787,8.802"
                   style="fill:#fcd8c9;fill-opacity:1;fill-rule:nonzero;stroke:none"
                   id="path600"
                   inkscape:connector-curvature="0" /></g></g></g></g><g
           id="g602"><g
             id="g604" /><g
             id="g610"><g
               clip-path="url(#clipPath606)"
               id="g612"
               style="opacity:0.39999402"><g
                 transform="translate(353.6248,295.6757)"
                 id="g614"><path
                   d="m 0,0 -86.957,0 c -6.356,0 -9.418,-10.157 -9.418,-10.157 l 88.25,2.032 C -8.125,-8.125 0,-6.818 0,0"
                   style="fill:#fcd8c9;fill-opacity:1;fill-rule:nonzero;stroke:none"
                   id="path616"
                   inkscape:connector-curvature="0" /></g></g></g></g><g
           id="g618"><g
             id="g620" /><g
             id="g626"><g
               clip-path="url(#clipPath622)"
               id="g628"
               style="opacity:0.39999402"><g
                 transform="translate(257.1317,309.8949)"
                 id="g630"><path
                   d="m 0,0 99.202,1.354 c 0,0 12.188,0.59 12.188,9.48 0,0 -88.506,1.648 -99.311,1.648 C 1.274,12.482 0,0 0,0"
                   style="fill:#fcd8c9;fill-opacity:1;fill-rule:nonzero;stroke:none"
                   id="path632"
                   inkscape:connector-curvature="0" /></g></g></g></g><g
           id="g634"><g
             id="g636" /><g
             id="g642"><g
               clip-path="url(#clipPath638)"
               id="g644"
               style="opacity:0.39999402"><g
                 transform="translate(358.192,349.2503)"
                 id="g646"><path
                   d="m 0,0 -2.328,1.773 -87.289,0 c -6.356,0 -11.099,-12.69 -11.099,-12.69 l 89.378,3.386 c 0,0 10.225,0.391 11.338,7.531"
                   style="fill:#fcd8c9;fill-opacity:1;fill-rule:nonzero;stroke:none"
                   id="path648"
                   inkscape:connector-curvature="0" /></g></g></g></g><g
           id="g650"><g
             id="g652" /><g
             id="g658"><g
               clip-path="url(#clipPath654)"
               id="g660"
               style="opacity:0.39999402"><g
                 transform="translate(215.1853,377.0381)"
                 id="g662"><path
                   d="M 0,0 0.733,0.164 C 0.711,0.905 0.73,1.643 0.787,2.368 0.269,2.827 -0.246,3.286 -0.763,3.744 -0.433,1.517 0,0 0,0"
                   style="fill:#fcd8c9;fill-opacity:1;fill-rule:nonzero;stroke:none"
                   id="path664"
                   inkscape:connector-curvature="0" /></g></g></g></g><g
           id="g666"
           transform="translate(28.8393,377.1519)"><path
             d="m 0,0 90.846,0 c 5.896,0 10.677,-5.057 10.677,-11.295 l 0,-91.616 c 0,-6.238 -4.781,-11.295 -10.677,-11.295 l -90.846,0 c 0,0 0.896,115.41 0,114.206"
             style="fill:#1c78b2;fill-opacity:1;fill-rule:nonzero;stroke:none"
             id="path668"
             inkscape:connector-curvature="0" /></g><g
           id="g670"
           transform="translate(-200.0427,387.0811)"><path
             d="m 0,0 243.433,0 c 6.922,0 12.533,-5.936 12.533,-13.259 l 0,-107.548 c 0,-7.323 -5.611,-13.259 -12.533,-13.259 l -243.433,0 c 0,0 1.051,135.48 0,134.066"
             style="fill:#3385ba;fill-opacity:1;fill-rule:nonzero;stroke:none"
             id="path672"
             inkscape:connector-curvature="0" /></g><g
           id="g674"><g
             id="g676" /><g
             id="g682"><g
               clip-path="url(#clipPath678)"
               id="g684"
               style="opacity:0.39999402"><g
                 transform="translate(55.6522,323.6486)"
                 id="g686"><path
                   d="m 0,0 0,-12.076 -334.598,0 c -0.138,-30.466 -0.356,-58.557 -0.356,-58.557 l 322.692,0 c 5.833,0 10.721,4.222 12.119,9.93 l 64.176,0 c 5.896,0 10.677,5.058 10.677,11.296 L 74.71,0 0,0 Z"
                   style="fill:#1c78b2;fill-opacity:1;fill-rule:nonzero;stroke:none"
                   id="path688"
                   inkscape:connector-curvature="0" /></g></g></g></g></g></g></g></svg>