<?xml version="1.0" encoding="UTF-8" standalone="no"?>
<!-- Created with Inkscape (http://www.inkscape.org/) -->

<svg
   xmlns:dc="http://purl.org/dc/elements/1.1/"
   xmlns:cc="http://creativecommons.org/ns#"
   xmlns:rdf="http://www.w3.org/1999/02/22-rdf-syntax-ns#"
   xmlns:svg="http://www.w3.org/2000/svg"
   xmlns="http://www.w3.org/2000/svg"
   xmlns:sodipodi="http://sodipodi.sourceforge.net/DTD/sodipodi-0.dtd"
   xmlns:inkscape="http://www.inkscape.org/namespaces/inkscape"
   width="2000"
   height="2000"
   viewBox="0 0 2000.0001 2000.0001"
   id="svg4495"
   version="1.1"
   inkscape:version="0.91 r13725"
   sodipodi:docname="default.svg"
   inkscape:export-filename="/home/alex/dev/ruby/raspberry_cook/public/assets/images/Flyer.png"
   inkscape:export-xdpi="90"
   inkscape:export-ydpi="90">
  <defs
     id="defs4497">
    <clipPath
       clipPathUnits="userSpaceOnUse"
       id="clipPath5492">
      <rect
         style="opacity:1;fill:#ececec;fill-opacity:1"
         id="rect5494"
         width="242.43661"
         height="185.86807"
         x="50.773457"
         y="-446.79025" />
    </clipPath>
  </defs>
  <sodipodi:namedview
     id="base"
     pagecolor="#ffffff"
     bordercolor="#666666"
     borderopacity="1.0"
     inkscape:pageopacity="0"
     inkscape:pageshadow="2"
     inkscape:zoom="0.26"
     inkscape:cx="495.9907"
     inkscape:cy="881.74936"
     inkscape:document-units="px"
     inkscape:current-layer="g4161"
     showgrid="false"
     inkscape:window-width="1600"
     inkscape:window-height="844"
     inkscape:window-x="0"
     inkscape:window-y="0"
     inkscape:window-maximized="1"
     units="px" />
  <metadata
     id="metadata4500">
    <rdf:RDF>
      <cc:Work
         rdf:about="">
        <dc:format>image/svg+xml</dc:format>
        <dc:type
           rdf:resource="http://purl.org/dc/dcmitype/StillImage" />
        <dc:title />
      </cc:Work>
    </rdf:RDF>
  </metadata>
  <g
     inkscape:label="Calque 1"
     inkscape:groupmode="layer"
     id="layer1"
     transform="translate(0,947.6378)">
    <g
       id="g5118"
       transform="translate(189.64285,408.1877)"
       style="opacity:1">
      <g
         id="g4374"
         transform="translate(-175.34442,313.90378)">
        <g
           id="g4161"
           transform="matrix(3.9959842,0,0,3.9959842,43.841886,-984.49553)">
          <ellipse
             ry="249.5"
             rx="249"
             cy="78.77066"
             cx="235.70157"
             id="path4157"
             style="opacity:1;fill:#ececec;fill-opacity:0.9254902" />
          <g
             transform="matrix(1.1201587,0,0,1.1201587,17.590337,-20.738528)"
             id="g4174">
            <path
               style="opacity:1;fill:#ec644b;fill-opacity:1;stroke:#d91e18;stroke-width:19.18920898;stroke-miterlimit:4;stroke-dasharray:none;stroke-opacity:1"
               d="m -257.17384,95.089776 c -0.98063,0.21332 -1.17159,0.0722 -1.37233,-1.014 l 1.40996,-29.318797 0.0131,-3.69556 -1.41521,-0.217685 c -0.77837,-0.119665 -3.13652,-0.441538 -5.24033,-0.715127 -20.47754,-2.662953 -38.68205,-18.607699 -45.33031,-39.703346 -2.07592,-6.58711 -2.63289,-10.4428216 -2.62685,-18.1847406 0.008,-10.214786 2.12528,-19.1392094 6.53887,-27.5612044 10.03232,-19.143576 28.87165,-30.789823 49.86011,-30.822903 6.19657,-0.01053 9.23994,0.385856 14.88926,1.935522 1.86687,0.512099 3.44264,0.855741 3.50172,0.763673 0.0591,-0.09202 0.55678,-1.687596 1.10601,-3.545578 1.47914,-5.003711 5.33444,-12.765986 8.52167,-17.157568 5.10077,-7.028204 12.73006,-13.638644 20.19709,-17.499854 3.87292,-2.0027 10.91275,-4.36038 15.53313,-5.20215 8.57516,-1.56227 19.64743,-0.66194 27.90191,2.26876 6.0134,2.13503 15.32763,7.38373 14.76727,8.32156 -0.14531,0.24322 0.12803,0.44224 0.60756,0.44224 0.47949,0 2.24841,1.2286 3.93094,2.73022 4.57568,4.0837 9.73078,10.955923 12.50658,16.672477 0.59225,1.219654 1.18267,2.217563 1.31207,2.217563 0.12932,0 2.22557,-0.433185 4.65817,-0.962634 5.76225,-1.254119 15.6867,-1.359312 21.30524,-0.225803 17.432567,3.516909 32.101387,14.716349 39.903667,30.465862 4.647,9.380353 6.27529,16.392147 6.2759,27.0253214 4.3e-4,8.141295 -0.50734,11.54779 -2.79834,18.7723006 -3.79012,11.951814 -11.91628,22.913145 -22.37945,30.187482 -5.02349,3.492475 -13.13307,7.160382 -17.778927,8.041281 -1.11926,0.21222 -1.78713,0.630571 -2.0319,1.272785 -0.33303,0.873746 -2.22022,33.582033 -2.19164,42.706933 0.008,2.15152 -0.16917,4.40543 -0.3909,5.00867 l -0.40313,1.09682 -5.14883,-1.28691 c -70.48139,-25.686106 -71.33322,-26.403863 -145.63208,-2.81561 z"
               id="path5641-3"
               inkscape:connector-curvature="0"
               sodipodi:nodetypes="cccccsscscscssssssssssssssssscccccc" />
            <path
               id="path4376"
               d="m -260.16867,85.055416 c -15.787,9.177 -29.325,21.250004 -29.233,50.875004 l -2.313,4.125 c -18.102,11.008 -34.38801,46.39 -8.92,75.148 1.663,9.002 4.453,15.468 6.937,22.624 3.715,28.836 27.962,42.339 34.358,43.936 9.371,7.138 19.352,13.911 32.859,18.656 12.732,13.131 26.526,18.136 40.395,18.128 0.204,0 28.277,-4.996 41.01,-18.128 13.506,-4.745 23.487,-11.518 32.859,-18.656 6.395,-1.597 30.641997,-15.1 34.356997,-43.936 2.484,-7.156 5.274,-13.622 6.938,-22.624 25.466,-28.761 9.181,-64.144 -8.921,-75.152 l -2.316,-4.125 c 0.092,-29.622 -13.446,-41.696004 -29.232997,-50.875004"
               inkscape:connector-curvature="0"
               style="fill:#d91e18;fill-opacity:1"
               sodipodi:nodetypes="ccccccccccccccc" />
            <path
               id="path4382"
               d="m -147.8458,228.56042 c 0.108,18.933 -16.449,34.362 -36.98,34.461 -20.532,0.1 -37.264,-15.167 -37.372,-34.1 -0.001,-0.12 -0.001,-0.24 0,-0.361 -0.108,-18.932 16.448,-34.361 36.98,-34.461 20.532,-0.1 37.263,15.167 37.372,34.1 l 0,0.361"
               inkscape:connector-curvature="0"
               style="fill:#ec644b;fill-opacity:1" />
            <path
               id="path4384"
               d="m -206.5328,130.63142 c 15.404,10.093 18.181,32.969 6.202,51.095 -11.979,18.127 -34.177,24.641 -49.581,14.549 -15.404,-10.093 -18.18,-32.969 -6.202,-51.095 11.979,-18.127 34.177,-24.641 49.581,-14.549"
               inkscape:connector-curvature="0"
               style="fill:#ec644b;fill-opacity:1" />
            <path
               id="path4386"
               d="m -164.9568,128.80442 c -15.403,10.092 -18.18,32.969 -6.202,51.095 11.979,18.127 34.177,24.641 49.581,14.548 15.404,-10.092 18.181,-32.968 6.202,-51.095 -11.978,-18.126 -34.176,-24.64 -49.581,-14.548"
               inkscape:connector-curvature="0"
               style="fill:#ec644b;fill-opacity:1" />
            <path
               id="path4388"
               d="m -283.5208,147.13142 c 16.631,-4.458 5.615,68.803 -7.917,62.792 -14.885,-11.972 -19.679,-47.033 7.917,-62.792"
               inkscape:connector-curvature="0"
               style="fill:#ec644b;fill-opacity:1" />
            <path
               id="path4390"
               d="m -91.325803,146.21842 c -16.632997,-4.457 -5.615,68.807 7.917,62.796 14.885,-11.973 19.679,-47.038 -7.917,-62.796"
               inkscape:connector-curvature="0"
               style="fill:#ec644b;fill-opacity:1" />
            <path
               id="path4392"
               d="m -147.8328,91.661416 c 28.701,-4.846 52.582997,12.206004 51.618997,43.328004 -0.944,11.932 -62.192997,-41.551004 -51.618997,-43.328004"
               inkscape:connector-curvature="0"
               style="fill:#ec644b;fill-opacity:1" />
            <path
               id="path4394"
               d="m -227.1328,90.748416 c -28.703,-4.847 -52.583,12.209004 -51.619,43.329004 0.944,11.931 62.194,-41.552004 51.619,-43.329004"
               inkscape:connector-curvature="0"
               style="fill:#ec644b;fill-opacity:1" />
            <path
               id="path4396"
               d="m -185.9048,83.490416 c -17.13,-0.446 -33.57,12.713 -33.61,20.346004 -0.047,9.274 13.544,18.77 33.727,19.011 20.61,0.147 33.762,-7.601 33.828,-17.172 0.076,-10.844004 -18.745,-22.353004 -33.945,-22.186004 l 0,10e-4"
               inkscape:connector-curvature="0"
               style="fill:#ec644b;fill-opacity:1" />
            <path
               id="path4398"
               d="m -184.8588,273.67042 c 14.935,-0.652 34.975,4.81 35.015,12.057 0.248,7.036 -18.175,22.934 -36.005,22.627 -18.466,0.797 -36.573,-15.126 -36.336,-20.645 -0.277,-8.092 22.484,-14.41 37.326,-14.039"
               inkscape:connector-curvature="0"
               style="fill:#ec644b;fill-opacity:1" />
            <path
               id="path4400"
               d="m -240.0228,230.72542 c 10.633,12.81 15.481,35.316 6.607,41.951 -8.395,5.065 -28.782,2.979 -43.272,-17.838 -9.773,-17.468 -8.514,-35.243 -1.652,-40.465 10.261,-6.25 26.115,2.193 38.318,16.352 l -10e-4,0"
               inkscape:connector-curvature="0"
               style="fill:#ec644b;fill-opacity:1" />
            <path
               id="path4402"
               d="m -131.8228,226.66442 c -11.505,13.475 -17.911,38.053 -9.519,45.969 8.025,6.15 29.567,5.29 45.478997,-16.789 11.554,-14.829 7.683,-39.594 1.083,-46.17 -9.803997,-7.583 -23.878997,2.122 -37.042997,16.986 l 0,0.004"
               inkscape:connector-curvature="0"
               style="fill:#ec644b;fill-opacity:1" />
            <path
               style="opacity:1;fill:#ffffff;fill-opacity:0.26587303"
               d="m -241.52847,46.594276 c -3.26969,-0.71205 -6.35103,-2.50981 -9.13999,-5.33252 -4.92611,-4.98579 -8.14652,-12.63486 -9.50362,-22.57296 -0.45191,-3.30934 -0.44641,-10.0251796 0.0113,-13.4637296 1.72009,-12.93013 7.04925,-24.0982304 15.78933,-33.0889404 8.55003,-8.79526 18.8681,-14.09163 31.00927,-15.91741 3.33281,-0.50118 8.93553,-0.60226 11.95451,-0.21566 10.78925,1.38158 19.12532,6.62234 22.55096,14.17743 1.59995,3.52862 2.05126,8.05431 1.15717,11.60412 -1.41217,5.60669 -5.50835,10.7916204 -11.18226,14.1544204 -5.02579,2.9787 -11.6156,4.88818 -17.02205,4.93237 l -1.54978,0.0127 1.22465,0.56665 c 1.948,0.9013 3.73409,2.19184 5.28235,3.81672 3.5402,3.71541 4.92699,7.0015996 7.22031,17.1095196 1.33981,5.9053 2.37276,8.06045 4.27809,8.92588 1.78443,0.81051 5.19003,0.14151 9.07018,-1.78182 1.79817,-0.8913 3.62948,-2.01792 3.62948,-2.23284 0,-0.0548 -0.21677,-0.85692 -0.4817,-1.78262 -2.01712,-7.04791 -1.85773,-15.00371 0.48393,-24.1549596 4.07637,-15.9305404 13.29052,-31.0526404 24.32419,-39.9204004 4.93477,-3.96609 11.04681,-6.97558 16.35095,-8.05101 2.44182,-0.49509 6.81759,-0.67955 8.93052,-0.37648 2.05052,0.29413 5.25124,1.34809 6.90856,2.27492 5.11927,2.86286 8.75733,8.31703 9.55757,14.32868 0.34933,2.62429 0.13556,6.90621 -0.45851,9.18433 -1.55317,5.95603 -4.50777,10.95625 -9.33234,15.7935204 -5.51484,5.52935 -11.49219,8.41652 -17.41471,8.41163 -4.42695,-0.004 -7.22513,-1.05399 -8.10458,-3.04215 -0.34542,-0.7809 -0.38318,-1.19817 -0.31865,-3.52204 0.0648,-2.33153 0.12877,-2.74813 0.55396,-3.6048 0.35161,-0.7084 0.68227,-1.06701 1.23083,-1.33486 0.81634,-0.3986 0.55072,-0.43166 3.89928,0.48522 1.42608,0.39048 1.70443,0.40718 3.48702,0.20926 8.45689,-0.93897 15.37755,-8.2973004 15.92101,-16.9278804 0.28916,-4.59224 -1.12443,-8.10175 -4.03321,-10.01314 -1.92126,-1.26248 -3.46955,-1.66625 -6.36671,-1.6603 -4.0482,0.009 -7.35777,1.2342 -11.29766,4.18477 -6.31028,4.72572 -12.64745,14.02239 -16.88224,24.7663504 -4.40739,11.18186 -6.04596,21.5692396 -4.5559,28.8810796 0.79694,3.91066 2.14974,6.58728 4.54914,9.00078 1.26583,1.27324 1.88697,1.72496 3.39015,2.46539 2.98931,1.47246 4.59981,1.78225 9.20183,1.77004 3.42834,-0.01 4.15628,-0.0697 6.32193,-0.52574 3.22185,-0.67854 6.42683,-1.80554 9.75706,-3.431 3.71677,-1.81415 5.96956,-3.21389 12.24265,-7.60682 6.45435,-4.51987 10.32866,-7.07679 12.94236,-8.54151 1.88345,-1.0555 5.71245,-2.83366 6.101887,-2.83366 0.12342,0 0.19305,1.84221 0.19305,5.10423 l 0,5.10425 -0.821617,0.36842 c -2.15455,0.96614 -5.38998,3.45253 -11.09236,8.52434 -4.53306,4.0318 -6.8477,5.87288 -9.97668,7.93552 -5.49586,3.62289 -10.87649,5.84467 -17.24133,7.11941 -4.21214,0.84356 -5.86746,0.99477 -10.94534,0.99975 -5.32785,0.006 -6.54192,-0.156 -9.78301,-1.29929 -2.16456,-0.76356 -3.7957,-1.59751 -5.97271,-3.05369 -1.72027,-1.15066 -4.59337,-3.77519 -5.7796,-5.27956 l -0.57253,-0.72607 -2.26267,1.17423 c -5.62472,2.91895 -10.64535,4.39125 -15.63324,4.5844 -4.04443,0.15662 -6.03656,-0.49388 -8.5015,-2.77604 -3.83016,-3.54615 -5.73141,-8.28076 -8.54931,-21.2902 -1.7481,-8.0704 -2.23064,-9.7819296 -3.44058,-12.2035296 -1.42325,-2.84851 -2.23139,-3.39115 -5.05042,-3.39115 -1.26277,0 -1.8052,0.0708 -1.85334,0.24216 -0.0375,0.13318 -0.30099,2.45141 -0.58566,5.15163 -2.03467,19.2991196 -5.16431,29.6966996 -10.56496,35.0999696 -1.53947,1.54018 -3.09161,2.50761 -5.14059,3.20402 -2.11484,0.7188 -5.56923,0.84086 -8.11384,0.2867 z m 5.95659,-10.4862 c 3.5934,-0.99778 6.36213,-8.88179 7.58006,-21.58432 0.42859,-4.47002 0.8037,-12.9382496 0.57656,-13.0161096 -0.10225,-0.0351 -1.22836,-0.65135 -2.50256,-1.36957 -3.96671,-2.23591 -5.17348,-3.8115 -4.87359,-6.36311 0.1413,-1.20228 0.45486,-1.92492 1.08119,-2.49174 0.51304,-0.4643 1.65493,-0.45174 5.23738,0.0575 l 2.42153,0.34426 0.14048,-1.36634 c 0.6454,-6.2772404 1.59239,-9.2438204 3.61303,-11.3183504 1.4859,-1.52551 2.29896,-1.86392 4.47971,-1.86456 2.20325,-6e-4 2.88571,0.29018 3.53118,1.50481 0.37468,0.70505 0.43177,1.0895 0.40938,2.75657 -0.0143,1.06546 -0.24757,3.33201 -0.51834,5.03678 -0.27077,1.70476 -0.54674,3.6226204 -0.61328,4.2619004 -0.0665,0.63928 -0.16876,1.41443 -0.22717,1.72254 l -0.10626,0.56019 2.49139,-0.13099 c 3.80761,-0.20017 6.1517,-0.47801 8.57842,-1.01679 9.49616,-2.1083704 14.73818,-6.9237604 14.73818,-13.5387504 0,-2.94925 -1.0008,-5.16405 -3.31877,-7.34463 -4.16789,-3.92087 -11.14283,-5.3157 -20.31542,-4.06265 -6.46143,0.88269 -12.57872,3.39861 -17.62878,7.25036 -6.79448,5.18227 -12.23104,13.63166 -15.0809,23.4384904 -2.66615,9.1746 -3.15654,19.6101296 -1.2769,27.1723896 0.96774,3.89347 2.26698,6.51031 4.32099,8.70308 2.0884,2.22949 4.9871,3.29079 7.26245,2.65899 z"
               id="path5827"
               inkscape:connector-curvature="0" />
            <path
               style="opacity:1;fill:#23527c;fill-opacity:0.26666668"
               d="M 68.722956,184.5747 C 62.019208,183.1148 55.701629,179.42891 49.983508,173.64159 39.883653,163.41938 33.280943,147.73672 30.498521,127.36093 29.571984,120.57589 29.58326,106.80662 30.52169,99.756667 34.048338,73.246395 44.974555,50.348781 62.894079,31.915398 80.423947,13.88274 101.57878,3.0237519 126.47146,-0.71959007 133.30461,-1.7471453 144.7917,-1.9543863 150.98143,-1.1617513 173.1023,1.6708609 190.1935,12.415834 197.21698,27.905808 c 3.28033,7.234624 4.20564,16.51351 2.37252,23.791579 -2.89533,11.495228 -11.29361,22.125733 -22.92665,29.020381 -10.30423,6.107135 -23.81512,10.022089 -34.89981,10.112689 l -3.17746,0.026 2.51086,1.16179 c 3.99393,1.84791 7.65589,4.49387 10.83024,7.82531 7.25837,7.617593 10.10166,14.355173 14.80359,35.079143 2.74697,12.10745 4.8648,16.52609 8.77124,18.30046 3.65856,1.66176 10.64096,0.29013 18.59632,-3.65321 3.68673,-1.82741 7.44141,-4.13729 7.44141,-4.57793 0,-0.11235 -0.44444,-1.75692 -0.98761,-3.65485 -4.13564,-14.45012 -3.80885,-30.76166 0.99218,-49.524193 8.35766,-32.661911 27.24916,-63.666299 49.87116,-81.8476011 10.11761,-8.131555 22.64894,-14.3018222 33.52386,-16.5067442 5.00639,-1.015068 13.9779,-1.393261 18.30998,-0.771886 4.20412,0.603046 10.76646,2.763949 14.16441,4.6642 10.49589,5.8696362 17.95489,17.0521573 19.5956,29.3776633 0.71622,5.380503 0.27794,14.159595 -0.94007,18.830356 -3.18441,12.21147 -9.24214,22.463269 -19.13381,32.380978 -11.30691,11.336664 -23.5621,17.256134 -35.70486,17.246114 -9.07644,-0.008 -14.81347,-2.16096 -16.61658,-6.23723 -0.7082,-1.601054 -0.78562,-2.456572 -0.65332,-7.221133 0.13286,-4.780264 0.26402,-5.634406 1.13577,-7.390811 0.7209,-1.452413 1.39884,-2.187663 2.52353,-2.736825 1.67372,-0.81724 1.12913,-0.88502 7.99458,0.994832 2.92385,0.800587 3.49454,0.834831 7.14933,0.429041 17.33891,-1.925144 31.52813,-17.011705 32.64237,-34.706725 0.59286,-9.415331 -2.30538,-16.610774 -8.26917,-20.52964 -3.9391,-2.588425 -7.11351,-3.416262 -13.05347,-3.404063 -8.2999,0.01845 -15.08542,2.530443 -23.16325,8.579908 -12.93778,9.689002 -25.93069,28.749686 -34.61315,50.777702 -9.03635,22.925834 -12.39586,44.222777 -9.34083,59.214017 1.63394,8.01791 4.40755,13.5057 9.32696,18.45403 2.5953,2.61049 3.86881,3.53663 6.95073,5.05472 6.12889,3.01894 9.43085,3.65409 18.86623,3.62906 7.02903,-0.0205 8.5215,-0.14291 12.96167,-1.07791 6.60566,-1.39119 13.17673,-3.70185 20.00461,-7.03448 7.62038,-3.7195 12.2392,-6.58934 25.10073,-15.59603 13.23316,-9.26696 21.17654,-14.50933 26.53534,-17.5124 3.86158,-2.16406 11.71206,-5.80977 12.51052,-5.80977 0.25304,0 0.3958,3.77703 0.3958,10.46505 l 0,10.46509 -1.68454,0.75536 c -4.41741,1.98085 -11.05091,7.07862 -22.74233,17.4772 -9.294,8.26627 -14.03964,12.04098 -20.45489,16.26995 -11.268,7.42791 -22.29974,11.98316 -35.34938,14.59672 -8.63603,1.72952 -12.02988,2.03954 -22.44091,2.04975 -10.92353,0.0123 -13.4127,-0.31984 -20.05781,-2.66389 -4.43793,-1.56551 -7.78221,-3.27533 -12.24567,-6.26089 -3.52701,-2.35916 -9.41765,-7.74016 -11.84974,-10.82452 l -1.17383,-1.48864 -4.63909,2.40749 c -11.5322,5.98463 -21.82584,9.00324 -32.05237,9.39925 -8.29217,0.32112 -12.37657,-1.01258 -17.43037,-5.69163 -7.85285,-7.27056 -11.75093,-16.97779 -17.52838,-43.65065 -3.58409,-16.5465 -4.57342,-20.0556 -7.05413,-25.02054 -2.91804,-5.840213 -4.57494,-6.952773 -10.35472,-6.952773 -2.58902,0 -3.70115,0.14516 -3.79985,0.49649 -0.0769,0.27305 -0.61711,5.02606 -1.20076,10.562243 -4.17162,39.5684 -10.58823,60.88625 -21.66102,71.96441 -3.156329,3.15778 -6.338635,5.14128 -10.539597,6.56911 -4.335991,1.47373 -11.418426,1.72399 -16.635563,0.58781 z m 12.212618,-21.49954 c 7.367442,-2.0457 13.044084,-18.21007 15.541169,-44.25369 0.878725,-9.16475 1.647802,-26.526893 1.182104,-26.686533 -0.209638,-0.072 -2.518472,-1.33544 -5.130926,-2.80798 -8.132824,-4.584224 -10.607029,-7.814611 -9.992173,-13.046099 0.289703,-2.464998 0.932584,-3.946603 2.216729,-5.108739 1.051873,-0.951941 3.393058,-0.926189 10.738045,0.11789 l 4.964788,0.705828 0.28803,-2.801368 c 1.32324,-12.870033 3.26482,-18.952323 7.40768,-23.205669 3.0465,-3.127708 4.71349,-3.82154 9.18462,-3.822852 4.51726,-0.0014 5.91648,0.594948 7.23987,3.085267 0.76819,1.445543 0.88525,2.233769 0.83934,5.651713 -0.0293,2.184481 -0.50759,6.83152 -1.06274,10.326759 -0.55515,3.495214 -1.12096,7.427345 -1.25739,8.738044 -0.13634,1.310694 -0.346,2.899963 -0.46575,3.53167 l -0.21787,1.148542 5.10802,-0.268565 c 7.80663,-0.410404 12.61265,-0.980051 17.58808,-2.084694 19.46969,-4.322731 30.21725,-14.195575 30.21725,-27.758091 0,-6.046758 -2.05191,-10.587696 -6.80438,-15.058474 -8.5453,-8.038842 -22.84581,-10.89862 -41.65209,-8.329529 C 113.6203,22.958342 101.0782,28.116658 90.724221,36.013785 76.7937,46.638838 65.647284,63.962363 59.804302,84.069014 c -5.466328,18.810396 -6.47176,40.206056 -2.61799,55.710726 1.984128,7.98267 4.647921,13.3479 8.859196,17.84367 4.281784,4.57105 10.2249,6.747 14.889984,5.45164 z"
               id="path5827-8"
               inkscape:connector-curvature="0" />
          </g>
        </g>
      </g>
    </g>
  </g>
</svg>
