<?xml version="1.0" encoding="UTF-8" standalone="no"?>
<svg
   xmlns:dc="http://purl.org/dc/elements/1.1/"
   xmlns:cc="http://creativecommons.org/ns#"
   xmlns:rdf="http://www.w3.org/1999/02/22-rdf-syntax-ns#"
   xmlns:svg="http://www.w3.org/2000/svg"
   xmlns="http://www.w3.org/2000/svg"
   xmlns:xlink="http://www.w3.org/1999/xlink"
   xmlns:sodipodi="http://sodipodi.sourceforge.net/DTD/sodipodi-0.dtd"
   xmlns:inkscape="http://www.inkscape.org/namespaces/inkscape"
   width="256"
   height="230"
   viewBox="0 0 256 229.38077"
   version="1.1"
   preserveAspectRatio="xMidYMid"
   id="svg2"
   inkscape:version="0.91 r"
   sodipodi:docname="github-octocat.svg">
  <metadata
     id="metadata58">
    <rdf:RDF>
      <cc:Work
         rdf:about="">
        <dc:format>image/svg+xml</dc:format>
        <dc:type
           rdf:resource="http://purl.org/dc/dcmitype/StillImage" />
        <dc:title></dc:title>
      </cc:Work>
    </rdf:RDF>
  </metadata>
  <defs
     id="defs56" />
  <sodipodi:namedview
     pagecolor="#ffffff"
     bordercolor="#666666"
     borderopacity="1"
     objecttolerance="10"
     gridtolerance="10"
     guidetolerance="10"
     inkscape:pageopacity="0"
     inkscape:pageshadow="2"
     inkscape:window-width="1600"
     inkscape:window-height="851"
     id="namedview54"
     showgrid="false"
     inkscape:zoom="1.8153846"
     inkscape:cx="119.63396"
     inkscape:cy="85.306995"
     inkscape:window-x="0"
     inkscape:window-y="0"
     inkscape:window-maximized="1"
     inkscape:current-layer="svg2" />
  <g
     id="g4"
     transform="translate(0,2)">
    <path
       d="m 200.9,199.8 c 0,13.9 -32.2,25.1 -71.9,25.1 -39.7,0 -71.9,-11.3 -71.9,-25.1 0,-13.9 32.2,-25.1 71.9,-25.1 39.7,0 71.9,11.2 71.9,25.1 l 0,0 z m 0,0"
       id="path6"
       inkscape:connector-curvature="0"
       style="fill:#9edcf2" />
    <g
       id="g8">
      <defs
         id="defs10">
        <path
           id="SVGID_1_"
           d="m 98.1,244.8 c 1.6,7.5 5.5,11.9 9.4,14.5 l 41.1,0 c 5,-3.4 10.1,-9.8 10.1,-21.8 l 0,-31 c 0,0 0.6,-7.7 7.7,-10.2 0,0 4.1,-2.9 -0.3,-4.5 0,0 -19.5,-1.6 -19.5,14.4 l 0,23.6 c 0,0 0.8,8.7 -3.8,12.3 l 0,-29.2 c 0,0 0.3,-9.3 5.1,-12.8 0,0 3.2,-5.7 -3.8,-4.2 0,0 -13.4,1.9 -14,17.6 l -0.3,30 -3.2,0 -0.3,-30 c -0.6,-15.6 -14,-17.6 -14,-17.6 -7,-1.6 -3.8,4.2 -3.8,4.2 4.8,3.5 5.1,12.8 5.1,12.8 l 0,29.5 c -4.6,-3.3 -3.8,-12.6 -3.8,-12.6 l 0,-23.6 c 0,-16 -19.5,-14.4 -19.5,-14.4 -4.5,1.6 -0.3,4.5 -0.3,4.5 7,2.6 7.7,10.2 7.7,10.2 l 0,21.7 0.4,16.6 z"
           inkscape:connector-curvature="0" />
      </defs>
      <clipPath
         id="SVGID_2_">
        <use
           xlink:href="#SVGID_1_"
           overflow="visible"
           id="use14"
           style="overflow:visible"
           x="0"
           y="0"
           width="100%"
           height="100%" />
      </clipPath>
      <path
         clip-path="url(#SVGID_2_)"
         d="m 200.9,199.8 c 0,13.9 -32.2,25.1 -71.9,25.1 -39.7,0 -71.9,-11.3 -71.9,-25.1 0,-13.9 32.2,-25.1 71.9,-25.1 39.7,0 71.9,11.2 71.9,25.1 l 0,0 z m 0,0"
         id="path16"
         inkscape:connector-curvature="0"
         style="fill:#7dbce7" />
    </g>
    <path
       d="m 46.9,125.9 -2.1,7.2 c 0,0 -0.5,2.6 1.9,3.1 2.6,-0.1 2.4,-2.5 2.2,-3.2 l -2,-7.1 0,0 z m 0,0"
       id="path18"
       inkscape:connector-curvature="0"
       style="fill:#9edcf2" />
    <path
       d="m 255.8,95.6 0.2,-0.9 c -21.1,-4.2 -42.7,-4.3 -55.8,-3.7 2.1,-7.7 2.8,-16.7 2.8,-26.6 0,-14.3 -5.4,-25.7 -14,-34.3 1.5,-4.9 3.5,-15.8 -2,-29.7 0,0 -9.8,-3.1 -32.1,11.8 -8.7,-2.2 -18,-3.3 -27.3,-3.3 -10.2,0 -20.5,1.3 -30.2,3.9 C 74.4,-2.9 64.3,0.3 64.3,0.3 57.7,16.8 61.8,29.1 63,32.1 55.2,40.5 50.5,51.2 50.5,64.3 c 0,9.9 1.1,18.8 3.9,26.5 C 41.2,90.3 20.4,90.5 0,94.6 l 0.2,0.9 c 20.4,-4.1 41.4,-4.2 54.5,-3.7 0.6,1.6 1.3,3.2 2,4.7 -13,0.4 -35.1,2.1 -56.3,8.1 l 0.3,0.9 c 21.4,-6 43.7,-7.6 56.6,-8 7.8,14.4 23,23.8 50.2,26.7 -3.9,2.6 -7.8,7 -9.4,14.5 -5.3,2.5 -21.9,8.7 -31.9,-8.5 0,0 -5.6,-10.2 -16.3,-11 0,0 -10.4,-0.2 -0.7,6.5 0,0 6.9,3.3 11.7,15.6 0,0 6.3,21 36.4,14.2 l 0,21.5 c 0,0 -0.6,7.7 -7.7,10.2 0,0 -4.2,2.9 0.3,4.5 0,0 19.5,1.6 19.5,-14.4 l 0,-23.6 c 0,0 -0.8,-9.4 3.8,-12.6 l 0,38.8 c 0,0 -0.3,9.3 -5.1,12.8 0,0 -3.2,5.7 3.8,4.2 0,0 13.4,-1.9 14,-17.6 l 0.3,-39.3 3.2,0 0.3,39.3 c 0.6,15.6 14,17.6 14,17.6 7,1.6 3.8,-4.2 3.8,-4.2 -4.8,-3.5 -5.1,-12.8 -5.1,-12.8 l 0,-38.5 c 4.6,3.6 3.8,12.3 3.8,12.3 l 0,23.6 c 0,16 19.5,14.4 19.5,14.4 4.5,-1.6 0.3,-4.5 0.3,-4.5 -7,-2.6 -7.7,-10.2 -7.7,-10.2 l 0,-31 c 0,-12.1 -5.1,-18.5 -10.1,-21.8 29,-2.9 42.9,-12.2 49.3,-26.8 12.7,0.3 35.6,1.9 57.4,8.1 l 0.3,-0.9 c -21.7,-6.1 -44.4,-7.7 -57.3,-8.1 0.6,-1.5 1.1,-3 1.6,-4.6 13.4,-0.5 35.1,-0.5 56.3,3.7 l 0,0 z m 0,0"
       id="path20"
       inkscape:connector-curvature="0"
       style="fill:#010101" />
    <path
       d="m 174.6,63.7 c 6.2,5.7 9.9,12.5 9.9,19.8 0,34.4 -25.6,35.3 -57.2,35.3 -31.6,0 -57.2,-4.8 -57.2,-35.3 0,-7.3 3.6,-14.1 9.8,-19.7 10.3,-9.4 27.7,-4.4 47.4,-4.4 19.7,0 37,-5.1 47.3,4.3 l 0,0 z m 0,0"
       id="path22"
       inkscape:connector-curvature="0"
       style="fill:#f5ccb3" />
    <path
       d="m 108.3,85.3 c 0,9.5 -5.3,17.1 -11.9,17.1 -6.6,0 -11.9,-7.7 -11.9,-17.1 0,-9.5 5.3,-17.1 11.9,-17.1 6.6,-0.1 11.9,7.6 11.9,17.1 l 0,0 z m 0,0"
       id="path24"
       inkscape:connector-curvature="0"
       style="fill:#ffffff" />
    <path
       d="m 104.5,85.5 c 0,6.3 -3.6,11.4 -7.9,11.4 -4.4,0 -7.9,-5.1 -7.9,-11.4 0,-6.3 3.6,-11.4 7.9,-11.4 4.3,0 7.9,5.1 7.9,11.4 l 0,0 z m 0,0"
       id="path26"
       inkscape:connector-curvature="0"
       style="fill:#af5c51" />
    <path
       d="m 172.2,85.3 c 0,9.5 -5.3,17.1 -11.9,17.1 -6.6,0 -11.9,-7.7 -11.9,-17.1 0,-9.5 5.3,-17.1 11.9,-17.1 6.5,-0.1 11.9,7.6 11.9,17.1 l 0,0 z m 0,0"
       id="path28"
       inkscape:connector-curvature="0"
       style="fill:#ffffff" />
    <path
       d="m 168.3,85.5 c 0,6.3 -3.6,11.4 -7.9,11.4 -4.4,0 -7.9,-5.1 -7.9,-11.4 0,-6.3 3.6,-11.4 7.9,-11.4 4.4,0 7.9,5.1 7.9,11.4 l 0,0 z m 0,0"
       id="path30"
       inkscape:connector-curvature="0"
       style="fill:#af5c51" />
    <path
       d="m 130.5,100.5 c 0,1.6 -1.3,3 -3,3 -1.6,0 -3,-1.3 -3,-3 0,-1.7 1.3,-3 3,-3 1.6,0 3,1.3 3,3 l 0,0 z m 0,0"
       id="path32"
       inkscape:connector-curvature="0"
       style="fill:#af5c51" />
    <path
       d="m 120.6,108 c -0.2,-0.5 0.1,-1 0.6,-1.2 0.5,-0.2 1,0.1 1.2,0.6 0.8,2.2 2.8,3.6 5.1,3.6 2.3,0 4.3,-1.5 5.1,-3.6 0.2,-0.5 0.7,-0.8 1.2,-0.6 0.5,0.2 0.8,0.7 0.6,1.2 -1,2.9 -3.8,4.9 -6.9,4.9 -3.1,0 -5.9,-2 -6.9,-4.9 l 0,0 z m 0,0"
       id="path34"
       inkscape:connector-curvature="0"
       style="fill:#af5c51" />
    <path
       d="m 54.5,121.6 c 0,0.8 -0.9,1.4 -2.1,1.4 -1.1,0 -2.1,-0.6 -2.1,-1.4 0,-0.8 0.9,-1.4 2.1,-1.4 1.2,0 2.1,0.6 2.1,1.4 l 0,0 z m 0,0"
       id="path36"
       inkscape:connector-curvature="0"
       style="fill:#c4e5d9" />
    <path
       d="m 60.3,124.8 c 0,0.8 -0.9,1.4 -2.1,1.4 -1.1,0 -2.1,-0.6 -2.1,-1.4 0,-0.8 0.9,-1.4 2.1,-1.4 1.2,0 2.1,0.6 2.1,1.4 l 0,0 z m 0,0"
       id="path38"
       inkscape:connector-curvature="0"
       style="fill:#c4e5d9" />
    <path
       d="m 63.8,129 c 0,0.8 -0.9,1.4 -2.1,1.4 -1.1,0 -2.1,-0.6 -2.1,-1.4 0,-0.8 0.9,-1.4 2.1,-1.4 1.2,-0.1 2.1,0.6 2.1,1.4 l 0,0 z m 0,0"
       id="path40"
       inkscape:connector-curvature="0"
       style="fill:#c4e5d9" />
    <path
       d="m 67,133.8 c 0,0.8 -0.9,1.4 -2.1,1.4 -1.1,0 -2.1,-0.6 -2.1,-1.4 0,-0.8 0.9,-1.4 2.1,-1.4 1.2,-0.1 2.1,0.6 2.1,1.4 l 0,0 z m 0,0"
       id="path42"
       inkscape:connector-curvature="0"
       style="fill:#c4e5d9" />
    <path
       d="m 70.5,138.2 c 0,0.8 -0.9,1.4 -2.1,1.4 -1.1,0 -2.1,-0.6 -2.1,-1.4 0,-0.8 0.9,-1.4 2.1,-1.4 1.2,0 2.1,0.6 2.1,1.4 l 0,0 z m 0,0"
       id="path44"
       inkscape:connector-curvature="0"
       style="fill:#c4e5d9" />
    <path
       d="m 75.3,142.1 c 0,0.8 -0.9,1.4 -2.1,1.4 -1.1,0 -2.1,-0.6 -2.1,-1.4 0,-0.8 0.9,-1.4 2.1,-1.4 1.2,-0.1 2.1,0.6 2.1,1.4 l 0,0 z m 0,0"
       id="path46"
       inkscape:connector-curvature="0"
       style="fill:#c4e5d9" />
    <path
       d="m 82,144.6 c 0,0.8 -0.9,1.4 -2.1,1.4 -1.1,0 -2.1,-0.6 -2.1,-1.4 0,-0.8 0.9,-1.4 2.1,-1.4 1.2,0 2.1,0.6 2.1,1.4 l 0,0 z m 0,0"
       id="path48"
       inkscape:connector-curvature="0"
       style="fill:#c4e5d9" />
    <path
       d="m 88.7,144.6 c 0,0.8 -0.9,1.4 -2.1,1.4 -1.1,0 -2.1,-0.6 -2.1,-1.4 0,-0.8 0.9,-1.4 2.1,-1.4 1.2,0 2.1,0.6 2.1,1.4 l 0,0 z m 0,0"
       id="path50"
       inkscape:connector-curvature="0"
       style="fill:#c4e5d9" />
    <path
       d="m 95.5,143.5 c 0,0.8 -0.9,1.4 -2.1,1.4 -1.1,0 -2.1,-0.6 -2.1,-1.4 0,-0.8 0.9,-1.4 2.1,-1.4 1.1,0 2.1,0.6 2.1,1.4 l 0,0 z m 0,0"
       id="path52"
       inkscape:connector-curvature="0"
       style="fill:#c4e5d9" />
  </g>
</svg>
