<?xml version="1.0" encoding="UTF-8" standalone="no"?>
<!-- Created with Inkscape (http://www.inkscape.org/) -->

<svg
   xmlns:dc="http://purl.org/dc/elements/1.1/"
   xmlns:cc="http://creativecommons.org/ns#"
   xmlns:rdf="http://www.w3.org/1999/02/22-rdf-syntax-ns#"
   xmlns:svg="http://www.w3.org/2000/svg"
   xmlns="http://www.w3.org/2000/svg"
   xmlns:xlink="http://www.w3.org/1999/xlink"
   xmlns:sodipodi="http://sodipodi.sourceforge.net/DTD/sodipodi-0.dtd"
   xmlns:inkscape="http://www.inkscape.org/namespaces/inkscape"
   width="500"
   height="500"
   viewBox="0 0 500.00001 500.00001"
   id="svg2"
   version="1.1"
   inkscape:version="0.91 r13725"
   sodipodi:docname="base.svg">
  <defs
     id="defs4">
    <circle
       style="opacity:1;fill:#00ffff;fill-opacity:0.9254902;stroke:#e5dee6;stroke-width:1.01291335;stroke-miterlimit:4;stroke-dasharray:none;stroke-opacity:1"
       id="path4136-3"
       cx="250"
       cy="802.36218"
       r="199.49355" />
  </defs>
  <sodipodi:namedview
     id="base"
     pagecolor="#ffffff"
     bordercolor="#666666"
     borderopacity="1.0"
     inkscape:pageopacity="0.0"
     inkscape:pageshadow="2"
     inkscape:zoom="0.76"
     inkscape:cx="35.896535"
     inkscape:cy="163.86997"
     inkscape:document-units="px"
     inkscape:current-layer="layer1"
     showgrid="false"
     units="px"
     inkscape:window-width="1600"
     inkscape:window-height="847"
     inkscape:window-x="0"
     inkscape:window-y="0"
     inkscape:window-maximized="1" />
  <metadata
     id="metadata7">
    <rdf:RDF>
      <cc:Work
         rdf:about="">
        <dc:format>image/svg+xml</dc:format>
        <dc:type
           rdf:resource="http://purl.org/dc/dcmitype/StillImage" />
        <dc:title></dc:title>
      </cc:Work>
    </rdf:RDF>
  </metadata>
  <g
     inkscape:label="Calque 1"
     inkscape:groupmode="layer"
     id="layer1"
     transform="translate(0,-552.36216)">
    <circle
       style="opacity:1;fill:#ececec;fill-opacity:0.9254902;stroke:#e5dee6;stroke-width:1.01291335;stroke-miterlimit:4;stroke-dasharray:none;stroke-opacity:1"
       id="path4136"
       cx="204.81564"
       cy="815.07281"
       r="199.49355"
       transform="matrix(0.99844076,-0.0558215,0.0558215,0.99844076,0,0)" />
    <text
       xml:space="preserve"
       style="font-style:normal;font-weight:normal;font-size:40px;line-height:125%;font-family:sans-serif;letter-spacing:0px;word-spacing:0px;fill:#2c3e50;fill-opacity:1;stroke:none;stroke-width:1px;stroke-linecap:butt;stroke-linejoin:miter;stroke-opacity:1;"
       id="text4157"
       sodipodi:linespacing="125%"><textPath
         xlink:href="#path4136"
         id="textPath4161"
         style="font-size:60px;fill:#2c3e50;fill-opacity:1;">sans gluten</textPath></text>
    <text
       xml:space="preserve"
       style="font-style:normal;font-weight:normal;font-size:40px;line-height:125%;font-family:sans-serif;letter-spacing:0px;word-spacing:0px;fill:#2c6650;fill-opacity:0;stroke:none;stroke-width:1px;stroke-linecap:butt;stroke-linejoin:miter;stroke-opacity:1;opacity:1;"
       id="text4157-1"
       sodipodi:linespacing="125%"
       x="-332.45471"
       y="-252.14529"
       transform="matrix(-0.99844076,0.0558215,-0.0558215,-0.99844076,544.63718,1589.7014)"><textPath
         xlink:href="#path4136-3"
         id="textPath4161-8"
         style="font-size:60px;fill:#2c3e50;fill-opacity:0">sans gluten</textPath></text>
    <path
       style="fill:#2c3e50;fill-opacity:1"
       d="m 149.62502,951.66848 c -4.30624,-1.12543 -4.09101,-9.67168 0.50729,-20.14296 2.68969,-6.1251 18.35716,-32.64661 23.27928,-39.40665 24.65256,-33.85783 32.67185,-44.48738 48.44318,-64.2112 8.71872,-10.90373 15.67455,-20.32354 15.45737,-20.9329 -0.51983,-1.45866 -33.84656,-37.41983 -44.49725,-48.01473 -9.41089,-9.36159 -23.68477,-18.05876 -37.19978,-22.66612 -7.23548,-2.46661 -10.40026,-2.88794 -19.30677,-2.5702 -12.78692,0.45613 -20.04468,3.54942 -30.18268,12.86402 -11.755636,10.80084 -15.136346,11.79712 -13.679466,4.03126 1.91849,-10.22643 16.423926,-27.30889 28.966226,-34.11232 21.17077,-11.48386 47.35229,-8.27641 73.74777,9.03464 12.24185,8.02863 21.71332,16.36347 37.73652,33.2079 l 12.55029,13.19355 1.97136,-3.81221 c 2.93051,-5.66698 8.98475,-12.12961 11.36312,-12.12961 1.75844,0 2.17845,1.39363 2.6542,8.80681 0.34302,5.34495 1.33475,9.98133 2.52292,11.79472 2.23572,3.41212 2.52789,8.07966 0.7175,11.46237 -0.94655,1.76866 -0.79307,2.76456 0.64819,4.20582 1.03862,1.03862 2.02181,1.69185 2.18485,1.45159 0.16305,-0.24025 2.13507,-4.15445 4.38227,-8.69821 2.2472,-4.54378 6.25822,-10.53595 8.91337,-13.3159 4.58136,-4.7967 5.17232,-5.05448 11.5876,-5.05448 4.4242,0 8.3634,-0.81798 11.40027,-2.36727 6.33891,-3.23387 9.46907,-3.11304 9.46907,0.36553 0,3.69016 -7.30532,15.64472 -13.33864,21.82762 -4.51511,4.62704 -5.39588,5.03045 -10.9832,5.03045 -4.42125,0 -7.72421,0.90219 -12.13632,3.31497 l -6.0619,3.31495 23.86463,24.79636 c 41.98604,43.62526 45.10041,46.29701 57.99473,49.75248 11.78646,3.1586 22.01474,-1.12638 40.12475,-16.8097 6.04321,-5.23341 8.17143,-6.41304 11.05911,-6.12983 6.81777,0.66863 5.30095,4.35607 -6.02762,14.65342 -23.60188,21.45338 -41.92293,32.45076 -54.06136,32.45076 -10.52816,0 -19.13658,-3.65986 -33.1763,-14.10479 -5.04738,-3.75504 -63.52717,-65.1344 -64.52776,-67.7272 -0.21702,-0.5623 -0.80349,-1.02237 -1.30328,-1.02237 -0.81839,0 -30.31919,36.29243 -32.5214,40.00845 -0.64948,1.09594 0.39864,0.9656 3.63321,-0.45179 2.50033,-1.09563 7.40955,-3.08723 10.90941,-4.42574 6.21098,-2.37539 6.40226,-2.38041 7.98952,-0.20972 0.8944,1.22315 1.62617,3.42067 1.62617,4.88334 0,3.80085 -3.0456,16.3977 -5.97272,24.70355 -1.37651,3.90599 -3.25991,13.22717 -4.18531,20.71354 -0.9254,7.48651 -2.29433,16.27508 -3.04205,19.53004 -1.72439,7.50646 -10.85513,26.31836 -14.61112,30.10292 l -2.85754,2.87923 -1.39129,-3.47108 c -1.79373,-4.4752 -1.79822,-43.16812 -0.006,-49.82489 1.84887,-6.86609 2.14731,-17.7698 0.53064,-19.38752 -1.67177,-1.67287 -4.76398,-0.16948 -12.06716,5.86688 -9.28088,7.67102 -26.07161,37.03842 -32.20275,56.32352 -3.62785,11.41109 -4.38045,12.1315 -10.89536,10.4287 z m 118.26405,-178.7021 c -0.43401,-0.43399 -0.7891,-4.62986 -0.7891,-9.32414 0,-6.14275 -0.49764,-8.94807 -1.77545,-10.00856 -3.97345,-3.29767 -1.20047,-14.29984 6.33834,-25.14805 8.7447,-12.58348 12.00388,-13.03186 12.0153,-1.653 0.004,3.99909 0.72071,8.63817 1.59267,10.30905 4.22922,8.1043 2.32005,16.09818 -6.57793,27.54229 -6.17549,7.94259 -8.98775,10.09851 -10.80383,8.28241 z m 22.25411,-13.47548 c -1.15249,-1.86478 6.33023,-13.77411 13.13071,-20.89854 l 5.99122,-6.27662 7.62057,0.18334 c 4.519,0.10872 9.96417,-0.62441 13.37879,-1.8013 11.28795,-3.89055 10.96926,2.48213 -0.76559,15.30901 -3.76405,4.11431 -8.7558,8.6623 -11.09279,10.10665 -3.74505,2.31455 -4.71625,2.45713 -8.18734,1.20197 -3.40474,-1.23116 -4.58143,-1.09597 -8.68593,0.99799 -5.1592,2.63202 -10.1705,3.15013 -11.38964,1.1775 z m -1.19512,-23.69128 c -0.42938,-0.69475 -0.12684,-4.72838 0.67229,-8.96366 1.07781,-5.71218 1.10853,-8.04492 0.11909,-9.03445 -2.49035,-2.49035 -1.54703,-10.8676 1.77763,-15.78667 6.60194,-9.76796 16.03852,-18.74562 18.74023,-17.82881 0.70488,0.23921 1.28394,4.66274 1.35775,10.37195 0.0708,5.47517 0.52234,11.62886 1.00346,13.67483 1.28773,5.47619 -2.02535,11.52684 -11.41136,20.84045 -7.83459,7.77416 -10.655,9.3217 -12.25902,6.72636 z m 24.32778,-10.27727 c 0.0192,-2.81121 6.8304,-14.53981 11.38913,-19.61145 5.08316,-5.65507 7.53238,-6.73985 14.84799,-6.57618 3.4643,0.0775 8.36117,-0.7231 10.88189,-1.77911 6.20183,-2.59811 10.21226,-2.51347 10.21226,0.21552 0,2.86526 -5.88359,11.97904 -12.10245,18.7469 -6.04926,6.58329 -11.02038,8.98227 -15.83631,7.64234 -2.40717,-0.66974 -5.11435,-0.30063 -9.09364,1.23986 -7.18376,2.78102 -10.31723,2.81819 -10.29887,0.12212 z m 2.35315,-24.41159 c 0,-1.54565 0.73246,-4.88625 1.62766,-7.42354 0.97526,-2.76421 1.39266,-7.0589 1.04136,-10.71491 -0.48352,-5.03209 -0.1105,-6.79115 2.1285,-10.03509 6.38362,-9.24909 21.32823,-20.30015 23.9317,-17.69669 1.00949,1.00948 0.92063,2.76199 -0.35314,6.96429 -0.93613,3.08844 -1.58314,8.97993 -1.4378,13.09221 0.3185,9.01148 -1.34868,12.70411 -8.27766,18.33408 -12.84193,10.43444 -18.66062,12.76672 -18.66062,7.47965 z m 29.63304,-11.09745 c 0.0435,-4.57451 2.34658,-15.20092 4.42526,-20.41768 1.60551,-4.02932 4.85591,-6.68171 9.36059,-7.63845 2.07192,-0.44005 6.19062,-2.93332 9.15265,-5.54062 2.96204,-2.60729 5.92739,-4.40564 6.58968,-3.99632 2.92826,1.80977 0.46156,15.31583 -4.61443,25.26563 -2.52068,4.94092 -5.44684,7.297 -9.06258,7.297 -1.10924,0 -4.32818,2.13054 -7.15318,4.73454 -6.60166,6.0852 -8.75368,6.15841 -8.69799,0.2959 z"
       id="path4670"
       inkscape:connector-curvature="0"
       sodipodi:nodetypes="csssssssssssscssssssssssssssscsssssssssssssssssscscssscccssscsscsscssssssscscssssscccsssssssccssssssssssssssssss" />
  </g>
</svg>
