<?xml version="1.0" encoding="UTF-8" standalone="no"?>
<!-- Created with Inkscape (http://www.inkscape.org/) -->

<svg
   xmlns:dc="http://purl.org/dc/elements/1.1/"
   xmlns:cc="http://creativecommons.org/ns#"
   xmlns:rdf="http://www.w3.org/1999/02/22-rdf-syntax-ns#"
   xmlns:svg="http://www.w3.org/2000/svg"
   xmlns="http://www.w3.org/2000/svg"
   xmlns:sodipodi="http://sodipodi.sourceforge.net/DTD/sodipodi-0.dtd"
   xmlns:inkscape="http://www.inkscape.org/namespaces/inkscape"
   id="svg2"
   version="1.1"
   inkscape:version="0.91 r"
   width="250"
   height="500"
   viewBox="0 0 250 500"
   sodipodi:docname="github.svg">
  <metadata
     id="metadata8">
    <rdf:RDF>
      <cc:Work
         rdf:about="">
        <dc:format>image/svg+xml</dc:format>
        <dc:type
           rdf:resource="http://purl.org/dc/dcmitype/StillImage" />
        <dc:title></dc:title>
      </cc:Work>
    </rdf:RDF>
  </metadata>
  <defs
     id="defs6" />
  <sodipodi:namedview
     pagecolor="#ffffff"
     bordercolor="#666666"
     borderopacity="1"
     objecttolerance="10"
     gridtolerance="10"
     guidetolerance="10"
     inkscape:pageopacity="0"
     inkscape:pageshadow="2"
     inkscape:window-width="1600"
     inkscape:window-height="851"
     id="namedview4"
     showgrid="false"
     inkscape:zoom="0.472"
     inkscape:cx="129.23729"
     inkscape:cy="250"
     inkscape:window-x="0"
     inkscape:window-y="0"
     inkscape:window-maximized="1"
     inkscape:current-layer="svg2" />
  <path
     style="fill:#000000"
     d="M 231.875,499.15512 C 171.10081,493.99397 118.7805,470.30001 75.194201,428.20009 40.919955,395.09466 15.425801,348.71045 5.6067634,301.59229 -4.2036021,254.51575 -0.18356496,204.7384 17.031184,160.13157 46.30611,84.274454 111.55476,26.801017 190.13157,7.6583031 206.8412,3.5875431 218.67283,1.8100026 237.8125,0.49489561 L 250,-0.3425201 250,15.45374 250,31.25 242.1875,31.2535 C 211.84524,31.267175 172.46496,42.34749 142.54042,59.290912 40.231257,117.21888 1.941081,245.49771 55.766155,350 c 24.283205,47.14625 64.297195,83.76227 112.513815,102.95923 12.89395,5.13358 19.94093,5.75578 24.39405,2.15383 2.87031,-2.32167 2.96178,-2.99257 3.34599,-24.54039 0.37449,-21.00258 0.27708,-22.10402 -1.875,-21.20164 -1.24851,0.52349 -8.27615,1.231 -15.61699,1.57223 -28.95887,1.3461 -47.7229,-9.18531 -57.35937,-32.19326 -4.49332,-10.72821 -10.20693,-18.96263 -17.37539,-25.04129 -3.62162,-3.07104 -8.576325,-7.44397 -11.010445,-9.71763 -4.124174,-3.85232 -4.284261,-4.27534 -2.349906,-6.2097 3.090992,-3.09099 14.110081,-2.58074 21.497531,0.99546 8.30595,4.02084 13.17088,8.63087 21.19986,20.08909 11.84894,16.90968 23.94795,23.30282 41.71976,22.04475 5.23871,-0.37085 12.28113,-1.71184 15.64979,-2.97998 5.9305,-2.23254 6.19105,-2.54369 8.21091,-9.8057 2.36559,-8.50499 6.41358,-16.88466 9.32288,-19.29917 3.23551,-2.68524 2.32233,-3.43049 -5.22114,-4.26108 -13.26379,-1.46042 -31.95154,-6.95716 -44.0263,-12.94971 -24.59675,-12.20705 -39.96381,-33.6141 -45.84125,-63.85903 -2.90417,-14.94471 -2.88868,-40.67681 0.031,-51.50601 2.82568,-10.4805 9.78901,-24.64923 15.24891,-31.02789 l 4.29622,-5.01916 -1.88554,-7.2391 c -3.35102,-12.86542 -1.82884,-34.31003 3.34871,-47.177 1.43348,-3.5624 1.50738,-3.58407 10.30003,-3.01979 10.18118,0.65339 24.83812,6.35306 41.31925,16.06789 8.09161,4.76961 10.52925,5.67249 12.8908,4.77462 4.72523,-1.79652 28.75655,-5.80403 40.56816,-6.76521 L 250,135.95431 250,317.97715 250,500 l -6.5625,-0.21012 c -3.60938,-0.11563 -8.8125,-0.40122 -11.5625,-0.63475 z"
     id="path4138"
     inkscape:connector-curvature="0" />
</svg>
