<?xml version="1.0" encoding="UTF-8" standalone="no"?>
<!-- Created with Inkscape (http://www.inkscape.org/) -->

<svg
   xmlns:dc="http://purl.org/dc/elements/1.1/"
   xmlns:cc="http://creativecommons.org/ns#"
   xmlns:rdf="http://www.w3.org/1999/02/22-rdf-syntax-ns#"
   xmlns:svg="http://www.w3.org/2000/svg"
   xmlns="http://www.w3.org/2000/svg"
   xmlns:sodipodi="http://sodipodi.sourceforge.net/DTD/sodipodi-0.dtd"
   xmlns:inkscape="http://www.inkscape.org/namespaces/inkscape"
   width="280"
   height="430"
   viewBox="0 0 280.00001 430.00001"
   id="svg4495"
   version="1.1"
   inkscape:version="0.91 r"
   sodipodi:docname="raspberry_cook.svg">
  <defs
     id="defs4497">
    <clipPath
       clipPathUnits="userSpaceOnUse"
       id="clipPath5492">
      <rect
         style="opacity:1;fill:#ececec;fill-opacity:1"
         id="rect5494"
         width="242.43661"
         height="185.86807"
         x="50.773457"
         y="-446.79025" />
    </clipPath>
  </defs>
  <sodipodi:namedview
     id="base"
     pagecolor="#ffffff"
     bordercolor="#666666"
     borderopacity="1.0"
     inkscape:pageopacity="0"
     inkscape:pageshadow="2"
     inkscape:zoom="0.35355339"
     inkscape:cx="140.546"
     inkscape:cy="59.15709"
     inkscape:document-units="px"
     inkscape:current-layer="g4374"
     showgrid="false"
     inkscape:window-width="799"
     inkscape:window-height="851"
     inkscape:window-x="800"
     inkscape:window-y="0"
     inkscape:window-maximized="0"
     units="px" />
  <metadata
     id="metadata4500">
    <rdf:RDF>
      <cc:Work
         rdf:about="">
        <dc:format>image/svg+xml</dc:format>
        <dc:type
           rdf:resource="http://purl.org/dc/dcmitype/StillImage" />
        <dc:title />
      </cc:Work>
    </rdf:RDF>
  </metadata>
  <g
     inkscape:label="Calque 1"
     inkscape:groupmode="layer"
     id="layer1"
     transform="translate(0,-622.36216)">
    <g
       id="g5118"
       transform="translate(189.64285,408.1877)"
       style="opacity:1">
      <g
         id="g4374"
         transform="translate(-175.34442,313.90378)">
        <path
           style="opacity:1;fill:#ec644b;fill-opacity:1;stroke:#d91e18;stroke-width:19.18920898;stroke-miterlimit:4;stroke-dasharray:none;stroke-opacity:1"
           d="m 56.604963,103.46236 c -0.980625,0.21332 -1.171592,0.0722 -1.372334,-1.014 l 1.409965,-29.318797 0.01312,-3.69556 -1.41521,-0.217685 C 54.462134,69.096653 52.103979,68.77478 50.000178,68.501191 29.522636,65.838238 11.31812,49.893492 4.6698636,28.797845 2.5939486,22.210735 2.0369776,18.355023 2.0430152,10.613104 2.0505622,0.39831744 4.1682972,-8.5261051 8.5818864,-16.9481 18.614203,-36.091676 37.453538,-47.737923 58.441995,-47.771003 c 6.196566,-0.01053 9.239936,0.385856 14.889257,1.935522 1.866871,0.512099 3.442644,0.855741 3.501719,0.763673 0.05906,-0.09202 0.556782,-1.687596 1.106017,-3.545578 1.479134,-5.003711 5.334431,-12.765986 8.521666,-17.157568 5.100765,-7.028207 12.730057,-13.638649 20.197086,-17.499855 3.87292,-2.002697 10.91275,-4.360384 15.53313,-5.202154 8.57516,-1.562261 19.64743,-0.661934 27.90191,2.268763 6.0134,2.135027 15.32763,7.383727 14.76727,8.321564 -0.14531,0.243222 0.12803,0.442239 0.60756,0.442239 0.47949,0 2.24841,1.228602 3.93094,2.730216 4.57568,4.083702 9.73078,10.955926 12.50658,16.67248 0.59225,1.219654 1.18267,2.217563 1.31207,2.217563 0.12932,0 2.22557,-0.433185 4.65817,-0.962634 5.76225,-1.254119 15.6867,-1.359312 21.30524,-0.225803 17.43257,3.516909 32.10139,14.716349 39.90367,30.465862 4.647,9.380353 6.27529,16.392147 6.2759,27.02532058 4.3e-4,8.14129492 -0.50734,11.54779042 -2.79834,18.77230142 -3.79012,11.951814 -11.91628,22.913145 -22.37945,30.187482 -5.02349,3.492475 -13.13307,7.160382 -17.77893,8.041281 -1.11926,0.21222 -1.78713,0.630571 -2.0319,1.272785 -0.33303,0.873746 -2.22022,33.582033 -2.19164,42.706933 0.008,2.15152 -0.16917,4.40543 -0.3909,5.00867 l -0.40313,1.09682 -5.14883,-1.28691 C 131.75565,80.591864 130.90382,79.874107 56.604963,103.46236 Z"
           id="path5641-3"
           inkscape:connector-curvature="0"
           sodipodi:nodetypes="cccccsscscscssssssssssssssssscccccc" />
        <path
           id="path4376"
           d="m 53.610131,93.428 c -15.787,9.177 -29.325,21.25 -29.233,50.875 l -2.313,4.125 c -18.1020001,11.008 -34.388,46.39 -8.92,75.148 1.663,9.002 4.453,15.468 6.937,22.624 3.715,28.836 27.962,42.339 34.358,43.936 9.371,7.138 19.352,13.911 32.859,18.656 12.731999,13.131 26.525999,18.136 40.394999,18.128 0.204,0 28.277,-4.996 41.01,-18.128 13.506,-4.745 23.487,-11.518 32.859,-18.656 6.395,-1.597 30.642,-15.1 34.357,-43.936 2.484,-7.156 5.274,-13.622 6.938,-22.624 25.466,-28.761 9.181,-64.144 -8.921,-75.152 l -2.316,-4.125 c 0.092,-29.622 -13.446,-41.696 -29.233,-50.875"
           inkscape:connector-curvature="0"
           style="fill:#d91e18;fill-opacity:1"
           sodipodi:nodetypes="ccccccccccccccc" />
        <path
           id="path4382"
           d="m 165.933,236.933 c 0.108,18.933 -16.449,34.362 -36.98,34.461 -20.532,0.1 -37.264,-15.167 -37.372,-34.1 -0.001,-0.12 -0.001,-0.24 0,-0.361 -0.108,-18.932 16.448,-34.361 36.98,-34.461 20.532,-0.1 37.263,15.167 37.372,34.1 l 0,0.361"
           inkscape:connector-curvature="0"
           style="fill:#ec644b;fill-opacity:1" />
        <path
           id="path4384"
           d="m 107.246,139.004 c 15.404,10.093 18.181,32.969 6.202,51.095 -11.979,18.127 -34.177,24.641 -49.581,14.549 -15.404,-10.093 -18.18,-32.969 -6.202,-51.095 11.979,-18.127 34.177,-24.641 49.581,-14.549"
           inkscape:connector-curvature="0"
           style="fill:#ec644b;fill-opacity:1" />
        <path
           id="path4386"
           d="m 148.822,137.177 c -15.403,10.092 -18.18,32.969 -6.202,51.095 11.979,18.127 34.177,24.641 49.581,14.548 15.404,-10.092 18.181,-32.968 6.202,-51.095 -11.978,-18.126 -34.176,-24.64 -49.581,-14.548"
           inkscape:connector-curvature="0"
           style="fill:#ec644b;fill-opacity:1" />
        <path
           id="path4388"
           d="m 30.258,155.504 c 16.631,-4.458 5.615,68.803 -7.917,62.792 C 7.456,206.324 2.662,171.263 30.258,155.504"
           inkscape:connector-curvature="0"
           style="fill:#ec644b;fill-opacity:1" />
        <path
           id="path4390"
           d="m 222.453,154.591 c -16.633,-4.457 -5.615,68.807 7.917,62.796 14.885,-11.973 19.679,-47.038 -7.917,-62.796"
           inkscape:connector-curvature="0"
           style="fill:#ec644b;fill-opacity:1" />
        <path
           id="path4392"
           d="m 165.946,100.034 c 28.701,-4.846 52.583,12.206 51.619,43.328 -0.944,11.932 -62.193,-41.551 -51.619,-43.328"
           inkscape:connector-curvature="0"
           style="fill:#ec644b;fill-opacity:1" />
        <path
           id="path4394"
           d="M 86.646,99.121 C 57.943,94.274 34.063,111.33 35.027,142.45 35.971,154.381 97.221,100.898 86.646,99.121"
           inkscape:connector-curvature="0"
           style="fill:#ec644b;fill-opacity:1" />
        <path
           id="path4396"
           d="m 127.874,91.863 c -17.13,-0.446 -33.57,12.713 -33.61,20.346 -0.047,9.274 13.544,18.77 33.727,19.011 20.61,0.147 33.762,-7.601 33.828,-17.172 0.076,-10.844 -18.745,-22.353 -33.945,-22.186 l 0,0.001"
           inkscape:connector-curvature="0"
           style="fill:#ec644b;fill-opacity:1" />
        <path
           id="path4398"
           d="m 128.92,282.043 c 14.935,-0.652 34.975,4.81 35.015,12.057 0.248,7.036 -18.175,22.934 -36.005,22.627 -18.466,0.797 -36.573,-15.126 -36.336,-20.645 -0.277,-8.092 22.484,-14.41 37.326,-14.039"
           inkscape:connector-curvature="0"
           style="fill:#ec644b;fill-opacity:1" />
        <path
           id="path4400"
           d="m 73.756,239.098 c 10.633,12.81 15.481,35.316 6.607,41.951 -8.395,5.065 -28.782,2.979 -43.272,-17.838 -9.773,-17.468 -8.514,-35.243 -1.652,-40.465 10.261,-6.25 26.115,2.193 38.318,16.352 l -0.001,0"
           inkscape:connector-curvature="0"
           style="fill:#ec644b;fill-opacity:1" />
        <path
           id="path4402"
           d="m 181.956,235.037 c -11.505,13.475 -17.911,38.053 -9.519,45.969 8.025,6.15 29.567,5.29 45.479,-16.789 11.554,-14.829 7.683,-39.594 1.083,-46.17 -9.804,-7.583 -23.879,2.122 -37.043,16.986 l 0,0.004"
           inkscape:connector-curvature="0"
           style="fill:#ec644b;fill-opacity:1" />
        <path
           style="opacity:1;fill:#ffffff;fill-opacity:0.69662923"
           d="m 72.250334,54.96686 c -3.26969,-0.71205 -6.35103,-2.50981 -9.13999,-5.33252 -4.92611,-4.98579 -8.14652,-12.63486 -9.50362,-22.57296 -0.45191,-3.30934 -0.44641,-10.02518 0.0113,-13.46373 1.72009,-12.9301299 7.04925,-24.09823 15.78933,-33.08894 8.55003,-8.79526 18.8681,-14.09163 31.009266,-15.91741 3.33281,-0.50118 8.93553,-0.60226 11.95451,-0.21566 10.78925,1.38158 19.12532,6.62234 22.55096,14.17743 1.59995,3.52862 2.05126,8.05431 1.15717,11.60412 -1.41217,5.60669 -5.50835,10.7916201 -11.18226,14.1544201 -5.02579,2.9787 -11.6156,4.88818 -17.02205,4.93237 l -1.54978,0.0127 1.22465,0.56665 c 1.948,0.9012999 3.73409,2.1918399 5.28235,3.8167199 3.5402,3.71541 4.92699,7.0016 7.22031,17.10952 1.33981,5.9053 2.37276,8.06045 4.27809,8.92588 1.78443,0.81051 5.19003,0.14151 9.07018,-1.78182 1.79817,-0.8913 3.62948,-2.01792 3.62948,-2.23284 0,-0.0548 -0.21677,-0.85692 -0.4817,-1.78262 -2.01712,-7.04791 -1.85773,-15.00371 0.48393,-24.1549599 4.07637,-15.9305401 13.29052,-31.0526401 24.32419,-39.9204001 4.93477,-3.96609 11.04681,-6.97558 16.35095,-8.05101 2.44182,-0.49509 6.81759,-0.67955 8.93052,-0.37648 2.05052,0.29413 5.25124,1.34809 6.90856,2.27492 5.11927,2.86286 8.75733,8.31703 9.55757,14.32868 0.34933,2.62429 0.13556,6.90621 -0.45851,9.18433 -1.55317,5.95603 -4.50777,10.9562501 -9.33234,15.7935201 -5.51484,5.52935 -11.49219,8.4165199 -17.41471,8.4116299 -4.42695,-0.004 -7.22513,-1.05399 -8.10458,-3.0421499 -0.34542,-0.7809 -0.38318,-1.19817 -0.31865,-3.52204 0.0648,-2.33153 0.12877,-2.74813 0.55396,-3.6048 0.35161,-0.7084 0.68227,-1.06701 1.23083,-1.33486 0.81634,-0.3986 0.55072,-0.43166 3.89928,0.48522 1.42608,0.39048 1.70443,0.40718 3.48702,0.20926 8.45689,-0.93897 15.37755,-8.2973001 15.92101,-16.9278801 0.28916,-4.59224 -1.12443,-8.10175 -4.03321,-10.01314 -1.92126,-1.26248 -3.46955,-1.66625 -6.36671,-1.6603 -4.0482,0.009 -7.35777,1.2342 -11.29766,4.18477 -6.31028,4.72572 -12.64745,14.02239 -16.88224,24.7663501 -4.40739,11.1818599 -6.04596,21.5692399 -4.5559,28.8810799 0.79694,3.91066 2.14974,6.58728 4.54914,9.00078 1.26583,1.27324 1.88697,1.72496 3.39015,2.46539 2.98931,1.47246 4.59981,1.78225 9.20183,1.77004 3.42834,-0.01 4.15628,-0.0697 6.32193,-0.52574 3.22185,-0.67854 6.42683,-1.80554 9.75706,-3.431 3.71677,-1.81415 5.96956,-3.21389 12.24265,-7.60682 6.45435,-4.51987 10.32866,-7.07679 12.94236,-8.54151 1.88345,-1.0555 5.71245,-2.83366 6.10189,-2.83366 0.12342,0 0.19305,1.84221 0.19305,5.10423 l 0,5.10425 -0.82162,0.36842 c -2.15455,0.96614 -5.38998,3.45253 -11.09236,8.52434 -4.53306,4.0318 -6.8477,5.87288 -9.97668,7.93552 -5.49586,3.62289 -10.87649,5.84467 -17.24133,7.11941 -4.21214,0.84356 -5.86746,0.99477 -10.94534,0.99975 -5.32785,0.006 -6.54192,-0.156 -9.78301,-1.29929 -2.16456,-0.76356 -3.7957,-1.59751 -5.97271,-3.05369 -1.72027,-1.15066 -4.59337,-3.77519 -5.7796,-5.27956 l -0.57253,-0.72607 -2.26267,1.17423 c -5.62472,2.91895 -10.64535,4.39125 -15.63324,4.5844 -4.04443,0.15662 -6.03656,-0.49388 -8.5015,-2.77604 -3.83016,-3.54615 -5.73141,-8.28076 -8.54931,-21.2902 -1.7481,-8.0704 -2.23064,-9.78193 -3.44058,-12.20353 -1.42325,-2.84851 -2.23139,-3.39115 -5.050416,-3.39115 -1.26277,0 -1.8052,0.0708 -1.85334,0.24216 -0.0375,0.13318 -0.30099,2.45141 -0.58566,5.15163 -2.03467,19.29912 -5.16431,29.6967 -10.56496,35.09997 -1.53947,1.54018 -3.09161,2.50761 -5.14059,3.20402 -2.11484,0.7188 -5.56923,0.84086 -8.11384,0.2867 z m 5.95659,-10.4862 c 3.5934,-0.99778 6.36213,-8.88179 7.58006,-21.58432 0.42859,-4.47002 0.8037,-12.9382499 0.57656,-13.0161099 -0.10225,-0.0351 -1.22836,-0.65135 -2.50256,-1.36957 -3.96671,-2.23591 -5.17348,-3.8115 -4.87359,-6.36311 0.1413,-1.20228 0.45486,-1.92492 1.08119,-2.49174 0.51304,-0.4643 1.65493,-0.45174 5.23738,0.0575 l 2.42153,0.34426 0.14048,-1.36634 c 0.6454,-6.2772401 1.59239,-9.2438201 3.61303,-11.3183501 1.4859,-1.52551 2.29896,-1.86392 4.47971,-1.86456 2.20325,-6e-4 2.88571,0.29018 3.53118,1.50481 0.37468,0.70505 0.43177,1.0895 0.40938,2.75657 -0.0143,1.06546 -0.24757,3.33201 -0.51834,5.03678 -0.27077,1.7047601 -0.54674,3.6226201 -0.61328,4.2619001 -0.0665,0.63928 -0.16876,1.41443 -0.22717,1.72254 l -0.10626,0.56019 2.491386,-0.13099 c 3.80761,-0.20017 6.1517,-0.47801 8.57842,-1.01679 9.49616,-2.10837 14.73818,-6.9237601 14.73818,-13.5387501 0,-2.94925 -1.0008,-5.16405 -3.31877,-7.34463 -4.16789,-3.92087 -11.14283,-5.3157 -20.31542,-4.06265 -6.461426,0.88269 -12.578716,3.39861 -17.628776,7.25036 -6.79448,5.18227 -12.23104,13.6316601 -15.0809,23.4384901 -2.66615,9.1745999 -3.15654,19.6101299 -1.2769,27.1723899 0.96774,3.89347 2.26698,6.51031 4.32099,8.70308 2.0884,2.22949 4.9871,3.29079 7.26245,2.65899 z"
           id="path5827"
           inkscape:connector-curvature="0" />
      </g>
    </g>
    <path
       style="opacity:1;fill:#ff6600;fill-opacity:0"
       d="m -86.59193,1077.5869 c -7.08305,-1.8558 -15.53925,-6.4005 -21.37492,-11.4876 -2.67324,-2.3304 -6.30687,-4.8892 -8.07473,-5.6862 -9.52145,-4.2929 -18.15665,-9.0172 -23.44292,-12.8255 -3.2686,-2.3548 -8.25075,-5.4184 -11.07143,-6.8081 -14.43052,-7.1093 -26.06071,-22.0394 -29.4646,-37.8246 -0.67772,-3.14287 -2.01588,-7.80358 -2.97368,-10.35715 -0.95781,-2.55357 -2.47888,-7.39789 -3.38015,-10.76514 -1.19628,-4.46945 -2.4169,-7.15049 -4.52131,-9.9309 -6.59371,-8.7118 -9.70015,-17.98191 -9.70015,-28.94682 0,-8.76689 1.33624,-14.23571 5.60038,-22.92063 3.2276,-6.57375 10.33925,-15.31089 14.10113,-17.32419 2.99487,-1.60281 4.0436,-4.38936 4.84324,-12.86886 1.72564,-18.29882 9.12208,-30.939 23.465,-40.1006 2.76766,-1.76786 5.05097,-3.41359 5.07402,-3.65718 0.023,-0.24358 -1.40901,-0.84911 -3.18235,-1.34561 -2.98446,-0.8356 -7.49004,-4.68444 -7.49004,-6.39828 0,-0.35038 -1.75941,-1.44256 -3.90981,-2.42704 -3.80308,-1.74111 -6.75745,-5.02927 -6.82891,-7.60047 -0.0164,-0.58928 -1.30835,-1.9559 -2.87105,-3.03692 -3.23195,-2.23576 -5.66934,-5.80384 -5.67327,-8.30508 -0.002,-0.93452 -1.10951,-2.92427 -2.46231,-4.42166 -2.26009,-2.50165 -4.00259,-7.29792 -3.01144,-8.28907 0.22808,-0.22808 -0.59731,-1.88558 -1.8342,-3.68333 -1.79147,-2.60383 -2.23834,-3.96766 -2.19704,-6.70541 0.0309,-2.04973 -0.49146,-4.50243 -1.29434,-6.07725 -1.64181,-3.22031 -1.68148,-4.61813 -0.21173,-7.46031 0.93212,-1.80253 0.99403,-2.7515 0.34712,-5.32063 -1.49309,-5.92958 1.82634,-10.27176 7.85235,-10.27176 2.47236,0 3.64361,-0.38364 4.6625,-1.52716 1.97416,-2.21565 5.44254,-3.47284 9.58097,-3.47284 2.62906,0 4.21528,-0.43768 5.78069,-1.59503 1.43839,-1.06345 3.29539,-1.63294 5.57205,-1.70878 1.87806,-0.0626 4.41397,-0.63051 5.63535,-1.26211 2.51439,-1.30024 6.9948,-1.49744 9.79899,-0.43129 1.42955,0.54351 2.25726,0.45707 3.41972,-0.35715 1.99018,-1.39398 6.05131,-1.36849 9.46881,0.0594 1.84695,0.7717 3.68702,0.9876 5.7634,0.67623 2.22687,-0.33394 3.68713,-0.11954 5.40975,0.79428 1.29775,0.68843 4.54948,1.46371 7.22608,1.72284 4.33396,0.4196 5.15801,0.75578 7.53011,3.07208 2.01801,1.97054 3.26221,2.60276 5.13347,2.60852 5.93779,0.0183 16.29242,12.23452 20.42702,24.09955 0.71871,2.0625 1.47729,3.75 1.68572,3.75 0.20844,0 0.96702,-1.6875 1.68573,-3.75 4.17088,-11.96916 14.41145,-24.04569 20.42702,-24.08926 1.86324,-0.0135 3.1241,-0.65671 5.13347,-2.61881 2.3721,-2.3163 3.19615,-2.65248 7.53011,-3.07208 2.6766,-0.25913 5.91551,-1.02778 7.1976,-1.70811 1.74258,-0.92469 3.2016,-1.12148 5.77946,-0.77952 2.49903,0.33151 4.0598,0.14128 5.66918,-0.69096 2.79171,-1.44365 7.21581,-1.47924 9.22181,-0.0742 1.16245,0.81422 1.99016,0.90066 3.41971,0.35715 2.80419,-1.06615 7.2846,-0.86895 9.79899,0.43129 1.22137,0.6316 3.75729,1.19955 5.63535,1.26211 2.27665,0.0758 4.13366,0.64533 5.57205,1.70878 1.5654,1.15735 3.15162,1.59503 5.78069,1.59503 4.13843,0 7.60681,1.25719 9.58097,3.47284 1.01889,1.14352 2.19014,1.52716 4.66249,1.52716 6.0149,0 9.11109,4.0267 7.80497,10.15066 -0.5634,2.64163 -0.4801,3.7504 0.41123,5.47407 1.45725,2.81798 1.40967,4.21489 -0.2547,7.47946 -0.80394,1.57689 -1.32442,3.93279 -1.2565,5.68753 0.0844,2.18135 -0.45778,3.96608 -1.99479,6.5662 -1.1609,1.96386 -2.02009,4.1426 -1.90932,4.84166 0.34633,2.18562 -1.26859,5.90854 -3.48346,8.03052 -1.27303,1.21965 -2.12741,2.77181 -2.12901,3.86782 -0.004,2.62314 -2.38216,6.15989 -5.67327,8.43658 -1.5627,1.08102 -2.85468,2.44764 -2.87105,3.03692 -0.0715,2.5712 -3.02583,5.85936 -6.82891,7.60047 -2.1504,0.98448 -3.90982,2.07666 -3.90982,2.42704 0,1.71384 -4.50557,5.56268 -7.49004,6.39828 -1.77333,0.4965 -3.21601,1.10203 -3.20596,1.34561 0.0101,0.24359 2.22029,1.84118 4.91163,3.5502 6.10514,3.87681 13.47465,11.26892 16.84102,16.89269 3.60033,6.0146 5.93099,13.99391 6.80998,23.31489 0.79965,8.4795 1.84838,11.26605 4.84325,12.86886 3.76188,2.0133 10.87353,10.75044 14.10112,17.32419 4.27314,8.70323 5.60271,14.15472 5.59015,22.92063 -0.0157,10.95357 -3.14325,20.29719 -9.6888,28.94535 -2.09122,2.76298 -3.35064,5.51913 -4.59199,10.04924 -0.94076,3.43316 -2.50699,8.35828 -3.48052,10.9447 -0.97353,2.58643 -2.2744,7.19386 -2.89082,10.23876 -3.11781,15.4009 -14.97282,30.5511 -29.50807,37.7103 -2.89247,1.4246 -7.12127,3.9611 -9.39731,5.6366 -5.92889,4.3646 -14.79868,9.4412 -21.24802,12.1612 -3.06247,1.2916 -7.69141,3.9554 -10.28652,5.9197 -6.90005,5.2226 -15.1982,8.9713 -27.99615,12.6474 -7.66017,2.2003 -14.32503,2.3165 -21.72044,0.3788 z m 24.32166,-9.5767 c 13.40418,-4.2059 27.81587,-17.6346 24.85762,-23.1622 -2.06546,-3.8593 -10.1209,-7.5586 -20.4509,-9.3916 -7.6222,-1.3526 -26.25048,-0.5999 -33.53517,1.3549 -11.74871,3.1528 -18.21429,7.4252 -18.21429,12.0359 0,2.135 0.72622,3.2023 5.17857,7.6103 9.13248,9.0416 20.46655,13.5872 32.32143,12.9627 3.53572,-0.1863 7.96495,-0.8208 9.84274,-1.41 z m 53.8227,-32.1197 c 6.72263,-1.79 12.39691,-5.396 19.20695,-12.2061 9.96427,-9.9643 13.39547,-17.927 13.39547,-31.08665 0,-7.45744 -1.43449,-14.27478 -3.96524,-18.8446 -3.45665,-6.24176 -10.73957,-7.53087 -19.15115,-3.38986 -5.66708,2.78989 -15.00962,10.62844 -20.27275,17.00918 -9.18859,11.13976 -14.69164,27.28493 -13.15631,38.59873 0.66476,4.8987 2.23576,7.1959 6.36361,9.3051 3.73468,1.9083 11.67703,2.1858 17.57942,0.6142 z m -113.27219,-1.5767 c 4.20505,-2.4559 5.32649,-5.3217 5.28349,-13.5018 -0.0443,-8.421 -2.08892,-15.3797 -6.92594,-23.57139 -5.38425,-9.11845 -17.38243,-19.31783 -26.49066,-22.51912 -4.72289,-1.65996 -10.95497,-1.82474 -14.4103,-0.38101 -4.48883,1.87555 -6.95539,7.87388 -6.92011,16.8287 0.0785,19.91792 12.76431,37.48952 31.55007,43.70112 5.28985,1.7491 14.4531,1.4645 17.91345,-0.5565 z m 59.50365,-11.419 c 9.25178,-2.3854 18.58755,-9.3367 22.81858,-16.9905 5.70897,-10.32731 5.49862,-23.36834 -0.54321,-33.67794 -2.51272,-4.28764 -9.62622,-10.59425 -14.83455,-13.15186 -4.92128,-2.41665 -12.69239,-4.30909 -17.69486,-4.30909 -8.83081,0 -19.2903,3.98038 -25.78224,9.8115 -8.19246,7.35853 -11.76806,16.01089 -11.23386,27.1841 0.27091,5.66624 0.62772,7.07192 3.0278,11.92819 4.58596,9.279 12.81144,16.1 22.91687,19.0038 5.52341,1.5872 15.58293,1.6824 21.32547,0.2018 z m -109.79006,-55.1517 c 4.74786,-6.17401 8.78536,-22.50813 9.35547,-37.84864 0.31062,-8.35786 0.15245,-11.04096 -0.8745,-14.83483 -1.28334,-4.74103 -3.50963,-7.46188 -6.10556,-7.46188 -1.75461,0 -9.14098,5.57798 -12.38065,9.34951 -3.53512,4.11551 -7.26991,12.00347 -8.36339,17.6637 -2.21729,11.47744 1.18185,25.15677 8.37549,33.70594 3.62262,4.30523 6.36208,4.14793 9.99314,-0.5738 z m 204.32508,-0.43239 c 5.73286,-6.51287 8.78237,-15.466 8.78237,-25.78439 0,-11.50746 -3.48966,-20.28136 -11.07963,-27.85704 -7.40266,-7.38871 -11.74087,-8.51541 -14.61161,-3.79485 -6.04088,9.93343 -1.10746,47.50076 7.56905,57.63731 3.46065,4.04299 5.64548,3.99597 9.33982,-0.20103 z m -143.38199,-6.60295 c 13.67332,-3.84395 25.69101,-16.72296 29.71708,-31.84691 2.31726,-8.70479 0.83105,-20.51102 -3.51568,-27.92816 -2.70916,-4.62283 -9.07201,-10.11311 -13.86086,-11.96004 -6.11993,-2.3603 -15.11561,-2.68371 -21.37555,-0.76848 -17.68662,5.41121 -30.94349,23.26272 -30.94349,41.66804 0,13.35354 6.37043,24.38506 16.93727,29.32989 7.50496,3.51199 14.32033,3.95735 23.04123,1.50566 z m 98.89238,-3.36903 c 10.97617,-5.42472 16.84341,-15.61445 16.84341,-29.25223 0,-20.39949 -15.86683,-39.49878 -35.53481,-42.77412 -15.83629,-2.63725 -30.80741,7.40071 -34.42195,23.0795 -1.08084,4.68833 -0.90348,13.79357 0.36395,18.68473 4.03109,15.55651 16.10835,28.07615 31.17101,32.31278 2.50048,0.70331 5.90804,0.97202 10.07228,0.79427 5.48777,-0.23425 6.96058,-0.59841 11.50611,-2.84493 z m 27.69684,-59.81545 c 1.37662,-0.73675 1.44112,-1.19138 0.97835,-6.89482 -1.31261,-16.17727 -9.48968,-28.76935 -22.56885,-34.75439 -6.91276,-3.16329 -12.19433,-4.13304 -21.08667,-3.87174 -9.43616,0.27728 -10.46617,0.78785 -8.75196,4.33827 4.21891,8.73812 31.49554,32.99046 44.42167,39.49642 5.64186,2.83966 5.09721,2.70859 7.00746,1.68626 z m -173.43697,-2.73873 c 15.21822,-8.00524 44.72639,-35.44997 44.72639,-41.59875 0,-1.76449 -2.59067,-2.2936 -11.07142,-2.26122 -20.6179,0.0787 -36.03302,11.52265 -40.65083,30.1785 -1.22859,4.96348 -2.02003,13.07544 -1.42659,14.62193 0.68012,1.77237 3.96191,1.40592 8.42245,-0.94046 z m 98.11667,-11.88869 c 10.96882,-2.26567 18.28282,-7.2518 20.2452,-13.80163 1.2252,-4.08938 -0.61588,-8.61022 -5.4186,-13.30551 -7.21513,-7.05374 -17.97694,-11.31547 -28.57402,-11.31547 -10.59348,0 -19.72542,3.54124 -27.3606,10.61007 -7.303,6.76129 -8.01737,11.75216 -2.58977,18.09309 7.62764,8.9112 26.87971,13.19332 43.69779,9.71945 z m -58.64185,-40.6148 c 5.96323,-1.44113 11.72782,-4.27358 15.55657,-7.64378 3.54043,-3.11641 7.20248,-9.76547 6.53563,-11.86653 -0.53363,-1.68132 -10.76334,-10.6064 -18.47528,-16.11907 -7.10922,-5.08183 -16.26645,-10.78335 -26.20605,-16.31654 -4.11597,-2.29128 -7.12655,-4.16596 -6.6902,-4.16596 1.46101,0 14.58085,5.72971 24.42702,10.66779 10.01443,5.02247 22.84683,13.05784 28.86436,18.07423 3.38296,2.82013 3.41503,2.8297 5.35715,1.59794 10.62023,-6.73576 12.05284,-17.07874 4.40238,-31.78389 -3.29324,-6.33002 -10.56966,-14.86667 -10.6416,-12.48464 -0.11431,3.78524 -1.22733,3.47692 -6.10179,-1.69026 -2.64374,-2.8025 -5.08929,-5.09546 -5.43457,-5.09546 -0.34527,0 -0.62776,0.94532 -0.62776,2.1007 0,2.89471 -1.20603,3.37487 -2.93998,1.17051 -1.23846,-1.57445 -7.1372,-6.12835 -7.93814,-6.12835 -0.14498,0 -0.13669,1.08703 0.0184,2.41563 0.38237,3.27529 -0.5761,3.61205 -3.48235,1.22355 -2.95735,-2.43048 -8.49305,-5.32789 -9.07241,-4.74854 -0.23038,0.23039 -0.0385,0.79924 0.42636,1.26412 0.46488,0.46488 0.84523,1.58994 0.84523,2.50013 l 0,1.65489 -3.39285,-1.71809 c -3.38582,-1.71452 -10.92746,-4.22376 -11.36866,-3.78256 -0.12807,0.12807 0.56945,0.98658 1.55004,1.9078 0.9806,0.92122 1.7829,2.10106 1.7829,2.62186 0,1.1694 0.55684,1.21358 -6.07143,-0.48165 -3.07211,-0.78571 -6.23313,-1.42857 -7.02448,-1.42857 -1.40933,0 -1.40699,0.0339 0.11426,1.65318 1.53502,1.63395 2.05595,3.34737 1.01737,3.34624 -0.29465,-3.3e-4 -2.86475,-0.48648 -5.71134,-1.08035 -3.02827,-0.63177 -6.37887,-0.88735 -8.07575,-0.616 l -2.90014,0.46375 1.95939,2.04516 1.95939,2.04516 -7.27649,0 c -4.02954,0 -7.27649,0.29756 -7.27649,0.66683 0,0.36675 0.94857,2.21496 2.10794,4.10714 1.15937,1.89217 2.31922,4.32425 2.57744,5.4046 0.45419,1.9003 0.37389,1.96429 -2.46509,1.96429 -1.63604,0 -2.93458,0.34343 -2.93458,0.77611 0,0.42686 1.94911,2.80591 4.33136,5.28677 4.53775,4.7256 4.60565,5.76701 0.32365,4.9637 -1.62802,-0.30542 -2.51215,-0.19663 -2.51215,0.30911 0,0.42921 2.12822,3.03641 4.72938,5.79378 l 4.72937,5.01339 -3.05437,0 -3.05436,0 1.3607,1.52478 c 0.74839,0.83863 3.40507,3.07916 5.90373,4.97897 l 4.54303,3.45418 -3.05999,0.48931 -3.05999,0.48932 2.08839,1.69623 c 1.14862,0.93293 4.25804,2.87913 6.90982,4.32489 2.65179,1.44576 4.82143,2.88244 4.82143,3.19263 0,0.31019 -1.125,0.56397 -2.5,0.56397 -1.375,0 -2.5,0.27754 -2.5,0.61675 0,0.72131 6.86851,3.86462 11.25,5.14845 3.52772,1.03366 3.76208,1.66574 1.12914,3.04528 l -1.90658,0.99896 2.52582,0.83359 c 1.38921,0.45848 4.9997,1.11104 8.02332,1.45012 3.02362,0.33909 5.71817,0.83922 5.9879,1.11142 0.26972,0.2722 -0.47388,1.30091 -1.65246,2.28603 l -2.14285,1.7911 7.5,-0.41143 c 4.125,-0.2263 9.47608,-0.889 11.89128,-1.47267 z m 108.46586,0.02 c -1.17857,-0.94498 -1.92217,-1.94085 -1.65245,-2.21305 0.26972,-0.2722 2.96427,-0.77234 5.98789,-1.11143 3.02362,-0.33908 6.63412,-0.99164 8.02332,-1.45012 l 2.52583,-0.83359 -1.90658,-0.99896 c -1.04862,-0.5494 -1.90658,-1.24683 -1.90658,-1.5498 0,-0.30299 2.16964,-1.25421 4.82143,-2.11384 2.65178,-0.85962 5.94643,-2.28896 7.32143,-3.17631 l 2.5,-1.61335 -2.67858,-0.2217 c -1.47321,-0.12193 -2.67857,-0.45607 -2.67857,-0.74254 0,-0.28647 2.16965,-1.70375 4.82143,-3.14951 2.65179,-1.44576 5.76121,-3.39196 6.90982,-4.32489 l 2.0884,-1.69623 -3.01137,-0.48154 -3.01136,-0.48154 5.31485,-4.22352 c 6.77652,-5.38505 6.9842,-5.74996 3.27244,-5.74996 l -2.98582,0 4.72938,-5.01339 c 2.60115,-2.75737 4.72938,-5.36457 4.72938,-5.79378 0,-0.50574 -0.88414,-0.61453 -2.51215,-0.30911 -4.28201,0.80331 -4.2141,-0.2381 0.32364,-4.9637 2.38225,-2.48086 4.33136,-4.85991 4.33136,-5.28677 0,-0.43268 -1.29853,-0.77611 -2.93458,-0.77611 -2.83897,0 -2.91927,-0.064 -2.46508,-1.96429 0.25821,-1.08035 1.41806,-3.51243 2.57743,-5.4046 1.15937,-1.89218 2.10795,-3.74039 2.10795,-4.10714 0,-0.36927 -3.24696,-0.66683 -7.2765,-0.66683 l -7.27649,0 1.95939,-2.04516 1.95939,-2.04516 -2.90014,-0.46375 c -1.69687,-0.27135 -5.04747,-0.0158 -8.07575,0.616 -2.84659,0.59387 -5.41669,1.08002 -5.71133,1.08035 -1.03859,10e-4 -0.51765,-1.71229 1.01736,-3.34624 1.52125,-1.61929 1.5236,-1.65318 0.11427,-1.65318 -0.79136,0 -3.95237,0.64286 -7.02449,1.42857 -6.62826,1.69523 -6.07143,1.65105 -6.07143,0.48165 0,-0.5208 0.80231,-1.70064 1.7829,-2.62186 0.9806,-0.92122 1.67812,-1.77973 1.55005,-1.9078 -0.43716,-0.43716 -7.96857,2.06081 -11.30082,3.74818 -3.70238,1.8748 -5.00281,1.0853 -2.97681,-1.80722 0.59972,-0.85622 0.91078,-1.73638 0.69125,-1.95591 -0.55693,-0.55693 -5.9431,2.33912 -8.93114,4.80211 -2.94874,2.43061 -3.91114,2.10846 -3.52716,-1.18066 0.15511,-1.3286 0.054,-2.41563 -0.2247,-2.41563 -0.84075,0 -7.6347,5.58533 -8.3511,6.86547 -0.94729,1.69271 -2.2839,0.57631 -2.2839,-1.90763 0,-1.15538 -0.28249,-2.1007 -0.62776,-2.1007 -0.34527,0 -2.79083,2.29296 -5.43456,5.09546 -4.82805,5.11798 -6.03895,5.47894 -6.0696,1.8093 -0.0167,-2.00163 -1.02171,-1.24819 -5.08146,3.80953 -7.63922,9.51707 -11.71094,21.24715 -10.0114,28.84147 0.94601,4.2272 4.56471,9.04969 8.5082,11.33853 l 2.15612,1.25142 3.63083,-2.87 c 7.11156,-5.62137 20.20356,-13.74388 29.88528,-18.54139 9.58372,-4.74893 21.86466,-10.02003 23.3453,-10.02003 0.40568,0 -2.62999,1.87468 -6.74595,4.16596 -9.95587,5.54224 -19.10832,11.24202 -26.20037,16.31654 -7.89225,5.64707 -17.91551,14.33749 -18.43909,15.98714 -0.23544,0.74183 0.18727,2.73989 0.93937,4.44014 4.62792,10.46219 17.38246,16.57967 35.14509,16.85671 l 5.35715,0.0836 -2.14286,-1.71815 0,-2e-5 z"
       id="path5171"
       inkscape:connector-curvature="0" />
    <path
       style="opacity:1;fill:#ff6600;fill-opacity:0"
       d="m -86.59193,1077.5869 c -7.08305,-1.8558 -15.53925,-6.4005 -21.37492,-11.4876 -2.67324,-2.3304 -6.30687,-4.8892 -8.07473,-5.6862 -9.52145,-4.2929 -18.15665,-9.0172 -23.44292,-12.8255 -3.2686,-2.3548 -8.25075,-5.4184 -11.07143,-6.8081 -14.43052,-7.1093 -26.06071,-22.0394 -29.4646,-37.8246 -0.67772,-3.14287 -2.01588,-7.80358 -2.97368,-10.35715 -0.95781,-2.55357 -2.47888,-7.39789 -3.38015,-10.76514 -1.19628,-4.46945 -2.4169,-7.15049 -4.52131,-9.9309 -6.59371,-8.7118 -9.70015,-17.98191 -9.70015,-28.94682 0,-8.76689 1.33624,-14.23571 5.60038,-22.92063 3.2276,-6.57375 10.33925,-15.31089 14.10113,-17.32419 2.99487,-1.60281 4.0436,-4.38936 4.84324,-12.86886 1.72564,-18.29882 9.12208,-30.939 23.465,-40.1006 2.76766,-1.76786 5.05097,-3.41359 5.07402,-3.65718 0.023,-0.24358 -1.40901,-0.84911 -3.18235,-1.34561 -2.98446,-0.8356 -7.49004,-4.68444 -7.49004,-6.39828 0,-0.35038 -1.75941,-1.44256 -3.90981,-2.42704 -3.80308,-1.74111 -6.75745,-5.02927 -6.82891,-7.60047 -0.0164,-0.58928 -1.30835,-1.9559 -2.87105,-3.03692 -3.23195,-2.23576 -5.66934,-5.80384 -5.67327,-8.30508 -0.002,-0.93452 -1.10951,-2.92427 -2.46231,-4.42166 -2.26009,-2.50165 -4.00259,-7.29792 -3.01144,-8.28907 0.22808,-0.22808 -0.59731,-1.88558 -1.8342,-3.68333 -1.79147,-2.60383 -2.23834,-3.96766 -2.19704,-6.70541 0.0309,-2.04973 -0.49146,-4.50243 -1.29434,-6.07725 -1.64181,-3.22031 -1.68148,-4.61813 -0.21173,-7.46031 0.93212,-1.80253 0.99403,-2.7515 0.34712,-5.32063 -1.49309,-5.92958 1.82634,-10.27176 7.85235,-10.27176 2.47236,0 3.64361,-0.38364 4.6625,-1.52716 1.97416,-2.21565 5.44254,-3.47284 9.58097,-3.47284 2.62906,0 4.21528,-0.43768 5.78069,-1.59503 1.43839,-1.06345 3.29539,-1.63294 5.57205,-1.70878 1.87806,-0.0626 4.41397,-0.63051 5.63535,-1.26211 2.51439,-1.30024 6.9948,-1.49744 9.79899,-0.43129 1.42955,0.54351 2.25726,0.45707 3.41972,-0.35715 1.99018,-1.39398 6.05131,-1.36849 9.46881,0.0594 1.84695,0.7717 3.68702,0.9876 5.7634,0.67623 2.22687,-0.33394 3.68713,-0.11954 5.40975,0.79428 1.29775,0.68843 4.54948,1.46371 7.22608,1.72284 4.33396,0.4196 5.15801,0.75578 7.53011,3.07208 2.01801,1.97054 3.26221,2.60276 5.13347,2.60852 5.93779,0.0183 16.29242,12.23452 20.42702,24.09955 0.71871,2.0625 1.47729,3.75 1.68572,3.75 0.20844,0 0.96702,-1.6875 1.68573,-3.75 4.17088,-11.96916 14.41145,-24.04569 20.42702,-24.08926 1.86324,-0.0135 3.1241,-0.65671 5.13347,-2.61881 2.3721,-2.3163 3.19615,-2.65248 7.53011,-3.07208 2.6766,-0.25913 5.91551,-1.02778 7.1976,-1.70811 1.74258,-0.92469 3.2016,-1.12148 5.77946,-0.77952 2.49903,0.33151 4.0598,0.14128 5.66918,-0.69096 2.79171,-1.44365 7.21581,-1.47924 9.22181,-0.0742 1.16245,0.81422 1.99016,0.90066 3.41971,0.35715 2.80419,-1.06615 7.2846,-0.86895 9.79899,0.43129 1.22137,0.6316 3.75729,1.19955 5.63535,1.26211 2.27665,0.0758 4.13366,0.64533 5.57205,1.70878 1.5654,1.15735 3.15162,1.59503 5.78069,1.59503 4.13843,0 7.60681,1.25719 9.58097,3.47284 1.01889,1.14352 2.19014,1.52716 4.66249,1.52716 6.0149,0 9.11109,4.0267 7.80497,10.15066 -0.5634,2.64163 -0.4801,3.7504 0.41123,5.47407 1.45725,2.81798 1.40967,4.21489 -0.2547,7.47946 -0.80394,1.57689 -1.32442,3.93279 -1.2565,5.68753 0.0844,2.18135 -0.45778,3.96608 -1.99479,6.5662 -1.1609,1.96386 -2.02009,4.1426 -1.90932,4.84166 0.34633,2.18562 -1.26859,5.90854 -3.48346,8.03052 -1.27303,1.21965 -2.12741,2.77181 -2.12901,3.86782 -0.004,2.62314 -2.38216,6.15989 -5.67327,8.43658 -1.5627,1.08102 -2.85468,2.44764 -2.87105,3.03692 -0.0715,2.5712 -3.02583,5.85936 -6.82891,7.60047 -2.1504,0.98448 -3.90982,2.07666 -3.90982,2.42704 0,1.71384 -4.50557,5.56268 -7.49004,6.39828 -1.77333,0.4965 -3.21601,1.10203 -3.20596,1.34561 0.0101,0.24359 2.22029,1.84118 4.91163,3.5502 6.10514,3.87681 13.47465,11.26892 16.84102,16.89269 3.60033,6.0146 5.93099,13.99391 6.80998,23.31489 0.79965,8.4795 1.84838,11.26605 4.84325,12.86886 3.76188,2.0133 10.87353,10.75044 14.10112,17.32419 4.27314,8.70323 5.60271,14.15472 5.59015,22.92063 -0.0157,10.95357 -3.14325,20.29719 -9.6888,28.94535 -2.09122,2.76298 -3.35064,5.51913 -4.59199,10.04924 -0.94076,3.43316 -2.50699,8.35828 -3.48052,10.9447 -0.97353,2.58643 -2.2744,7.19386 -2.89082,10.23876 -3.11781,15.4009 -14.97282,30.5511 -29.50807,37.7103 -2.89247,1.4246 -7.12127,3.9611 -9.39731,5.6366 -5.92889,4.3646 -14.79868,9.4412 -21.24802,12.1612 -3.06247,1.2916 -7.69141,3.9554 -10.28652,5.9197 -6.90005,5.2226 -15.1982,8.9713 -27.99615,12.6474 -7.66017,2.2003 -14.32503,2.3165 -21.72044,0.3788 z m 24.32166,-9.5767 c 13.40418,-4.2059 27.81587,-17.6346 24.85762,-23.1622 -2.06546,-3.8593 -10.1209,-7.5586 -20.4509,-9.3916 -7.6222,-1.3526 -26.25048,-0.5999 -33.53517,1.3549 -11.74871,3.1528 -18.21429,7.4252 -18.21429,12.0359 0,2.135 0.72622,3.2023 5.17857,7.6103 9.13248,9.0416 20.46655,13.5872 32.32143,12.9627 3.53572,-0.1863 7.96495,-0.8208 9.84274,-1.41 z m 53.8227,-32.1197 c 6.72263,-1.79 12.39691,-5.396 19.20695,-12.2061 9.96427,-9.9643 13.39547,-17.927 13.39547,-31.08665 0,-7.45744 -1.43449,-14.27478 -3.96524,-18.8446 -3.45665,-6.24176 -10.73957,-7.53087 -19.15115,-3.38986 -5.66708,2.78989 -15.00962,10.62844 -20.27275,17.00918 -9.18859,11.13976 -14.69164,27.28493 -13.15631,38.59873 0.66476,4.8987 2.23576,7.1959 6.36361,9.3051 3.73468,1.9083 11.67703,2.1858 17.57942,0.6142 z m -113.27219,-1.5767 c 4.20505,-2.4559 5.32649,-5.3217 5.28349,-13.5018 -0.0443,-8.421 -2.08892,-15.3797 -6.92594,-23.57139 -5.38425,-9.11845 -17.38243,-19.31783 -26.49066,-22.51912 -4.72289,-1.65996 -10.95497,-1.82474 -14.4103,-0.38101 -4.48883,1.87555 -6.95539,7.87388 -6.92011,16.8287 0.0785,19.91792 12.76431,37.48952 31.55007,43.70112 5.28985,1.7491 14.4531,1.4645 17.91345,-0.5565 z m 59.50365,-11.419 c 9.25178,-2.3854 18.58755,-9.3367 22.81858,-16.9905 5.70897,-10.32731 5.49862,-23.36834 -0.54321,-33.67794 -2.51272,-4.28764 -9.62622,-10.59425 -14.83455,-13.15186 -4.92128,-2.41665 -12.69239,-4.30909 -17.69486,-4.30909 -8.83081,0 -19.2903,3.98038 -25.78224,9.8115 -8.19246,7.35853 -11.76806,16.01089 -11.23386,27.1841 0.27091,5.66624 0.62772,7.07192 3.0278,11.92819 4.58596,9.279 12.81144,16.1 22.91687,19.0038 5.52341,1.5872 15.58293,1.6824 21.32547,0.2018 z m -109.79006,-55.1517 c 4.74786,-6.17401 8.78536,-22.50813 9.35547,-37.84864 0.31062,-8.35786 0.15245,-11.04096 -0.8745,-14.83483 -1.28334,-4.74103 -3.50963,-7.46188 -6.10556,-7.46188 -1.75461,0 -9.14098,5.57798 -12.38065,9.34951 -3.53512,4.11551 -7.26991,12.00347 -8.36339,17.6637 -2.21729,11.47744 1.18185,25.15677 8.37549,33.70594 3.62262,4.30523 6.36208,4.14793 9.99314,-0.5738 z m 204.32508,-0.43239 c 5.73286,-6.51287 8.78237,-15.466 8.78237,-25.78439 0,-11.50746 -3.48966,-20.28136 -11.07963,-27.85704 -7.40266,-7.38871 -11.74087,-8.51541 -14.61161,-3.79485 -6.04088,9.93343 -1.10746,47.50076 7.56905,57.63731 3.46065,4.04299 5.64548,3.99597 9.33982,-0.20103 z m -143.38199,-6.60295 c 13.67332,-3.84395 25.69101,-16.72296 29.71708,-31.84691 2.31726,-8.70479 0.83105,-20.51102 -3.51568,-27.92816 -2.70916,-4.62283 -9.07201,-10.11311 -13.86086,-11.96004 -6.11993,-2.3603 -15.11561,-2.68371 -21.37555,-0.76848 -17.68662,5.41121 -30.94349,23.26272 -30.94349,41.66804 0,13.35354 6.37043,24.38506 16.93727,29.32989 7.50496,3.51199 14.32033,3.95735 23.04123,1.50566 z m 98.89238,-3.36903 c 10.97617,-5.42472 16.84341,-15.61445 16.84341,-29.25223 0,-20.39949 -15.86683,-39.49878 -35.53481,-42.77412 -15.83629,-2.63725 -30.80741,7.40071 -34.42195,23.0795 -1.08084,4.68833 -0.90348,13.79357 0.36395,18.68473 4.03109,15.55651 16.10835,28.07615 31.17101,32.31278 2.50048,0.70331 5.90804,0.97202 10.07228,0.79427 5.48777,-0.23425 6.96058,-0.59841 11.50611,-2.84493 z m 27.69684,-59.81545 c 1.37662,-0.73675 1.44112,-1.19138 0.97835,-6.89482 -1.31261,-16.17727 -9.48968,-28.76935 -22.56885,-34.75439 -6.91276,-3.16329 -12.19433,-4.13304 -21.08667,-3.87174 -9.43616,0.27728 -10.46617,0.78785 -8.75196,4.33827 4.21891,8.73812 31.49554,32.99046 44.42167,39.49642 5.64186,2.83966 5.09721,2.70859 7.00746,1.68626 z m -173.43697,-2.73873 c 15.21822,-8.00524 44.72639,-35.44997 44.72639,-41.59875 0,-1.76449 -2.59067,-2.2936 -11.07142,-2.26122 -20.6179,0.0787 -36.03302,11.52265 -40.65083,30.1785 -1.22859,4.96348 -2.02003,13.07544 -1.42659,14.62193 0.68012,1.77237 3.96191,1.40592 8.42245,-0.94046 z m 98.11667,-11.88869 c 10.96882,-2.26567 18.28282,-7.2518 20.2452,-13.80163 1.2252,-4.08938 -0.61588,-8.61022 -5.4186,-13.30551 -7.21513,-7.05374 -17.97694,-11.31547 -28.57402,-11.31547 -10.59348,0 -19.72542,3.54124 -27.3606,10.61007 -7.303,6.76129 -8.01737,11.75216 -2.58977,18.09309 7.62764,8.9112 26.87971,13.19332 43.69779,9.71945 z m -58.64185,-40.6148 c 5.96323,-1.44113 11.72782,-4.27358 15.55657,-7.64378 3.54043,-3.11641 7.20248,-9.76547 6.53563,-11.86653 -0.53363,-1.68132 -10.76334,-10.6064 -18.47528,-16.11907 -7.10922,-5.08183 -16.26645,-10.78335 -26.20605,-16.31654 -4.11597,-2.29128 -7.12655,-4.16596 -6.6902,-4.16596 1.46101,0 14.58085,5.72971 24.42702,10.66779 10.01443,5.02247 22.84683,13.05784 28.86436,18.07423 3.38296,2.82013 3.41503,2.8297 5.35715,1.59794 10.62023,-6.73576 12.05284,-17.07874 4.40238,-31.78389 -3.29324,-6.33002 -10.56966,-14.86667 -10.6416,-12.48464 -0.11431,3.78524 -1.22733,3.47692 -6.10179,-1.69026 -2.64374,-2.8025 -5.08929,-5.09546 -5.43457,-5.09546 -0.34527,0 -0.62776,0.94532 -0.62776,2.1007 0,2.89471 -1.20603,3.37487 -2.93998,1.17051 -1.23846,-1.57445 -7.1372,-6.12835 -7.93814,-6.12835 -0.14498,0 -0.13669,1.08703 0.0184,2.41563 0.38237,3.27529 -0.5761,3.61205 -3.48235,1.22355 -2.95735,-2.43048 -8.49305,-5.32789 -9.07241,-4.74854 -0.23038,0.23039 -0.0385,0.79924 0.42636,1.26412 0.46488,0.46488 0.84523,1.58994 0.84523,2.50013 l 0,1.65489 -3.39285,-1.71809 c -3.38582,-1.71452 -10.92746,-4.22376 -11.36866,-3.78256 -0.12807,0.12807 0.56945,0.98658 1.55004,1.9078 0.9806,0.92122 1.7829,2.10106 1.7829,2.62186 0,1.1694 0.55684,1.21358 -6.07143,-0.48165 -3.07211,-0.78571 -6.23313,-1.42857 -7.02448,-1.42857 -1.40933,0 -1.40699,0.0339 0.11426,1.65318 1.53502,1.63395 2.05595,3.34737 1.01737,3.34624 -0.29465,-3.3e-4 -2.86475,-0.48648 -5.71134,-1.08035 -3.02827,-0.63177 -6.37887,-0.88735 -8.07575,-0.616 l -2.90014,0.46375 1.95939,2.04516 1.95939,2.04516 -7.27649,0 c -4.02954,0 -7.27649,0.29756 -7.27649,0.66683 0,0.36675 0.94857,2.21496 2.10794,4.10714 1.15937,1.89217 2.31922,4.32425 2.57744,5.4046 0.45419,1.9003 0.37389,1.96429 -2.46509,1.96429 -1.63604,0 -2.93458,0.34343 -2.93458,0.77611 0,0.42686 1.94911,2.80591 4.33136,5.28677 4.53775,4.7256 4.60565,5.76701 0.32365,4.9637 -1.62802,-0.30542 -2.51215,-0.19663 -2.51215,0.30911 0,0.42921 2.12822,3.03641 4.72938,5.79378 l 4.72937,5.01339 -3.05437,0 -3.05436,0 1.3607,1.52478 c 0.74839,0.83863 3.40507,3.07916 5.90373,4.97897 l 4.54303,3.45418 -3.05999,0.48931 -3.05999,0.48932 2.08839,1.69623 c 1.14862,0.93293 4.25804,2.87913 6.90982,4.32489 2.65179,1.44576 4.82143,2.88244 4.82143,3.19263 0,0.31019 -1.125,0.56397 -2.5,0.56397 -1.375,0 -2.5,0.27754 -2.5,0.61675 0,0.72131 6.86851,3.86462 11.25,5.14845 3.52772,1.03366 3.76208,1.66574 1.12914,3.04528 l -1.90658,0.99896 2.52582,0.83359 c 1.38921,0.45848 4.9997,1.11104 8.02332,1.45012 3.02362,0.33909 5.71817,0.83922 5.9879,1.11142 0.26972,0.2722 -0.47388,1.30091 -1.65246,2.28603 l -2.14285,1.7911 7.5,-0.41143 c 4.125,-0.2263 9.47608,-0.889 11.89128,-1.47267 z m 108.46586,0.02 c -1.17857,-0.94498 -1.92217,-1.94085 -1.65245,-2.21305 0.26972,-0.2722 2.96427,-0.77234 5.98789,-1.11143 3.02362,-0.33908 6.63412,-0.99164 8.02332,-1.45012 l 2.52583,-0.83359 -1.90658,-0.99896 c -1.04862,-0.5494 -1.90658,-1.24683 -1.90658,-1.5498 0,-0.30299 2.16964,-1.25421 4.82143,-2.11384 2.65178,-0.85962 5.94643,-2.28896 7.32143,-3.17631 l 2.5,-1.61335 -2.67858,-0.2217 c -1.47321,-0.12193 -2.67857,-0.45607 -2.67857,-0.74254 0,-0.28647 2.16965,-1.70375 4.82143,-3.14951 2.65179,-1.44576 5.76121,-3.39196 6.90982,-4.32489 l 2.0884,-1.69623 -3.01137,-0.48154 -3.01136,-0.48154 5.31485,-4.22352 c 6.77652,-5.38505 6.9842,-5.74996 3.27244,-5.74996 l -2.98582,0 4.72938,-5.01339 c 2.60115,-2.75737 4.72938,-5.36457 4.72938,-5.79378 0,-0.50574 -0.88414,-0.61453 -2.51215,-0.30911 -4.28201,0.80331 -4.2141,-0.2381 0.32364,-4.9637 2.38225,-2.48086 4.33136,-4.85991 4.33136,-5.28677 0,-0.43268 -1.29853,-0.77611 -2.93458,-0.77611 -2.83897,0 -2.91927,-0.064 -2.46508,-1.96429 0.25821,-1.08035 1.41806,-3.51243 2.57743,-5.4046 1.15937,-1.89218 2.10795,-3.74039 2.10795,-4.10714 0,-0.36927 -3.24696,-0.66683 -7.2765,-0.66683 l -7.27649,0 1.95939,-2.04516 1.95939,-2.04516 -2.90014,-0.46375 c -1.69687,-0.27135 -5.04747,-0.0158 -8.07575,0.616 -2.84659,0.59387 -5.41669,1.08002 -5.71133,1.08035 -1.03859,10e-4 -0.51765,-1.71229 1.01736,-3.34624 1.52125,-1.61929 1.5236,-1.65318 0.11427,-1.65318 -0.79136,0 -3.95237,0.64286 -7.02449,1.42857 -6.62826,1.69523 -6.07143,1.65105 -6.07143,0.48165 0,-0.5208 0.80231,-1.70064 1.7829,-2.62186 0.9806,-0.92122 1.67812,-1.77973 1.55005,-1.9078 -0.43716,-0.43716 -7.96857,2.06081 -11.30082,3.74818 -3.70238,1.8748 -5.00281,1.0853 -2.97681,-1.80722 0.59972,-0.85622 0.91078,-1.73638 0.69125,-1.95591 -0.55693,-0.55693 -5.9431,2.33912 -8.93114,4.80211 -2.94874,2.43061 -3.91114,2.10846 -3.52716,-1.18066 0.15511,-1.3286 0.054,-2.41563 -0.2247,-2.41563 -0.84075,0 -7.6347,5.58533 -8.3511,6.86547 -0.94729,1.69271 -2.2839,0.57631 -2.2839,-1.90763 0,-1.15538 -0.28249,-2.1007 -0.62776,-2.1007 -0.34527,0 -2.79083,2.29296 -5.43456,5.09546 -4.82805,5.11798 -6.03895,5.47894 -6.0696,1.8093 -0.0167,-2.00163 -1.02171,-1.24819 -5.08146,3.80953 -7.63922,9.51707 -11.71094,21.24715 -10.0114,28.84147 0.94601,4.2272 4.56471,9.04969 8.5082,11.33853 l 2.15612,1.25142 3.63083,-2.87 c 7.11156,-5.62137 20.20356,-13.74388 29.88528,-18.54139 9.58372,-4.74893 21.86466,-10.02003 23.3453,-10.02003 0.40568,0 -2.62999,1.87468 -6.74595,4.16596 -9.95587,5.54224 -19.10832,11.24202 -26.20037,16.31654 -7.89225,5.64707 -17.91551,14.33749 -18.43909,15.98714 -0.23544,0.74183 0.18727,2.73989 0.93937,4.44014 4.62792,10.46219 17.38246,16.57967 35.14509,16.85671 l 5.35715,0.0836 -2.14286,-1.71815 0,-2e-5 z"
       id="path5173"
       inkscape:connector-curvature="0" />
    <path
       style="opacity:1;fill:#ff6600;fill-opacity:0"
       d="m -86.59193,1077.5869 c -7.08305,-1.8558 -15.53925,-6.4005 -21.37492,-11.4876 -2.67324,-2.3304 -6.30687,-4.8892 -8.07473,-5.6862 -9.52145,-4.2929 -18.15665,-9.0172 -23.44292,-12.8255 -3.2686,-2.3548 -8.25075,-5.4184 -11.07143,-6.8081 -14.43052,-7.1093 -26.06071,-22.0394 -29.4646,-37.8246 -0.67772,-3.14287 -2.01588,-7.80358 -2.97368,-10.35715 -0.95781,-2.55357 -2.47888,-7.39789 -3.38015,-10.76514 -1.19628,-4.46945 -2.4169,-7.15049 -4.52131,-9.9309 -6.59371,-8.7118 -9.70015,-17.98191 -9.70015,-28.94682 0,-8.76689 1.33624,-14.23571 5.60038,-22.92063 3.2276,-6.57375 10.33925,-15.31089 14.10113,-17.32419 2.99487,-1.60281 4.0436,-4.38936 4.84324,-12.86886 1.72564,-18.29882 9.12208,-30.939 23.465,-40.1006 2.76766,-1.76786 5.05097,-3.41359 5.07402,-3.65718 0.023,-0.24358 -1.40901,-0.84911 -3.18235,-1.34561 -2.98446,-0.8356 -7.49004,-4.68444 -7.49004,-6.39828 0,-0.35038 -1.75941,-1.44256 -3.90981,-2.42704 -3.80308,-1.74111 -6.75745,-5.02927 -6.82891,-7.60047 -0.0164,-0.58928 -1.30835,-1.9559 -2.87105,-3.03692 -3.23195,-2.23576 -5.66934,-5.80384 -5.67327,-8.30508 -0.002,-0.93452 -1.10951,-2.92427 -2.46231,-4.42166 -2.26009,-2.50165 -4.00259,-7.29792 -3.01144,-8.28907 0.22808,-0.22808 -0.59731,-1.88558 -1.8342,-3.68333 -1.79147,-2.60383 -2.23834,-3.96766 -2.19704,-6.70541 0.0309,-2.04973 -0.49146,-4.50243 -1.29434,-6.07725 -1.64181,-3.22031 -1.68148,-4.61813 -0.21173,-7.46031 0.93212,-1.80253 0.99403,-2.7515 0.34712,-5.32063 -1.49309,-5.92958 1.82634,-10.27176 7.85235,-10.27176 2.47236,0 3.64361,-0.38364 4.6625,-1.52716 1.97416,-2.21565 5.44254,-3.47284 9.58097,-3.47284 2.62906,0 4.21528,-0.43768 5.78069,-1.59503 1.43839,-1.06345 3.29539,-1.63294 5.57205,-1.70878 1.87806,-0.0626 4.41397,-0.63051 5.63535,-1.26211 2.51439,-1.30024 6.9948,-1.49744 9.79899,-0.43129 1.42955,0.54351 2.25726,0.45707 3.41972,-0.35715 1.99018,-1.39398 6.05131,-1.36849 9.46881,0.0594 1.84695,0.7717 3.68702,0.9876 5.7634,0.67623 2.22687,-0.33394 3.68713,-0.11954 5.40975,0.79428 1.29775,0.68843 4.54948,1.46371 7.22608,1.72284 4.33396,0.4196 5.15801,0.75578 7.53011,3.07208 2.01801,1.97054 3.26221,2.60276 5.13347,2.60852 5.93779,0.0183 16.29242,12.23452 20.42702,24.09955 0.71871,2.0625 1.47729,3.75 1.68572,3.75 0.20844,0 0.96702,-1.6875 1.68573,-3.75 4.17088,-11.96916 14.41145,-24.04569 20.42702,-24.08926 1.86324,-0.0135 3.1241,-0.65671 5.13347,-2.61881 2.3721,-2.3163 3.19615,-2.65248 7.53011,-3.07208 2.6766,-0.25913 5.91551,-1.02778 7.1976,-1.70811 1.74258,-0.92469 3.2016,-1.12148 5.77946,-0.77952 2.49903,0.33151 4.0598,0.14128 5.66918,-0.69096 2.79171,-1.44365 7.21581,-1.47924 9.22181,-0.0742 1.16245,0.81422 1.99016,0.90066 3.41971,0.35715 2.80419,-1.06615 7.2846,-0.86895 9.79899,0.43129 1.22137,0.6316 3.75729,1.19955 5.63535,1.26211 2.27665,0.0758 4.13366,0.64533 5.57205,1.70878 1.5654,1.15735 3.15162,1.59503 5.78069,1.59503 4.13843,0 7.60681,1.25719 9.58097,3.47284 1.01889,1.14352 2.19014,1.52716 4.66249,1.52716 6.0149,0 9.11109,4.0267 7.80497,10.15066 -0.5634,2.64163 -0.4801,3.7504 0.41123,5.47407 1.45725,2.81798 1.40967,4.21489 -0.2547,7.47946 -0.80394,1.57689 -1.32442,3.93279 -1.2565,5.68753 0.0844,2.18135 -0.45778,3.96608 -1.99479,6.5662 -1.1609,1.96386 -2.02009,4.1426 -1.90932,4.84166 0.34633,2.18562 -1.26859,5.90854 -3.48346,8.03052 -1.27303,1.21965 -2.12741,2.77181 -2.12901,3.86782 -0.004,2.62314 -2.38216,6.15989 -5.67327,8.43658 -1.5627,1.08102 -2.85468,2.44764 -2.87105,3.03692 -0.0715,2.5712 -3.02583,5.85936 -6.82891,7.60047 -2.1504,0.98448 -3.90982,2.07666 -3.90982,2.42704 0,1.71384 -4.50557,5.56268 -7.49004,6.39828 -1.77333,0.4965 -3.21601,1.10203 -3.20596,1.34561 0.0101,0.24359 2.22029,1.84118 4.91163,3.5502 6.10514,3.87681 13.47465,11.26892 16.84102,16.89269 3.60033,6.0146 5.93099,13.99391 6.80998,23.31489 0.79965,8.4795 1.84838,11.26605 4.84325,12.86886 3.76188,2.0133 10.87353,10.75044 14.10112,17.32419 4.27314,8.70323 5.60271,14.15472 5.59015,22.92063 -0.0157,10.95357 -3.14325,20.29719 -9.6888,28.94535 -2.09122,2.76298 -3.35064,5.51913 -4.59199,10.04924 -0.94076,3.43316 -2.50699,8.35828 -3.48052,10.9447 -0.97353,2.58643 -2.2744,7.19386 -2.89082,10.23876 -3.11781,15.4009 -14.97282,30.5511 -29.50807,37.7103 -2.89247,1.4246 -7.12127,3.9611 -9.39731,5.6366 -5.92889,4.3646 -14.79868,9.4412 -21.24802,12.1612 -3.06247,1.2916 -7.69141,3.9554 -10.28652,5.9197 -6.90005,5.2226 -15.1982,8.9713 -27.99615,12.6474 -7.66017,2.2003 -14.32503,2.3165 -21.72044,0.3788 z m 24.32166,-9.5767 c 13.40418,-4.2059 27.81587,-17.6346 24.85762,-23.1622 -2.06546,-3.8593 -10.1209,-7.5586 -20.4509,-9.3916 -7.6222,-1.3526 -26.25048,-0.5999 -33.53517,1.3549 -11.74871,3.1528 -18.21429,7.4252 -18.21429,12.0359 0,2.135 0.72622,3.2023 5.17857,7.6103 9.13248,9.0416 20.46655,13.5872 32.32143,12.9627 3.53572,-0.1863 7.96495,-0.8208 9.84274,-1.41 z m 53.8227,-32.1197 c 6.72263,-1.79 12.39691,-5.396 19.20695,-12.2061 9.96427,-9.9643 13.39547,-17.927 13.39547,-31.08665 0,-7.45744 -1.43449,-14.27478 -3.96524,-18.8446 -3.45665,-6.24176 -10.73957,-7.53087 -19.15115,-3.38986 -5.66708,2.78989 -15.00962,10.62844 -20.27275,17.00918 -9.18859,11.13976 -14.69164,27.28493 -13.15631,38.59873 0.66476,4.8987 2.23576,7.1959 6.36361,9.3051 3.73468,1.9083 11.67703,2.1858 17.57942,0.6142 z m -113.27219,-1.5767 c 4.20505,-2.4559 5.32649,-5.3217 5.28349,-13.5018 -0.0443,-8.421 -2.08892,-15.3797 -6.92594,-23.57139 -5.38425,-9.11845 -17.38243,-19.31783 -26.49066,-22.51912 -4.72289,-1.65996 -10.95497,-1.82474 -14.4103,-0.38101 -4.48883,1.87555 -6.95539,7.87388 -6.92011,16.8287 0.0785,19.91792 12.76431,37.48952 31.55007,43.70112 5.28985,1.7491 14.4531,1.4645 17.91345,-0.5565 z m 59.50365,-11.419 c 9.25178,-2.3854 18.58755,-9.3367 22.81858,-16.9905 5.70897,-10.32731 5.49862,-23.36834 -0.54321,-33.67794 -2.51272,-4.28764 -9.62622,-10.59425 -14.83455,-13.15186 -4.92128,-2.41665 -12.69239,-4.30909 -17.69486,-4.30909 -8.83081,0 -19.2903,3.98038 -25.78224,9.8115 -8.19246,7.35853 -11.76806,16.01089 -11.23386,27.1841 0.27091,5.66624 0.62772,7.07192 3.0278,11.92819 4.58596,9.279 12.81144,16.1 22.91687,19.0038 5.52341,1.5872 15.58293,1.6824 21.32547,0.2018 z m -109.79006,-55.1517 c 4.74786,-6.17401 8.78536,-22.50813 9.35547,-37.84864 0.31062,-8.35786 0.15245,-11.04096 -0.8745,-14.83483 -1.28334,-4.74103 -3.50963,-7.46188 -6.10556,-7.46188 -1.75461,0 -9.14098,5.57798 -12.38065,9.34951 -3.53512,4.11551 -7.26991,12.00347 -8.36339,17.6637 -2.21729,11.47744 1.18185,25.15677 8.37549,33.70594 3.62262,4.30523 6.36208,4.14793 9.99314,-0.5738 z m 204.32508,-0.43239 c 5.73286,-6.51287 8.78237,-15.466 8.78237,-25.78439 0,-11.50746 -3.48966,-20.28136 -11.07963,-27.85704 -7.40266,-7.38871 -11.74087,-8.51541 -14.61161,-3.79485 -6.04088,9.93343 -1.10746,47.50076 7.56905,57.63731 3.46065,4.04299 5.64548,3.99597 9.33982,-0.20103 z m -143.38199,-6.60295 c 13.67332,-3.84395 25.69101,-16.72296 29.71708,-31.84691 2.31726,-8.70479 0.83105,-20.51102 -3.51568,-27.92816 -2.70916,-4.62283 -9.07201,-10.11311 -13.86086,-11.96004 -6.11993,-2.3603 -15.11561,-2.68371 -21.37555,-0.76848 -17.68662,5.41121 -30.94349,23.26272 -30.94349,41.66804 0,13.35354 6.37043,24.38506 16.93727,29.32989 7.50496,3.51199 14.32033,3.95735 23.04123,1.50566 z m 98.89238,-3.36903 c 10.97617,-5.42472 16.84341,-15.61445 16.84341,-29.25223 0,-20.39949 -15.86683,-39.49878 -35.53481,-42.77412 -15.83629,-2.63725 -30.80741,7.40071 -34.42195,23.0795 -1.08084,4.68833 -0.90348,13.79357 0.36395,18.68473 4.03109,15.55651 16.10835,28.07615 31.17101,32.31278 2.50048,0.70331 5.90804,0.97202 10.07228,0.79427 5.48777,-0.23425 6.96058,-0.59841 11.50611,-2.84493 z m 27.69684,-59.81545 c 1.37662,-0.73675 1.44112,-1.19138 0.97835,-6.89482 -1.31261,-16.17727 -9.48968,-28.76935 -22.56885,-34.75439 -6.91276,-3.16329 -12.19433,-4.13304 -21.08667,-3.87174 -9.43616,0.27728 -10.46617,0.78785 -8.75196,4.33827 4.21891,8.73812 31.49554,32.99046 44.42167,39.49642 5.64186,2.83966 5.09721,2.70859 7.00746,1.68626 z m -173.43697,-2.73873 c 15.21822,-8.00524 44.72639,-35.44997 44.72639,-41.59875 0,-1.76449 -2.59067,-2.2936 -11.07142,-2.26122 -20.6179,0.0787 -36.03302,11.52265 -40.65083,30.1785 -1.22859,4.96348 -2.02003,13.07544 -1.42659,14.62193 0.68012,1.77237 3.96191,1.40592 8.42245,-0.94046 z m 98.11667,-11.88869 c 10.96882,-2.26567 18.28282,-7.2518 20.2452,-13.80163 1.2252,-4.08938 -0.61588,-8.61022 -5.4186,-13.30551 -7.21513,-7.05374 -17.97694,-11.31547 -28.57402,-11.31547 -10.59348,0 -19.72542,3.54124 -27.3606,10.61007 -7.303,6.76129 -8.01737,11.75216 -2.58977,18.09309 7.62764,8.9112 26.87971,13.19332 43.69779,9.71945 z m -58.64185,-40.6148 c 5.96323,-1.44113 11.72782,-4.27358 15.55657,-7.64378 3.54043,-3.11641 7.20248,-9.76547 6.53563,-11.86653 -0.53363,-1.68132 -10.76334,-10.6064 -18.47528,-16.11907 -7.10922,-5.08183 -16.26645,-10.78335 -26.20605,-16.31654 -4.11597,-2.29128 -7.12655,-4.16596 -6.6902,-4.16596 1.46101,0 14.58085,5.72971 24.42702,10.66779 10.01443,5.02247 22.84683,13.05784 28.86436,18.07423 3.38296,2.82013 3.41503,2.8297 5.35715,1.59794 10.62023,-6.73576 12.05284,-17.07874 4.40238,-31.78389 -3.29324,-6.33002 -10.56966,-14.86667 -10.6416,-12.48464 -0.11431,3.78524 -1.22733,3.47692 -6.10179,-1.69026 -2.64374,-2.8025 -5.08929,-5.09546 -5.43457,-5.09546 -0.34527,0 -0.62776,0.94532 -0.62776,2.1007 0,2.89471 -1.20603,3.37487 -2.93998,1.17051 -1.23846,-1.57445 -7.1372,-6.12835 -7.93814,-6.12835 -0.14498,0 -0.13669,1.08703 0.0184,2.41563 0.38237,3.27529 -0.5761,3.61205 -3.48235,1.22355 -2.95735,-2.43048 -8.49305,-5.32789 -9.07241,-4.74854 -0.23038,0.23039 -0.0385,0.79924 0.42636,1.26412 0.46488,0.46488 0.84523,1.58994 0.84523,2.50013 l 0,1.65489 -3.39285,-1.71809 c -3.38582,-1.71452 -10.92746,-4.22376 -11.36866,-3.78256 -0.12807,0.12807 0.56945,0.98658 1.55004,1.9078 0.9806,0.92122 1.7829,2.10106 1.7829,2.62186 0,1.1694 0.55684,1.21358 -6.07143,-0.48165 -3.07211,-0.78571 -6.23313,-1.42857 -7.02448,-1.42857 -1.40933,0 -1.40699,0.0339 0.11426,1.65318 1.53502,1.63395 2.05595,3.34737 1.01737,3.34624 -0.29465,-3.3e-4 -2.86475,-0.48648 -5.71134,-1.08035 -3.02827,-0.63177 -6.37887,-0.88735 -8.07575,-0.616 l -2.90014,0.46375 1.95939,2.04516 1.95939,2.04516 -7.27649,0 c -4.02954,0 -7.27649,0.29756 -7.27649,0.66683 0,0.36675 0.94857,2.21496 2.10794,4.10714 1.15937,1.89217 2.31922,4.32425 2.57744,5.4046 0.45419,1.9003 0.37389,1.96429 -2.46509,1.96429 -1.63604,0 -2.93458,0.34343 -2.93458,0.77611 0,0.42686 1.94911,2.80591 4.33136,5.28677 4.53775,4.7256 4.60565,5.76701 0.32365,4.9637 -1.62802,-0.30542 -2.51215,-0.19663 -2.51215,0.30911 0,0.42921 2.12822,3.03641 4.72938,5.79378 l 4.72937,5.01339 -3.05437,0 -3.05436,0 1.3607,1.52478 c 0.74839,0.83863 3.40507,3.07916 5.90373,4.97897 l 4.54303,3.45418 -3.05999,0.48931 -3.05999,0.48932 2.08839,1.69623 c 1.14862,0.93293 4.25804,2.87913 6.90982,4.32489 2.65179,1.44576 4.82143,2.88244 4.82143,3.19263 0,0.31019 -1.125,0.56397 -2.5,0.56397 -1.375,0 -2.5,0.27754 -2.5,0.61675 0,0.72131 6.86851,3.86462 11.25,5.14845 3.52772,1.03366 3.76208,1.66574 1.12914,3.04528 l -1.90658,0.99896 2.52582,0.83359 c 1.38921,0.45848 4.9997,1.11104 8.02332,1.45012 3.02362,0.33909 5.71817,0.83922 5.9879,1.11142 0.26972,0.2722 -0.47388,1.30091 -1.65246,2.28603 l -2.14285,1.7911 7.5,-0.41143 c 4.125,-0.2263 9.47608,-0.889 11.89128,-1.47267 z m 108.46586,0.02 c -1.17857,-0.94498 -1.92217,-1.94085 -1.65245,-2.21305 0.26972,-0.2722 2.96427,-0.77234 5.98789,-1.11143 3.02362,-0.33908 6.63412,-0.99164 8.02332,-1.45012 l 2.52583,-0.83359 -1.90658,-0.99896 c -1.04862,-0.5494 -1.90658,-1.24683 -1.90658,-1.5498 0,-0.30299 2.16964,-1.25421 4.82143,-2.11384 2.65178,-0.85962 5.94643,-2.28896 7.32143,-3.17631 l 2.5,-1.61335 -2.67858,-0.2217 c -1.47321,-0.12193 -2.67857,-0.45607 -2.67857,-0.74254 0,-0.28647 2.16965,-1.70375 4.82143,-3.14951 2.65179,-1.44576 5.76121,-3.39196 6.90982,-4.32489 l 2.0884,-1.69623 -3.01137,-0.48154 -3.01136,-0.48154 5.31485,-4.22352 c 6.77652,-5.38505 6.9842,-5.74996 3.27244,-5.74996 l -2.98582,0 4.72938,-5.01339 c 2.60115,-2.75737 4.72938,-5.36457 4.72938,-5.79378 0,-0.50574 -0.88414,-0.61453 -2.51215,-0.30911 -4.28201,0.80331 -4.2141,-0.2381 0.32364,-4.9637 2.38225,-2.48086 4.33136,-4.85991 4.33136,-5.28677 0,-0.43268 -1.29853,-0.77611 -2.93458,-0.77611 -2.83897,0 -2.91927,-0.064 -2.46508,-1.96429 0.25821,-1.08035 1.41806,-3.51243 2.57743,-5.4046 1.15937,-1.89218 2.10795,-3.74039 2.10795,-4.10714 0,-0.36927 -3.24696,-0.66683 -7.2765,-0.66683 l -7.27649,0 1.95939,-2.04516 1.95939,-2.04516 -2.90014,-0.46375 c -1.69687,-0.27135 -5.04747,-0.0158 -8.07575,0.616 -2.84659,0.59387 -5.41669,1.08002 -5.71133,1.08035 -1.03859,10e-4 -0.51765,-1.71229 1.01736,-3.34624 1.52125,-1.61929 1.5236,-1.65318 0.11427,-1.65318 -0.79136,0 -3.95237,0.64286 -7.02449,1.42857 -6.62826,1.69523 -6.07143,1.65105 -6.07143,0.48165 0,-0.5208 0.80231,-1.70064 1.7829,-2.62186 0.9806,-0.92122 1.67812,-1.77973 1.55005,-1.9078 -0.43716,-0.43716 -7.96857,2.06081 -11.30082,3.74818 -3.70238,1.8748 -5.00281,1.0853 -2.97681,-1.80722 0.59972,-0.85622 0.91078,-1.73638 0.69125,-1.95591 -0.55693,-0.55693 -5.9431,2.33912 -8.93114,4.80211 -2.94874,2.43061 -3.91114,2.10846 -3.52716,-1.18066 0.15511,-1.3286 0.054,-2.41563 -0.2247,-2.41563 -0.84075,0 -7.6347,5.58533 -8.3511,6.86547 -0.94729,1.69271 -2.2839,0.57631 -2.2839,-1.90763 0,-1.15538 -0.28249,-2.1007 -0.62776,-2.1007 -0.34527,0 -2.79083,2.29296 -5.43456,5.09546 -4.82805,5.11798 -6.03895,5.47894 -6.0696,1.8093 -0.0167,-2.00163 -1.02171,-1.24819 -5.08146,3.80953 -7.63922,9.51707 -11.71094,21.24715 -10.0114,28.84147 0.94601,4.2272 4.56471,9.04969 8.5082,11.33853 l 2.15612,1.25142 3.63083,-2.87 c 7.11156,-5.62137 20.20356,-13.74388 29.88528,-18.54139 9.58372,-4.74893 21.86466,-10.02003 23.3453,-10.02003 0.40568,0 -2.62999,1.87468 -6.74595,4.16596 -9.95587,5.54224 -19.10832,11.24202 -26.20037,16.31654 -7.89225,5.64707 -17.91551,14.33749 -18.43909,15.98714 -0.23544,0.74183 0.18727,2.73989 0.93937,4.44014 4.62792,10.46219 17.38246,16.57967 35.14509,16.85671 l 5.35715,0.0836 -2.14286,-1.71815 0,-2e-5 z"
       id="path5175"
       inkscape:connector-curvature="0" />
    <path
       style="opacity:1;fill:#ff6600;fill-opacity:0"
       d="m -86.59193,1077.5869 c -7.08305,-1.8558 -15.53925,-6.4005 -21.37492,-11.4876 -2.67324,-2.3304 -6.30687,-4.8892 -8.07473,-5.6862 -9.52145,-4.2929 -18.15665,-9.0172 -23.44292,-12.8255 -3.2686,-2.3548 -8.25075,-5.4184 -11.07143,-6.8081 -14.43052,-7.1093 -26.06071,-22.0394 -29.4646,-37.8246 -0.67772,-3.14287 -2.01588,-7.80358 -2.97368,-10.35715 -0.95781,-2.55357 -2.47888,-7.39789 -3.38015,-10.76514 -1.19628,-4.46945 -2.4169,-7.15049 -4.52131,-9.9309 -6.59371,-8.7118 -9.70015,-17.98191 -9.70015,-28.94682 0,-8.76689 1.33624,-14.23571 5.60038,-22.92063 3.2276,-6.57375 10.33925,-15.31089 14.10113,-17.32419 2.99487,-1.60281 4.0436,-4.38936 4.84324,-12.86886 1.72564,-18.29882 9.12208,-30.939 23.465,-40.1006 2.76766,-1.76786 5.05097,-3.41359 5.07402,-3.65718 0.023,-0.24358 -1.40901,-0.84911 -3.18235,-1.34561 -2.98446,-0.8356 -7.49004,-4.68444 -7.49004,-6.39828 0,-0.35038 -1.75941,-1.44256 -3.90981,-2.42704 -3.80308,-1.74111 -6.75745,-5.02927 -6.82891,-7.60047 -0.0164,-0.58928 -1.30835,-1.9559 -2.87105,-3.03692 -3.23195,-2.23576 -5.66934,-5.80384 -5.67327,-8.30508 -0.002,-0.93452 -1.10951,-2.92427 -2.46231,-4.42166 -2.26009,-2.50165 -4.00259,-7.29792 -3.01144,-8.28907 0.22808,-0.22808 -0.59731,-1.88558 -1.8342,-3.68333 -1.79147,-2.60383 -2.23834,-3.96766 -2.19704,-6.70541 0.0309,-2.04973 -0.49146,-4.50243 -1.29434,-6.07725 -1.64181,-3.22031 -1.68148,-4.61813 -0.21173,-7.46031 0.93212,-1.80253 0.99403,-2.7515 0.34712,-5.32063 -1.49309,-5.92958 1.82634,-10.27176 7.85235,-10.27176 2.47236,0 3.64361,-0.38364 4.6625,-1.52716 1.97416,-2.21565 5.44254,-3.47284 9.58097,-3.47284 2.62906,0 4.21528,-0.43768 5.78069,-1.59503 1.43839,-1.06345 3.29539,-1.63294 5.57205,-1.70878 1.87806,-0.0626 4.41397,-0.63051 5.63535,-1.26211 2.51439,-1.30024 6.9948,-1.49744 9.79899,-0.43129 1.42955,0.54351 2.25726,0.45707 3.41972,-0.35715 1.99018,-1.39398 6.05131,-1.36849 9.46881,0.0594 1.84695,0.7717 3.68702,0.9876 5.7634,0.67623 2.22687,-0.33394 3.68713,-0.11954 5.40975,0.79428 1.29775,0.68843 4.54948,1.46371 7.22608,1.72284 4.33396,0.4196 5.15801,0.75578 7.53011,3.07208 2.01801,1.97054 3.26221,2.60276 5.13347,2.60852 5.93779,0.0183 16.29242,12.23452 20.42702,24.09955 0.71871,2.0625 1.47729,3.75 1.68572,3.75 0.20844,0 0.96702,-1.6875 1.68573,-3.75 4.17088,-11.96916 14.41145,-24.04569 20.42702,-24.08926 1.86324,-0.0135 3.1241,-0.65671 5.13347,-2.61881 2.3721,-2.3163 3.19615,-2.65248 7.53011,-3.07208 2.6766,-0.25913 5.91551,-1.02778 7.1976,-1.70811 1.74258,-0.92469 3.2016,-1.12148 5.77946,-0.77952 2.49903,0.33151 4.0598,0.14128 5.66918,-0.69096 2.79171,-1.44365 7.21581,-1.47924 9.22181,-0.0742 1.16245,0.81422 1.99016,0.90066 3.41971,0.35715 2.80419,-1.06615 7.2846,-0.86895 9.79899,0.43129 1.22137,0.6316 3.75729,1.19955 5.63535,1.26211 2.27665,0.0758 4.13366,0.64533 5.57205,1.70878 1.5654,1.15735 3.15162,1.59503 5.78069,1.59503 4.13843,0 7.60681,1.25719 9.58097,3.47284 1.01889,1.14352 2.19014,1.52716 4.66249,1.52716 6.0149,0 9.11109,4.0267 7.80497,10.15066 -0.5634,2.64163 -0.4801,3.7504 0.41123,5.47407 1.45725,2.81798 1.40967,4.21489 -0.2547,7.47946 -0.80394,1.57689 -1.32442,3.93279 -1.2565,5.68753 0.0844,2.18135 -0.45778,3.96608 -1.99479,6.5662 -1.1609,1.96386 -2.02009,4.1426 -1.90932,4.84166 0.34633,2.18562 -1.26859,5.90854 -3.48346,8.03052 -1.27303,1.21965 -2.12741,2.77181 -2.12901,3.86782 -0.004,2.62314 -2.38216,6.15989 -5.67327,8.43658 -1.5627,1.08102 -2.85468,2.44764 -2.87105,3.03692 -0.0715,2.5712 -3.02583,5.85936 -6.82891,7.60047 -2.1504,0.98448 -3.90982,2.07666 -3.90982,2.42704 0,1.71384 -4.50557,5.56268 -7.49004,6.39828 -1.77333,0.4965 -3.21601,1.10203 -3.20596,1.34561 0.0101,0.24359 2.22029,1.84118 4.91163,3.5502 6.10514,3.87681 13.47465,11.26892 16.84102,16.89269 3.60033,6.0146 5.93099,13.99391 6.80998,23.31489 0.79965,8.4795 1.84838,11.26605 4.84325,12.86886 3.76188,2.0133 10.87353,10.75044 14.10112,17.32419 4.27314,8.70323 5.60271,14.15472 5.59015,22.92063 -0.0157,10.95357 -3.14325,20.29719 -9.6888,28.94535 -2.09122,2.76298 -3.35064,5.51913 -4.59199,10.04924 -0.94076,3.43316 -2.50699,8.35828 -3.48052,10.9447 -0.97353,2.58643 -2.2744,7.19386 -2.89082,10.23876 -3.11781,15.4009 -14.97282,30.5511 -29.50807,37.7103 -2.89247,1.4246 -7.12127,3.9611 -9.39731,5.6366 -5.92889,4.3646 -14.79868,9.4412 -21.24802,12.1612 -3.06247,1.2916 -7.69141,3.9554 -10.28652,5.9197 -6.90005,5.2226 -15.1982,8.9713 -27.99615,12.6474 -7.66017,2.2003 -14.32503,2.3165 -21.72044,0.3788 z m 24.32166,-9.5767 c 13.40418,-4.2059 27.81587,-17.6346 24.85762,-23.1622 -2.06546,-3.8593 -10.1209,-7.5586 -20.4509,-9.3916 -7.6222,-1.3526 -26.25048,-0.5999 -33.53517,1.3549 -11.74871,3.1528 -18.21429,7.4252 -18.21429,12.0359 0,2.135 0.72622,3.2023 5.17857,7.6103 9.13248,9.0416 20.46655,13.5872 32.32143,12.9627 3.53572,-0.1863 7.96495,-0.8208 9.84274,-1.41 z m 53.8227,-32.1197 c 6.72263,-1.79 12.39691,-5.396 19.20695,-12.2061 9.96427,-9.9643 13.39547,-17.927 13.39547,-31.08665 0,-7.45744 -1.43449,-14.27478 -3.96524,-18.8446 -3.45665,-6.24176 -10.73957,-7.53087 -19.15115,-3.38986 -5.66708,2.78989 -15.00962,10.62844 -20.27275,17.00918 -9.18859,11.13976 -14.69164,27.28493 -13.15631,38.59873 0.66476,4.8987 2.23576,7.1959 6.36361,9.3051 3.73468,1.9083 11.67703,2.1858 17.57942,0.6142 z m -113.27219,-1.5767 c 4.20505,-2.4559 5.32649,-5.3217 5.28349,-13.5018 -0.0443,-8.421 -2.08892,-15.3797 -6.92594,-23.57139 -5.38425,-9.11845 -17.38243,-19.31783 -26.49066,-22.51912 -4.72289,-1.65996 -10.95497,-1.82474 -14.4103,-0.38101 -4.48883,1.87555 -6.95539,7.87388 -6.92011,16.8287 0.0785,19.91792 12.76431,37.48952 31.55007,43.70112 5.28985,1.7491 14.4531,1.4645 17.91345,-0.5565 z m 59.50365,-11.419 c 9.25178,-2.3854 18.58755,-9.3367 22.81858,-16.9905 5.70897,-10.32731 5.49862,-23.36834 -0.54321,-33.67794 -2.51272,-4.28764 -9.62622,-10.59425 -14.83455,-13.15186 -4.92128,-2.41665 -12.69239,-4.30909 -17.69486,-4.30909 -8.83081,0 -19.2903,3.98038 -25.78224,9.8115 -8.19246,7.35853 -11.76806,16.01089 -11.23386,27.1841 0.27091,5.66624 0.62772,7.07192 3.0278,11.92819 4.58596,9.279 12.81144,16.1 22.91687,19.0038 5.52341,1.5872 15.58293,1.6824 21.32547,0.2018 z m -109.79006,-55.1517 c 4.74786,-6.17401 8.78536,-22.50813 9.35547,-37.84864 0.31062,-8.35786 0.15245,-11.04096 -0.8745,-14.83483 -1.28334,-4.74103 -3.50963,-7.46188 -6.10556,-7.46188 -1.75461,0 -9.14098,5.57798 -12.38065,9.34951 -3.53512,4.11551 -7.26991,12.00347 -8.36339,17.6637 -2.21729,11.47744 1.18185,25.15677 8.37549,33.70594 3.62262,4.30523 6.36208,4.14793 9.99314,-0.5738 z m 204.32508,-0.43239 c 5.73286,-6.51287 8.78237,-15.466 8.78237,-25.78439 0,-11.50746 -3.48966,-20.28136 -11.07963,-27.85704 -7.40266,-7.38871 -11.74087,-8.51541 -14.61161,-3.79485 -6.04088,9.93343 -1.10746,47.50076 7.56905,57.63731 3.46065,4.04299 5.64548,3.99597 9.33982,-0.20103 z m -143.38199,-6.60295 c 13.67332,-3.84395 25.69101,-16.72296 29.71708,-31.84691 2.31726,-8.70479 0.83105,-20.51102 -3.51568,-27.92816 -2.70916,-4.62283 -9.07201,-10.11311 -13.86086,-11.96004 -6.11993,-2.3603 -15.11561,-2.68371 -21.37555,-0.76848 -17.68662,5.41121 -30.94349,23.26272 -30.94349,41.66804 0,13.35354 6.37043,24.38506 16.93727,29.32989 7.50496,3.51199 14.32033,3.95735 23.04123,1.50566 z m 98.89238,-3.36903 c 10.97617,-5.42472 16.84341,-15.61445 16.84341,-29.25223 0,-20.39949 -15.86683,-39.49878 -35.53481,-42.77412 -15.83629,-2.63725 -30.80741,7.40071 -34.42195,23.0795 -1.08084,4.68833 -0.90348,13.79357 0.36395,18.68473 4.03109,15.55651 16.10835,28.07615 31.17101,32.31278 2.50048,0.70331 5.90804,0.97202 10.07228,0.79427 5.48777,-0.23425 6.96058,-0.59841 11.50611,-2.84493 z m 27.69684,-59.81545 c 1.37662,-0.73675 1.44112,-1.19138 0.97835,-6.89482 -1.31261,-16.17727 -9.48968,-28.76935 -22.56885,-34.75439 -6.91276,-3.16329 -12.19433,-4.13304 -21.08667,-3.87174 -9.43616,0.27728 -10.46617,0.78785 -8.75196,4.33827 4.21891,8.73812 31.49554,32.99046 44.42167,39.49642 5.64186,2.83966 5.09721,2.70859 7.00746,1.68626 z m -173.43697,-2.73873 c 15.21822,-8.00524 44.72639,-35.44997 44.72639,-41.59875 0,-1.76449 -2.59067,-2.2936 -11.07142,-2.26122 -20.6179,0.0787 -36.03302,11.52265 -40.65083,30.1785 -1.22859,4.96348 -2.02003,13.07544 -1.42659,14.62193 0.68012,1.77237 3.96191,1.40592 8.42245,-0.94046 z m 98.11667,-11.88869 c 10.96882,-2.26567 18.28282,-7.2518 20.2452,-13.80163 1.2252,-4.08938 -0.61588,-8.61022 -5.4186,-13.30551 -7.21513,-7.05374 -17.97694,-11.31547 -28.57402,-11.31547 -10.59348,0 -19.72542,3.54124 -27.3606,10.61007 -7.303,6.76129 -8.01737,11.75216 -2.58977,18.09309 7.62764,8.9112 26.87971,13.19332 43.69779,9.71945 z m -58.64185,-40.6148 c 5.96323,-1.44113 11.72782,-4.27358 15.55657,-7.64378 3.54043,-3.11641 7.20248,-9.76547 6.53563,-11.86653 -0.53363,-1.68132 -10.76334,-10.6064 -18.47528,-16.11907 -7.10922,-5.08183 -16.26645,-10.78335 -26.20605,-16.31654 -4.11597,-2.29128 -7.12655,-4.16596 -6.6902,-4.16596 1.46101,0 14.58085,5.72971 24.42702,10.66779 10.01443,5.02247 22.84683,13.05784 28.86436,18.07423 3.38296,2.82013 3.41503,2.8297 5.35715,1.59794 10.62023,-6.73576 12.05284,-17.07874 4.40238,-31.78389 -3.29324,-6.33002 -10.56966,-14.86667 -10.6416,-12.48464 -0.11431,3.78524 -1.22733,3.47692 -6.10179,-1.69026 -2.64374,-2.8025 -5.08929,-5.09546 -5.43457,-5.09546 -0.34527,0 -0.62776,0.94532 -0.62776,2.1007 0,2.89471 -1.20603,3.37487 -2.93998,1.17051 -1.23846,-1.57445 -7.1372,-6.12835 -7.93814,-6.12835 -0.14498,0 -0.13669,1.08703 0.0184,2.41563 0.38237,3.27529 -0.5761,3.61205 -3.48235,1.22355 -2.95735,-2.43048 -8.49305,-5.32789 -9.07241,-4.74854 -0.23038,0.23039 -0.0385,0.79924 0.42636,1.26412 0.46488,0.46488 0.84523,1.58994 0.84523,2.50013 l 0,1.65489 -3.39285,-1.71809 c -3.38582,-1.71452 -10.92746,-4.22376 -11.36866,-3.78256 -0.12807,0.12807 0.56945,0.98658 1.55004,1.9078 0.9806,0.92122 1.7829,2.10106 1.7829,2.62186 0,1.1694 0.55684,1.21358 -6.07143,-0.48165 -3.07211,-0.78571 -6.23313,-1.42857 -7.02448,-1.42857 -1.40933,0 -1.40699,0.0339 0.11426,1.65318 1.53502,1.63395 2.05595,3.34737 1.01737,3.34624 -0.29465,-3.3e-4 -2.86475,-0.48648 -5.71134,-1.08035 -3.02827,-0.63177 -6.37887,-0.88735 -8.07575,-0.616 l -2.90014,0.46375 1.95939,2.04516 1.95939,2.04516 -7.27649,0 c -4.02954,0 -7.27649,0.29756 -7.27649,0.66683 0,0.36675 0.94857,2.21496 2.10794,4.10714 1.15937,1.89217 2.31922,4.32425 2.57744,5.4046 0.45419,1.9003 0.37389,1.96429 -2.46509,1.96429 -1.63604,0 -2.93458,0.34343 -2.93458,0.77611 0,0.42686 1.94911,2.80591 4.33136,5.28677 4.53775,4.7256 4.60565,5.76701 0.32365,4.9637 -1.62802,-0.30542 -2.51215,-0.19663 -2.51215,0.30911 0,0.42921 2.12822,3.03641 4.72938,5.79378 l 4.72937,5.01339 -3.05437,0 -3.05436,0 1.3607,1.52478 c 0.74839,0.83863 3.40507,3.07916 5.90373,4.97897 l 4.54303,3.45418 -3.05999,0.48931 -3.05999,0.48932 2.08839,1.69623 c 1.14862,0.93293 4.25804,2.87913 6.90982,4.32489 2.65179,1.44576 4.82143,2.88244 4.82143,3.19263 0,0.31019 -1.125,0.56397 -2.5,0.56397 -1.375,0 -2.5,0.27754 -2.5,0.61675 0,0.72131 6.86851,3.86462 11.25,5.14845 3.52772,1.03366 3.76208,1.66574 1.12914,3.04528 l -1.90658,0.99896 2.52582,0.83359 c 1.38921,0.45848 4.9997,1.11104 8.02332,1.45012 3.02362,0.33909 5.71817,0.83922 5.9879,1.11142 0.26972,0.2722 -0.47388,1.30091 -1.65246,2.28603 l -2.14285,1.7911 7.5,-0.41143 c 4.125,-0.2263 9.47608,-0.889 11.89128,-1.47267 z m 108.46586,0.02 c -1.17857,-0.94498 -1.92217,-1.94085 -1.65245,-2.21305 0.26972,-0.2722 2.96427,-0.77234 5.98789,-1.11143 3.02362,-0.33908 6.63412,-0.99164 8.02332,-1.45012 l 2.52583,-0.83359 -1.90658,-0.99896 c -1.04862,-0.5494 -1.90658,-1.24683 -1.90658,-1.5498 0,-0.30299 2.16964,-1.25421 4.82143,-2.11384 2.65178,-0.85962 5.94643,-2.28896 7.32143,-3.17631 l 2.5,-1.61335 -2.67858,-0.2217 c -1.47321,-0.12193 -2.67857,-0.45607 -2.67857,-0.74254 0,-0.28647 2.16965,-1.70375 4.82143,-3.14951 2.65179,-1.44576 5.76121,-3.39196 6.90982,-4.32489 l 2.0884,-1.69623 -3.01137,-0.48154 -3.01136,-0.48154 5.31485,-4.22352 c 6.77652,-5.38505 6.9842,-5.74996 3.27244,-5.74996 l -2.98582,0 4.72938,-5.01339 c 2.60115,-2.75737 4.72938,-5.36457 4.72938,-5.79378 0,-0.50574 -0.88414,-0.61453 -2.51215,-0.30911 -4.28201,0.80331 -4.2141,-0.2381 0.32364,-4.9637 2.38225,-2.48086 4.33136,-4.85991 4.33136,-5.28677 0,-0.43268 -1.29853,-0.77611 -2.93458,-0.77611 -2.83897,0 -2.91927,-0.064 -2.46508,-1.96429 0.25821,-1.08035 1.41806,-3.51243 2.57743,-5.4046 1.15937,-1.89218 2.10795,-3.74039 2.10795,-4.10714 0,-0.36927 -3.24696,-0.66683 -7.2765,-0.66683 l -7.27649,0 1.95939,-2.04516 1.95939,-2.04516 -2.90014,-0.46375 c -1.69687,-0.27135 -5.04747,-0.0158 -8.07575,0.616 -2.84659,0.59387 -5.41669,1.08002 -5.71133,1.08035 -1.03859,10e-4 -0.51765,-1.71229 1.01736,-3.34624 1.52125,-1.61929 1.5236,-1.65318 0.11427,-1.65318 -0.79136,0 -3.95237,0.64286 -7.02449,1.42857 -6.62826,1.69523 -6.07143,1.65105 -6.07143,0.48165 0,-0.5208 0.80231,-1.70064 1.7829,-2.62186 0.9806,-0.92122 1.67812,-1.77973 1.55005,-1.9078 -0.43716,-0.43716 -7.96857,2.06081 -11.30082,3.74818 -3.70238,1.8748 -5.00281,1.0853 -2.97681,-1.80722 0.59972,-0.85622 0.91078,-1.73638 0.69125,-1.95591 -0.55693,-0.55693 -5.9431,2.33912 -8.93114,4.80211 -2.94874,2.43061 -3.91114,2.10846 -3.52716,-1.18066 0.15511,-1.3286 0.054,-2.41563 -0.2247,-2.41563 -0.84075,0 -7.6347,5.58533 -8.3511,6.86547 -0.94729,1.69271 -2.2839,0.57631 -2.2839,-1.90763 0,-1.15538 -0.28249,-2.1007 -0.62776,-2.1007 -0.34527,0 -2.79083,2.29296 -5.43456,5.09546 -4.82805,5.11798 -6.03895,5.47894 -6.0696,1.8093 -0.0167,-2.00163 -1.02171,-1.24819 -5.08146,3.80953 -7.63922,9.51707 -11.71094,21.24715 -10.0114,28.84147 0.94601,4.2272 4.56471,9.04969 8.5082,11.33853 l 2.15612,1.25142 3.63083,-2.87 c 7.11156,-5.62137 20.20356,-13.74388 29.88528,-18.54139 9.58372,-4.74893 21.86466,-10.02003 23.3453,-10.02003 0.40568,0 -2.62999,1.87468 -6.74595,4.16596 -9.95587,5.54224 -19.10832,11.24202 -26.20037,16.31654 -7.89225,5.64707 -17.91551,14.33749 -18.43909,15.98714 -0.23544,0.74183 0.18727,2.73989 0.93937,4.44014 4.62792,10.46219 17.38246,16.57967 35.14509,16.85671 l 5.35715,0.0836 -2.14286,-1.71815 0,-2e-5 z"
       id="path5177"
       inkscape:connector-curvature="0" />
  </g>
</svg>
