<?xml version="1.0" encoding="UTF-8" standalone="no"?>
<!-- Generator: Adobe Illustrator 18.1.1, SVG Export Plug-In . SVG Version: 6.00 Build 0)  -->

<svg
   xmlns:dc="http://purl.org/dc/elements/1.1/"
   xmlns:cc="http://creativecommons.org/ns#"
   xmlns:rdf="http://www.w3.org/1999/02/22-rdf-syntax-ns#"
   xmlns:svg="http://www.w3.org/2000/svg"
   xmlns="http://www.w3.org/2000/svg"
   xmlns:sodipodi="http://sodipodi.sourceforge.net/DTD/sodipodi-0.dtd"
   xmlns:inkscape="http://www.inkscape.org/namespaces/inkscape"
   version="1.1"
   id="Capa_1"
   x="0px"
   y="0px"
   viewBox="0 0 317.141 317.141"
   style="enable-background:new 0 0 317.141 317.141;"
   xml:space="preserve"
   inkscape:version="0.91 r"
   sodipodi:docname="cooling.svg"><metadata
     id="metadata65"><rdf:RDF><cc:Work
         rdf:about=""><dc:format>image/svg+xml</dc:format><dc:type
           rdf:resource="http://purl.org/dc/dcmitype/StillImage" /></cc:Work></rdf:RDF></metadata><defs
     id="defs63" /><sodipodi:namedview
     pagecolor="#ffffff"
     bordercolor="#666666"
     borderopacity="1"
     objecttolerance="10"
     gridtolerance="10"
     guidetolerance="10"
     inkscape:pageopacity="0"
     inkscape:pageshadow="2"
     inkscape:window-width="814"
     inkscape:window-height="480"
     id="namedview61"
     showgrid="false"
     inkscape:zoom="0.74414852"
     inkscape:cx="11.422451"
     inkscape:cy="158.5705"
     inkscape:window-x="0"
     inkscape:window-y="0"
     inkscape:window-maximized="0"
     inkscape:current-layer="Capa_1" /><g
     id="g3"
     style="fill:#ececec"><g
       id="g5"
       style="fill:#ececec"><path
         style="fill:#ececec"
         d="M130.608,85.105c3.117-0.669,6.347-1.044,9.66-1.044s6.543,0.37,9.66,1.044V48.707l33.526-33.526    L169.797,1.523l-19.869,19.863V0h-19.32v21.386L110.745,1.523L97.087,15.18l33.526,33.526v36.398H130.608z"
         id="path7" /><path
         style="fill:#ececec"
         d="M193.788,139.632v-19.32h-8.654c0.669,3.117,1.044,6.347,1.044,9.66c0,3.312-0.37,6.543-1.044,9.66    C185.135,139.632,193.788,139.632,193.788,139.632z"
         id="path9" /><path
         style="fill:#ececec"
         d="M149.928,259.938v-21.386l14.473,14.473c-0.136-2.023-0.256-4.058-0.256-6.124    c0-6.984,0.816-13.331,2.284-19.167l-16.502-16.502v-36.398c-3.117,0.669-6.347,1.044-9.66,1.044c-3.312,0-6.543-0.37-9.66-1.044    v36.398l-33.526,33.526l13.657,13.658l19.863-19.863v21.386C130.603,259.938,149.928,259.938,149.928,259.938z"
         id="path11" /><path
         style="fill:#ececec"
         d="M11.819,159.495l13.657,13.658l33.526-33.526h36.398c-0.669-3.117-1.044-6.347-1.044-9.66    c0-3.312,0.37-6.543,1.044-9.66H59.003L25.477,86.78l-13.657,13.657l19.863,19.863H10.296v19.32h21.386L11.819,159.495z"
         id="path13" /><path
         style="fill:#ececec"
         d="M28.332,79.845l47.412-0.212l25.885,25.651c3.514-5.483,8.142-10.171,13.592-13.734l-25.874-25.64    L89.13,18.498l-19.32,0.087l0.125,28.093l-15.191-15.05L41.147,45.351l15.191,15.05l-28.093,0.125L28.332,79.845z"
         id="path15" /><path
         style="fill:#ececec"
         d="M178.907,105.279l14.881-14.745V52.046c0-14.849,6.831-25.047,16.921-30.073l0.016-3.383    l-19.32-0.087l-0.218,47.412l-25.874,25.64C170.765,95.113,175.393,99.801,178.907,105.279z"
         id="path17" /><path
         style="fill:#ececec"
         d="M165.315,168.393l23.992,23.774c1.463-1.251,2.915-2.518,4.476-3.699v-19.064l-14.881-14.745    C175.393,160.142,170.765,164.831,165.315,168.393z"
         id="path19" /><path
         style="fill:#ececec"
         d="M75.744,180.31l-47.412-0.212l-0.087,19.32l28.093,0.125l-15.191,15.05l13.598,13.723l15.191-15.05    l-0.125,28.093l19.32,0.087l0.218-47.412l25.874-25.64c-5.444-3.563-10.079-8.251-13.592-13.734L75.744,180.31z"
         id="path21" /><circle
         style="fill:#ececec"
         cx="140.268"
         cy="129.972"
         r="35.028"
         id="circle23" /><path
         style="fill:#ececec"
         d="M230.654,70.74v9.007v31.438v30.29h20.048h0.054v-1.849v-19.32v-1.904v-27.32V79.835v-9.1    c0-4.634-0.604-7.898-1.523-10.225c-2.241-5.689-6.391-5.716-8.528-5.716c-2.121,0-6.249,0.027-8.496,5.64    C231.274,62.772,230.654,66.057,230.654,70.74z"
         id="path25" /><path
         style="fill:#ececec"
         d="M206.287,58.345v21.294v40.673v19.32v40.673v15.855c-5.689,3.601-10.699,8.126-15.028,13.239    c-6.951,8.208-11.884,18.112-14.12,29.045c-0.87,4.253-1.458,8.61-1.458,13.119c0,0.31,0.044,0.609,0.044,0.914    c0.495,35.794,29.627,64.665,65.535,64.665c4.574,0,9.034-0.473,13.342-1.365c29.822-6.157,52.242-32.564,52.242-64.208    c0-24.09-13.027-45.09-32.384-56.49V58.345c0-16.214-11.33-29.752-26.494-33.205c-2.442-0.555-4.977-0.876-7.593-0.876    c-12.793,0-23.921,7.054-29.752,17.481C207.87,46.656,206.287,52.313,206.287,58.345z M240.706,49.36    c11.808,0,15.49,9.573,15.49,21.386v17.182v25.041v7.343v19.32v1.849v5.493v25.041v43.453    c16.23,4.155,24.813,18.205,25.977,32.188c0.141,1.071,0.234,2.154,0.234,3.253c0,22.724-18.422,41.147-41.146,41.147    c-22.724,0-41.141-18.422-41.141-41.147c0-1.104,0.098-2.192,0.245-3.269c0.174-2.154,0.506-4.237,1.006-6.244    c1.621-6.511,4.786-12.216,9.279-16.644c1.947-1.92,4.183-3.519,6.554-4.944c2.491-1.496,5.129-2.785,8.012-3.666v-15.599v-1.012    v-19.32v-36.899v-1.838v-24.851V79.726V70.74c0-3.769,0.435-7.256,1.327-10.329c0.402-1.392,0.908-2.681,1.539-3.862    c1.343-2.507,3.214-4.487,5.771-5.716C235.762,49.914,237.997,49.36,240.706,49.36z"
         id="path27" /><path
         style="fill:#ececec"
         d="M261.565,277.213c7.946-9.1,11.661-20.342,10.622-31.465c-0.702-7.533-15.159-7.587-14.452,0    c0.87,9.306-2.007,17.911-8.648,25.515C243.665,277.468,256.207,283.348,261.565,277.213z"
         id="path29" /></g></g><g
     id="g31" /><g
     id="g33" /><g
     id="g35" /><g
     id="g37" /><g
     id="g39" /><g
     id="g41" /><g
     id="g43" /><g
     id="g45" /><g
     id="g47" /><g
     id="g49" /><g
     id="g51" /><g
     id="g53" /><g
     id="g55" /><g
     id="g57" /><g
     id="g59" /></svg>