<?xml version="1.0" encoding="UTF-8" standalone="no"?>
<!-- Generator: Adobe Illustrator 17.1.0, SVG Export Plug-In . SVG Version: 6.00 Build 0)  -->

<svg
   xmlns:dc="http://purl.org/dc/elements/1.1/"
   xmlns:cc="http://creativecommons.org/ns#"
   xmlns:rdf="http://www.w3.org/1999/02/22-rdf-syntax-ns#"
   xmlns:svg="http://www.w3.org/2000/svg"
   xmlns="http://www.w3.org/2000/svg"
   xmlns:sodipodi="http://sodipodi.sourceforge.net/DTD/sodipodi-0.dtd"
   xmlns:inkscape="http://www.inkscape.org/namespaces/inkscape"
   version="1.1"
   id="Capa_1"
   x="0px"
   y="0px"
   viewBox="0 0 222.5 222.5"
   style="enable-background:new 0 0 222.5 222.5;"
   xml:space="preserve"
   inkscape:version="0.91 r"
   sodipodi:docname="rest.svg"><metadata
     id="metadata39"><rdf:RDF><cc:Work
         rdf:about=""><dc:format>image/svg+xml</dc:format><dc:type
           rdf:resource="http://purl.org/dc/dcmitype/StillImage" /></cc:Work></rdf:RDF></metadata><defs
     id="defs37" /><sodipodi:namedview
     pagecolor="#ffffff"
     bordercolor="#666666"
     borderopacity="1"
     objecttolerance="10"
     gridtolerance="10"
     guidetolerance="10"
     inkscape:pageopacity="0"
     inkscape:pageshadow="2"
     inkscape:window-width="814"
     inkscape:window-height="480"
     id="namedview35"
     showgrid="false"
     inkscape:zoom="1.0606742"
     inkscape:cx="8.0137712"
     inkscape:cy="111.25"
     inkscape:window-x="0"
     inkscape:window-y="0"
     inkscape:window-maximized="0"
     inkscape:current-layer="Capa_1" /><path
     d="M222.5,179.196v5c0,4.143-3.357,7.5-7.5,7.5H7.5c-4.143,0-7.5-3.357-7.5-7.5v-5c0-4.143,3.357-7.5,7.5-7.5H215  C219.143,171.696,222.5,175.054,222.5,179.196z M215.75,155.354c0,4.143-3.357,7.5-7.5,7.5h-194c-4.143,0-7.5-3.357-7.5-7.5  c0-52.252,38.55-95.669,88.702-103.307C95,50.543,94.75,48.953,94.75,47.304c0-9.098,7.402-16.5,16.5-16.5s16.5,7.402,16.5,16.5  c0,1.649-0.25,3.239-0.702,4.743C177.2,59.684,215.75,103.102,215.75,155.354z M103.566,73.537c-1.01-4.018-5.082-6.449-9.102-5.447  c-1.192,0.3-29.421,7.585-47.612,29.125c-15.424,18.264-17.379,41.078-17.454,42.04c-0.325,4.129,2.759,7.74,6.889,8.064  c0.2,0.016,0.398,0.023,0.596,0.023c3.876,0,7.16-2.982,7.469-6.912c0.015-0.188,1.618-18.922,13.962-33.538  c14.961-17.716,39.416-24.153,39.815-24.257C102.141,81.623,104.574,77.552,103.566,73.537z"
     id="path3"
     style="fill:#ececec" /><g
     id="g5" /><g
     id="g7" /><g
     id="g9" /><g
     id="g11" /><g
     id="g13" /><g
     id="g15" /><g
     id="g17" /><g
     id="g19" /><g
     id="g21" /><g
     id="g23" /><g
     id="g25" /><g
     id="g27" /><g
     id="g29" /><g
     id="g31" /><g
     id="g33" /></svg>