<?xml version="1.0" encoding="iso-8859-1"?>
<!-- Generator: Adobe Illustrator 19.0.0, SVG Export Plug-In . SVG Version: 6.00 Build 0)  -->
<svg version="1.1" id="Layer_1" xmlns="http://www.w3.org/2000/svg" xmlns:xlink="http://www.w3.org/1999/xlink" x="0px" y="0px"
	 viewBox="0 0 512 512" style="enable-background:new 0 0 512 512;" xml:space="preserve">
<circle style="fill:#F2CF61;" cx="256" cy="256" r="256"/>
<path style="fill:#66401E;" d="M252,388c-75.244,0-145.084,6.928-202.844,18.768C95.716,470.54,171,512,256,512
	c84.356,0,159.168-40.82,205.804-103.764C402.736,395.5,330.288,388,252,388z"/>
<path style="fill:#DE7738;" d="M192,226.996c33.348,3.044,65.284,10.236,91.68-2.792c4.4,7.084,5.072,11.356,6.488,12.988
	c11.004-5.004,47.836-25.816,51.576-31.628c4.452,4.508,22.64,20.024,20.092,34.916c23.384-16.552,42.628-55.752,28.656-76.904
	c4.14-0.672,9.824-0.064,12.192,1.936c-0.996-12.236-8.992-31.624-38.076-47.608c-10.18-10.796-25.384-25.276-52.264-26.024
	c1.976,4.492,1.244,8.488-0.124,11.688c-35.296-9.696-68.584,9.68-88.56,18.336c13.368,3.404,33.272,12.972,42.004,24.344
	c-10.764,2.844-23.916,11.74-35.824,25.828c6.344,2,10.656,4.672,13.98,7.744C224.516,188.504,234.34,215.844,192,226.996z"/>
<path style="fill:#7D4E25;" d="M241.264,214.376c16.88-8.252,32.016-18.384,46.2-29.092c14.144-10.752,27.232-22.268,39.392-34.264
	c14.584-14.436,21.356-21.928,33.816-37.304c5.212-6.404,10.244-12.888,15.136-19.416c2.448-3.264,4.864-6.54,7.292-9.828
	c2.468-3.3,4.852-6.564,7.68-9.968c2.364-2.848,6.54-3.324,9.468-1.072c2.924,2.252,3.5,6.416,1.124,9.328
	c-0.068,0.084-0.14,0.172-0.212,0.252c-0.016,0.016-0.02,0.024-0.036,0.044c-2.416,2.672-4.936,5.816-7.432,8.912
	c-2.5,3.112-5.032,6.276-7.6,9.44c-5.14,6.32-10.444,12.656-15.96,18.916c-13.22,15.072-20.392,22.4-35.752,36.436
	c-12.844,11.688-26.616,22.872-41.516,33.252c-14.928,10.332-30.82,20.056-48.632,27.872c-1.232,0.552-2.892,0.192-3.688-0.784
	c-0.768-0.944-0.448-2.128,0.692-2.696C241.248,214.392,241.256,214.384,241.264,214.376z"/>
<path style="fill:#BD9324;" d="M96.32,296.28c7.468,13.872,10.82,28.744,26.012,36.88c-3.656,3.568-6.44,4.788-7.232,5.752
	c5.976,3.564,28.824,14.916,33.768,15.212c-2.176,3.08-9.744,14.728-21.368,16.448c16.556,7.108,50.228,7.908,62.364-4.3
	c1.424,1.816,2.224,4.72,1.252,6.364c8.824-3.568,21.864-12.668,23.488-32.14c4.004-8.456,7.704-21.196-1.964-34.668
	c-1.796,2.6-4.388,3.66-6.728,4.124c-7.1-20.552-30.224-28.572-41.62-33.952c3.028,7.024,4.932,19.332,1.292,26.996
	c-5.128-3.844-14.364-6.56-26.06-7.116c0.832,3.292,0.604,5.96-0.2,8.3C128.424,298.62,114.844,310.052,96.32,296.28z"/>
<path style="fill:#7D4E25;" d="M117.652,312.868c9.748,4.82,20.264,8.56,31.004,11.776c10.76,3.2,21.828,5.788,33.092,7.856
	c13.544,2.46,20.432,3.412,34.392,4.692c5.82,0.548,11.684,0.988,17.6,1.356c2.968,0.192,5.932,0.348,8.94,0.524
	c3.024,0.192,6.008,0.364,9.264,0.712c2.724,0.292,4.508,2.364,3.948,4.652s-3.28,3.948-6.048,3.644
	c-0.084-0.012-0.156-0.032-0.24-0.044c-0.016-0.004-0.036,0-0.052-0.004c-2.616-0.404-5.576-0.7-8.468-1.008
	c-2.916-0.3-5.864-0.592-8.804-0.912c-5.888-0.624-11.756-1.316-17.596-2.12c-14.044-1.916-20.952-3.18-34.488-6.256
	c-11.288-2.584-22.34-5.676-33.068-9.384c-10.708-3.74-21.148-7.964-30.86-13.332c-0.676-0.372-0.9-1.148-0.504-1.732
	c0.384-0.572,1.208-0.752,1.872-0.42C117.648,312.872,117.648,312.864,117.652,312.868z"/>
<path style="fill:#B53023;" d="M181.2,204.408c-6.632,5.288-11.432,11.944-20.672,12.76c1.056,2.536,2.176,3.732,2.364,4.376
	c-3.712,0.5-17.42,1.292-19.932,0.396c0.428,1.984,1.708,9.352,7.1,12.66c-9.7,0.02-26.536-6.708-29.964-15.312
	c-1.092,0.596-2.1,1.868-1.964,2.888c-3.616-3.628-8.148-10.892-4.832-20.876c-0.196-5.032,0.664-12.116,8.3-16.752
	c0.34,1.668,1.4,2.744,2.456,3.464c7.86-8.672,21-7.752,27.78-8.012c-2.984,2.836-6.528,8.528-6.344,13.084
	c3.348-0.812,8.496-0.208,14.404,1.992c-1.108,1.444-1.556,2.82-1.656,4.148C164.812,198.78,169.12,207.312,181.2,204.408z"/>
<path style="fill:#7D4E25;" d="M167.136,208.108c-5.844,0.328-11.836-0.056-17.836-0.728c-6.004-0.692-12.028-1.748-18.044-3.1
	c-7.224-1.644-10.836-2.628-18.016-4.944c-3-0.952-5.996-1.98-9-3.056c-1.512-0.532-3.012-1.084-4.536-1.624
	c-1.536-0.548-3.052-1.092-4.74-1.608c-1.412-0.42-2.728,0.22-2.936,1.468c-0.208,1.252,0.788,2.652,2.22,3.084
	c0.044,0.008,0.088,0.016,0.128,0.028c0.008,0,0.016,0.008,0.024,0.008c1.38,0.356,2.908,0.832,4.408,1.292
	c1.508,0.468,3.028,0.936,4.552,1.412c3.048,0.932,6.1,1.832,9.16,2.672c7.36,2.02,11.044,2.848,18.4,4.188
	c6.132,1.104,12.256,1.912,18.352,2.344c6.088,0.416,12.152,0.528,18.096-0.08c0.412-0.044,0.684-0.38,0.612-0.748
	s-0.436-0.632-0.836-0.608C167.136,208.108,167.14,208.108,167.136,208.108z"/>
<path style="fill:#DE7738;" d="M351.688,396.556c-7.468,13.876-10.82,28.752-26.012,36.892c3.652,3.568,6.432,4.772,7.232,5.744
	c-5.976,3.564-28.836,14.916-33.776,15.204c2.172,3.084,9.74,14.744,21.364,16.464c-16.564,7.108-50.212,7.904-62.352-4.308
	c-1.424,1.816-2.224,4.732-1.252,6.376c-8.82-3.568-21.872-12.668-23.492-32.14c-4.004-8.456-7.696-21.212,1.972-34.676
	c1.796,2.596,4.376,3.66,6.716,4.12c7.096-20.548,30.24-28.572,41.628-33.944c-3.028,7.024-4.928,19.332-1.288,26.996
	c5.124-3.844,14.36-6.568,26.06-7.12c-0.832,3.292-0.608,5.952,0.192,8.292C319.572,398.884,333.164,410.324,351.688,396.556z"/>
<path style="fill:#7D4E25;" d="M330.344,413.148c-9.744,4.82-20.256,8.556-31,11.776c-10.756,3.2-21.828,5.776-33.092,7.848
	c-13.548,2.456-20.424,3.416-34.388,4.7c-5.82,0.548-11.684,0.976-17.6,1.344c-2.968,0.192-5.94,0.36-8.944,0.536
	c-3.024,0.188-6.012,0.348-9.268,0.696c-2.72,0.296-4.5,2.364-3.944,4.652c0.56,2.292,3.284,3.944,6.052,3.64
	c0.084-0.012,0.156-0.02,0.24-0.032c0.016-0.004,0.024,0,0.04-0.004c2.616-0.408,5.58-0.704,8.472-1.008
	c2.916-0.296,5.86-0.604,8.8-0.916c5.888-0.62,11.768-1.312,17.608-2.112c14.044-1.916,20.944-3.172,34.484-6.252
	c11.28-2.584,22.344-5.692,33.068-9.4c10.708-3.744,21.156-7.964,30.864-13.328c0.68-0.376,0.904-1.144,0.508-1.732
	c-0.388-0.568-1.208-0.744-1.868-0.416C330.36,413.148,330.352,413.144,330.344,413.148z"/>
<path style="fill:#EDB82C;" d="M455.844,374.708c-10.856,0.56-20.736,4.292-30.416-0.208c-0.916,3.316-0.776,5.216-1.108,6.008
	c-3.936-1.644-17.936-7.944-19.808-10.108c-0.984,2.368-4.988,10.86-2.464,16.988c-9.116-4.728-20.952-18.436-19.212-29.256
	c-1.512,0.296-3.348,1.38-3.844,2.56c-1.5-5.248-2.156-14.756,6.868-25.32c2.46-5.904,6.86-14.232,18.136-16.916
	c-0.424,2.128,0.26,3.804,1.112,5.084c13.648-7.248,28.904,0.5,37,4.336c-5.252,1.512-12.756,6.236-15.452,11.58
	c4.264,0.856,9.676,4.496,14.5,10.668c-2.236,0.916-3.676,2.16-4.728,3.572C443.744,357.188,441.676,368.796,455.844,374.708z"/>
<path style="fill:#7D4E25;" d="M438.972,368.9c-6.088-3.404-11.936-7.34-17.748-11.284c-5.796-3.976-11.536-8.068-17.252-12.168
	l-17.156-12.376c-2.868-2.056-5.744-4.1-8.656-6.128c-1.464-1.012-2.928-2.016-4.428-3.008c-1.508-0.988-3-1.96-4.716-2.904
	c-1.432-0.776-3.24-0.252-4.024,1.176c-0.776,1.436-0.252,3.244,1.176,4.02c0.048,0.028,0.084,0.052,0.132,0.076l0.024,0.008
	c1.416,0.684,2.92,1.56,4.408,2.424c1.484,0.884,2.972,1.788,4.456,2.72c2.964,1.852,5.924,3.752,8.88,5.66l17.74,11.516
	c5.916,3.832,11.868,7.64,17.884,11.352c6.028,3.684,12.084,7.344,18.46,10.504c0.44,0.224,0.976,0.04,1.196-0.404
	c0.216-0.428,0.052-0.944-0.364-1.18L438.972,368.9z"/>
<g>
</g>
<g>
</g>
<g>
</g>
<g>
</g>
<g>
</g>
<g>
</g>
<g>
</g>
<g>
</g>
<g>
</g>
<g>
</g>
<g>
</g>
<g>
</g>
<g>
</g>
<g>
</g>
<g>
</g>
</svg>
