<?xml version="1.0" encoding="iso-8859-1"?>
<!-- Generator: Adobe Illustrator 19.0.0, SVG Export Plug-In . SVG Version: 6.00 Build 0)  -->
<svg version="1.1" id="Layer_1" xmlns="http://www.w3.org/2000/svg" xmlns:xlink="http://www.w3.org/1999/xlink" x="0px" y="0px"
	 viewBox="0 0 473.961 473.961" style="enable-background:new 0 0 473.961 473.961;" xml:space="preserve">
<g>
	<circle style="fill:#A2D4DE;" cx="236.994" cy="236.992" r="236.966"/>
	<path style="fill:#A2D4DE;" d="M473.634,249.407c0.213-4.12,0.326-8.258,0.326-12.426C473.959,106.094,367.862,0,236.983,0
		S0.002,106.094,0.002,236.981c0,6.769,0.352,13.448,0.909,20.071c63.296-42.555,148.552-62.693,242.358-62.693
		C331.267,194.358,411.753,212.079,473.634,249.407z"/>
</g>
<path style="fill:#69C6D4;" d="M243.269,261.71c82.742,0,158.841,15.667,219.08,48.564c6.282-19.326,10.193-39.719,11.285-60.871
	c-61.881-37.332-142.367-55.049-230.365-55.049c-93.802,0-179.062,20.138-242.358,62.693c1.729,20.617,6.077,40.482,12.744,59.262
	C75.44,279.292,155.622,261.71,243.269,261.71z"/>
<path style="fill:#F3ED73;" d="M13.656,316.313c32.632,91.853,120.279,157.648,223.323,157.648
	c105.289,0,194.489-68.691,225.366-163.683c-60.239-32.901-136.339-48.564-219.08-48.564
	C155.622,261.71,75.44,279.292,13.656,316.313z"/>
<g>
	<g>
		<path style="fill:#357180;" d="M204.99,102.584c0,0-19.225,7.592-10.627,70.832l-16.191,11.633l-44.512-11.633
			C133.665,173.416,151.36,117.259,204.99,102.584z"/>
		<path style="fill:#6CC077;" d="M133.665,173.416l47.045,11.633l0.505,23.27c0,0-36.422,42.488-38.955,65.765
			C142.26,274.084,113.422,234.62,133.665,173.416z"/>
		<path style="fill:#EFDE0E;" d="M182.873,205.116l22.623,8.266c0,0,16.696,90.042,48.055,110.281c0,0-82.461,11.633-111.291-49.578
			C142.26,274.084,149.481,240.524,182.873,205.116z"/>
		<path style="fill:#E84849;" d="M203.468,212.872c0,0,18.215,88.53,50.083,110.79c0,0,70.824,13.65,101.686-86.506l-137.6-38.959
			L203.468,212.872z"/>
		<path style="fill:#6CC077;" d="M217.638,198.197l137.094,41.489c0,0,16.692-57.668-40.972-117.873
			c0,0-67.284-2.522-101.682,55.651L217.638,198.197z"/>
		<path style="fill:#EFDE0E;" d="M194.364,173.416c0,0-11.135-55.139,8.602-69.814c0,0,59.183-17.197,112.298,20.235
			c0,0-47.55-7.585-103.187,53.627L194.364,173.416z"/>
	</g>
</g>
<g>
	<g>
		<ellipse style="fill:#FFFFFF;" cx="200.324" cy="193.73" rx="22.376" ry="23.034"/>
		<ellipse style="fill:#FFFFFF;" cx="200.324" cy="193.73" rx="22.376" ry="23.034"/>
		<ellipse style="fill:#FFFFFF;" cx="200.324" cy="193.73" rx="22.376" ry="23.034"/>
	</g>
</g>
<ellipse style="opacity:0.15;enable-background:new    ;" cx="245.226" cy="382.696" rx="73.279" ry="28.179"/>
<g>
</g>
<g>
</g>
<g>
</g>
<g>
</g>
<g>
</g>
<g>
</g>
<g>
</g>
<g>
</g>
<g>
</g>
<g>
</g>
<g>
</g>
<g>
</g>
<g>
</g>
<g>
</g>
<g>
</g>
</svg>
