<?xml version="1.0" encoding="iso-8859-1"?>
<!-- Generator: Adobe Illustrator 19.0.0, SVG Export Plug-In . SVG Version: 6.00 Build 0)  -->
<svg version="1.1" id="Layer_1" xmlns="http://www.w3.org/2000/svg" xmlns:xlink="http://www.w3.org/1999/xlink" x="0px" y="0px"
	 viewBox="0 0 512 512" style="enable-background:new 0 0 512 512;" xml:space="preserve">
<circle style="fill:#E16B5A;" cx="256" cy="256" r="256"/>
<path style="fill:#263740;" d="M256,328c-81.964,0-157.72,22.392-219.192,60.3C81.652,462.436,163.032,512,256,512
	s174.348-49.564,219.192-123.7C413.72,350.392,337.964,328,256,328z"/>
<path style="fill:#1E2C33;" d="M256,328c-54.044,0-105.36,9.788-151.692,27.288C144.36,342.836,187.632,336,232.808,336
	c72.604,0,139.252,19.724,197.596,47.932c14.092,6.816,10.328,29.772,3.944,37.912c-27.644,35.236-64.328,63.028-106.556,79.916
	c62.176-18.136,114.58-59.208,147.396-113.456C413.72,350.392,337.964,328,256,328z"/>
<path style="fill:#00804E;" d="M138.028,302.656c-3.476,10.48,26.48,28.86,60.808,51.716s62.844,43.4,71.172,36.148
	s-9.78-43.328-49.008-69.44C181.776,294.964,141.504,292.172,138.028,302.656z"/>
<path style="fill:#007346;" d="M221,321.08c-28.74-19.128-57.976-25.708-72.956-23.752c16.024,1.612,38.648,8.904,60.956,23.752
	c39.08,26.02,57.184,61.908,49.084,69.344c5.404,1.916,9.524,2.192,11.92,0.096C278.34,383.268,260.228,347.192,221,321.08z"/>
<path style="fill:#00804E;" d="M256,404c-4.416,0-8-3.584-8-8V200c0-4.416,3.584-8,8-8c4.416,0,8,3.584,8,8v196
	C264,400.416,260.416,404,256,404z"/>
<g>
	<ellipse style="fill:#E6BF5A;" cx="256" cy="158" rx="12" ry="42"/>
	<ellipse style="fill:#E6BF5A;" cx="256" cy="242" rx="12" ry="42"/>
	<ellipse style="fill:#E6BF5A;" cx="214" cy="200" rx="42" ry="12"/>
	<ellipse style="fill:#E6BF5A;" cx="298" cy="200" rx="42" ry="12"/>
	
		<ellipse transform="matrix(-0.7071 0.7071 -0.7071 -0.7071 506.8454 130.5865)" style="fill:#E6BF5A;" cx="226.377" cy="170.264" rx="12" ry="42"/>
	
		<ellipse transform="matrix(-0.7071 0.7071 -0.7071 -0.7071 650.0508 190.1346)" style="fill:#E6BF5A;" cx="285.647" cy="229.697" rx="12" ry="42"/>
	
		<ellipse transform="matrix(0.7071 0.7071 -0.7071 0.7071 228.63 -92.7374)" style="fill:#E6BF5A;" cx="226.259" cy="229.612" rx="12" ry="42"/>
	
		<ellipse transform="matrix(0.7071 0.7071 -0.7071 0.7071 204.166 -152.1064)" style="fill:#E6BF5A;" cx="285.692" cy="170.397" rx="12" ry="42"/>
	
		<ellipse transform="matrix(-0.9239 0.3827 -0.3827 -0.9239 523.3328 218.3116)" style="fill:#E6BF5A;" cx="239.954" cy="161.206" rx="12" ry="42.001"/>
	
		<ellipse transform="matrix(-0.9239 0.3826 -0.3826 -0.9239 614.7433 355.391)" style="fill:#E6BF5A;" cx="272.034" cy="238.822" rx="12" ry="41.999"/>
	
		<ellipse transform="matrix(0.3826 0.9239 -0.9239 0.3826 333.754 -67.274)" style="fill:#E6BF5A;" cx="217.214" cy="216.089" rx="12" ry="41.999"/>
	
		<ellipse transform="matrix(0.3826 0.9239 -0.9239 0.3826 351.9655 -158.7686)" style="fill:#E6BF5A;" cx="294.779" cy="183.968" rx="12" ry="41.999"/>
	
		<ellipse transform="matrix(-0.3827 0.9239 -0.9239 -0.3827 470.266 53.7525)" style="fill:#E6BF5A;" cx="217.175" cy="183.986" rx="12" ry="42.001"/>
	
		<ellipse transform="matrix(-0.3826 0.9239 -0.9239 -0.3826 607.2188 26.3325)" style="fill:#E6BF5A;" cx="294.811" cy="216.05" rx="12" ry="41.999"/>
	
		<ellipse transform="matrix(0.9238 0.3828 -0.3828 0.9238 109.7086 -73.6582)" style="fill:#E6BF5A;" cx="239.94" cy="238.842" rx="12" ry="41.995"/>
	
		<ellipse transform="matrix(0.9239 0.3827 -0.3827 0.9239 82.4051 -91.8533)" style="fill:#E6BF5A;" cx="272.087" cy="161.208" rx="12" ry="42.001"/>
</g>
<g>
	<circle style="fill:#FFE399;" cx="256" cy="152" r="20"/>
	<circle style="fill:#FFE399;" cx="256" cy="244" r="20"/>
	<circle style="fill:#FFE399;" cx="210" cy="198" r="20"/>
	<circle style="fill:#FFE399;" cx="302" cy="198" r="20"/>
	<circle style="fill:#FFE399;" cx="223.472" cy="165.48" r="20"/>
	<circle style="fill:#FFE399;" cx="288.52" cy="230.528" r="20"/>
	<circle style="fill:#FFE399;" cx="223.472" cy="230.528" r="20"/>
	<circle style="fill:#FFE399;" cx="288.52" cy="165.48" r="20"/>
</g>
<circle style="fill:#FFD464;" cx="256" cy="196" r="48"/>
<path style="fill:#F2C95F;" d="M256,148c-1.348,0-2.676,0.092-4,0.204c24.632,2.04,44,22.64,44,47.796s-19.368,45.76-44,47.796
	c1.324,0.108,2.652,0.204,4,0.204c26.508,0,48-21.492,48-48S282.508,148,256,148z"/>
<circle style="fill:#C23527;" cx="256" cy="196" r="24"/>
<path style="fill:#B33124;" d="M256,172c-1.364,0-2.696,0.14-4,0.36c11.348,1.916,20,11.752,20,23.64s-8.652,21.732-20,23.64
	c1.304,0.22,2.636,0.36,4,0.36c13.256,0,24-10.752,24-24S269.256,172,256,172z"/>
<path style="fill:#00804E;" d="M383.728,314.656c3.472,10.48-26.484,28.86-60.812,51.716s-62.844,43.404-71.168,36.148
	c-8.328-7.252,9.784-43.328,49.004-69.44C339.976,306.964,380.252,304.172,383.728,314.656z"/>
<path style="fill:#007346;" d="M383.728,314.656c-1.5-4.524-9.868-6.556-22.02-5.332c5.468,0.716,9.088,2.528,10.02,5.332
	c3.472,10.48-26.484,28.86-60.812,51.716c-24.436,16.272-45.888,31.312-59.252,36.052c0.032,0.028,0.044,0.076,0.076,0.096
	c8.332,7.252,36.844-13.292,71.172-36.148S387.2,325.136,383.728,314.656z"/>
<g>
</g>
<g>
</g>
<g>
</g>
<g>
</g>
<g>
</g>
<g>
</g>
<g>
</g>
<g>
</g>
<g>
</g>
<g>
</g>
<g>
</g>
<g>
</g>
<g>
</g>
<g>
</g>
<g>
</g>
</svg>
