<?xml version="1.0" encoding="UTF-8" standalone="no"?>
<!-- Created with Inkscape (http://www.inkscape.org/) -->

<svg
   xmlns:dc="http://purl.org/dc/elements/1.1/"
   xmlns:cc="http://creativecommons.org/ns#"
   xmlns:rdf="http://www.w3.org/1999/02/22-rdf-syntax-ns#"
   xmlns:svg="http://www.w3.org/2000/svg"
   xmlns="http://www.w3.org/2000/svg"
   xmlns:sodipodi="http://sodipodi.sourceforge.net/DTD/sodipodi-0.dtd"
   xmlns:inkscape="http://www.inkscape.org/namespaces/inkscape"
   id="svg2"
   version="1.1"
   inkscape:version="0.91 r13725"
   xml:space="preserve"
   width="300"
   height="550"
   viewBox="0 0 300 550"
   sodipodi:docname="fat_guy.svg"><metadata
     id="metadata8"><rdf:RDF><cc:Work
         rdf:about=""><dc:format>image/svg+xml</dc:format><dc:type
           rdf:resource="http://purl.org/dc/dcmitype/StillImage" /><dc:title></dc:title></cc:Work></rdf:RDF></metadata><defs
     id="defs6"><clipPath
       clipPathUnits="userSpaceOnUse"
       id="clipPath20"><path
         d="m 2301.56,5037.14 2559.18,0 0,452.461 -2559.18,0 0,-452.461 z"
         id="path22"
         inkscape:connector-curvature="0" /></clipPath><clipPath
       clipPathUnits="userSpaceOnUse"
       id="clipPath30"><path
         d="m 3581.15,5037.15 0,0 c -706.69,0 -1279.58,101.28 -1279.58,226.22 0,11.11 4.52,22.02 13.26,32.7 89.61,109.44 622.43,193.53 1266.32,193.53 l 0,0 c 645.06,0 1178.64,-84.39 1266.81,-194.13 8.42,-10.48 12.78,-21.2 12.78,-32.1 0,-124.94 -572.89,-226.22 -1279.59,-226.22 l 0,0"
         id="path32"
         inkscape:connector-curvature="0" /></clipPath><radialGradient
       fx="0"
       fy="0"
       cx="0"
       cy="0"
       r="1"
       gradientUnits="userSpaceOnUse"
       gradientTransform="matrix(1279.42,0,0,-226.256,3581.15,5263.37)"
       spreadMethod="pad"
       id="radialGradient34"><stop
         style="stop-opacity:1;stop-color:#868485"
         offset="0"
         id="stop36" /><stop
         style="stop-opacity:1;stop-color:#ffffff"
         offset="1"
         id="stop38" /></radialGradient><clipPath
       clipPathUnits="userSpaceOnUse"
       id="clipPath110"><path
         d="m 5748.15,501.359 2559.18,0 0,452.449 -2559.18,0 0,-452.449 z"
         id="path112"
         inkscape:connector-curvature="0" /></clipPath><clipPath
       clipPathUnits="userSpaceOnUse"
       id="clipPath120"><path
         d="m 7027.74,501.359 0,0 c -706.69,0 -1279.59,101.293 -1279.59,226.231 0,118.461 514.98,215.652 1170.72,225.422 3.47,0.051 6.95,0.097 10.42,0.14 3.47,0.047 6.98,0.098 10.46,0.137 8.39,0.102 16.77,0.18 25.21,0.262 3.5,0.031 7.06,0.051 10.56,0.078 17.34,0.121 34.71,0.18 52.22,0.18 667.7,0 1215.96,-90.407 1274.43,-205.77 3.41,-6.738 5.15,-13.547 5.15,-20.449 l 0,0 0,0 c 0,-124.938 -572.89,-226.231 -1279.58,-226.231 l 0,0"
         id="path122"
         inkscape:connector-curvature="0" /></clipPath><radialGradient
       fx="0"
       fy="0"
       cx="0"
       cy="0"
       r="1"
       gradientUnits="userSpaceOnUse"
       gradientTransform="matrix(1279.42,0,0,-226.256,7027.74,727.59)"
       spreadMethod="pad"
       id="radialGradient124"><stop
         style="stop-opacity:1;stop-color:#868485"
         offset="0"
         id="stop126" /><stop
         style="stop-opacity:1;stop-color:#ffffff"
         offset="1"
         id="stop128" /></radialGradient><clipPath
       clipPathUnits="userSpaceOnUse"
       id="clipPath236"><path
         d="m 5624.02,5037.14 2559.17,0 0,452.461 -2559.17,0 0,-452.461 z"
         id="path238"
         inkscape:connector-curvature="0" /></clipPath><clipPath
       clipPathUnits="userSpaceOnUse"
       id="clipPath246"><path
         d="m 6903.61,5037.15 0,0 c -706.7,0 -1279.59,101.28 -1279.59,226.22 0,124.94 572.89,226.23 1279.59,226.23 l 0,0 c 706.69,0 1279.58,-101.29 1279.58,-226.23 0,-124.94 -572.89,-226.22 -1279.58,-226.22 l 0,0"
         id="path248"
         inkscape:connector-curvature="0" /></clipPath><radialGradient
       fx="0"
       fy="0"
       cx="0"
       cy="0"
       r="1"
       gradientUnits="userSpaceOnUse"
       gradientTransform="matrix(1279.42,0,0,-226.256,6903.61,5263.37)"
       spreadMethod="pad"
       id="radialGradient250"><stop
         style="stop-opacity:1;stop-color:#868485"
         offset="0"
         id="stop252" /><stop
         style="stop-opacity:1;stop-color:#ffffff"
         offset="1"
         id="stop254" /></radialGradient><clipPath
       clipPathUnits="userSpaceOnUse"
       id="clipPath328"><path
         d="m 8799.9,501.359 2559.2,0 0,452.449 -2559.2,0 0,-452.449 z"
         id="path330"
         inkscape:connector-curvature="0" /></clipPath><clipPath
       clipPathUnits="userSpaceOnUse"
       id="clipPath338"><path
         d="m 10079.5,501.359 0,0 c -706.71,0 -1279.6,101.293 -1279.6,226.231 0,118.461 514.98,215.652 1170.73,225.422 3.12,0.039 6.26,0.09 9.39,0.129 0.34,0.011 0.67,0.011 1,0.011 l 0.02,0 c 3.47,0.047 6.99,0.098 10.47,0.137 8.4,0.102 16.79,0.18 25.19,0.262 3.5,0.031 7,0.051 10.6,0.078 17.3,0.121 34.7,0.18 52.2,0.18 627.7,0 1149.8,-79.899 1258.7,-185.309 13.7,-13.27 20.9,-26.937 20.9,-40.91 0,-124.938 -572.9,-226.231 -1279.6,-226.231 l 0,0"
         id="path340"
         inkscape:connector-curvature="0" /></clipPath><radialGradient
       fx="0"
       fy="0"
       cx="0"
       cy="0"
       r="1"
       gradientUnits="userSpaceOnUse"
       gradientTransform="matrix(1279.42,0,0,-226.256,10079.5,727.59)"
       spreadMethod="pad"
       id="radialGradient342"><stop
         style="stop-opacity:1;stop-color:#868485"
         offset="0"
         id="stop344" /><stop
         style="stop-opacity:1;stop-color:#ffffff"
         offset="1"
         id="stop346" /></radialGradient><clipPath
       clipPathUnits="userSpaceOnUse"
       id="clipPath390"><path
         d="m 10026.6,5037.14 c -3.1,0 -6.1,0 -9.2,0.01 l 9.2,0 0,0 0,0 9.3,0 c -3.1,-0.01 -6.1,-0.01 -9.3,-0.01"
         id="path392"
         inkscape:connector-curvature="0" /></clipPath><clipPath
       clipPathUnits="userSpaceOnUse"
       id="clipPath400"><path
         d="m 8747.06,5037.14 2559.14,0 0,452.461 -2559.14,0 0,-452.461 z"
         id="path402"
         inkscape:connector-curvature="0" /></clipPath><clipPath
       clipPathUnits="userSpaceOnUse"
       id="clipPath410"><path
         d="m 10026.6,5037.15 0,0 c -632.46,0 -1157.78,81.13 -1261.11,187.74 -12.11,12.51 -18.43,25.36 -18.43,38.48 l 0,0 c 0,124.94 572.89,226.23 1279.54,226.23 l 0,0 c 706.7,0 1279.6,-101.29 1279.6,-226.23 0,-24.1 -21.3,-47.31 -60.7,-69.09 -165.2,-91.15 -648.5,-157.13 -1218.9,-157.13 l 0,0"
         id="path412"
         inkscape:connector-curvature="0" /></clipPath><radialGradient
       fx="0"
       fy="0"
       cx="0"
       cy="0"
       r="1"
       gradientUnits="userSpaceOnUse"
       gradientTransform="matrix(1279.42,0,0,-226.256,10026.7,5263.37)"
       spreadMethod="pad"
       id="radialGradient414"><stop
         style="stop-opacity:1;stop-color:#868485"
         offset="0"
         id="stop416" /><stop
         style="stop-opacity:1;stop-color:#ffffff"
         offset="1"
         id="stop418" /></radialGradient><clipPath
       clipPathUnits="userSpaceOnUse"
       id="clipPath464"><path
         d="m 3772.77,501.359 c -2.2,0 -4.35,0 -6.54,0 l 6.54,0 0,0 0,0 6.54,0 c -2.19,0 -4.34,0 -6.54,0"
         id="path466"
         inkscape:connector-curvature="0" /></clipPath><clipPath
       clipPathUnits="userSpaceOnUse"
       id="clipPath474"><path
         d="m 2493.18,501.359 2559.18,0 0,452.449 -2559.18,0 0,-452.449 z"
         id="path476"
         inkscape:connector-curvature="0" /></clipPath><clipPath
       clipPathUnits="userSpaceOnUse"
       id="clipPath484"><path
         d="m 3772.77,501.359 0,0 c -706.7,0 -1279.59,101.293 -1279.59,226.231 0,118.461 514.98,215.652 1170.73,225.422 3.12,0.039 6.26,0.09 9.39,0.129 0.34,0.011 0.67,0.011 1.01,0.011 l 0.01,0 c 3.47,0.047 7,0.098 10.47,0.137 8.4,0.102 16.76,0.18 25.2,0.262 3.54,0.031 7.03,0.051 10.57,0.078 17.3,0.121 34.74,0.18 52.21,0.18 706.7,0 1279.59,-101.278 1279.59,-226.219 0,-124.938 -572.89,-226.231 -1279.59,-226.231 l 0,0"
         id="path486"
         inkscape:connector-curvature="0" /></clipPath><radialGradient
       fx="0"
       fy="0"
       cx="0"
       cy="0"
       r="1"
       gradientUnits="userSpaceOnUse"
       gradientTransform="matrix(1279.42,0,0,-226.256,3772.77,727.59)"
       spreadMethod="pad"
       id="radialGradient488"><stop
         style="stop-opacity:1;stop-color:#868485"
         offset="0"
         id="stop490" /><stop
         style="stop-opacity:1;stop-color:#ffffff"
         offset="1"
         id="stop492" /></radialGradient></defs><sodipodi:namedview
     pagecolor="#ffffff"
     bordercolor="#666666"
     borderopacity="1"
     objecttolerance="10"
     gridtolerance="10"
     guidetolerance="10"
     inkscape:pageopacity="0"
     inkscape:pageshadow="2"
     inkscape:window-width="1568"
     inkscape:window-height="873"
     id="namedview4"
     showgrid="false"
     inkscape:zoom="1.78"
     inkscape:cx="89.98868"
     inkscape:cy="291.10837"
     inkscape:window-x="32"
     inkscape:window-y="0"
     inkscape:window-maximized="1"
     inkscape:current-layer="g12" /><g
     id="g10"
     inkscape:groupmode="layer"
     inkscape:label="ink_ext_XXXXXX"
     transform="matrix(1.25,0,0,-1.25,0,550)"><g
       id="g12"
       transform="scale(0.1,0.1)"><path
         d="m 1316.0537,-163.11154 c -2.2,0 -4.35,0 -6.54,0 l 6.54,0 6.54,0 c -2.19,0 -4.34,0 -6.54,0 m 1279.58,225.75 0,0.961 c 0.01,-0.16 0.01,-0.32 0.01,-0.48 0,-0.16 0,-0.32 -0.01,-0.481"
         style="fill:#ffffff;fill-opacity:1;fill-rule:nonzero;stroke:none"
         id="path104"
         inkscape:connector-curvature="0" /><g
         id="g106"
         transform="translate(-5711.6863,-664.47054)"><g
           id="g108"
           clip-path="url(#clipPath110)"><path
             d="m 7034.28,501.359 -6.54,0 c 706.69,0 1279.58,101.293 1279.58,226.231 l 0,-0.481 C 8305.86,602.77 7737.04,501.992 7034.28,501.359 m -6.54,0 -6.54,0 C 6317.54,501.992 5748.15,603.031 5748.15,727.59 l 0,0 c 0,-124.938 572.9,-226.231 1279.59,-226.231 M 8307.32,727.59 c 0,6.902 -1.74,13.711 -5.15,20.449 3.33,-6.578 5.08,-13.238 5.15,-19.969 l 0,-0.48 M 6918.87,953.012 c 3.47,0.051 6.95,0.097 10.42,0.14 -3.47,-0.043 -6.95,-0.089 -10.42,-0.14 m 20.88,0.277 c 8.39,0.102 16.77,0.18 25.21,0.262 -8.44,-0.082 -16.82,-0.16 -25.21,-0.262 m 35.77,0.34 c 17.34,0.121 34.71,0.18 52.22,0.18 l 0,0 c -17.51,0 -34.88,-0.059 -52.22,-0.18"
             style="fill:#ffffff;fill-opacity:1;fill-rule:nonzero;stroke:none"
             id="path114"
             inkscape:connector-curvature="0" /></g></g><path
         d="m 1868.9837,207.09946 c -86.64,29.102 -165.75,78.809 -228.34,143.47 -2.14,2.21 -4.29,4.46 -6.43,6.7 -3.05,-3.57 -6.25,-6.94 -9.65,-9.99 -129.2539,-1.35858 -191.938,-0.6215 -306.81,-1.91 -6.29,-16.578 -8.41,-34.61 -9.89,-52.328 -2.08,-24.961 -3.19,-49.992 -3.42,-75.032 -60.93,24.282 -123.6663,75.57018 -172.4063,118.35118 -131.2006,0.14921 -280.62258,8.63408 -348.73244,33.87778 -8.31,-18.191 -8.68123,-57.28696 -10.34123,-77.19696 -5.03,-60.301 -4.67,-121.032 1.09,-181.282 0.63,-6.628 1.74,-14.019 7.19,-18.109 3.7,-2.781 8.62,-3.402 13.28,-3.879 45.04,-4.66 90.43,-6.113 135.68997,-4.351 4.47,28.539 19.4,55.449 41.54,74.89 13.77,-30.633 30.19,-63.922 61.88,-77.371 14.62,-6.211 30.92,-7.379 46.85,-8.469 40.8,-2.781 81.6,-5.562 122.41,-8.339 68.57,-4.672 143.59,-7.18 204.35,18.91 19.29,-0.41 38.59,-0.371 57.87,0.379 4.47,28.539 19.4,55.449 41.53,74.89 13.78,-30.633 30.19,-63.922 61.89,-77.371 14.62,-6.211 30.92,-7.379 46.85,-8.469 40.8,-2.781 81.6,-5.562 122.4,-8.339 87.93,-5.993 186.55,-8.653 251.95,48.308 -1.69,26.379 -21.41,49.012 -44.69,62.969 -23.29,13.953 -50.17,20.992 -76.06,29.691"
         style="fill:#784421;fill-opacity:1;fill-rule:nonzero;stroke:none"
         id="path132"
         inkscape:connector-curvature="0"
         sodipodi:nodetypes="ccccccccccccccccccccccccccc" /><path
         d="m 1317.7537,345.36946 c 27.52,-18.36 61.84,-29.348 98.78,-33.399 65.36,-7.16 154.95,-12.429 208.03,35.309 3.4,3.05 6.6,6.42 9.65,9.99 51.34,60.04 56,189.30004 73.26,262.95004 48.45,206.87 96.9,413.75 145.35,620.63 11.5,49.11 23.03,98.52 32.86,148.4 -1.01,-0.69 -1.96,-1.44 -2.97,-2.13 -57.1,-38.99 -119.18,-71.24 -184.73,-96.98 -26.23,-10.29 -53,-19.54 -80.25,-27.76 -13.62,-4.11 -27.35,-7.97 -41.19,-11.57 -27.68,-7.19 -55.77,-13.37 -84.18,-18.54 -85.23,-15.51 -173.32,-21.95 -261.7,-19.73 -29.45,0.74 -58.94,2.45 -88.37,5.1 -14.71,1.33 -29.41,2.9 -44.08,4.7 -88.01,10.8 -175.02,30.08 -258.43997,57.45 l -0.01,0.01 c -13.52,4.43 -26.77,9.13 -39.88,13.96 -2.16,0.8 -4.34,1.58 -6.48,2.39 -12.65,4.74 -25.1,9.68 -37.37,14.79 -1.99,0.83 -3.98,1.68 -5.97,2.52 -12.73,5.39 -25.29,10.94 -37.61,16.71 l -0.24,0.11 c -12.94,6.06 -25.62,12.36 -38.1,18.83 l -1.86,0.95 c -12.32,6.43 -24.41,13.06 -36.29,19.87 l -2.34,1.35 c -36.88,21.26 -71.6,44.35 -104.14,69.07 l -0.03,0.01 0,0.01 c -30.99,23.55 -60.03,48.57 -87.07,74.91 37.16,-420.69 147.9,-719.83 266.45,-1120.23004 23.15,-18.91 48.99,-32.99 76.56,-43.61 96.14,-37.031 213.43997,-31.781 312.18997,-40.531 13.92,-1.238 28.92,-1.899 40.72,8.742 l 1.59,1.371 c 11.36,11.547 16.65,32.028 21.3,51.248 30.2,124.77004 60.39,249.53004 90.58,374.30004 7.46,-53.05 8.17,-107.44 8.15,-148.3 -0.04,-45.74 -5.08,-85.86 -5.15,-131.86004 -0.09,-55.88 24.86,-95.59 62.98,-121.04"
         style="fill:#2c3e50;fill-opacity:1;fill-rule:nonzero;stroke:none"
         id="path134"
         inkscape:connector-curvature="0" /><path
         d="m 449.56373,1443.4895 c 102.51,-97.71 232.75,-176.85 390.21,-228.51 342.37997,-112.34 745.02997,-88.21 1029.88997,98.87 20.4,90.78 38.03,182.85 42.12,277.4 -14.51,-14.95 -88.16,-58.72 -72.17,-58.81 -176.2,-79.12 -362.08,-116.99 -547.32,-111.52 2.29,-17.32 4.34,-34.41 6.28,-51.4 -280.48,120.61 -570.20997,194.07 -861.81997,218.14 3.27,-49.73 7.61,-97.61 12.81,-144.17"
         style="fill:#784421;fill-opacity:1;fill-rule:nonzero;stroke:none"
         id="path136"
         inkscape:connector-curvature="0" /><path
         d="m 1573.7237,2978.9095 c -2.35,-7.97 -7.19,-19.48 -13.64,-32.45 56.08,-46.01 114.63,-89.65 176.14,-129.5 33.52,-21.72 65.89,-45.22 97,-70.21 -45.14,92.06 -126.84,187.44 -250.49,270.05 -0.9,-9.06 -4.04,-20.93 -9.01,-37.89"
         style="fill:#ecbc8f;fill-opacity:1;fill-rule:nonzero;stroke:none"
         id="path138"
         inkscape:connector-curvature="0" /><path
         d="m 1004.3437,3276.8695 c 8.13,0.6 16.27,1.17 24.39,1.67 -8.12,-0.5 -16.26,-1.07 -24.39,-1.67"
         style="fill:#772c98;fill-opacity:1;fill-rule:nonzero;stroke:none"
         id="path140"
         inkscape:connector-curvature="0" /><path
         d="m 2155.1937,1709.7195 c -3.33,-7.6 -6.86,-15.15 -10.47,-22.67 3.62,7.52 7.13,15.07 10.47,22.67"
         style="fill:#772c98;fill-opacity:1;fill-rule:nonzero;stroke:none"
         id="path142"
         inkscape:connector-curvature="0" /><path
         d="m 2168.1537,1741.3795 c -3.14,-8.24 -6.48,-16.42 -9.94,-24.56 3.46,8.14 6.79,16.33 9.94,24.56"
         style="fill:#772c98;fill-opacity:1;fill-rule:nonzero;stroke:none"
         id="path144"
         inkscape:connector-curvature="0" /><path
         d="m 2189.6937,1807.0295 c -2.7,-9.8 -5.62,-19.55 -8.74,-29.25 3.12,9.7 6.04,19.45 8.74,29.25"
         style="fill:#772c98;fill-opacity:1;fill-rule:nonzero;stroke:none"
         id="path146"
         inkscape:connector-curvature="0" /><path
         d="m 736.05373,3230.2195 c 16.51,5.3 33.33,10.05 50.41,14.32 -17.08,-4.27 -33.9,-9.02 -50.41,-14.32"
         style="fill:#772c98;fill-opacity:1;fill-rule:nonzero;stroke:none"
         id="path148"
         inkscape:connector-curvature="0" /><path
         d="m 2054.2337,1544.7495 c -3.14,-3.88 -6.17,-7.87 -9.38,-11.69 3.21,3.81 6.24,7.81 9.38,11.69"
         style="fill:#772c98;fill-opacity:1;fill-rule:nonzero;stroke:none"
         id="path150"
         inkscape:connector-curvature="0" /><path
         d="m 2044.8537,1533.0595 c -6.45,-7.66 -13.12,-15.11 -19.84,-22.49 6.72,7.39 13.39,14.82 19.84,22.49"
         style="fill:#772c98;fill-opacity:1;fill-rule:nonzero;stroke:none"
         id="path152"
         inkscape:connector-curvature="0" /><path
         d="m 2067.6037,1561.4195 c -4.34,-5.68 -8.89,-11.14 -13.37,-16.67 4.48,5.53 9.03,10.99 13.37,16.67"
         style="fill:#772c98;fill-opacity:1;fill-rule:nonzero;stroke:none"
         id="path154"
         inkscape:connector-curvature="0" /><path
         d="m 1882.7137,1387.1195 c 40.47,27.64 78.42,58.69 113.36,93.18 -34.08,-33.62 -71.05,-63.93 -110.39,-91.05 -1.01,-0.69 -1.96,-1.44 -2.97,-2.13"
         style="fill:#772c98;fill-opacity:1;fill-rule:nonzero;stroke:none"
         id="path156"
         inkscape:connector-curvature="0" /><path
         d="m 2089.2037,1591.1495 c -6.99,-10.13 -14.2,-20.03 -21.6,-29.73 7.4,9.7 14.61,19.6 21.6,29.73"
         style="fill:#772c98;fill-opacity:1;fill-rule:nonzero;stroke:none"
         id="path158"
         inkscape:connector-curvature="0" /><path
         d="m 2025.0137,1510.5695 c -1.36,-1.49 -2.65,-3.05 -4.01,-4.53 1.36,1.47 2.65,3.04 4.01,4.53"
         style="fill:#772c98;fill-opacity:1;fill-rule:nonzero;stroke:none"
         id="path160"
         inkscape:connector-curvature="0" /><path
         d="m 1996.3237,1480.5595 -0.25,-0.26 0.25,0.26"
         style="fill:#772c98;fill-opacity:1;fill-rule:nonzero;stroke:none"
         id="path162"
         inkscape:connector-curvature="0" /><path
         d="m 2021.0037,1506.0395 c -8.05,-8.7 -16.27,-17.19 -24.68,-25.48 8.4,8.3 16.64,16.78 24.68,25.48"
         style="fill:#772c98;fill-opacity:1;fill-rule:nonzero;stroke:none"
         id="path164"
         inkscape:connector-curvature="0" /><path
         d="m 2140.8037,1678.8595 c -3.55,-7.16 -7.32,-14.25 -11.13,-21.32 3.82,7.07 7.57,14.16 11.13,21.32"
         style="fill:#772c98;fill-opacity:1;fill-rule:nonzero;stroke:none"
         id="path166"
         inkscape:connector-curvature="0" /><path
         d="m 2125.0137,1648.8195 c -3.98,-7.14 -8.2,-14.19 -12.45,-21.23 4.26,7.04 8.46,14.09 12.45,21.23"
         style="fill:#772c98;fill-opacity:1;fill-rule:nonzero;stroke:none"
         id="path168"
         inkscape:connector-curvature="0" /><path
         d="m 2179.6637,1773.8295 c -2.94,-8.98 -6.09,-17.91 -9.39,-26.79 3.31,8.88 6.44,17.81 9.39,26.79"
         style="fill:#772c98;fill-opacity:1;fill-rule:nonzero;stroke:none"
         id="path170"
         inkscape:connector-curvature="0" /><path
         d="m 949.1737,3272.0095 c 16.75,1.74 33.54,3.23 50.3,4.5 -16.76,-1.27 -33.55,-2.76 -50.3,-4.5"
         style="fill:#772c98;fill-opacity:1;fill-rule:nonzero;stroke:none"
         id="path172"
         inkscape:connector-curvature="0" /><path
         d="m 1059.0337,3280.2395 c 8.02,0.4 16.03,0.79 24,1.12 -7.97,-0.33 -15.98,-0.72 -24,-1.12"
         style="fill:#772c98;fill-opacity:1;fill-rule:nonzero;stroke:none"
         id="path174"
         inkscape:connector-curvature="0" /><path
         d="m 840.15373,3256.3095 c 17.07,3.25 34.3,6.11 51.65,8.61 -17.35,-2.51 -34.58,-5.36 -51.65,-8.61"
         style="fill:#772c98;fill-opacity:1;fill-rule:nonzero;stroke:none"
         id="path176"
         inkscape:connector-curvature="0" /><path
         d="m 894.29373,3265.2795 c 16.99997,2.42 34.10997,4.53 51.25997,6.35 -17.15,-1.82 -34.25,-3.93 -51.25997,-6.35"
         style="fill:#772c98;fill-opacity:1;fill-rule:nonzero;stroke:none"
         id="path178"
         inkscape:connector-curvature="0" /><path
         d="m 1028.9137,3278.5595 c 8.2,0.51 16.38,0.96 24.54,1.39 -8.16,-0.43 -16.34,-0.88 -24.54,-1.39"
         style="fill:#772c98;fill-opacity:1;fill-rule:nonzero;stroke:none"
         id="path180"
         inkscape:connector-curvature="0" /><path
         d="m 787.27373,3244.7395 c 16.9,4.21 34.05,7.95 51.38,11.28 -17.33,-3.32 -34.47,-7.07 -51.38,-11.28"
         style="fill:#772c98;fill-opacity:1;fill-rule:nonzero;stroke:none"
         id="path182"
         inkscape:connector-curvature="0" /><path
         d="m 2198.2237,1840.9295 -0.08,0.08 c -0.24,-1.04 -0.44,-2.08 -0.68,-3.12 0.23,1.02 0.53,2.02 0.76,3.04"
         style="fill:#772c98;fill-opacity:1;fill-rule:nonzero;stroke:none"
         id="path184"
         inkscape:connector-curvature="0" /><path
         d="m 2188.9537,2223.6195 c -10.87,-9.88 -22.5,-18.85 -33.67,-22.65 -28.93,-9.83 -61.22,-16.3 -93.67,-19.08 -13.71,-1.18 -30.85,-0.81 -31.41,23.61 -0.79,34.76 34.96,36.12 51.91,48.85 -17.36,-0.55 -79.99,-36.39 -95.1,-5.33 -18.65,38.34 64.94,43.04 74.86,54.13 -13.49,3.43 -30.43,4.25 -45.25,7.08 -13.33,2.54 -44.15,-7.69 -57.13,10.26 -25.23,34.9 67.97,49.54 79.62,48.66 -20.31,19.23 -129.37,31.39 -122.51,73.34 4.13,25.28 42.11,23.41 62.15,18.72 19.82,-4.64 39.07,-8.52 58.62,-11.99 12.73,-2.26 38.89,-8.56 50.07,-6.56 -15.98,19.35 -43.63,48.84 -56.11,71.59 -12.12,22.1 -6.34,26.79 4.7,23.77 -57.85,76.8 -126.41,147.37 -202.81,208.73 -31.11,24.99 -63.48,48.49 -97,70.21 -61.51,39.85 -120.06,83.49 -176.14,129.5 6.45,12.97 11.29,24.48 13.64,32.45 4.97,16.96 8.11,28.83 9.01,37.89 2.72,27.05 -14.44,28.9 -61.69,65.6 -35.77,27.77 -60.05,57.78 -92.4,90.88 -62.36,63.79 -172.29,125.75 -267.63,122.21 -0.61,-6.37 -0.9,-12.58 -1.18,-18.79 -14.88,2.78 -31.12,4.42 -48.93,4.87 87.67,-56.4 107.65,-173.5 92.21,-270.19 -8.42,-64.94 -92.63,-105.53 -160.01,-89.3 -158.37997,46.46 -294.19997,147.21 -379.91997,280.01 23.28,10.72 47.53,19.99 72.5,28.01 -10.06,-3.23 -20,-6.68 -29.81,-10.33 l -20.7,15.54 c -171.1,-22.01 -320.28,-178.95 -390.58,-325.67 -29.46,-61.49 -103.8,-246.25 -68.23,-297.97 4.75,-6.91 12.06,-13.41 21.25,-19.53 67.77,-45.15 240.95,-69.16 296.38,-77.35 21.61,-3.19 39.19,-6.76 54.34,-8.78 -2.62,-38.82 -4.67,-77.58 -8.37,-114.16 -4.18,-41.27 -18.9,-69.4 -24.78,-109.83 -6.37,-43.73 -23.14,-105.95 -21.6,-148.18 53.55,9.35 242.64,53.9 295.03,83.12 13.48,31.43 15.66,69.74 31.59,102.63 11.28,23.31 49.28997,60.74 52.95997,16.26 1.96,-23.82 4.03,-56.89 -1.24,-79.73 16.06,3.81 30.51,18 45.19,25.9 22.55,12.14 44.39,24.44 66.36,37.62 22.21,13.33 69.89,33.09 95.37,15.28 42.28,-29.54 -89.23,-91.6 -100.21,-116.43 14.38,6.29 146.7,39.72 141.83,0.24 -2.51,-20.31 -50.56,-27.14 -65.79,-35.55 -16.94,-9.36 -38.22,-18.16 -52.94,-27.35 21.66,-3.9 133.62,32.68 140.01,-6.32 5.18,-31.6 -104.45,-33.71 -127.36,-41.64 32.09,-1.8 79.44,14.36 106.09,-13.25 18.73,-19.39 -3.16,-27.93 -21.85,-33.62 -44.23,-13.45 -91.18,-23.93 -136.46,-30.17 -29.84,-4.11 -60.06,-1.39 -89.62,2.14 0.87,-1.37 1.72,-2.75 2.59,-4.11 -39.10997,-14.38 -212.16997,-80.67 -254.61997,-97.42 -84.37,-33.29 -162.84,-88.85 -254.04,-61.85 -79.71,23.61 -151.49,83.76 -174.46,173.78 -24.93,97.69 -20.65,212.76 -15.69,315.15 2.83,58.48 3.34,118.07 10.87,175.83 -6.51,-18.22 -12.83,-36.49 -18.81,-54.85 -111.56,-342.68 -33.86,-713.05 224,-964.22 27.04,-26.34 56.08,-51.36 87.07,-74.91 191.79,320.56 632.49997,398.97 981.10997,489.6 205.77,51.45 535.38,61.55 687.58,-88.96 28.31,125.4 23.82,256.88 -9.19,382.61"
         style="fill:#96281b;fill-opacity:1;fill-rule:nonzero;stroke:none"
         id="path186"
         inkscape:connector-curvature="0" /><path
         d="m 2197.4637,1837.8895 c -2.22,-9.64 -4.59,-19.25 -7.19,-28.81 2.61,9.56 4.97,19.17 7.19,28.81"
         style="fill:#772c98;fill-opacity:1;fill-rule:nonzero;stroke:none"
         id="path188"
         inkscape:connector-curvature="0" /><path
         d="m 1097.3137,3281.7295 c 4.66,0.04 9.13,-0.05 13.59,-0.16 l -0.08,0.05 c -4.41,0.11 -8.91,0.14 -13.51,0.11"
         style="fill:#772c98;fill-opacity:1;fill-rule:nonzero;stroke:none"
         id="path190"
         inkscape:connector-curvature="0" /><path
         d="m 674.11373,1349.1095 c 12.48,-6.47 25.16,-12.77 38.1,-18.83 -12.93,6.07 -25.62,12.36 -38.1,18.83"
         style="fill:#772c98;fill-opacity:1;fill-rule:nonzero;stroke:none"
         id="path192"
         inkscape:connector-curvature="0" /><path
         d="m 635.96373,1369.9295 c 11.88,-6.81 23.97,-13.44 36.29,-19.87 -12.32,6.43 -24.41,13.06 -36.29,19.87"
         style="fill:#772c98;fill-opacity:1;fill-rule:nonzero;stroke:none"
         id="path194"
         inkscape:connector-curvature="0" /><path
         d="m 712.45373,1330.1695 c 12.31,-5.77 24.88,-11.32 37.61,-16.71 -12.73,5.4 -25.3,10.93 -37.61,16.71"
         style="fill:#772c98;fill-opacity:1;fill-rule:nonzero;stroke:none"
         id="path196"
         inkscape:connector-curvature="0" /><path
         d="m 529.48373,1440.3495 c 32.54,-24.72 67.26,-47.81 104.14,-69.07 -36.87,21.27 -71.6,44.35 -104.14,69.07"
         style="fill:#772c98;fill-opacity:1;fill-rule:nonzero;stroke:none"
         id="path198"
         inkscape:connector-curvature="0" /><path
         d="m 799.88373,1293.7595 c 13.11,-4.83 26.36,-9.53 39.88,-13.96 -13.52,4.43 -26.77,9.13 -39.88,13.96"
         style="fill:#772c98;fill-opacity:1;fill-rule:nonzero;stroke:none"
         id="path200"
         inkscape:connector-curvature="0" /><path
         d="m 756.03373,1310.9395 c 12.27,-5.11 24.72,-10.05 37.37,-14.79 -12.65,4.74 -25.1,9.68 -37.37,14.79"
         style="fill:#772c98;fill-opacity:1;fill-rule:nonzero;stroke:none"
         id="path202"
         inkscape:connector-curvature="0" /><path
         d="m 1640.4537,1379.8695 c 2.26,26.72 25.8,66.47 36.24,83.35 10.31,2.69 15.22,5.35 25.45,4.35 20.31,-39.92 -12.33,-110.63 -61.69,-87.7 z m -129.89,550.1 c -348.61,-90.63 -789.31997,-169.04 -981.10997,-489.6 l 0,-0.01 0.03,-0.01 c 32.54,-24.72 67.27,-47.8 104.14,-69.07 l 2.34,-1.35 c 11.88,-6.81 23.97,-13.44 36.29,-19.87 l 1.86,-0.95 c 12.48,-6.47 25.17,-12.76 38.1,-18.83 l 0.24,-0.11 c 12.31,-5.78 24.89,-11.31 37.61,-16.71 1.99,-0.84 3.98,-1.69 5.97,-2.52 12.27,-5.11 24.72,-10.05 37.37,-14.79 2.14,-0.81 4.32,-1.59 6.48,-2.39 13.11,-4.83 26.36,-9.53 39.88,-13.96 l 0.01,-0.01 c 83.41997,-27.37 170.42997,-46.65 258.43997,-57.45 14.67,-1.8 29.37,-3.37 44.08,-4.7 29.43,-2.65 58.92,-4.36 88.37,-5.1 88.38,-2.22 176.47,4.22 261.7,19.73 28.41,5.17 56.5,11.35 84.18,18.54 13.84,3.6 27.57,7.46 41.19,11.57 27.25,8.22 54.02,17.47 80.25,27.76 65.55,25.74 127.63,57.99 184.73,96.98 79.94,54.59 150.14,122.39 206.49,204.03 6.47,9.37 12.65,18.86 18.61,28.44 1.64,2.64 3.15,5.34 4.75,8 4.25,7.04 8.47,14.09 12.45,21.23 1.61,2.89 3.09,5.81 4.66,8.72 3.81,7.07 7.58,14.16 11.13,21.32 1.35,2.72 2.61,5.46 3.92,8.19 3.61,7.52 7.14,15.07 10.47,22.67 1.03,2.36 2.01,4.73 3.02,7.1 3.45,8.14 6.8,16.32 9.94,24.56 0.72,1.88 1.41,3.77 2.12,5.66 3.3,8.88 6.45,17.81 9.39,26.79 0.43,1.32 0.86,2.63 1.29,3.95 3.12,9.7 6.04,19.45 8.74,29.25 l 0.58,2.05 c 2.88,10.57 5.54,21.19 7.95,31.85 -152.16,150.59 -481.86,140.5 -687.66,89.04"
         style="fill:#ecbc8f;fill-opacity:1;fill-rule:nonzero;stroke:none"
         id="path204"
         inkscape:connector-curvature="0" /><path
         d="m 1676.6937,1463.2195 c -10.44,-16.88 -33.98,-56.63 -36.24,-83.35 49.36,-22.93 82,47.78 61.69,87.7 -10.23,1 -15.14,-1.66 -25.45,-4.35"
         style="fill:#daad84;fill-opacity:1;fill-rule:nonzero;stroke:none"
         id="path206"
         inkscape:connector-curvature="0" /><path
         d="m 1191.7437,2149.5095 c -6.39,39 -118.35,2.42 -140.01,6.32 14.72,9.19 36,17.99 52.94,27.35 15.23,8.41 63.28,15.24 65.79,35.55 4.87,39.48 -127.45,6.05 -141.83,-0.24 10.98,24.83 142.49,86.89 100.21,116.43 -25.48,17.81 -73.16,-1.95 -95.37,-15.28 -21.97,-13.18 -43.81,-25.48 -66.36,-37.62 -14.68,-7.9 -29.13,-22.09 -45.19,-25.9 5.27,22.84 3.2,55.91 1.24,79.73 -3.67,44.48 -41.67997,7.05 -52.95997,-16.26 -15.93,-32.89 -18.11,-71.2 -31.59,-102.63 -52.39,-29.22 -241.48,-73.77 -295.03,-83.12 -1.54,42.23 15.23,104.45 21.6,148.18 5.88,40.43 20.6,68.56 24.78,109.83 3.7,36.58 5.75,75.34 8.37,114.16 -15.15,2.02 -32.73,5.59 -54.34,8.78 -55.43,8.19 -228.61,32.2 -296.38,77.35 -4.52,-18.98 -7.88,-38.28 -10.42,-57.79 -7.53,-57.76 -8.04,-117.35 -10.87,-175.83 -4.96,-102.39 -9.24,-217.46 15.69,-315.15 22.97,-90.02 94.75,-150.17 174.46,-173.78 91.2,-27 169.67,28.56 254.04,61.85 42.45,16.75 215.51,83.04 254.61997,97.42 -0.87,1.36 -1.72,2.74 -2.59,4.11 29.56,-3.53 59.78,-6.25 89.62,-2.14 45.28,6.24 92.23,16.72 136.46,30.17 18.69,5.69 40.58,14.23 21.85,33.62 -26.65,27.61 -74,11.45 -106.09,13.25 22.91,7.93 132.54,10.04 127.36,41.64"
         style="fill:#ecbc8f;fill-opacity:1;fill-rule:nonzero;stroke:none"
         id="path208"
         inkscape:connector-curvature="0" /><path
         d="m 2030.2037,2205.4995 c 0.56,-24.42 17.7,-24.79 31.41,-23.61 32.45,2.78 64.74,9.25 93.67,19.08 11.17,3.8 22.8,12.77 33.67,22.65 10.07,9.14 19.49,19.05 27.3,26.37 18.21,17.09 -40.51,144 -53.07,164.41 -28.51,46.57 -52.52,66.58 -92.91,103.04 -9.4,8.49 -24.05,17.8 -34.24,20.58 -11.04,3.02 -16.82,-1.67 -4.7,-23.77 12.48,-22.75 40.13,-52.24 56.11,-71.59 -11.18,-2 -37.34,4.3 -50.07,6.56 -19.55,3.47 -38.8,7.35 -58.62,11.99 -20.04,4.69 -58.02,6.56 -62.15,-18.72 -6.86,-41.95 102.2,-54.11 122.51,-73.34 -11.65,0.88 -104.85,-13.76 -79.62,-48.66 12.98,-17.95 43.8,-7.72 57.13,-10.26 14.82,-2.83 31.76,-3.65 45.25,-7.08 -9.92,-11.09 -93.51,-15.79 -74.86,-54.13 15.11,-31.06 77.74,4.78 95.1,5.33 -16.95,-12.73 -52.7,-14.09 -51.91,-48.85"
         style="fill:#ecbc8f;fill-opacity:1;fill-rule:nonzero;stroke:none"
         id="path210"
         inkscape:connector-curvature="0" /><path
         d="m 1097.3137,3281.7295 c -4.65,-0.04 -9.4,-0.16 -14.28,-0.37 -7.97,-0.33 -15.98,-0.72 -24,-1.12 -1.86,-0.1 -3.72,-0.19 -5.58,-0.29 -8.16,-0.43 -16.34,-0.88 -24.54,-1.4 l -0.18,-0.01 c -8.12,-0.5 -16.25,-1.07 -24.39,-1.67 -1.63,-0.12 -3.24,-0.24 -4.87,-0.36 -16.76,-1.27 -33.55,-2.76 -50.3,-4.5 -1.21,-0.13 -2.42,-0.25 -3.62,-0.38 -17.15,-1.83 -34.25,-3.93 -51.25997,-6.35 l -2.49,-0.36 c -17.35,-2.51 -34.58,-5.36 -51.65,-8.61 l -1.5,-0.29 c -17.33,-3.33 -34.48,-7.07 -51.38,-11.28 l -0.81,-0.2 c -17.08,-4.27 -33.9,-9.02 -50.41,-14.32 l -0.37,-0.12 c -24.97,-8.02 -49.22,-17.29 -72.5,-28.01 85.72,-132.8 221.54,-233.55 379.91997,-280.01 67.38,-16.23 151.59,24.36 160.01,89.3 15.45,96.72 -4.55,213.86 -92.29,270.24 -4.41,0.11 -8.91,0.14 -13.51,0.11"
         style="fill:#ecbc8f;fill-opacity:1;fill-rule:nonzero;stroke:none"
         id="path212"
         inkscape:connector-curvature="0" /><path
         d="m 1083.0337,3280.8295 c -143.57,-6.34 -295.44997,-22.83 -419.84997,-82.25 23.08,-37.11 49.92,-71.71 79.73,-103.54 70.61,-60.76 164.09997,-95.56 257.28997,-89.96 10.06,0.6 20.15,1.75 30.19,3.33 63.8,5.59 129.25,29.06 177.23,65.47 -2.29,80.83 -29.68,162.46 -96.8,207.21 -8.86,0.22 -18.08,0.17 -27.79,-0.26"
         style="fill:#daad84;fill-opacity:1;fill-rule:nonzero;stroke:none"
         id="path214"
         inkscape:connector-curvature="0" /><path
         d="m 457.42373,3364.1395 c -2.07,-10.26 0.17,-20.94 3.68,-30.81 22.08,-62.18 100.5,-97.33 161.6,-72.42 57.94,-134.64 205.1,-225.32 351.40997,-216.53 10.07,0.6 20.16,1.75 30.2,3.33 92.35,8.1 188.23,53.62 229.44,121.72 54.88,90.71 51.88,267.05 -25.47,351.78 -15.43,86.93 -45.9,171.19 -90.55,247.37 -36.37,62.03 -85.31,121.41 -152.95,145.86 -35.63,12.87 -74.28997,15.19 -112.11997,13.03 -86.24,-4.92 -172.35,-33.57 -238.94,-88.59 -66.6,-55.02 -111.95,-137.6 -113.99,-223.96 -1.76,-74.73 27.52,-146.27 56.29,-215.26 -38.34,5.86 -90.95,2.52 -98.6,-35.52"
         style="fill:#ecbc8f;fill-opacity:1;fill-rule:nonzero;stroke:none"
         id="path216"
         inkscape:connector-curvature="0" /><path
         d="m 672.52373,3624.6195 c 109.46,20.23 209.19,-3.55 315.20997,41.98 136.05,58.43 271.69,209.1 250.01,366.73 -12.94,94.07 -103.1,185.95 -198.03,206.55 -167.03997,36.27 -245.93997,-107.52 -324.43997,-223.05 -20.71,-30.47 -34.6,-59.92 -73.62,-53.2 -30.53,5.26 -54.62,20.89 -87.09,19.65 -69.6,-2.66 -118.92,-26.86 -159.81,-84.78 -58.86,-83.38 -35.93,-204.09 -3.1,-294.21 27.34,-75.03 35.9,-167.21 109.22,-204.7 22.53,-11.52 75.65,-0.33 95.86,-16.45 14.27,-11.38 37.61,-48.1 55.1,-40.76 -8.23,61.71 -40.8,114.84 -62.75,172.7 -25.79,67.98 18.18,97.48 83.44,109.54"
         style="fill:#784421;fill-opacity:1;fill-rule:nonzero;stroke:none"
         id="path218"
         inkscape:connector-curvature="0" /><path
         d="m 1037.4837,3119.7295 c 99.67,19.53 134.07,124.43 106.68,193.62 -113.72,-33.61 -195.71,-45.39 -319.17997,-49.88 1.9,-78.24 69.78,-171.72 212.49997,-143.74"
         style="fill:#96281b;fill-opacity:1;fill-rule:nonzero;stroke:none"
         id="path220"
         inkscape:connector-curvature="0" /><path
         d="m 1037.4837,3119.7295 c 55.42,10.86 90.62,48.12 106.29,90.95 -89.25,24.71 -186.12,-5.08 -253.77997,-67.68 34.68997,-23.93 83.55997,-35.8 147.48997,-23.27"
         style="fill:#f4f4f4;fill-opacity:0.34016395;fill-rule:nonzero;stroke:none"
         id="path222"
         inkscape:connector-curvature="0" /><path
         d="m 608.40373,3928.0895 -0.74,-1.19 c 3.08,-0.44 4.09,-0.26 0.74,1.19"
         style="fill:#6d321c;fill-opacity:1;fill-rule:nonzero;stroke:none"
         id="path224"
         inkscape:connector-curvature="0" /></g></g></svg>