<?xml version="1.0" encoding="UTF-8" standalone="no"?>
<svg
   xmlns:dc="http://purl.org/dc/elements/1.1/"
   xmlns:cc="http://creativecommons.org/ns#"
   xmlns:rdf="http://www.w3.org/1999/02/22-rdf-syntax-ns#"
   xmlns:svg="http://www.w3.org/2000/svg"
   xmlns="http://www.w3.org/2000/svg"
   xmlns:sodipodi="http://sodipodi.sourceforge.net/DTD/sodipodi-0.dtd"
   xmlns:inkscape="http://www.inkscape.org/namespaces/inkscape"
   enable-background="new 0 0 91 91"
   height="91px"
   id="Layer_1"
   version="1.1"
   viewBox="0 0 91 91"
   width="91px"
   xml:space="preserve"
   inkscape:version="0.91 r13725"
   sodipodi:docname="if_Food_C237_2427879.svg"><metadata
     id="metadata41"><rdf:RDF><cc:Work
         rdf:about=""><dc:format>image/svg+xml</dc:format><dc:type
           rdf:resource="http://purl.org/dc/dcmitype/StillImage" /></cc:Work></rdf:RDF></metadata><defs
     id="defs39" /><sodipodi:namedview
     pagecolor="#ffffff"
     bordercolor="#666666"
     borderopacity="1"
     objecttolerance="10"
     gridtolerance="10"
     guidetolerance="10"
     inkscape:pageopacity="0"
     inkscape:pageshadow="2"
     inkscape:window-width="1920"
     inkscape:window-height="1053"
     id="namedview37"
     showgrid="false"
     inkscape:zoom="7.3352615"
     inkscape:cx="60.800296"
     inkscape:cy="37.770706"
     inkscape:window-x="1920"
     inkscape:window-y="0"
     inkscape:window-maximized="1"
     inkscape:current-layer="g7" /><g
     id="g3"><g
       id="g5"><g
         id="g7"><path
           d="M85.534,81.75L51.396,41.322c-3.153-3.151-8.26-3.149-11.408,0L5.964,81.637"
           fill="#B1E1F8"
           id="path9"
           style="fill:#ffffff;fill-opacity:1" /><path
           d="M85.534,83.986c-0.635,0-1.267-0.27-1.707-0.793l-34.073-40.35c-1.096-1.064-2.535-1.648-4.063-1.648     s-2.966,0.584-4.058,1.646L7.671,83.078c-0.797,0.943-2.206,1.064-3.149,0.268s-1.063-2.207-0.268-3.15L38.281,39.88     c0.041-0.048,0.083-0.092,0.127-0.137c1.944-1.948,4.53-3.019,7.282-3.021c2.751,0,5.34,1.072,7.286,3.019     c0.044,0.044,0.087,0.09,0.127,0.139l34.139,40.428c0.797,0.943,0.678,2.355-0.266,3.15     C86.557,83.814,86.045,83.986,85.534,83.986z"
           fill="#434B56"
           id="path11"
           style="fill:#2c3e50;fill-opacity:1" /></g><path
         d="M53.817,84.047H2.472c-1.234,0-2.235-0.998-2.235-2.234c0-1.234,1.001-2.234,2.235-2.234h51.346    c1.234,0,2.235,1,2.235,2.234C56.053,83.049,55.052,84.047,53.817,84.047z"
         fill="#434B56"
         id="path13"
         style="fill:#2c3e50;fill-opacity:1" /><path
         d="M64.201,84.047h-1.467c-1.235,0-2.234-0.998-2.234-2.234c0-1.234,0.999-2.234,2.234-2.234h1.467    c1.236,0,2.235,1,2.235,2.234C66.437,83.049,65.438,84.047,64.201,84.047z"
         fill="#434B56"
         id="path15"
         style="fill:#2c3e50;fill-opacity:1" /><path
         d="M88.671,84.047H71.975c-1.234,0-2.235-0.998-2.235-2.234c0-1.234,1.001-2.234,2.235-2.234h16.696    c1.235,0,2.234,1,2.234,2.234C90.905,83.049,89.906,84.047,88.671,84.047z"
         fill="#434B56"
         id="path17"
         style="fill:#2c3e50;fill-opacity:1" /><path
         d="M49.567,63.365c-1.236,0-2.247-1.002-2.247-2.236s0.99-2.234,2.224-2.234h0.023    c1.233,0,2.234,1,2.234,2.234S50.801,63.365,49.567,63.365z M42.207,63.365c-1.234,0-2.245-1.002-2.245-2.236    s0.989-2.234,2.223-2.234h0.021c1.236,0,2.235,1,2.235,2.234S43.442,63.365,42.207,63.365z M34.847,63.365    c-1.234,0-2.247-1.002-2.247-2.236s0.989-2.234,2.225-2.234h0.021c1.236,0,2.235,1,2.235,2.234S36.083,63.365,34.847,63.365z"
         fill="#434B56"
         id="path19"
         style="fill:#2c3e50;fill-opacity:1" /><path
         d="M53.266,57.104c-1.234,0-2.245-1-2.245-2.236c0-1.234,0.989-2.234,2.224-2.234h0.021    c1.235,0,2.234,1,2.234,2.234C55.5,56.104,54.501,57.104,53.266,57.104z M45.906,57.104c-1.233,0-2.246-1-2.246-2.236    c0-1.234,0.99-2.234,2.225-2.234h0.021c1.236,0,2.235,1,2.235,2.234C48.141,56.104,47.142,57.104,45.906,57.104z"
         fill="#434B56"
         id="path21"
         style="fill:#2c3e50;fill-opacity:1" /><path
         d="M39.613,55.008h-0.021c-1.236,0-2.235-1-2.235-2.234c0-1.236,0.999-2.234,2.235-2.234    c1.234,0,2.247,0.998,2.247,2.234C41.839,54.008,40.849,55.008,39.613,55.008z"
         fill="#434B56"
         id="path23"
         style="fill:#2c3e50;fill-opacity:1" /><path
         d="M44.058,49.789c-1.234,0-2.246-1-2.246-2.234c0-1.236,0.989-2.235,2.225-2.235h0.021    c1.235,0,2.235,0.999,2.235,2.235C46.293,48.789,45.293,49.789,44.058,49.789z"
         fill="#434B56"
         id="path25"
         style="fill:#2c3e50;fill-opacity:1" /><path
         d="M59.67,64.402c-1.234,0-2.247-1-2.247-2.234c0-1.236,0.99-2.236,2.226-2.236h0.021    c1.235,0,2.235,1,2.235,2.236C61.905,63.402,60.905,64.402,59.67,64.402z"
         fill="#434B56"
         id="path27"
         style="fill:#2c3e50;fill-opacity:1" /><path
         d="M26.51,72.715c-1.234,0-2.247-1.002-2.247-2.234c0-1.236,0.989-2.236,2.225-2.236h0.021    c1.236,0,2.235,1,2.235,2.236C28.745,71.713,27.746,72.715,26.51,72.715z"
         fill="#434B56"
         id="path29"
         style="fill:#2c3e50;fill-opacity:1" /><path
         d="M49.853,27.849c-1.234,0-2.235-1-2.235-2.235c0-1.234,1.001-2.247,2.235-2.247    c1.235,0,2.234,0.99,2.234,2.226v0.021C52.087,26.85,51.088,27.849,49.853,27.849z"
         fill="#434B56"
         id="path31"
         style="fill:#2c3e50;fill-opacity:1" /><path
         d="M45.692,11.434c-1.236,0-2.235-1.001-2.235-2.235c0-1.236,0.999-2.247,2.235-2.247    c1.233,0,2.234,0.989,2.234,2.224v0.023C47.927,10.433,46.926,11.434,45.692,11.434z"
         fill="#434B56"
         id="path33"
         style="fill:#2c3e50;fill-opacity:1" /><path
         d="M42.953,32.893c-1.236,0-2.235-1.001-2.235-2.235c0-1.236,0.999-2.247,2.235-2.247    c1.234,0,2.235,0.989,2.235,2.225v0.021C45.188,31.892,44.188,32.893,42.953,32.893z M42.953,25.533    c-1.236,0-2.235-1.001-2.235-2.235c0-1.236,0.999-2.247,2.235-2.247c1.234,0,2.235,0.989,2.235,2.223v0.023    C45.188,24.532,44.188,25.533,42.953,25.533z"
         fill="#434B56"
         id="path35"
         style="fill:#2c3e50;fill-opacity:1" /></g></g></svg>